<svg width="1440" height="331" viewBox="0 0 1440 331" fill="none" xmlns="http://www.w3.org/2000/svg">
<g opacity="0.7">
<path d="M1605.07 280.612C1621.05 264.763 1619.35 244.249 1607.68 227.11C1596.01 209.972 1575.55 195.555 1554.73 181.858C1527.21 163.748 1497.57 145.938 1460.48 135.589C1408.78 121.166 1348.74 122.882 1292.29 127.852C1192.06 136.68 1094.68 154.766 999.98 176.277C898.463 199.337 794.949 226.896 686.523 223.21C589.222 219.903 522.845 191.47 452.59 154.828C387.066 120.652 332.866 76.5645 251.555 54.2055C144.862 24.8661 13.5362 39.9556 -81.3996 81.2714C-176.335 122.587 -238.141 186.585 -273.476 253.507" stroke="url(#paint0_linear_431_8685)" stroke-width="0.864782" stroke-miterlimit="10"/>
<path d="M1614.3 273.595C1628.82 259.911 1624.57 241.59 1611.01 225.514C1597.48 209.484 1576.26 195.441 1554.45 182.552C1525.75 165.585 1495.27 148.465 1457.2 138.777C1403.09 125.005 1340.39 126.289 1281.8 130.616C1181.96 137.987 1085.15 154.993 991.233 175.172C891.329 196.637 789.847 223.16 683.284 219.073C586.078 215.346 518.418 187.859 447.449 153.135C381.051 120.799 325.87 79.6695 245.272 59.2377C139.872 32.5178 11.3008 48.3539 -83.3193 88.9438C-178.333 129.622 -241.709 190.767 -279.171 255.972" stroke="url(#paint1_linear_431_8685)" stroke-width="0.864782" stroke-miterlimit="10"/>
<path d="M1623.52 266.579C1636.58 255.06 1629.85 238.979 1614.34 223.92C1599.01 209.037 1576.98 195.33 1554.17 183.253C1524.3 167.432 1492.93 151.01 1453.91 141.968C1397.35 128.862 1332.08 129.718 1271.31 133.381C1171.91 139.372 1075.64 155.221 982.486 174.066C884.212 193.948 784.736 219.415 680.045 214.935C582.935 210.779 514.111 184.147 442.304 151.444C375.158 120.862 318.908 82.7802 238.989 64.2703C134.926 40.1701 9.06526 56.7527 -85.2392 96.6193C-180.335 136.659 -245.28 194.95 -284.87 258.439" stroke="url(#paint2_linear_431_8685)" stroke-width="0.864782" stroke-miterlimit="10"/>
<path d="M1632.75 259.563C1644.34 250.208 1635.2 236.411 1617.66 222.323C1600.6 208.616 1577.71 195.221 1553.89 183.95C1522.88 169.277 1490.57 153.567 1450.63 145.156C1391.59 132.727 1323.8 133.161 1260.82 136.142C1161.91 140.823 1066.16 155.448 973.743 172.958C877.125 191.264 779.629 215.658 676.811 210.796C579.791 206.208 509.74 180.486 437.167 149.749C369.2 120.962 311.99 85.8853 232.711 69.3001C130.022 47.8142 6.83416 65.1512 -87.1547 104.289C-182.328 143.688 -248.843 199.127 -290.56 260.898" stroke="url(#paint3_linear_431_8685)" stroke-width="0.864782" stroke-miterlimit="10"/>
<path d="M1641.97 252.546C1652.11 245.357 1640.64 233.871 1620.99 220.727C1602.28 208.21 1578.47 195.113 1553.61 184.647C1521.48 171.121 1488.19 156.137 1447.34 148.346C1385.8 136.61 1315.54 136.628 1250.33 138.906C1151.94 142.345 1056.7 155.683 964.996 171.849C870.06 188.587 774.519 211.889 673.573 206.655C576.639 201.63 505.351 176.82 432.026 148.054C363.228 121.063 305.102 88.9929 226.428 74.3271C125.162 55.4504 4.59878 73.5443 -89.0744 111.956C-184.326 150.723 -252.41 203.307 -296.255 263.363" stroke="url(#paint4_linear_431_8685)" stroke-width="0.864782" stroke-miterlimit="10"/>
<path d="M1651.19 245.53C1659.87 240.508 1646.17 231.347 1624.32 219.133C1604.07 207.81 1579.24 195.004 1553.33 185.345C1520.11 172.96 1485.8 158.721 1444.06 151.534C1380 140.505 1307.3 140.113 1239.85 141.668C1141.99 143.926 1047.26 155.918 956.248 170.741C863.016 185.926 769.404 208.11 670.334 202.517C573.483 197.05 500.958 173.159 426.885 146.362C357.248 121.169 298.253 92.0983 220.15 79.3597C120.35 63.0819 2.50599 82.0671 -90.9899 119.632C-186.185 157.879 -255.977 207.487 -301.949 265.825" stroke="url(#paint5_linear_431_8685)" stroke-width="0.864782" stroke-miterlimit="10"/>
<path d="M1660.41 238.513C1667.63 235.656 1651.8 228.823 1627.65 217.536C1605.95 207.394 1580.03 194.891 1553.05 186.043C1518.75 174.797 1483.4 161.317 1440.77 154.724C1374.17 144.422 1299.08 143.621 1229.36 144.435C1132.06 145.569 1037.85 156.166 947.501 169.638C855.998 183.281 764.293 204.325 667.095 198.383C570.326 192.467 496.552 169.504 421.744 144.673C351.26 121.278 291.447 95.201 213.867 84.3947C115.581 70.7028 0.292154 90.4889 -92.9097 127.307C-188.161 164.934 -259.545 211.667 -307.644 268.289" stroke="url(#paint6_linear_431_8685)" stroke-width="0.864782" stroke-miterlimit="10"/>
<path d="M1669.64 231.497C1675.39 230.805 1657.52 226.284 1630.98 215.943C1607.92 206.955 1580.84 194.777 1552.77 186.743C1517.42 176.629 1480.98 163.929 1437.49 157.915C1368.33 148.354 1290.88 147.153 1218.86 147.199C1122.15 147.261 1028.47 156.419 938.749 168.533C848.998 180.649 759.173 200.528 663.852 194.245C567.165 187.872 492.137 165.846 416.598 142.981C345.262 121.386 284.676 98.2935 207.58 89.4273C110.859 78.3033 -1.93042 98.9083 -94.834 134.983C-190.146 171.992 -263.121 215.852 -313.347 270.757" stroke="url(#paint7_linear_431_8685)" stroke-width="0.864782" stroke-miterlimit="10"/>
<path d="M1678.86 224.481C1683.15 225.953 1663.32 223.713 1634.31 214.346C1609.95 206.482 1581.66 194.651 1552.49 187.438C1516.11 178.445 1478.56 166.546 1434.2 161.1C1362.47 152.296 1282.68 150.702 1208.38 149.958C1112.26 148.997 1019.11 156.678 930.011 167.419C842.037 178.027 754.067 196.712 660.627 190.101C564.018 183.266 487.727 162.185 411.47 141.281C339.27 121.489 277.965 101.365 201.315 94.4493C106.202 85.8699 -4.13549 107.314 -96.7364 142.645C-192.122 179.039 -266.679 220.03 -319.033 273.216" stroke="url(#paint8_linear_431_8685)" stroke-width="0.864782" stroke-miterlimit="10"/>
<path d="M1688.08 217.465C1690.92 221.105 1669.17 221.102 1637.64 212.753C1612.04 205.974 1582.49 194.522 1552.2 188.138C1514.81 180.256 1476.13 169.181 1430.92 164.294C1356.61 156.262 1274.49 154.283 1197.88 152.725C1102.37 150.783 1009.77 156.954 921.259 166.316C835.088 175.431 748.943 192.894 657.384 185.966C560.853 178.66 483.295 158.538 406.325 139.591C333.255 121.603 271.276 104.432 195.028 99.4846C101.571 93.4214 -6.36234 115.731 -98.6649 150.323C-194.107 186.09 -270.251 224.21 -324.728 275.681" stroke="url(#paint9_linear_431_8685)" stroke-width="0.864782" stroke-miterlimit="10"/>
<path d="M1697.31 210.448C1698.69 216.253 1675.06 218.443 1640.97 211.156C1614.17 205.423 1583.34 194.382 1551.93 188.835C1513.53 182.054 1473.71 171.821 1427.64 167.481C1350.74 160.237 1266.31 157.884 1187.4 155.487C1092.49 152.604 1000.47 157.238 912.516 165.208C828.17 172.852 743.832 189.063 654.15 181.827C557.692 174.046 478.863 154.89 401.184 137.896C327.236 121.719 264.626 107.472 188.745 104.514C96.9877 100.936 -8.58486 124.143 -100.585 157.993C-196.096 193.134 -273.818 228.387 -330.427 278.14" stroke="url(#paint10_linear_431_8685)" stroke-width="0.864782" stroke-miterlimit="10"/>
<path d="M1706.53 203.431C1706.45 211.401 1680.96 215.738 1644.3 209.562C1616.3 204.842 1584.19 194.235 1551.65 189.533C1512.25 183.842 1471.27 174.472 1424.35 170.672C1344.87 164.231 1258.13 161.514 1176.91 158.253C1082.61 154.466 991.19 157.543 903.769 164.105C821.269 170.297 738.717 185.224 650.911 177.693C554.527 169.426 474.417 151.252 396.042 136.209C321.213 121.846 258.014 110.497 182.467 109.552C92.4475 108.425 -10.8075 132.559 -102.5 165.67C-198.08 200.187 -277.381 232.572 -336.117 280.61" stroke="url(#paint11_linear_431_8685)" stroke-width="0.864782" stroke-miterlimit="10"/>
<path d="M1715.76 196.414C1714.21 206.549 1686.87 212.989 1647.63 207.965C1618.43 204.227 1585.04 194.076 1551.37 190.23C1510.98 185.616 1468.83 177.132 1421.07 173.859C1338.99 168.238 1249.95 165.166 1166.42 161.014C1072.73 156.357 981.932 157.86 895.026 162.996C814.389 167.76 733.606 181.369 647.677 173.552C551.366 164.789 469.972 147.612 390.905 134.512C315.185 121.967 251.433 113.483 176.189 114.576C87.9376 115.86 -13.0343 140.962 -104.416 173.337C-200.069 207.228 -280.948 236.749 -341.812 283.071" stroke="url(#paint12_linear_431_8685)" stroke-width="0.864782" stroke-miterlimit="10"/>
<path d="M1724.98 189.399C1721.97 201.698 1692.77 210.2 1650.96 206.371C1620.55 203.586 1585.89 193.912 1551.09 190.931C1509.71 187.384 1466.4 179.801 1417.79 177.053C1333.11 172.263 1241.77 168.85 1155.93 163.782C1062.84 158.287 972.696 158.202 886.279 161.891C807.531 165.254 728.495 177.507 644.438 169.416C548.201 160.15 465.514 143.983 385.764 132.823C309.149 122.102 244.87 116.447 169.906 119.611C83.4494 123.262 -15.2655 149.372 -106.336 181.013C-202.067 214.274 -284.515 240.929 -347.506 285.534" stroke="url(#paint13_linear_431_8685)" stroke-width="0.864782" stroke-miterlimit="10"/>
<path d="M1734.2 182.382C1729.74 196.849 1698.65 207.373 1654.29 204.774C1622.66 202.922 1586.75 193.736 1550.81 191.625C1508.44 189.137 1463.96 182.472 1414.5 180.238C1327.24 176.293 1233.59 172.552 1145.44 166.541C1052.95 160.235 963.482 158.558 877.536 160.78C800.691 162.766 723.388 173.629 641.204 165.272C545.044 155.494 461.061 140.353 380.627 131.123C303.113 122.231 238.323 119.363 163.632 124.636C78.9827 130.611 -17.4924 157.77 -108.247 188.68C-204.052 221.308 -288.078 245.106 -353.192 287.993" stroke="url(#paint14_linear_431_8685)" stroke-width="0.864782" stroke-miterlimit="10"/>
<path d="M1743.42 175.366C1737.5 191.997 1704.51 204.516 1657.62 203.181C1624.75 202.243 1587.6 193.555 1550.53 192.325C1507.17 190.886 1461.53 185.157 1411.22 183.428C1321.35 180.344 1225.39 176.285 1134.95 169.305C1043.05 162.214 954.276 158.946 868.784 159.674C793.855 160.312 718.273 169.747 637.961 161.136C541.875 150.834 456.594 136.734 375.482 129.433C297.068 122.375 231.777 122.254 157.345 129.671C74.5076 137.922 -19.732 166.177 -110.171 196.355C-206.058 228.351 -291.65 249.289 -358.895 290.46" stroke="url(#paint15_linear_431_8685)" stroke-width="0.864782" stroke-miterlimit="10"/>
<path d="M1752.65 168.349C1745.26 187.146 1710.35 201.636 1660.95 201.584C1626.81 201.548 1588.45 193.367 1550.25 193.023C1505.89 192.625 1459.09 187.844 1407.94 186.619C1315.48 184.405 1217.19 180.047 1124.46 172.072C1033.14 164.219 945.088 159.364 860.037 158.571C787.036 157.889 713.162 165.856 634.722 157.003C538.718 146.166 452.132 133.125 370.341 127.747C291.028 122.528 225.231 125.112 151.063 134.706C70.0325 145.192 -21.9674 174.583 -112.091 204.034C-208.056 235.391 -295.217 253.472 -364.585 292.925" stroke="url(#paint16_linear_431_8685)" stroke-width="0.864782" stroke-miterlimit="10"/>
<path d="M1761.87 161.333C1753.02 182.294 1716.16 198.735 1664.28 199.99C1628.85 200.848 1589.29 193.17 1549.96 193.721C1504.61 194.356 1456.66 190.535 1404.65 189.807C1309.61 188.474 1208.98 183.832 1113.97 174.834C1023.23 166.239 935.908 159.809 851.294 157.46C780.226 155.489 708.064 161.948 631.488 152.859C535.566 141.477 447.674 129.514 365.204 126.047C284.987 122.675 218.675 127.912 144.788 139.731C65.5527 152.405 -24.1987 182.974 -114.002 211.698C-210.053 242.422 -298.78 257.646 -370.276 295.384" stroke="url(#paint17_linear_431_8685)" stroke-width="0.864782" stroke-miterlimit="10"/>
<path d="M1771.09 154.316C1760.78 177.445 1721.94 195.818 1667.61 198.393C1630.88 200.135 1590.13 192.966 1549.68 194.418C1503.32 196.081 1454.22 193.234 1401.36 192.997C1303.74 192.558 1200.75 187.647 1103.47 177.597C1013.3 168.282 926.725 160.289 842.543 156.354C773.412 153.122 702.958 158.031 628.249 148.723C532.41 136.78 443.212 125.912 360.059 124.357C278.942 122.838 212.086 130.686 138.502 144.765C61.0301 159.589 -26.447 191.374 -115.926 219.373C-212.064 249.456 -302.351 261.831 -375.979 297.851" stroke="url(#paint18_linear_431_8685)" stroke-width="0.864782" stroke-miterlimit="10"/>
<path d="M1780.32 147.3C1768.55 172.594 1727.7 192.891 1670.94 196.8C1632.88 199.422 1590.97 192.762 1549.41 195.118C1502.03 197.805 1451.8 195.94 1398.09 196.188C1297.88 196.653 1192.52 191.488 1092.99 180.362C1003.37 170.344 917.558 160.808 833.804 155.249C766.606 150.79 697.868 154.107 625.019 144.585C529.271 132.071 438.762 122.316 354.926 122.662C272.91 123.001 205.474 133.417 132.227 149.795C56.4898 166.732 -28.6826 199.768 -117.837 227.046C-214.062 256.486 -305.914 266.011 -381.665 300.316" stroke="url(#paint19_linear_431_8685)" stroke-width="0.864782" stroke-miterlimit="10"/>
<path d="M1789.54 140.283C1776.31 167.742 1733.43 189.954 1674.27 195.203C1634.87 198.701 1591.8 192.547 1549.13 195.815C1500.72 199.52 1449.37 198.644 1394.8 199.378C1292.01 200.755 1184.26 195.355 1082.5 183.126C993.421 172.42 908.365 161.364 825.052 154.143C759.783 148.485 692.766 150.17 621.776 140.449C526.123 127.348 434.3 118.728 349.781 120.972C266.87 123.174 198.811 136.116 125.945 154.828C51.8979 173.844 -30.9266 208.161 -119.761 234.718C-216.076 263.515 -309.486 270.191 -387.368 302.777" stroke="url(#paint20_linear_431_8685)" stroke-width="0.864782" stroke-miterlimit="10"/>
<path d="M1798.77 133.267C1784.07 162.89 1739.14 187.011 1677.6 193.609C1636.84 197.98 1592.62 192.335 1548.84 196.513C1499.41 201.233 1446.95 201.354 1391.51 202.566C1286.15 204.865 1175.99 199.248 1072.01 185.89C983.459 174.513 899.16 161.96 816.309 153.037C752.955 146.212 687.681 146.225 618.542 136.312C522.992 122.613 429.855 115.142 344.644 119.28C260.842 123.352 192.105 138.782 119.667 159.86C47.2628 180.93 -33.1706 216.552 -121.677 242.393C-218.083 270.542 -313.049 274.373 -393.058 305.244" stroke="url(#paint21_linear_431_8685)" stroke-width="0.864782" stroke-miterlimit="10"/>
<path d="M1807.99 126.25C1791.84 158.039 1744.83 184.064 1680.93 192.013C1638.79 197.257 1593.44 192.116 1548.56 197.21C1498.1 202.94 1444.53 204.069 1388.23 205.754C1280.31 208.985 1167.7 203.17 1061.52 188.652C973.483 176.616 889.932 162.598 807.562 151.927C746.106 143.965 682.596 142.265 615.303 132.169C519.862 117.852 425.406 111.556 339.503 117.583C254.815 123.525 185.338 141.415 113.388 164.887C42.5755 187.988 -35.4149 224.935 -123.592 250.061C-220.093 277.558 -316.616 278.55 -398.749 307.704" stroke="url(#paint22_linear_431_8685)" stroke-width="0.864782" stroke-miterlimit="10"/>
<path d="M1817.21 119.234C1799.6 153.19 1750.5 181.114 1684.26 190.419C1640.72 196.534 1594.25 191.897 1548.28 197.911C1496.77 204.651 1442.11 206.79 1384.94 208.947C1274.45 213.116 1159.39 207.12 1051.02 191.419C963.486 178.734 880.666 163.288 798.81 150.824C739.227 141.751 677.516 138.302 612.061 128.036C516.74 113.083 420.961 107.981 334.357 115.894C248.787 123.714 178.506 144.032 107.101 169.922C37.8236 195.041 -37.6675 233.324 -125.516 257.739C-222.113 284.585 -320.188 282.736 -404.452 310.174" stroke="url(#paint23_linear_431_8685)" stroke-width="0.864782" stroke-miterlimit="10"/>
<path d="M1826.44 112.218C1807.36 148.339 1756.15 178.164 1687.59 188.823C1642.65 195.811 1595.05 191.672 1548 198.606C1495.44 206.354 1439.7 209.508 1381.66 212.132C1268.62 217.248 1151.07 211.091 1040.54 194.178C953.485 180.858 871.365 164.012 790.067 149.713C732.326 139.558 672.448 134.321 608.826 123.892C513.635 108.286 416.529 104.401 329.22 114.197C242.773 123.895 171.627 146.626 100.823 174.947C33.0197 202.07 -39.9161 241.699 -127.432 265.404C-224.123 291.594 -323.755 286.908 -410.142 312.628" stroke="url(#paint24_linear_431_8685)" stroke-width="0.864782" stroke-miterlimit="10"/>
<path d="M1835.66 105.202C1815.12 143.487 1761.79 175.211 1690.92 187.229C1644.56 195.087 1595.85 191.45 1547.72 199.306C1494.1 208.059 1437.28 212.231 1378.38 215.326C1262.78 221.394 1142.72 215.096 1030.05 196.945C943.467 182.997 862.008 164.79 781.324 148.61C725.395 137.393 667.385 130.34 605.592 119.759C510.544 103.481 412.101 100.836 324.084 112.51C236.767 124.091 164.678 149.214 94.549 179.985C28.164 209.11 -42.1601 250.085 -129.343 273.085C-226.134 298.616 -327.313 291.096 -415.833 315.101" stroke="url(#paint25_linear_431_8685)" stroke-width="0.864782" stroke-miterlimit="10"/>
<path d="M1844.88 98.1849C1822.89 138.635 1767.42 172.258 1694.24 185.632C1646.47 194.364 1596.64 191.222 1547.44 200.003C1492.76 209.761 1434.87 214.956 1375.09 218.513C1256.95 225.543 1134.35 219.12 1019.55 199.709C933.426 185.144 852.587 165.611 772.573 147.504C718.407 135.246 662.326 126.346 602.349 115.623C507.457 98.6525 407.674 97.2678 318.934 110.818C230.752 124.285 157.661 151.792 88.2577 185.017C23.2348 216.144 -44.4214 258.465 -131.272 280.757C-228.162 305.627 -330.889 295.278 -421.536 317.565" stroke="url(#paint26_linear_431_8685)" stroke-width="0.864782" stroke-miterlimit="10"/>
<path d="M1854.1 91.1687C1830.65 133.784 1773.04 169.308 1697.57 184.038C1648.36 193.646 1597.43 190.995 1547.16 200.701C1491.41 211.463 1432.47 217.684 1371.81 221.701C1251.13 229.697 1125.95 223.169 1009.07 202.471C923.382 187.296 843.105 166.469 763.83 146.393C711.385 133.112 657.28 122.34 599.115 111.479C504.4 93.7935 403.259 93.6927 313.797 109.121C224.759 124.474 150.596 154.361 81.9795 190.045C18.2624 223.179 -46.6741 266.835 -133.187 288.425C-230.177 312.628 -334.456 299.453 -427.226 320.022" stroke="url(#paint27_linear_431_8685)" stroke-width="0.864782" stroke-miterlimit="10"/>
<path d="M1863.33 84.1517C1838.41 128.934 1778.65 166.355 1700.91 182.441C1650.25 192.922 1598.22 190.767 1546.88 201.398C1490.07 213.165 1430.07 220.412 1368.53 224.891C1245.31 233.858 1117.53 227.247 998.579 205.234C913.312 189.458 833.54 167.37 755.083 145.287C704.311 130.996 652.238 118.327 595.881 107.343C501.356 88.9181 398.853 90.1297 308.66 107.428C218.771 124.669 143.478 156.936 75.7054 195.074C13.2465 230.223 -48.9875 275.109 -135.098 296.097C-232.265 319.525 -338.015 303.632 -432.916 322.486" stroke="url(#paint28_linear_431_8685)" stroke-width="0.864782" stroke-miterlimit="10"/>
<path d="M1872.55 77.1356C1846.18 124.083 1784.25 163.405 1704.24 180.848C1652.13 192.207 1599 190.54 1546.6 202.098C1488.7 214.868 1427.67 223.145 1365.24 228.082C1239.5 238.025 1109.09 231.35 988.089 207.999C903.228 191.623 823.885 168.305 746.335 144.182C697.177 128.891 647.21 114.308 592.642 103.204C498.333 84.0151 394.503 86.6631 303.519 105.736C212.838 124.967 136.301 159.517 69.4227 200.107C8.17454 237.279 -51.2231 283.508 -137.018 303.77C-234.263 326.56 -341.587 307.813 -438.611 324.951" stroke="url(#paint29_linear_431_8685)" stroke-width="0.864782" stroke-miterlimit="10"/>
<path d="M1881.78 70.1192C1853.94 119.232 1789.84 160.457 1707.57 179.251C1654.01 191.486 1599.74 190.259 1546.32 202.793C1487.3 216.509 1425.29 225.943 1361.96 231.27C1233.73 242.332 1100.62 235.473 977.6 210.761C893.132 193.793 814.143 169.266 737.592 143.074C689.995 126.785 642.198 110.278 589.408 99.0659C495.337 79.0861 390.08 83.049 298.383 104.041C206.837 125.114 129.084 162.103 63.1445 205.137C3.06372 244.347 -53.4541 291.907 -138.938 311.442C-236.26 333.592 -345.154 311.995 -444.305 327.415" stroke="url(#paint30_linear_431_8685)" stroke-width="0.864782" stroke-miterlimit="10"/>
<path d="M1891 63.1028C1861.7 114.38 1795.42 157.509 1710.9 177.657C1655.88 190.77 1600.55 190.086 1546.04 203.493C1485.97 218.27 1422.88 228.614 1358.67 234.46C1227.89 246.372 1092.13 239.622 967.11 213.527C883.014 195.973 804.302 170.258 728.845 141.968C682.744 124.685 637.195 106.242 586.169 94.9299C492.366 74.1286 385.656 79.4374 293.241 102.352C200.826 125.266 121.824 164.702 56.8661 210.172C-2.08605 251.433 -55.6853 300.308 -140.853 319.117C-238.258 340.629 -348.717 316.178 -450 329.88" stroke="url(#paint31_linear_431_8685)" stroke-width="0.864782" stroke-miterlimit="10"/>
<path d="M1500.49 226.599C1490.33 161.377 1440.56 98.6135 1362.51 52.6063C1340.31 39.5163 1314.83 27.4184 1284.55 22.9388C1197.06 9.99874 1113.8 55.1535 1046.74 82.0025C965.813 114.408 886.076 148.051 800.895 176.432C753.072 192.367 696.182 206.89 645.212 194.94C593.598 182.837 568.887 148.785 543.35 119.381C513.592 85.118 475.157 52.7096 423.002 29.9217C370.851 7.13637 303.537 -5.13723 240.369 2.97714C190.903 9.32965 147.924 27.2996 109.203 46.7601C7.46129 97.8928 -75.346 162.4 -131.63 234.362" stroke="url(#paint32_linear_431_8685)" stroke-width="0.864782" stroke-miterlimit="10"/>
<path d="M1502.74 223.615C1492.91 160.496 1442.17 101.104 1362.68 55.1069C1340.49 42.265 1315.3 30.3014 1285.44 25.7547C1199.01 12.5562 1116.84 55.5022 1049.96 81.4212C978.646 109.055 908.219 138.121 833.372 163.913C824.17 167.096 814.917 170.227 805.599 173.296C758.14 188.933 701.933 203.24 651.478 191.938C600.356 180.499 575.295 147.834 549.459 119.658C519.278 86.8437 480.735 55.8148 428.961 34.0395C377.052 12.2953 310.511 0.65722 248.031 8.62434C205.57 14.0339 167.844 27.811 133.447 43.5618C128.12 45.998 122.906 48.5013 117.712 50.989C14.6737 100.35 -67.8179 159.855 -122.286 229.497" stroke="url(#paint33_linear_431_8685)" stroke-width="0.864782" stroke-miterlimit="10"/>
<path d="M1504.99 220.631C1495.48 159.617 1443.8 103.592 1362.86 57.6101C1340.68 45.011 1315.77 33.1895 1286.33 28.573C1200.95 15.1162 1119.88 55.856 1053.17 80.845C982.568 107.288 912.763 135.602 837.864 160.968C828.732 164.086 819.548 167.155 810.303 170.168C763.207 185.508 707.68 199.597 657.739 188.944C607.106 178.171 581.694 146.891 555.56 119.944C524.956 88.5822 486.309 58.9276 434.906 38.1677C383.239 17.4619 317.477 6.46195 255.68 14.2844C213.599 19.6036 176.12 32.9389 141.887 48.093C136.582 50.4361 131.406 52.8619 126.209 55.2308C21.8167 102.824 -60.2987 157.326 -112.955 224.646" stroke="url(#paint34_linear_431_8685)" stroke-width="0.864782" stroke-miterlimit="10"/>
<path d="M1507.24 217.65C1498.06 158.739 1445.45 106.077 1363.04 60.1134C1340.88 47.7546 1316.25 36.0751 1287.23 31.3915C1202.89 17.6764 1122.94 56.2125 1056.39 80.2663C986.507 105.521 917.203 132.967 842.361 158.023C833.285 161.064 824.183 164.084 815.012 167.037C768.279 182.08 713.435 195.952 664.008 185.949C613.868 175.841 588.193 145.917 561.67 120.231C530.745 90.2794 491.981 61.9605 440.864 42.2959C389.526 22.5486 324.451 12.2668 263.346 19.9446C221.646 25.1733 184.417 38.0695 150.341 52.6242C145.052 54.8743 139.92 57.2226 134.723 59.4727C28.9251 105.299 -52.7665 154.794 -103.603 219.794" stroke="url(#paint35_linear_431_8685)" stroke-width="0.864782" stroke-miterlimit="10"/>
<path d="M1509.48 214.666C1500.63 157.86 1447.11 108.557 1363.21 62.6141C1341.08 50.4929 1316.72 38.9581 1288.12 34.2073C1204.83 20.2313 1126.01 56.5638 1059.6 79.685C990.455 103.754 921.713 130.407 846.853 155.076C837.838 158.046 828.81 161.01 819.712 163.903C773.343 178.651 719.177 192.304 670.265 182.95C620.613 173.505 594.614 144.956 567.767 120.51C536.449 91.9948 497.577 65.0399 446.81 46.4137C395.74 27.6791 331.417 18.0613 270.995 25.5918C229.676 30.7301 192.693 43.1871 158.781 57.1425C153.514 59.2996 148.416 61.5678 143.219 63.7043C35.9602 107.764 -45.2515 152.254 -94.2717 214.932" stroke="url(#paint36_linear_431_8685)" stroke-width="0.864782" stroke-miterlimit="10"/>
<path d="M1511.73 211.683C1503.21 156.98 1448.78 111.032 1363.39 65.1149C1341.28 53.2314 1317.2 41.8439 1289.01 37.0234C1206.78 22.789 1129.1 56.9205 1062.82 79.1065C994.42 101.998 926.236 127.852 851.35 152.128C842.4 155.029 833.445 157.935 824.421 160.769C778.415 175.221 724.932 188.657 676.535 179.954C627.372 171.173 601.048 143.998 573.876 120.794C542.165 93.7129 503.176 68.1246 452.764 50.5396C401.958 32.8176 338.388 23.8637 278.653 31.2495C237.714 36.2948 200.978 48.3127 167.226 61.6713C161.976 63.7354 156.913 65.9261 151.72 67.9437C42.9434 110.231 -37.7322 149.72 -84.9363 210.076" stroke="url(#paint37_linear_431_8685)" stroke-width="0.864782" stroke-miterlimit="10"/>
<path d="M1513.98 208.699C1505.79 156.099 1450.47 113.501 1363.56 67.6182C1341.49 55.9672 1317.67 44.7295 1289.9 39.8418C1208.72 25.3491 1132.19 57.2821 1066.03 78.5278C998.394 100.244 930.751 125.297 855.843 149.183C846.957 152.017 838.076 154.861 829.126 157.641C783.482 171.795 730.683 185.014 682.796 176.959C634.126 168.845 607.473 143.042 579.977 121.081C547.868 95.4334 508.767 71.2143 458.713 54.6678C408.167 37.9585 345.358 29.6659 286.306 36.9097C245.752 41.8646 209.263 53.4432 175.67 66.2025C170.443 68.1736 165.41 70.2817 160.225 72.1856C49.879 112.695 -30.2042 147.191 -75.5966 205.224" stroke="url(#paint38_linear_431_8685)" stroke-width="0.864782" stroke-miterlimit="10"/>
<path d="M1516.23 205.715C1508.36 155.22 1452.17 115.963 1363.74 70.1188C1341.71 58.7003 1318.12 47.6487 1290.8 42.6576C1210.62 28.0073 1135.31 57.6437 1069.25 77.9464C1002.39 98.4946 935.282 122.742 860.344 146.235C851.523 148.999 842.715 151.787 833.838 154.507C788.558 168.367 736.438 181.367 689.069 173.96C640.888 166.51 613.907 142.079 586.096 121.36C553.588 97.1461 514.371 74.2935 464.676 58.7882C414.384 43.0942 352.341 35.4629 293.976 42.5594C253.803 47.4239 217.603 58.6047 184.128 70.7207C178.922 72.604 173.914 74.6268 168.739 76.4171C56.7668 115.139 -22.6721 144.649 -66.2485 200.362" stroke="url(#paint39_linear_431_8685)" stroke-width="0.864782" stroke-miterlimit="10"/>
<path d="M1518.48 202.731C1510.94 154.339 1453.88 118.42 1363.91 72.6192C1341.93 61.4281 1318.6 50.5366 1291.69 45.4706C1212.55 30.5723 1138.42 58.0077 1072.46 77.3649C1006.39 96.7531 939.805 120.192 864.837 143.285C856.081 145.982 847.347 148.71 838.539 151.371C793.622 164.933 742.185 177.716 695.326 170.96C647.638 164.174 620.32 141.115 592.193 121.641C559.283 98.8585 519.953 77.3804 470.621 62.9083C420.585 48.2296 359.302 41.2597 301.626 48.2115C261.833 52.9856 225.884 63.7298 192.568 75.2439C187.384 77.0368 182.398 78.9743 177.24 80.6509C63.5814 117.57 -15.1527 142.112 -56.913 195.502" stroke="url(#paint40_linear_431_8685)" stroke-width="0.864782" stroke-miterlimit="10"/>
<path d="M1520.73 199.747C1513.51 153.461 1455.61 120.869 1364.09 75.1201C1342.15 64.1563 1319.07 53.425 1292.58 48.2866C1214.49 33.1403 1141.56 58.3773 1075.68 76.7838C1010.41 95.0172 944.336 117.64 869.334 140.337C860.642 142.967 851.982 145.636 843.247 148.237C798.698 161.503 747.935 174.068 701.596 167.961C654.396 161.841 626.745 140.151 598.302 121.923C564.986 100.571 525.539 80.4651 476.58 67.0316C426.79 53.3707 366.281 47.0595 309.288 53.8641C269.875 58.5452 234.177 68.858 201.021 79.7676C195.854 81.4675 190.895 83.3197 185.749 84.8853C70.3569 119.983 -7.62479 139.573 -47.5648 190.643" stroke="url(#paint41_linear_431_8685)" stroke-width="0.864782" stroke-miterlimit="10"/>
<path d="M1522.97 196.766C1516.09 152.583 1457.35 123.316 1364.26 77.6262C1342.38 66.8871 1319.54 56.316 1293.47 51.1079C1216.42 35.711 1144.71 58.7598 1078.89 76.2079C1014.44 93.2969 948.863 115.098 873.826 137.392C865.204 139.955 856.608 142.564 847.952 145.109C803.766 158.08 753.686 170.429 707.857 164.97C661.15 159.514 633.157 139.193 604.403 122.21C570.677 102.29 531.117 83.5602 482.525 71.16C432.982 58.517 373.242 52.8646 316.936 59.5245C277.905 64.1152 242.457 73.9914 209.457 84.2991C204.312 85.9059 199.369 87.6729 194.241 89.13C77.0589 122.388 -0.109975 137.046 -38.2382 185.795" stroke="url(#paint42_linear_431_8685)" stroke-width="0.864782" stroke-miterlimit="10"/>
<path d="M1525.22 193.782C1518.67 151.702 1459.11 125.752 1364.44 80.1268C1342.61 69.6073 1320.01 59.2041 1294.37 53.9237C1218.36 38.2762 1147.87 59.1421 1082.11 75.6266C1018.49 91.5763 953.399 112.553 878.323 134.445C869.766 136.94 861.244 139.49 852.661 141.975C808.838 154.649 759.437 166.781 714.127 161.971C667.909 157.178 639.574 138.229 610.513 122.492C576.371 104 536.695 86.6498 488.484 75.283C439.182 63.6578 380.221 58.6616 324.603 65.1794C285.952 69.6796 250.755 79.1193 217.915 88.825C212.787 90.3389 207.866 92.0206 202.759 93.3666C83.7352 124.757 7.42677 134.512 -28.8854 180.938" stroke="url(#paint43_linear_431_8685)" stroke-width="0.864782" stroke-miterlimit="10"/>
<path d="M1527.47 190.799C1521.25 150.824 1460.87 128.178 1364.61 82.6279C1342.85 72.328 1320.48 62.0901 1295.26 56.74C1220.3 40.8393 1151.04 59.5326 1085.32 75.0483C1022.55 89.8717 957.93 110.014 882.815 131.5C874.323 133.929 865.874 136.419 857.361 138.845C813.901 151.222 765.197 163.079 720.383 158.977C674.671 154.792 645.973 137.271 616.614 122.779C582.049 105.718 542.264 89.7477 494.429 79.4091C445.365 68.8069 387.183 64.4643 332.252 70.8348C293.981 75.2447 259.031 84.2477 226.351 93.3515C221.244 94.7749 216.336 96.3637 211.252 97.6037C90.342 127.098 14.9374 131.975 -19.5588 176.081" stroke="url(#paint44_linear_431_8685)" stroke-width="0.864782" stroke-miterlimit="10"/>
<path d="M1529.72 187.815C1523.82 149.942 1462.66 130.596 1364.79 85.1282C1343.09 75.0453 1320.95 64.9753 1296.16 59.5554C1222.24 43.4016 1154.22 59.93 1088.54 74.4666C1026.62 88.1714 962.475 107.472 887.317 128.549C878.894 130.911 870.514 133.342 862.074 135.708C818.977 147.79 770.952 159.426 726.657 155.975C681.434 152.451 652.381 136.305 622.728 123.055C587.739 107.425 547.842 92.8344 500.392 83.5265C451.562 73.9474 394.166 70.2583 339.918 76.4842C302.028 80.801 267.324 89.3701 234.808 97.872C229.719 99.2024 224.824 100.701 219.765 101.837C96.923 129.402 22.4696 129.438 -10.2105 171.222" stroke="url(#paint45_linear_431_8685)" stroke-width="0.864782" stroke-miterlimit="10"/>
<path d="M1531.97 184.831C1526.39 149.064 1464.45 133.003 1364.96 87.6312C1343.32 77.7653 1321.42 67.8632 1297.05 62.3736C1224.18 45.964 1157.42 60.3379 1091.76 73.8877C1030.7 86.4842 967.015 104.937 891.809 125.604C883.451 127.901 875.145 130.27 866.778 132.579C824.045 144.365 776.702 155.781 732.918 152.98C688.183 150.12 658.776 135.346 628.829 123.341C593.407 109.143 553.403 95.9367 506.337 87.6544C457.736 79.1009 401.132 76.0628 347.567 82.1441C310.057 86.3705 275.6 94.503 243.244 102.403C238.177 103.64 233.295 105.048 228.262 106.079C103.448 131.675 29.9888 126.906 -0.879578 166.37" stroke="url(#paint46_linear_431_8685)" stroke-width="0.864782" stroke-miterlimit="10"/>
<path d="M1534.22 181.847C1528.97 148.183 1466.26 135.403 1365.14 90.1321C1343.58 80.478 1321.9 70.7465 1297.94 65.1896C1226.11 48.5243 1160.63 60.7566 1094.97 73.3092C1034.8 84.8103 971.559 102.406 896.306 122.659C888.017 124.889 879.776 127.198 871.487 129.448C829.117 140.937 782.453 152.133 739.188 149.986C694.942 147.788 665.176 134.39 634.939 123.628C599.08 110.864 558.972 99.0421 512.295 91.7829C463.924 84.2601 408.106 81.8679 355.233 87.8019C318.104 91.9379 283.893 99.6337 251.702 106.929C246.651 108.074 241.778 109.386 236.776 110.316C109.955 133.905 37.5211 124.372 8.47308 161.513" stroke="url(#paint47_linear_431_8685)" stroke-width="0.864782" stroke-miterlimit="10"/>
<path d="M1536.47 178.863C1531.55 147.305 1468.08 137.79 1365.31 92.6328C1343.82 83.188 1322.37 73.6321 1298.83 68.0055C1228.05 51.0845 1163.85 61.188 1098.19 72.728C1038.9 83.1467 976.104 99.874 900.799 119.709C892.579 121.874 884.407 124.119 876.187 126.312C834.18 137.506 788.195 148.483 745.445 146.984C701.687 145.45 671.554 133.429 641.035 123.905C604.736 112.576 564.524 102.14 518.241 95.8982C470.094 89.4062 415.072 87.6572 362.883 93.4492C326.138 97.4921 292.169 104.751 260.138 111.448C255.105 112.499 250.245 113.716 245.268 114.548C116.411 136.08 45.0319 121.83 17.7999 156.651" stroke="url(#paint48_linear_431_8685)" stroke-width="0.864782" stroke-miterlimit="10"/>
<path d="M1538.71 175.879C1534.13 146.424 1469.92 140.169 1365.49 95.1336C1344.07 85.898 1322.84 76.5152 1299.73 70.8189C1230 53.6369 1167.08 61.6272 1101.4 72.1441C1043.02 81.4934 980.657 97.3423 905.295 116.759C897.145 118.859 889.042 121.042 880.896 123.176C839.252 134.073 793.942 144.832 751.714 143.985C708.445 143.117 677.944 132.474 647.149 124.186C610.4 114.297 570.089 105.245 524.199 100.021C476.273 94.5652 422.047 93.457 370.544 99.1042C334.18 103.057 300.458 109.877 268.591 115.974C263.575 116.932 258.724 118.051 253.782 118.784C122.862 138.214 52.5684 119.296 27.1481 151.795" stroke="url(#paint49_linear_431_8685)" stroke-width="0.864782" stroke-miterlimit="10"/>
<path d="M1540.96 172.899C1536.7 145.546 1471.77 142.536 1365.66 97.6398C1344.32 88.611 1323.31 79.4038 1300.62 73.6403C1231.93 56.2 1170.32 62.0901 1104.61 71.571C1047.14 79.8637 985.206 94.8265 909.788 113.817C901.702 115.853 893.673 117.974 885.6 120.051C844.32 130.65 799.688 141.193 757.976 140.994C715.195 140.79 684.318 131.528 653.25 124.476C616.047 116.031 575.645 108.363 530.149 104.153C482.443 99.7375 429.017 99.2648 378.202 104.765C342.218 108.627 308.738 115.008 277.04 120.505C272.046 121.371 267.199 122.389 262.287 123.027C129.287 140.302 60.092 116.765 36.4877 146.944" stroke="url(#paint50_linear_431_8685)" stroke-width="0.864782" stroke-miterlimit="10"/>
<path d="M1543.21 169.915C1539.28 144.667 1473.63 144.892 1365.84 100.14C1344.58 91.313 1323.79 82.2867 1301.51 76.4561C1233.88 58.7522 1173.57 62.5627 1107.83 70.9897C1051.27 78.2386 989.759 92.305 914.285 110.869C906.268 112.84 898.308 114.899 890.309 116.917C849.392 127.222 805.439 137.545 764.245 137.995C721.949 138.457 690.7 130.578 659.36 124.755C621.703 117.759 581.201 111.474 536.103 108.273C488.618 104.902 435.987 105.062 385.86 110.417C350.257 114.189 317.023 120.128 285.484 125.029C280.508 125.801 275.674 126.718 270.788 127.263C135.7 142.329 67.6112 114.23 45.8231 142.087" stroke="url(#paint51_linear_431_8685)" stroke-width="0.864782" stroke-miterlimit="10"/>
<path d="M1545.46 166.931C1541.85 143.786 1475.5 147.233 1366.01 102.641C1344.83 94.0152 1324.26 85.1697 1302.4 79.2719C1235.82 61.3071 1176.81 63.0535 1111.04 70.4084C1055.4 76.6291 994.316 89.7862 918.777 107.921C910.83 109.828 902.935 111.825 895.013 113.783C854.459 123.791 811.186 133.9 770.506 134.998C728.698 136.124 697.073 129.637 665.461 125.039C627.346 119.495 586.753 114.594 542.052 112.396C494.788 110.071 442.957 110.861 393.513 116.072C358.291 119.751 325.299 125.251 293.929 129.555C288.97 130.234 284.144 131.048 279.293 131.5C142.112 144.298 75.1348 111.693 55.1627 137.23" stroke="url(#paint52_linear_431_8685)" stroke-width="0.864782" stroke-miterlimit="10"/>
<path d="M1547.71 163.947C1544.43 142.908 1477.39 149.563 1366.19 105.142C1345.1 96.7173 1324.74 88.0526 1303.29 82.0876C1237.76 63.8568 1180.07 63.5623 1114.26 69.827C1059.54 75.035 998.873 87.2725 923.274 104.971C915.396 106.816 907.57 108.748 899.718 110.647C859.527 120.358 816.932 130.252 776.771 131.996C735.452 133.791 703.451 128.694 671.566 125.318C632.997 121.233 592.309 117.712 548.006 116.516C500.958 115.245 449.927 116.658 401.171 121.722C366.329 125.31 333.584 130.368 302.374 134.075C297.436 134.662 292.615 135.37 287.793 135.731C148.525 146.204 82.6584 109.154 64.5023 132.368" stroke="url(#paint53_linear_431_8685)" stroke-width="0.864782" stroke-miterlimit="10"/>
<path d="M1549.96 160.963C1547.01 142.027 1479.29 151.877 1366.36 107.645C1345.36 99.4167 1325.21 90.9355 1304.18 84.9059C1239.7 66.4089 1183.32 64.0942 1117.47 69.2506C1063.68 73.4615 1003.43 84.769 927.767 102.028C919.958 103.808 912.201 105.679 904.422 107.518C864.594 116.935 822.678 126.612 783.037 129.004C742.206 131.466 709.829 127.764 677.676 125.604C638.649 122.985 597.87 120.846 553.96 120.644C507.132 120.43 456.902 122.46 408.833 127.382C374.371 130.88 341.868 135.493 310.827 138.606C305.906 139.1 301.094 139.702 296.307 139.976C154.963 148.062 90.1907 106.627 73.8506 127.519" stroke="url(#paint54_linear_431_8685)" stroke-width="0.864782" stroke-miterlimit="10"/>
<path d="M1552.2 157.979C1549.58 141.149 1481.2 154.177 1366.54 110.146C1345.62 102.114 1325.69 93.8161 1305.08 87.7219C1241.65 68.9563 1186.58 64.6447 1120.69 68.6695C1067.81 71.8988 1008 82.2632 932.264 99.081C924.524 100.799 916.836 102.605 909.131 104.387C869.666 113.507 828.429 122.972 789.302 126.007C748.96 129.139 716.206 126.834 683.781 125.889C644.3 124.736 603.426 123.977 559.914 124.77C513.311 125.617 463.876 128.263 416.49 133.039C382.409 136.447 350.148 140.616 319.271 143.135C314.368 143.536 309.569 144.029 304.808 144.215C161.41 149.855 97.71 104.093 83.186 122.665" stroke="url(#paint55_linear_431_8685)" stroke-width="0.864782" stroke-miterlimit="10"/>
<path d="M1554.45 154.996C1552.16 140.268 1483.12 156.463 1366.71 112.646C1345.88 104.806 1326.16 96.6966 1305.97 90.5379C1243.6 71.5036 1189.83 65.2183 1123.9 68.0884C1071.94 70.3514 1012.56 79.7601 936.756 96.1309C929.086 97.7868 921.467 99.528 913.835 101.251C874.738 110.073 834.18 119.324 795.568 123.006C755.714 126.806 722.593 125.904 689.887 126.168C649.96 126.488 608.987 127.111 565.864 128.888C519.486 130.802 470.842 134.057 424.144 138.687C390.443 142.001 358.429 145.729 327.716 147.651C322.83 147.956 318.039 148.341 313.309 148.442C167.878 151.575 105.229 101.548 92.5213 117.798" stroke="url(#paint56_linear_431_8685)" stroke-width="0.864782" stroke-miterlimit="10"/>
<path d="M1556.7 152.014C1554.73 139.389 1485.06 158.736 1366.89 115.15C1346.15 107.5 1326.64 99.5796 1306.87 93.3537C1245.55 74.0482 1193.07 65.815 1127.12 67.5097C1076.07 68.822 1017.12 77.267 941.253 93.1858C933.652 94.7797 926.102 96.4538 918.539 98.12C879.806 106.648 839.939 115.728 801.828 120.012C762.481 124.525 728.975 124.985 695.988 126.452C655.615 128.25 614.547 130.249 571.814 133.014C525.665 135.997 477.812 139.86 431.797 144.344C398.477 147.568 366.705 150.849 336.156 152.18C331.292 152.391 326.51 152.665 321.81 152.683C174.386 153.249 112.753 99.0165 101.857 112.946" stroke="url(#paint57_linear_431_8685)" stroke-width="0.864782" stroke-miterlimit="10"/>
<path d="M1558.95 149.03C1557.31 138.511 1487.01 160.991 1367.06 117.653C1346.42 110.192 1327.11 102.462 1307.76 96.172C1247.51 76.5952 1196.3 66.4374 1130.33 66.9308C1080.18 67.3054 1021.69 74.7765 945.746 90.238C938.218 91.7699 930.729 93.3793 923.244 94.9862C884.874 103.217 845.69 112.08 808.094 117.012C769.235 122.192 735.37 124.059 702.093 126.733C661.289 130.012 620.116 133.393 577.768 137.136C531.852 141.195 484.782 145.659 439.459 149.999C406.524 153.133 374.994 155.967 344.61 156.706C339.763 156.824 334.998 156.985 330.319 156.92C180.945 154.858 120.281 96.482 111.201 108.089" stroke="url(#paint58_linear_431_8685)" stroke-width="0.864782" stroke-miterlimit="10"/>
<path d="M1561.2 146.047C1559.89 137.63 1488.97 163.229 1367.24 120.154C1346.69 112.881 1327.59 105.341 1308.65 98.988C1249.46 79.1348 1199.52 67.0808 1133.55 66.3497C1084.29 65.8046 1026.27 72.2889 950.247 87.2905C942.788 88.7631 935.368 90.3053 927.957 91.8554C889.95 99.7889 851.445 108.435 814.364 114.018C775.997 119.862 741.774 123.143 708.207 127.02C666.97 131.781 625.698 136.542 583.726 141.262C538.053 146.401 491.761 151.459 447.121 155.654C414.566 158.698 383.283 161.085 353.063 161.232C348.233 161.255 343.485 161.304 338.829 161.157C187.552 156.414 127.809 93.9453 120.549 103.233" stroke="url(#paint59_linear_431_8685)" stroke-width="0.864782" stroke-miterlimit="10"/>
<path d="M1563.45 143.063C1562.46 136.752 1490.94 165.451 1367.41 122.654C1346.96 115.566 1328.09 108.2 1309.54 101.804C1251.48 81.615 1202.72 67.75 1136.77 65.7712C1088.37 64.3167 1030.84 69.809 954.739 84.3456C947.35 85.7561 939.999 87.2338 932.661 88.7244C895.017 96.3635 857.196 104.79 820.629 111.022C782.751 117.529 748.177 122.226 714.313 127.302C672.656 133.546 631.281 139.692 589.68 145.386C544.249 151.606 498.731 157.259 454.778 161.309C422.604 164.26 391.567 166.169 361.507 165.758C356.699 165.683 351.965 165.621 347.334 165.396C194.211 157.917 135.332 91.4137 129.888 98.3785" stroke="url(#paint60_linear_431_8685)" stroke-width="0.864782" stroke-miterlimit="10"/>
<path d="M1565.69 140.079C1565.04 135.871 1492.92 167.654 1367.59 125.155C1347.22 118.249 1328.56 111.083 1310.44 104.62C1253.43 84.1697 1205.9 68.4447 1139.98 65.1896C1092.44 62.8413 1035.41 67.3338 959.236 81.3951C951.916 82.7462 944.634 84.1567 937.366 85.5879C900.085 92.9299 862.943 101.14 826.89 108.019C789.501 115.191 754.586 121.303 720.414 127.581C678.342 135.31 636.863 142.838 595.626 149.506C550.449 156.811 505.697 163.056 462.427 166.962C430.634 169.821 399.843 171.291 369.948 170.281C365.157 170.113 360.444 169.938 355.83 169.63C200.917 159.364 142.852 88.874 139.219 93.5189" stroke="url(#paint61_linear_431_8685)" stroke-width="0.864782" stroke-miterlimit="10"/>
<path d="M1567.95 137.095C1567.62 134.993 1494.92 169.84 1367.77 127.658C1347.5 120.934 1329.04 113.972 1311.34 107.438C1255.38 86.73 1209.06 69.1682 1143.21 64.6112C1096.49 61.3794 1040.02 64.9238 963.737 78.4503C956.49 79.7472 949.274 81.0853 942.079 82.4571C905.161 89.502 868.702 97.4949 833.164 105.025C796.268 112.863 761.028 120.415 726.528 127.868C684.067 137.113 642.488 146.042 601.588 153.634C556.697 162.074 512.68 168.861 470.098 172.619C438.685 175.389 408.145 176.417 378.405 174.81C373.632 174.549 368.94 174.255 364.344 173.87C207.71 160.767 150.384 86.3425 148.568 88.6624" stroke="url(#paint62_linear_431_8685)" stroke-width="0.864782" stroke-miterlimit="10"/>
<path d="M1570.2 134.112C1570.2 134.112 1496.92 172.004 1367.95 130.159C1238.97 88.3135 1188.34 37.7208 968.23 75.5026C748.121 113.284 555.807 191.94 386.85 179.333C217.893 166.727 157.907 83.8055 157.907 83.8055" stroke="url(#paint63_linear_431_8685)" stroke-width="0.864782" stroke-miterlimit="10"/>
<path d="M1668.19 107.728C1655.01 86.5673 1616.41 73.9992 1578.71 72.3613C1541.02 70.7235 1503.93 78.0422 1468.78 86.3322C1396.07 103.473 1326.38 125.189 1252.2 139.906C1178.02 154.624 1097.11 162.09 1021.7 149.798C975.343 142.242 932.752 127.509 885.881 121.182C791.896 108.492 695.836 130.875 600.122 137.493C527.705 142.5 500.508 121.699 460.17 90.9693C421.013 61.1392 363.085 40.3223 300.627 33.634C238.168 26.9457 171.748 34.4503 117.686 54.301" stroke="url(#paint64_linear_431_8685)" stroke-width="0.864782" stroke-miterlimit="10"/>
<path d="M1669.56 104.749C1654.9 84.9063 1615.47 73.1029 1577.17 72.1909C1538.81 71.3023 1500.97 79.0446 1464.86 87.5026C1391.8 104.654 1321.33 125.848 1246.86 139.496C1172.67 153.205 1092.39 159.315 1016.93 147.023C970.733 139.496 928.104 125.248 881.367 119.195C787.706 107.056 692.087 129.095 596.758 135.657C524.765 140.614 496.482 120.482 455.57 90.476C416.157 61.3899 358.705 40.7539 296.795 34.9052C235.015 28.9996 169.746 37.0829 116.181 56.9258" stroke="url(#paint65_linear_431_8685)" stroke-width="0.864782" stroke-miterlimit="10"/>
<path d="M1670.93 101.768C1654.8 83.245 1614.54 72.2011 1575.64 72.0151C1536.6 71.8756 1498.03 80.0391 1460.94 88.6701C1387.53 105.831 1316.24 126.4 1241.54 139.079C1167.29 151.681 1087.67 156.533 1012.18 144.241C966.132 136.744 923.468 122.977 876.861 117.201C783.529 105.612 688.351 127.307 593.403 133.815C521.833 138.723 492.318 119.337 450.977 89.9747C411.171 61.7023 354.334 41.1774 292.969 36.1657C231.863 31.0428 167.744 39.7049 114.681 59.54" stroke="url(#paint66_linear_431_8685)" stroke-width="0.864782" stroke-miterlimit="10"/>
<path d="M1672.3 98.7865C1654.7 81.5812 1613.61 71.302 1574.09 71.8419C1534.39 72.4516 1495.07 81.0387 1457.02 89.8377C1383.26 107.009 1311.18 127.007 1236.2 138.663C1161.93 150.211 1082.95 153.753 1007.41 141.459C961.523 133.99 918.825 120.709 872.347 115.209C779.34 104.17 684.603 125.519 590.039 131.975C518.893 136.834 488.228 118.157 446.373 89.4786C406.247 61.9864 349.928 41.7017 289.129 37.434C228.685 33.1895 165.729 42.3372 113.168 62.1646" stroke="url(#paint67_linear_431_8685)" stroke-width="0.864782" stroke-miterlimit="10"/>
<path d="M1673.67 95.805C1654.6 79.9199 1612.67 70.4002 1572.55 71.6686C1532.19 73.0275 1492.11 82.0357 1453.1 91.0077C1378.99 108.19 1306.13 127.622 1230.88 138.25C1156.58 148.746 1078.24 150.973 1002.65 138.679C956.918 131.239 914.185 118.441 867.842 113.217C775.159 102.728 680.863 123.734 586.684 130.133C515.962 134.943 484.151 116.971 441.781 88.9798C401.348 62.2651 345.556 42.1588 285.303 38.697C225.533 35.2637 163.732 44.9617 111.667 64.7813" stroke="url(#paint68_linear_431_8685)" stroke-width="0.864782" stroke-miterlimit="10"/>
<path d="M1675.03 92.827C1654.49 78.2593 1611.74 69.5043 1571.01 71.4986C1529.97 73.6067 1489.16 83.0386 1449.18 92.1811C1374.71 109.373 1301.07 128.24 1225.54 137.84C1151.22 147.287 1073.51 148.199 997.875 135.902C952.305 128.493 909.533 116.178 863.323 111.228C770.969 101.29 677.11 121.949 583.315 128.297C513.017 133.058 480.065 115.793 437.176 88.4869C396.436 62.5498 341.172 42.6191 281.467 39.9686C222.377 37.3464 161.721 47.5947 110.158 67.4092" stroke="url(#paint69_linear_431_8685)" stroke-width="0.864782" stroke-miterlimit="10"/>
<path d="M1676.4 89.8455C1654.4 76.598 1610.8 68.5482 1569.47 71.3253C1527.76 74.1283 1486.21 84.0381 1445.27 93.3486C1370.44 110.551 1296.03 128.854 1220.21 137.426C1145.88 145.83 1068.8 145.419 993.123 133.125C947.709 125.744 904.902 113.912 858.822 109.239C766.792 99.8509 673.374 120.167 579.964 126.457C510.09 131.169 476.004 114.61 432.588 87.9907C391.55 62.8312 336.809 43.0736 277.645 41.2368C219.233 39.4233 159.728 50.227 108.662 70.0311" stroke="url(#paint70_linear_431_8685)" stroke-width="0.864782" stroke-miterlimit="10"/>
<path d="M1677.77 86.864C1654.29 74.934 1609.86 67.6437 1567.93 71.1519C1525.55 74.6989 1483.25 85.035 1441.34 94.5185C1366.17 111.732 1290.98 129.477 1214.88 137.012C1140.53 144.372 1064.07 142.642 988.353 130.345C943.099 122.992 900.254 111.646 854.308 107.247C762.602 98.4091 669.625 118.381 576.6 124.617C507.15 129.28 471.94 113.426 427.983 87.4918C386.655 63.1073 332.429 43.5254 273.805 42.4998C216.077 41.4923 157.713 52.8513 107.149 72.6503" stroke="url(#paint71_linear_431_8685)" stroke-width="0.864782" stroke-miterlimit="10"/>
<path d="M1679.14 83.8833C1654.19 73.2734 1608.92 66.74 1566.39 70.9793C1523.33 75.2729 1480.27 85.981 1437.43 95.6867C1361.84 112.814 1285.94 130.1 1209.55 136.597C1135.2 142.921 1059.36 139.862 983.593 127.563C938.494 120.239 895.614 109.376 849.802 105.256C758.421 96.9655 665.885 116.594 573.24 122.776C504.214 127.392 467.88 112.241 423.387 86.9936C381.773 63.3816 328.062 43.9728 269.979 43.7661C212.933 43.562 155.715 55.4791 105.644 75.2703" stroke="url(#paint72_linear_431_8685)" stroke-width="0.864782" stroke-miterlimit="10"/>
<path d="M1680.51 80.9044C1654.09 71.612 1607.99 65.8382 1564.85 70.8086C1521.12 75.8487 1477.31 86.9779 1433.51 96.8593C1357.57 113.992 1280.9 130.732 1204.22 136.186C1129.86 141.474 1054.64 137.085 978.828 124.786C933.889 117.493 890.974 107.113 845.288 103.266C754.235 95.5263 662.136 114.811 569.876 120.939C501.273 125.506 463.824 111.058 418.786 86.5C376.892 63.6604 323.69 44.4246 266.143 45.0343C209.785 45.6311 153.704 58.1113 104.135 77.8922" stroke="url(#paint73_linear_431_8685)" stroke-width="0.864782" stroke-miterlimit="10"/>
<path d="M1681.88 77.9232C1653.98 69.9509 1607.05 64.934 1563.31 70.6355C1518.91 76.4223 1474.36 87.9725 1429.59 98.0296C1353.3 115.168 1275.87 131.365 1198.89 135.773C1124.53 140.033 1049.93 134.308 974.067 122.008C929.284 114.744 886.335 104.847 840.782 101.277C750.054 94.0874 658.395 113.026 566.521 119.102C498.342 123.62 459.785 109.872 414.19 86.0066C372.023 63.9342 319.323 44.8741 262.312 46.3053C206.642 47.7003 151.702 60.7438 102.63 80.5195" stroke="url(#paint74_linear_431_8685)" stroke-width="0.864782" stroke-miterlimit="10"/>
<path d="M1683.25 74.9422C1653.89 68.2875 1606.11 64.0327 1561.77 70.4627C1516.7 76.996 1471.4 88.9699 1425.67 99.1975C1349.02 116.343 1270.84 131.999 1193.56 135.36C1119.2 138.591 1045.21 131.528 969.302 119.229C924.679 111.993 881.691 102.579 836.273 99.2854C745.868 92.6461 654.651 111.241 563.161 117.26C495.406 121.73 455.747 108.678 409.593 85.5082C367.159 64.2032 314.96 45.3161 258.486 47.5688C203.503 49.7621 149.7 63.3687 101.13 83.1367" stroke="url(#paint75_linear_431_8685)" stroke-width="0.864782" stroke-miterlimit="10"/>
<path d="M1684.62 71.9605C1653.78 66.6259 1605.18 63.1331 1560.23 70.2891C1514.49 77.5716 1468.44 89.9666 1421.75 100.367C1344.75 117.521 1265.81 132.639 1188.23 134.946C1113.87 137.157 1040.48 128.751 964.533 116.449C920.066 109.244 877.043 100.313 831.759 97.2956C741.678 91.2066 650.902 109.456 559.797 115.423C492.466 119.843 451.713 107.487 404.993 85.0117C362.294 64.4713 310.593 45.7574 254.65 48.8368C200.359 51.8231 147.694 66.0007 99.621 85.7609" stroke="url(#paint76_linear_431_8685)" stroke-width="0.864782" stroke-miterlimit="10"/>
<path d="M1685.99 68.9823C1653.68 64.9678 1604.24 62.2346 1558.69 70.119C1512.28 78.1507 1465.49 90.9668 1417.83 101.538C1340.48 118.702 1260.78 133.285 1182.9 134.533C1108.55 135.724 1035.77 125.972 959.777 113.67C915.469 106.493 872.408 98.0453 827.253 95.3043C737.502 89.7656 647.162 107.671 556.442 113.582C489.534 117.953 447.687 106.289 400.401 84.5136C357.447 64.7353 306.235 46.1944 250.824 50.1005C197.225 53.88 145.692 68.6258 98.1206 88.3783" stroke="url(#paint77_linear_431_8685)" stroke-width="0.864782" stroke-miterlimit="10"/>
<path d="M1687.35 66.0009C1653.58 63.3039 1603.3 61.3353 1557.15 69.9457C1510.07 78.7292 1462.53 91.9638 1413.92 102.708C1336.21 119.882 1255.75 133.933 1177.57 134.119C1103.22 134.298 1031.05 123.194 955.011 110.89C910.86 103.741 867.764 95.7794 822.743 93.3123C733.316 88.3238 643.417 105.886 553.082 111.742C486.598 116.064 443.67 105.09 395.8 84.0173C352.595 64.9986 301.872 46.6308 246.988 51.3687C194.081 55.9361 143.681 71.2555 96.6113 91.0002" stroke="url(#paint78_linear_431_8685)" stroke-width="0.864782" stroke-miterlimit="10"/>
<path d="M1688.72 63.0199C1653.48 61.643 1602.37 60.4365 1555.61 69.7703C1507.86 79.3029 1459.58 92.9586 1410 103.876C1331.94 121.063 1250.72 134.584 1172.24 133.706C1097.9 132.874 1026.33 120.417 950.251 108.113C906.259 100.995 863.128 93.514 818.238 91.3233C729.135 86.8851 639.677 104.101 549.727 109.903C483.666 114.176 439.658 103.889 391.208 83.5215C347.761 65.2571 297.513 47.065 243.166 52.6373C190.946 57.9901 141.688 73.8881 95.1154 93.6251" stroke="url(#paint79_linear_431_8685)" stroke-width="0.864782" stroke-miterlimit="10"/>
<path d="M1690.09 60.0384C1653.37 59.9789 1601.43 59.5372 1554.07 69.5968C1505.64 79.8812 1456.62 93.958 1406.08 105.043C1327.67 122.241 1245.69 135.238 1166.9 133.29C1092.56 131.45 1021.61 117.635 945.481 105.33C901.646 98.2413 858.48 91.2455 813.723 89.3312C724.949 85.4406 635.928 102.315 546.363 108.063C480.726 112.287 435.645 102.682 386.607 83.0252C342.919 65.5125 293.146 47.4961 239.331 53.9028C187.803 60.0384 139.678 76.5151 93.6019 96.2443" stroke="url(#paint80_linear_431_8685)" stroke-width="0.864782" stroke-miterlimit="10"/>
<path d="M1691.46 57.06C1653.27 58.3207 1600.5 58.6436 1552.53 69.4266C1503.44 80.4627 1453.67 94.9606 1402.16 106.216C1323.4 123.427 1240.67 135.902 1161.58 132.879C1087.24 130.038 1016.9 114.86 940.721 102.553C897.045 95.4928 853.841 88.9801 809.214 87.3422C720.764 84.0019 632.184 100.53 542.999 106.224C477.79 110.399 431.637 101.471 382.003 82.5269C338.08 65.7608 288.775 47.92 235.491 55.1689C184.655 62.0846 137.667 79.1426 92.0886 98.8667" stroke="url(#paint81_linear_431_8685)" stroke-width="0.864782" stroke-miterlimit="10"/>
<path d="M1692.83 54.0786C1653.17 56.6568 1599.56 57.7444 1550.98 69.2533C1501.23 81.0412 1450.71 95.9602 1398.24 107.386C1319.13 124.612 1235.63 136.568 1156.24 132.466C1081.91 128.624 1012.17 112.08 935.952 99.7732C892.432 92.7439 849.192 86.7143 804.699 85.3503C716.574 82.5602 628.435 98.745 539.635 104.385C474.85 108.51 427.633 100.256 377.402 82.0306C333.246 66.0085 284.408 48.3435 231.66 56.4346C181.511 64.1279 135.661 81.7723 90.5839 101.486" stroke="url(#paint82_linear_431_8685)" stroke-width="0.864782" stroke-miterlimit="10"/>
<path d="M1694.2 51.0975C1653.07 54.9958 1598.63 56.8481 1549.45 69.0804C1499.02 81.6226 1447.81 97.0247 1394.33 108.554C1314.92 125.889 1230.61 137.235 1150.92 132.05C1076.58 127.214 1007.46 109.301 931.196 96.9937C887.835 89.9928 844.557 84.4463 800.198 83.3587C712.397 81.1189 624.699 96.9601 536.284 102.545C471.923 106.622 423.646 99.0372 372.814 81.5348C328.434 66.2542 280.053 48.7648 227.838 57.7032C178.377 66.1689 133.667 84.4024 89.0879 104.108" stroke="url(#paint83_linear_431_8685)" stroke-width="0.864782" stroke-miterlimit="10"/>
<path d="M1695.57 48.1159C1652.97 53.3318 1597.74 56.0055 1547.91 68.9069C1496.86 82.2578 1444.85 98.0215 1390.41 109.724C1310.65 127.069 1225.58 137.909 1145.59 131.639C1071.25 125.811 1002.74 106.523 926.43 94.2162C883.226 87.2437 839.913 82.1828 795.684 81.3717C708.211 79.6821 620.95 95.1772 532.92 100.708C468.982 104.736 419.651 97.8148 368.214 81.041C323.608 66.4966 275.682 49.1855 224.003 58.9713C175.229 68.2094 131.657 87.0318 87.5789 106.733" stroke="url(#paint84_linear_431_8685)" stroke-width="0.864782" stroke-miterlimit="10"/>
<path d="M1696.93 45.1375C1652.86 51.6735 1596.81 55.1094 1546.37 68.7367C1494.64 82.8367 1441.9 99.0241 1386.49 110.895C1306.38 128.25 1220.54 138.586 1140.26 131.226C1065.92 124.411 998.021 103.747 921.67 91.4367C878.625 84.4926 835.274 79.9149 791.179 79.3801C704.03 78.2409 617.21 93.3923 529.565 98.8691C466.051 102.847 415.668 96.5828 363.617 80.5452C318.791 66.7294 271.31 49.6016 220.176 60.2399C172.085 70.2453 129.659 89.662 86.0784 109.355" stroke="url(#paint85_linear_431_8685)" stroke-width="0.864782" stroke-miterlimit="10"/>
<path d="M1698.3 42.1562C1652.77 50.0097 1595.88 54.2077 1544.83 68.5634C1492.44 83.4152 1438.94 100.021 1382.57 112.065C1302.11 129.43 1215.5 139.265 1134.93 130.812C1060.58 123.013 993.304 100.969 916.905 88.6569C874.016 81.7438 830.634 77.6492 786.669 77.3883C699.845 76.7992 613.466 91.6045 526.205 97.027C463.115 100.956 411.682 95.3453 359.021 80.0439C313.974 66.9566 266.935 50.0071 216.345 61.5031C168.929 72.2758 127.648 92.2891 84.5693 111.974" stroke="url(#paint86_linear_431_8685)" stroke-width="0.864782" stroke-miterlimit="10"/>
<path d="M1699.67 39.1752C1652.66 48.3488 1594.94 53.3088 1543.29 68.3906C1490.23 83.9915 1435.99 101.021 1378.65 113.235C1297.84 130.611 1210.46 139.95 1129.6 130.399C1055.24 121.618 988.591 98.1898 912.144 85.8774C869.415 78.9927 825.995 75.3812 782.163 75.3967C695.663 75.3579 609.726 89.8196 522.85 95.1879C460.183 99.0681 407.704 94.1029 354.429 79.5481C309.166 67.1815 262.563 50.418 212.518 62.7691C165.785 74.3039 125.651 94.9166 83.0734 114.594" stroke="url(#paint87_linear_431_8685)" stroke-width="0.864782" stroke-miterlimit="10"/>
<path d="M1701.04 36.1939C1652.56 46.685 1594.01 52.4072 1541.75 68.2174C1488.02 84.5675 1433.04 102.018 1374.73 114.403C1293.57 131.786 1205.42 140.637 1124.27 129.983C1049.9 120.223 983.869 95.4099 907.379 83.0976C864.806 76.2413 821.351 73.1129 777.649 73.4048C691.478 73.9137 605.977 88.0344 519.486 93.3458C457.243 97.177 403.717 92.8524 349.824 79.0495C304.345 67.3985 258.174 50.821 208.679 64.0349C162.616 76.3292 123.64 97.5438 81.5557 117.216" stroke="url(#paint88_linear_431_8685)" stroke-width="0.864782" stroke-miterlimit="10"/>
<path d="M1702.41 33.2152C1652.45 45.0264 1593.07 51.5107 1540.21 68.0468C1485.81 85.1462 1430.08 103.021 1370.81 115.576C1289.29 132.97 1200.37 141.329 1118.94 129.575C1044.56 118.838 979.152 92.6354 902.614 80.323C860.201 73.4977 816.707 70.8524 773.139 71.4207C687.292 72.4799 602.232 86.2544 516.126 91.5142C454.307 95.2962 399.739 91.6072 345.228 78.5611C299.533 67.6231 253.79 51.2342 204.852 65.3085C159.459 78.3622 121.638 100.181 80.0552 119.843" stroke="url(#paint89_linear_431_8685)" stroke-width="0.864782" stroke-miterlimit="10"/>
<path d="M1703.78 30.2342C1652.35 43.3629 1592.14 50.6093 1538.67 67.8739C1483.61 85.7224 1427.13 104.018 1366.89 116.744C1285.03 134.148 1195.32 142.022 1113.6 129.159C1039.21 117.449 974.43 89.8558 897.849 77.5409C855.592 70.7441 812.063 68.5818 768.629 69.4265C683.107 71.036 598.488 84.4669 512.762 89.6724C451.367 93.4054 395.753 90.3441 340.627 78.0602C294.716 67.83 249.397 51.6323 201.017 66.5719C156.29 80.3826 119.632 102.806 78.5461 122.461" stroke="url(#paint90_linear_431_8685)" stroke-width="0.864782" stroke-miterlimit="10"/>
<path d="M1705.15 27.2532C1652.25 41.702 1591.21 49.7104 1537.13 67.6985C1481.4 86.2961 1424.17 105.015 1362.97 117.911C1280.75 135.326 1190.26 142.714 1108.27 128.744C1033.85 116.062 969.708 87.0737 893.08 74.7588C850.983 67.9904 807.415 66.3138 764.115 67.4324C678.921 69.5921 594.739 82.6768 509.398 87.8281C448.426 91.5146 391.77 89.0733 336.026 77.5592C289.895 68.0317 244.999 52.0277 197.181 67.8328C153.116 82.4004 117.621 105.429 77.0371 125.078" stroke="url(#paint91_linear_431_8685)" stroke-width="0.864782" stroke-miterlimit="10"/>
<path d="M1706.52 24.2716C1652.15 40.0379 1590.28 48.8085 1535.59 67.525C1479.19 86.8719 1421.22 106.015 1359.06 119.081C1276.48 136.506 1185.2 143.414 1102.94 128.33C1028.5 114.679 964.995 84.2962 888.319 71.9813C846.377 65.2439 802.78 64.0478 759.605 65.4428C674.736 68.1527 590.999 80.8939 506.038 85.9909C445.49 89.6283 387.788 87.8045 331.426 77.0654C285.078 68.2354 240.598 52.4278 193.35 69.1034C149.942 84.4254 115.619 108.063 75.5322 127.702" stroke="url(#paint92_linear_431_8685)" stroke-width="0.864782" stroke-miterlimit="10"/>
<path d="M1707.89 21.2932C1652.05 38.3796 1589.35 47.9123 1534.05 67.3547C1476.99 87.4534 1418.27 107.015 1355.14 120.252C1272.21 137.687 1180.08 144.213 1097.61 127.919C1023.09 113.388 960.274 81.5219 883.559 69.2044C841.777 62.4954 798.14 61.785 755.1 63.4564C670.555 66.7166 587.259 79.1142 502.683 84.1544C442.559 87.7427 383.81 86.5259 326.834 76.5722C280.265 68.4346 236.196 52.8284 189.524 70.3747C146.769 86.4484 113.618 110.696 74.0321 130.33" stroke="url(#paint93_linear_431_8685)" stroke-width="0.864782" stroke-miterlimit="10"/>
<path d="M1709.25 18.3119C1651.95 36.7184 1588.41 47.0106 1532.5 67.1815C1474.77 88.0293 1415.31 108.014 1351.22 121.422C1267.94 138.868 1175.03 144.869 1092.28 127.506C1017.74 111.967 955.556 78.7421 878.794 66.4246C837.168 59.744 793.496 59.5167 750.59 61.4645C666.369 65.275 583.514 77.3264 499.323 82.3149C439.623 85.8541 379.823 85.2419 322.238 76.0761C275.444 68.6282 231.747 53.19 185.693 71.6404C143.548 88.4349 111.615 113.323 72.5273 132.949" stroke="url(#paint94_linear_431_8685)" stroke-width="0.864782" stroke-miterlimit="10"/>
<path d="M1710.62 15.3309C1651.85 35.0549 1587.48 46.1118 1530.97 67.0086C1472.57 88.6056 1412.36 109.012 1347.3 122.592C1263.67 140.048 1170 145.528 1086.95 127.093C1012.4 110.544 950.839 75.9652 874.033 63.6451C832.567 56.9955 788.857 57.2512 746.085 59.4729C662.192 63.8337 579.774 75.5415 495.968 80.4732C436.692 83.9633 375.841 83.9478 317.641 75.5751C270.623 68.8118 227.371 53.6139 181.862 72.9039C140.396 90.4812 109.609 115.951 71.0227 135.566" stroke="url(#paint95_linear_431_8685)" stroke-width="0.864782" stroke-miterlimit="10"/>
</g>
<defs>
<linearGradient id="paint0_linear_431_8685" x1="671.635" y1="38.942" x2="671.635" y2="280.612" gradientUnits="userSpaceOnUse">
<stop stop-color="#4441B8" stop-opacity="0.04"/>
<stop offset="1" stop-color="#47A348" stop-opacity="0.2"/>
</linearGradient>
<linearGradient id="paint1_linear_431_8685" x1="672.101" y1="46.0416" x2="672.101" y2="273.595" gradientUnits="userSpaceOnUse">
<stop stop-color="#4441B8" stop-opacity="0.04"/>
<stop offset="1" stop-color="#47A348" stop-opacity="0.2"/>
</linearGradient>
<linearGradient id="paint2_linear_431_8685" x1="672.789" y1="53.0612" x2="672.789" y2="266.579" gradientUnits="userSpaceOnUse">
<stop stop-color="#4441B8" stop-opacity="0.04"/>
<stop offset="1" stop-color="#47A348" stop-opacity="0.2"/>
</linearGradient>
<linearGradient id="paint3_linear_431_8685" x1="673.68" y1="59.9837" x2="673.68" y2="260.898" gradientUnits="userSpaceOnUse">
<stop stop-color="#4441B8" stop-opacity="0.04"/>
<stop offset="1" stop-color="#47A348" stop-opacity="0.2"/>
</linearGradient>
<linearGradient id="paint4_linear_431_8685" x1="674.739" y1="66.7943" x2="674.739" y2="263.363" gradientUnits="userSpaceOnUse">
<stop stop-color="#4441B8" stop-opacity="0.04"/>
<stop offset="1" stop-color="#47A348" stop-opacity="0.2"/>
</linearGradient>
<linearGradient id="paint5_linear_431_8685" x1="675.941" y1="73.5001" x2="675.941" y2="265.825" gradientUnits="userSpaceOnUse">
<stop stop-color="#4441B8" stop-opacity="0.04"/>
<stop offset="1" stop-color="#47A348" stop-opacity="0.2"/>
</linearGradient>
<linearGradient id="paint6_linear_431_8685" x1="677.263" y1="80.0425" x2="677.263" y2="268.289" gradientUnits="userSpaceOnUse">
<stop stop-color="#4441B8" stop-opacity="0.04"/>
<stop offset="1" stop-color="#47A348" stop-opacity="0.2"/>
</linearGradient>
<linearGradient id="paint7_linear_431_8685" x1="678.685" y1="86.4082" x2="678.685" y2="270.757" gradientUnits="userSpaceOnUse">
<stop stop-color="#4441B8" stop-opacity="0.04"/>
<stop offset="1" stop-color="#47A348" stop-opacity="0.2"/>
</linearGradient>
<linearGradient id="paint8_linear_431_8685" x1="680.206" y1="92.5606" x2="680.206" y2="273.216" gradientUnits="userSpaceOnUse">
<stop stop-color="#4441B8" stop-opacity="0.04"/>
<stop offset="1" stop-color="#47A348" stop-opacity="0.2"/>
</linearGradient>
<linearGradient id="paint9_linear_431_8685" x1="681.802" y1="98.4923" x2="681.802" y2="275.681" gradientUnits="userSpaceOnUse">
<stop stop-color="#4441B8" stop-opacity="0.04"/>
<stop offset="1" stop-color="#47A348" stop-opacity="0.2"/>
</linearGradient>
<linearGradient id="paint10_linear_431_8685" x1="683.471" y1="104.151" x2="683.471" y2="278.14" gradientUnits="userSpaceOnUse">
<stop stop-color="#4441B8" stop-opacity="0.04"/>
<stop offset="1" stop-color="#47A348" stop-opacity="0.2"/>
</linearGradient>
<linearGradient id="paint11_linear_431_8685" x1="685.208" y1="109.514" x2="685.208" y2="280.61" gradientUnits="userSpaceOnUse">
<stop stop-color="#4441B8" stop-opacity="0.04"/>
<stop offset="1" stop-color="#47A348" stop-opacity="0.2"/>
</linearGradient>
<linearGradient id="paint12_linear_431_8685" x1="686.972" y1="114.481" x2="686.972" y2="283.071" gradientUnits="userSpaceOnUse">
<stop stop-color="#4441B8" stop-opacity="0.04"/>
<stop offset="1" stop-color="#47A348" stop-opacity="0.2"/>
</linearGradient>
<linearGradient id="paint13_linear_431_8685" x1="688.736" y1="118.737" x2="688.736" y2="285.534" gradientUnits="userSpaceOnUse">
<stop stop-color="#4441B8" stop-opacity="0.04"/>
<stop offset="1" stop-color="#47A348" stop-opacity="0.2"/>
</linearGradient>
<linearGradient id="paint14_linear_431_8685" x1="690.505" y1="121.997" x2="690.505" y2="287.993" gradientUnits="userSpaceOnUse">
<stop stop-color="#4441B8" stop-opacity="0.04"/>
<stop offset="1" stop-color="#47A348" stop-opacity="0.2"/>
</linearGradient>
<linearGradient id="paint15_linear_431_8685" x1="692.265" y1="124.124" x2="692.265" y2="290.46" gradientUnits="userSpaceOnUse">
<stop stop-color="#4441B8" stop-opacity="0.04"/>
<stop offset="1" stop-color="#47A348" stop-opacity="0.2"/>
</linearGradient>
<linearGradient id="paint16_linear_431_8685" x1="694.031" y1="125.098" x2="694.031" y2="292.925" gradientUnits="userSpaceOnUse">
<stop stop-color="#4441B8" stop-opacity="0.04"/>
<stop offset="1" stop-color="#47A348" stop-opacity="0.2"/>
</linearGradient>
<linearGradient id="paint17_linear_431_8685" x1="695.797" y1="125.041" x2="695.797" y2="295.384" gradientUnits="userSpaceOnUse">
<stop stop-color="#4441B8" stop-opacity="0.04"/>
<stop offset="1" stop-color="#47A348" stop-opacity="0.2"/>
</linearGradient>
<linearGradient id="paint18_linear_431_8685" x1="697.557" y1="124.17" x2="697.557" y2="297.851" gradientUnits="userSpaceOnUse">
<stop stop-color="#4441B8" stop-opacity="0.04"/>
<stop offset="1" stop-color="#47A348" stop-opacity="0.2"/>
</linearGradient>
<linearGradient id="paint19_linear_431_8685" x1="699.328" y1="122.653" x2="699.328" y2="300.316" gradientUnits="userSpaceOnUse">
<stop stop-color="#4441B8" stop-opacity="0.04"/>
<stop offset="1" stop-color="#47A348" stop-opacity="0.2"/>
</linearGradient>
<linearGradient id="paint20_linear_431_8685" x1="701.088" y1="120.617" x2="701.088" y2="302.777" gradientUnits="userSpaceOnUse">
<stop stop-color="#4441B8" stop-opacity="0.04"/>
<stop offset="1" stop-color="#47A348" stop-opacity="0.2"/>
</linearGradient>
<linearGradient id="paint21_linear_431_8685" x1="702.854" y1="118.141" x2="702.854" y2="305.244" gradientUnits="userSpaceOnUse">
<stop stop-color="#4441B8" stop-opacity="0.04"/>
<stop offset="1" stop-color="#47A348" stop-opacity="0.2"/>
</linearGradient>
<linearGradient id="paint22_linear_431_8685" x1="704.62" y1="115.305" x2="704.62" y2="307.704" gradientUnits="userSpaceOnUse">
<stop stop-color="#4441B8" stop-opacity="0.04"/>
<stop offset="1" stop-color="#47A348" stop-opacity="0.2"/>
</linearGradient>
<linearGradient id="paint23_linear_431_8685" x1="706.38" y1="112.191" x2="706.38" y2="310.174" gradientUnits="userSpaceOnUse">
<stop stop-color="#4441B8" stop-opacity="0.04"/>
<stop offset="1" stop-color="#47A348" stop-opacity="0.2"/>
</linearGradient>
<linearGradient id="paint24_linear_431_8685" x1="708.146" y1="108.843" x2="708.146" y2="312.628" gradientUnits="userSpaceOnUse">
<stop stop-color="#4441B8" stop-opacity="0.04"/>
<stop offset="1" stop-color="#47A348" stop-opacity="0.2"/>
</linearGradient>
<linearGradient id="paint25_linear_431_8685" x1="709.913" y1="105.202" x2="709.913" y2="315.101" gradientUnits="userSpaceOnUse">
<stop stop-color="#4441B8" stop-opacity="0.04"/>
<stop offset="1" stop-color="#47A348" stop-opacity="0.2"/>
</linearGradient>
<linearGradient id="paint26_linear_431_8685" x1="711.673" y1="98.1849" x2="711.673" y2="317.565" gradientUnits="userSpaceOnUse">
<stop stop-color="#4441B8" stop-opacity="0.04"/>
<stop offset="1" stop-color="#47A348" stop-opacity="0.2"/>
</linearGradient>
<linearGradient id="paint27_linear_431_8685" x1="713.439" y1="91.1687" x2="713.439" y2="320.022" gradientUnits="userSpaceOnUse">
<stop stop-color="#4441B8" stop-opacity="0.04"/>
<stop offset="1" stop-color="#47A348" stop-opacity="0.2"/>
</linearGradient>
<linearGradient id="paint28_linear_431_8685" x1="715.208" y1="84.1517" x2="715.208" y2="322.486" gradientUnits="userSpaceOnUse">
<stop stop-color="#4441B8" stop-opacity="0.04"/>
<stop offset="1" stop-color="#47A348" stop-opacity="0.2"/>
</linearGradient>
<linearGradient id="paint29_linear_431_8685" x1="716.972" y1="77.1356" x2="716.972" y2="324.951" gradientUnits="userSpaceOnUse">
<stop stop-color="#4441B8" stop-opacity="0.04"/>
<stop offset="1" stop-color="#47A348" stop-opacity="0.2"/>
</linearGradient>
<linearGradient id="paint30_linear_431_8685" x1="718.736" y1="70.1192" x2="718.736" y2="327.415" gradientUnits="userSpaceOnUse">
<stop stop-color="#4441B8" stop-opacity="0.04"/>
<stop offset="1" stop-color="#47A348" stop-opacity="0.2"/>
</linearGradient>
<linearGradient id="paint31_linear_431_8685" x1="720.5" y1="63.1028" x2="720.5" y2="329.88" gradientUnits="userSpaceOnUse">
<stop stop-color="#4441B8" stop-opacity="0.04"/>
<stop offset="1" stop-color="#47A348" stop-opacity="0.2"/>
</linearGradient>
<linearGradient id="paint32_linear_431_8685" x1="684.43" y1="0.470947" x2="684.43" y2="234.362" gradientUnits="userSpaceOnUse">
<stop stop-color="#4441B8" stop-opacity="0.04"/>
<stop offset="1" stop-color="#47A348" stop-opacity="0.2"/>
</linearGradient>
<linearGradient id="paint33_linear_431_8685" x1="690.226" y1="6.10987" x2="690.226" y2="229.497" gradientUnits="userSpaceOnUse">
<stop stop-color="#4441B8" stop-opacity="0.04"/>
<stop offset="1" stop-color="#47A348" stop-opacity="0.2"/>
</linearGradient>
<linearGradient id="paint34_linear_431_8685" x1="696.016" y1="11.7575" x2="696.016" y2="224.646" gradientUnits="userSpaceOnUse">
<stop stop-color="#4441B8" stop-opacity="0.04"/>
<stop offset="1" stop-color="#47A348" stop-opacity="0.2"/>
</linearGradient>
<linearGradient id="paint35_linear_431_8685" x1="701.816" y1="17.3929" x2="701.816" y2="219.794" gradientUnits="userSpaceOnUse">
<stop stop-color="#4441B8" stop-opacity="0.04"/>
<stop offset="1" stop-color="#47A348" stop-opacity="0.2"/>
</linearGradient>
<linearGradient id="paint36_linear_431_8685" x1="707.606" y1="23.0192" x2="707.606" y2="214.932" gradientUnits="userSpaceOnUse">
<stop stop-color="#4441B8" stop-opacity="0.04"/>
<stop offset="1" stop-color="#47A348" stop-opacity="0.2"/>
</linearGradient>
<linearGradient id="paint37_linear_431_8685" x1="713.398" y1="28.6505" x2="713.398" y2="211.683" gradientUnits="userSpaceOnUse">
<stop stop-color="#4441B8" stop-opacity="0.04"/>
<stop offset="1" stop-color="#47A348" stop-opacity="0.2"/>
</linearGradient>
<linearGradient id="paint38_linear_431_8685" x1="719.192" y1="34.2783" x2="719.192" y2="208.699" gradientUnits="userSpaceOnUse">
<stop stop-color="#4441B8" stop-opacity="0.04"/>
<stop offset="1" stop-color="#47A348" stop-opacity="0.2"/>
</linearGradient>
<linearGradient id="paint39_linear_431_8685" x1="724.99" y1="38.7341" x2="724.99" y2="205.715" gradientUnits="userSpaceOnUse">
<stop stop-color="#4441B8" stop-opacity="0.04"/>
<stop offset="1" stop-color="#47A348" stop-opacity="0.2"/>
</linearGradient>
<linearGradient id="paint40_linear_431_8685" x1="730.782" y1="41.2083" x2="730.782" y2="202.731" gradientUnits="userSpaceOnUse">
<stop stop-color="#4441B8" stop-opacity="0.04"/>
<stop offset="1" stop-color="#47A348" stop-opacity="0.2"/>
</linearGradient>
<linearGradient id="paint41_linear_431_8685" x1="736.581" y1="43.6481" x2="736.581" y2="199.747" gradientUnits="userSpaceOnUse">
<stop stop-color="#4441B8" stop-opacity="0.04"/>
<stop offset="1" stop-color="#47A348" stop-opacity="0.2"/>
</linearGradient>
<linearGradient id="paint42_linear_431_8685" x1="742.368" y1="46.0494" x2="742.368" y2="196.766" gradientUnits="userSpaceOnUse">
<stop stop-color="#4441B8" stop-opacity="0.04"/>
<stop offset="1" stop-color="#47A348" stop-opacity="0.2"/>
</linearGradient>
<linearGradient id="paint43_linear_431_8685" x1="748.169" y1="48.3952" x2="748.169" y2="193.782" gradientUnits="userSpaceOnUse">
<stop stop-color="#4441B8" stop-opacity="0.04"/>
<stop offset="1" stop-color="#47A348" stop-opacity="0.2"/>
</linearGradient>
<linearGradient id="paint44_linear_431_8685" x1="753.956" y1="50.6827" x2="753.956" y2="190.799" gradientUnits="userSpaceOnUse">
<stop stop-color="#4441B8" stop-opacity="0.04"/>
<stop offset="1" stop-color="#47A348" stop-opacity="0.2"/>
</linearGradient>
<linearGradient id="paint45_linear_431_8685" x1="759.755" y1="52.9012" x2="759.755" y2="187.815" gradientUnits="userSpaceOnUse">
<stop stop-color="#4441B8" stop-opacity="0.04"/>
<stop offset="1" stop-color="#47A348" stop-opacity="0.2"/>
</linearGradient>
<linearGradient id="paint46_linear_431_8685" x1="765.544" y1="55.0412" x2="765.544" y2="184.831" gradientUnits="userSpaceOnUse">
<stop stop-color="#4441B8" stop-opacity="0.04"/>
<stop offset="1" stop-color="#47A348" stop-opacity="0.2"/>
</linearGradient>
<linearGradient id="paint47_linear_431_8685" x1="771.345" y1="57.0855" x2="771.345" y2="181.847" gradientUnits="userSpaceOnUse">
<stop stop-color="#4441B8" stop-opacity="0.04"/>
<stop offset="1" stop-color="#47A348" stop-opacity="0.2"/>
</linearGradient>
<linearGradient id="paint48_linear_431_8685" x1="777.133" y1="59.0182" x2="777.133" y2="178.863" gradientUnits="userSpaceOnUse">
<stop stop-color="#4441B8" stop-opacity="0.04"/>
<stop offset="1" stop-color="#47A348" stop-opacity="0.2"/>
</linearGradient>
<linearGradient id="paint49_linear_431_8685" x1="782.931" y1="60.8129" x2="782.931" y2="175.879" gradientUnits="userSpaceOnUse">
<stop stop-color="#4441B8" stop-opacity="0.04"/>
<stop offset="1" stop-color="#47A348" stop-opacity="0.2"/>
</linearGradient>
<linearGradient id="paint50_linear_431_8685" x1="788.725" y1="62.4602" x2="788.725" y2="172.899" gradientUnits="userSpaceOnUse">
<stop stop-color="#4441B8" stop-opacity="0.04"/>
<stop offset="1" stop-color="#47A348" stop-opacity="0.2"/>
</linearGradient>
<linearGradient id="paint51_linear_431_8685" x1="794.517" y1="63.9139" x2="794.517" y2="169.915" gradientUnits="userSpaceOnUse">
<stop stop-color="#4441B8" stop-opacity="0.04"/>
<stop offset="1" stop-color="#47A348" stop-opacity="0.2"/>
</linearGradient>
<linearGradient id="paint52_linear_431_8685" x1="800.311" y1="65.1525" x2="800.311" y2="166.931" gradientUnits="userSpaceOnUse">
<stop stop-color="#4441B8" stop-opacity="0.04"/>
<stop offset="1" stop-color="#47A348" stop-opacity="0.2"/>
</linearGradient>
<linearGradient id="paint53_linear_431_8685" x1="806.105" y1="66.1418" x2="806.105" y2="163.947" gradientUnits="userSpaceOnUse">
<stop stop-color="#4441B8" stop-opacity="0.04"/>
<stop offset="1" stop-color="#47A348" stop-opacity="0.2"/>
</linearGradient>
<linearGradient id="paint54_linear_431_8685" x1="811.903" y1="66.8614" x2="811.903" y2="160.963" gradientUnits="userSpaceOnUse">
<stop stop-color="#4441B8" stop-opacity="0.04"/>
<stop offset="1" stop-color="#47A348" stop-opacity="0.2"/>
</linearGradient>
<linearGradient id="paint55_linear_431_8685" x1="817.695" y1="67.2884" x2="817.695" y2="157.979" gradientUnits="userSpaceOnUse">
<stop stop-color="#4441B8" stop-opacity="0.04"/>
<stop offset="1" stop-color="#47A348" stop-opacity="0.2"/>
</linearGradient>
<linearGradient id="paint56_linear_431_8685" x1="823.487" y1="67.4268" x2="823.487" y2="154.996" gradientUnits="userSpaceOnUse">
<stop stop-color="#4441B8" stop-opacity="0.04"/>
<stop offset="1" stop-color="#47A348" stop-opacity="0.2"/>
</linearGradient>
<linearGradient id="paint57_linear_431_8685" x1="829.279" y1="67.2934" x2="829.279" y2="152.688" gradientUnits="userSpaceOnUse">
<stop stop-color="#4441B8" stop-opacity="0.04"/>
<stop offset="1" stop-color="#47A348" stop-opacity="0.2"/>
</linearGradient>
<linearGradient id="paint58_linear_431_8685" x1="835.075" y1="66.9136" x2="835.075" y2="156.935" gradientUnits="userSpaceOnUse">
<stop stop-color="#4441B8" stop-opacity="0.04"/>
<stop offset="1" stop-color="#47A348" stop-opacity="0.2"/>
</linearGradient>
<linearGradient id="paint59_linear_431_8685" x1="840.873" y1="66.3181" x2="840.873" y2="161.259" gradientUnits="userSpaceOnUse">
<stop stop-color="#4441B8" stop-opacity="0.04"/>
<stop offset="1" stop-color="#47A348" stop-opacity="0.2"/>
</linearGradient>
<linearGradient id="paint60_linear_431_8685" x1="846.667" y1="65.5451" x2="846.667" y2="165.813" gradientUnits="userSpaceOnUse">
<stop stop-color="#4441B8" stop-opacity="0.04"/>
<stop offset="1" stop-color="#47A348" stop-opacity="0.2"/>
</linearGradient>
<linearGradient id="paint61_linear_431_8685" x1="852.457" y1="64.5982" x2="852.457" y2="170.6" gradientUnits="userSpaceOnUse">
<stop stop-color="#4441B8" stop-opacity="0.04"/>
<stop offset="1" stop-color="#47A348" stop-opacity="0.2"/>
</linearGradient>
<linearGradient id="paint62_linear_431_8685" x1="858.258" y1="63.4953" x2="858.258" y2="175.573" gradientUnits="userSpaceOnUse">
<stop stop-color="#4441B8" stop-opacity="0.04"/>
<stop offset="1" stop-color="#47A348" stop-opacity="0.2"/>
</linearGradient>
<linearGradient id="paint63_linear_431_8685" x1="864.052" y1="62.2176" x2="864.052" y2="180.687" gradientUnits="userSpaceOnUse">
<stop stop-color="#4441B8" stop-opacity="0.04"/>
<stop offset="1" stop-color="#47A348" stop-opacity="0.2"/>
</linearGradient>
<linearGradient id="paint64_linear_431_8685" x1="892.94" y1="31.2454" x2="892.94" y2="155.979" gradientUnits="userSpaceOnUse">
<stop stop-color="#4441B8" stop-opacity="0.04"/>
<stop offset="1" stop-color="#47A348" stop-opacity="0.2"/>
</linearGradient>
<linearGradient id="paint65_linear_431_8685" x1="892.87" y1="33.0138" x2="892.87" y2="153.658" gradientUnits="userSpaceOnUse">
<stop stop-color="#4441B8" stop-opacity="0.04"/>
<stop offset="1" stop-color="#47A348" stop-opacity="0.2"/>
</linearGradient>
<linearGradient id="paint66_linear_431_8685" x1="892.805" y1="34.7206" x2="892.805" y2="151.364" gradientUnits="userSpaceOnUse">
<stop stop-color="#4441B8" stop-opacity="0.04"/>
<stop offset="1" stop-color="#47A348" stop-opacity="0.2"/>
</linearGradient>
<linearGradient id="paint67_linear_431_8685" x1="892.732" y1="36.414" x2="892.732" y2="149.157" gradientUnits="userSpaceOnUse">
<stop stop-color="#4441B8" stop-opacity="0.04"/>
<stop offset="1" stop-color="#47A348" stop-opacity="0.2"/>
</linearGradient>
<linearGradient id="paint68_linear_431_8685" x1="892.667" y1="38.0169" x2="892.667" y2="147.04" gradientUnits="userSpaceOnUse">
<stop stop-color="#4441B8" stop-opacity="0.04"/>
<stop offset="1" stop-color="#47A348" stop-opacity="0.2"/>
</linearGradient>
<linearGradient id="paint69_linear_431_8685" x1="892.596" y1="39.5643" x2="892.596" y2="145.029" gradientUnits="userSpaceOnUse">
<stop stop-color="#4441B8" stop-opacity="0.04"/>
<stop offset="1" stop-color="#47A348" stop-opacity="0.2"/>
</linearGradient>
<linearGradient id="paint70_linear_431_8685" x1="892.533" y1="41.04" x2="892.533" y2="143.138" gradientUnits="userSpaceOnUse">
<stop stop-color="#4441B8" stop-opacity="0.04"/>
<stop offset="1" stop-color="#47A348" stop-opacity="0.2"/>
</linearGradient>
<linearGradient id="paint71_linear_431_8685" x1="892.46" y1="42.4379" x2="892.46" y2="141.388" gradientUnits="userSpaceOnUse">
<stop stop-color="#4441B8" stop-opacity="0.04"/>
<stop offset="1" stop-color="#47A348" stop-opacity="0.2"/>
</linearGradient>
<linearGradient id="paint72_linear_431_8685" x1="892.393" y1="43.7635" x2="892.393" y2="139.799" gradientUnits="userSpaceOnUse">
<stop stop-color="#4441B8" stop-opacity="0.04"/>
<stop offset="1" stop-color="#47A348" stop-opacity="0.2"/>
</linearGradient>
<linearGradient id="paint73_linear_431_8685" x1="892.323" y1="45.0202" x2="892.323" y2="138.391" gradientUnits="userSpaceOnUse">
<stop stop-color="#4441B8" stop-opacity="0.04"/>
<stop offset="1" stop-color="#47A348" stop-opacity="0.2"/>
</linearGradient>
<linearGradient id="paint74_linear_431_8685" x1="892.254" y1="46.2296" x2="892.254" y2="137.171" gradientUnits="userSpaceOnUse">
<stop stop-color="#4441B8" stop-opacity="0.04"/>
<stop offset="1" stop-color="#47A348" stop-opacity="0.2"/>
</linearGradient>
<linearGradient id="paint75_linear_431_8685" x1="892.189" y1="47.3859" x2="892.189" y2="136.141" gradientUnits="userSpaceOnUse">
<stop stop-color="#4441B8" stop-opacity="0.04"/>
<stop offset="1" stop-color="#47A348" stop-opacity="0.2"/>
</linearGradient>
<linearGradient id="paint76_linear_431_8685" x1="892.118" y1="48.503" x2="892.118" y2="135.299" gradientUnits="userSpaceOnUse">
<stop stop-color="#4441B8" stop-opacity="0.04"/>
<stop offset="1" stop-color="#47A348" stop-opacity="0.2"/>
</linearGradient>
<linearGradient id="paint77_linear_431_8685" x1="892.053" y1="49.5758" x2="892.053" y2="134.631" gradientUnits="userSpaceOnUse">
<stop stop-color="#4441B8" stop-opacity="0.04"/>
<stop offset="1" stop-color="#47A348" stop-opacity="0.2"/>
</linearGradient>
<linearGradient id="paint78_linear_431_8685" x1="891.982" y1="50.6138" x2="891.982" y2="134.121" gradientUnits="userSpaceOnUse">
<stop stop-color="#4441B8" stop-opacity="0.04"/>
<stop offset="1" stop-color="#47A348" stop-opacity="0.2"/>
</linearGradient>
<linearGradient id="paint79_linear_431_8685" x1="891.919" y1="51.6154" x2="891.919" y2="133.747" gradientUnits="userSpaceOnUse">
<stop stop-color="#4441B8" stop-opacity="0.04"/>
<stop offset="1" stop-color="#47A348" stop-opacity="0.2"/>
</linearGradient>
<linearGradient id="paint80_linear_431_8685" x1="891.846" y1="52.5796" x2="891.846" y2="133.483" gradientUnits="userSpaceOnUse">
<stop stop-color="#4441B8" stop-opacity="0.04"/>
<stop offset="1" stop-color="#47A348" stop-opacity="0.2"/>
</linearGradient>
<linearGradient id="paint81_linear_431_8685" x1="891.774" y1="53.5087" x2="891.774" y2="133.332" gradientUnits="userSpaceOnUse">
<stop stop-color="#4441B8" stop-opacity="0.04"/>
<stop offset="1" stop-color="#47A348" stop-opacity="0.2"/>
</linearGradient>
<linearGradient id="paint82_linear_431_8685" x1="891.705" y1="54.0786" x2="891.705" y2="133.276" gradientUnits="userSpaceOnUse">
<stop stop-color="#4441B8" stop-opacity="0.04"/>
<stop offset="1" stop-color="#47A348" stop-opacity="0.2"/>
</linearGradient>
<linearGradient id="paint83_linear_431_8685" x1="891.643" y1="51.0975" x2="891.643" y2="133.314" gradientUnits="userSpaceOnUse">
<stop stop-color="#4441B8" stop-opacity="0.04"/>
<stop offset="1" stop-color="#47A348" stop-opacity="0.2"/>
</linearGradient>
<linearGradient id="paint84_linear_431_8685" x1="891.573" y1="48.1159" x2="891.573" y2="133.434" gradientUnits="userSpaceOnUse">
<stop stop-color="#4441B8" stop-opacity="0.04"/>
<stop offset="1" stop-color="#47A348" stop-opacity="0.2"/>
</linearGradient>
<linearGradient id="paint85_linear_431_8685" x1="891.506" y1="45.1375" x2="891.506" y2="133.628" gradientUnits="userSpaceOnUse">
<stop stop-color="#4441B8" stop-opacity="0.04"/>
<stop offset="1" stop-color="#47A348" stop-opacity="0.2"/>
</linearGradient>
<linearGradient id="paint86_linear_431_8685" x1="891.437" y1="42.1562" x2="891.437" y2="133.891" gradientUnits="userSpaceOnUse">
<stop stop-color="#4441B8" stop-opacity="0.04"/>
<stop offset="1" stop-color="#47A348" stop-opacity="0.2"/>
</linearGradient>
<linearGradient id="paint87_linear_431_8685" x1="891.372" y1="39.1752" x2="891.372" y2="134.219" gradientUnits="userSpaceOnUse">
<stop stop-color="#4441B8" stop-opacity="0.04"/>
<stop offset="1" stop-color="#47A348" stop-opacity="0.2"/>
</linearGradient>
<linearGradient id="paint88_linear_431_8685" x1="891.299" y1="36.1939" x2="891.299" y2="134.602" gradientUnits="userSpaceOnUse">
<stop stop-color="#4441B8" stop-opacity="0.04"/>
<stop offset="1" stop-color="#47A348" stop-opacity="0.2"/>
</linearGradient>
<linearGradient id="paint89_linear_431_8685" x1="891.232" y1="33.2152" x2="891.232" y2="135.043" gradientUnits="userSpaceOnUse">
<stop stop-color="#4441B8" stop-opacity="0.04"/>
<stop offset="1" stop-color="#47A348" stop-opacity="0.2"/>
</linearGradient>
<linearGradient id="paint90_linear_431_8685" x1="891.163" y1="30.2342" x2="891.163" y2="135.528" gradientUnits="userSpaceOnUse">
<stop stop-color="#4441B8" stop-opacity="0.04"/>
<stop offset="1" stop-color="#47A348" stop-opacity="0.2"/>
</linearGradient>
<linearGradient id="paint91_linear_431_8685" x1="891.091" y1="27.2532" x2="891.091" y2="136.056" gradientUnits="userSpaceOnUse">
<stop stop-color="#4441B8" stop-opacity="0.04"/>
<stop offset="1" stop-color="#47A348" stop-opacity="0.2"/>
</linearGradient>
<linearGradient id="paint92_linear_431_8685" x1="891.024" y1="24.2716" x2="891.024" y2="136.629" gradientUnits="userSpaceOnUse">
<stop stop-color="#4441B8" stop-opacity="0.04"/>
<stop offset="1" stop-color="#47A348" stop-opacity="0.2"/>
</linearGradient>
<linearGradient id="paint93_linear_431_8685" x1="890.959" y1="21.2932" x2="890.959" y2="137.281" gradientUnits="userSpaceOnUse">
<stop stop-color="#4441B8" stop-opacity="0.04"/>
<stop offset="1" stop-color="#47A348" stop-opacity="0.2"/>
</linearGradient>
<linearGradient id="paint94_linear_431_8685" x1="890.89" y1="18.3119" x2="890.89" y2="137.903" gradientUnits="userSpaceOnUse">
<stop stop-color="#4441B8" stop-opacity="0.04"/>
<stop offset="1" stop-color="#47A348" stop-opacity="0.2"/>
</linearGradient>
<linearGradient id="paint95_linear_431_8685" x1="890.823" y1="15.3309" x2="890.823" y2="138.558" gradientUnits="userSpaceOnUse">
<stop stop-color="#4441B8" stop-opacity="0.04"/>
<stop offset="1" stop-color="#47A348" stop-opacity="0.2"/>
</linearGradient>
</defs>
</svg>
