<svg width="375" height="307" viewBox="0 0 375 307" fill="none" xmlns="http://www.w3.org/2000/svg">
<g opacity="0.7">
<path d="M1695.07 260.597C1711.05 245.911 1709.35 226.901 1697.68 211.019C1686.01 195.138 1665.55 181.778 1644.73 169.085C1617.21 152.304 1587.57 135.8 1550.48 126.21C1498.78 112.845 1438.74 114.434 1382.29 119.04C1282.06 127.22 1184.68 143.98 1089.98 163.914C988.463 185.282 884.949 210.821 776.523 207.405C679.222 204.34 612.845 177.993 542.59 144.037C477.066 112.368 422.866 71.5134 341.555 50.794C234.862 23.6062 103.536 37.5891 8.60043 75.8751C-86.3354 114.161 -148.141 173.466 -183.476 235.48" stroke="url(#paint0_linear_571_9143)" stroke-width="0.864782" stroke-miterlimit="10"/>
<path d="M1704.3 254.095C1718.82 241.415 1714.57 224.437 1701.01 209.54C1687.48 194.685 1666.26 181.672 1644.45 169.729C1615.75 154.005 1585.27 138.141 1547.2 129.164C1493.09 116.402 1430.39 117.591 1371.8 121.601C1271.96 128.431 1175.15 144.19 1081.23 162.889C981.329 182.78 879.847 207.359 773.284 203.572C676.078 200.117 608.418 174.646 537.449 142.469C471.051 112.504 415.87 74.3907 335.272 55.4572C229.872 30.6968 101.301 45.3716 6.68069 82.9849C-88.3329 120.68 -151.709 177.341 -189.171 237.764" stroke="url(#paint1_linear_571_9143)" stroke-width="0.864782" stroke-miterlimit="10"/>
<path d="M1713.52 247.594C1726.58 236.919 1719.85 222.017 1704.34 208.063C1689.01 194.272 1666.98 181.569 1644.17 170.378C1614.3 155.717 1582.93 140.499 1543.91 132.12C1487.35 119.976 1422.08 120.769 1361.31 124.163C1261.91 129.715 1165.64 144.401 1072.49 161.865C974.212 180.289 874.736 203.888 770.045 199.737C672.935 195.885 604.111 171.206 532.304 140.901C465.158 112.562 408.908 77.2733 328.989 60.1208C224.926 37.7879 99.0653 53.1545 4.76076 90.0975C-90.335 127.201 -155.28 181.217 -194.87 240.051" stroke="url(#paint2_linear_571_9143)" stroke-width="0.864782" stroke-miterlimit="10"/>
<path d="M1722.75 241.092C1734.34 232.423 1725.2 219.637 1707.66 206.583C1690.6 193.881 1667.71 181.469 1643.89 171.024C1612.88 157.427 1580.57 142.869 1540.63 135.074C1481.59 123.557 1413.8 123.96 1350.82 126.722C1251.91 131.06 1156.16 144.612 1063.74 160.838C967.125 177.801 869.629 200.407 766.811 195.902C669.791 191.65 599.74 167.814 527.167 139.331C459.2 112.655 401.99 80.1507 322.711 64.7817C220.022 44.8714 96.8342 60.9371 2.84532 97.205C-92.3283 133.715 -158.843 185.088 -200.56 242.329" stroke="url(#paint3_linear_571_9143)" stroke-width="0.864782" stroke-miterlimit="10"/>
<path d="M1731.97 234.59C1742.11 227.927 1730.64 217.284 1710.99 205.104C1692.28 193.505 1668.47 181.368 1643.61 171.67C1611.48 159.136 1578.19 145.251 1537.34 138.031C1475.8 127.155 1405.54 127.172 1340.33 129.283C1241.94 132.47 1146.7 144.83 1055 159.811C960.06 175.321 864.519 196.914 763.573 192.064C666.639 187.408 595.351 164.417 522.026 137.76C453.228 112.749 395.102 83.0303 316.428 69.44C215.162 51.9476 94.5988 68.7147 0.925571 104.31C-94.3259 140.233 -162.41 188.962 -206.255 244.613" stroke="url(#paint4_linear_571_9143)" stroke-width="0.864782" stroke-miterlimit="10"/>
<path d="M1741.19 228.088C1749.87 223.434 1736.17 214.945 1714.32 203.627C1694.07 193.134 1669.24 181.268 1643.33 172.317C1610.11 160.84 1575.8 147.645 1534.06 140.985C1470 130.765 1397.3 130.401 1329.85 131.843C1231.99 133.935 1137.26 145.048 1046.25 158.784C953.016 172.855 859.404 193.412 760.334 188.229C663.483 183.164 590.958 161.025 516.885 136.192C447.248 112.847 388.253 85.908 310.15 74.1036C210.35 59.0194 92.506 76.6124 -0.989942 111.422C-96.1852 146.865 -165.977 192.835 -211.949 246.895" stroke="url(#paint5_linear_571_9143)" stroke-width="0.864782" stroke-miterlimit="10"/>
<path d="M1750.41 221.586C1757.63 218.938 1741.8 212.607 1717.65 202.147C1695.95 192.749 1670.03 181.162 1643.05 172.963C1608.75 162.542 1573.4 150.051 1530.77 143.942C1464.17 134.395 1389.08 133.652 1319.36 134.407C1222.06 135.458 1127.85 145.277 1037.5 157.762C945.998 170.404 854.293 189.905 757.095 184.399C660.326 178.917 586.552 157.637 511.744 134.627C441.26 112.947 381.447 88.7832 303.867 78.7694C205.581 66.0816 90.2922 84.4167 -2.90974 118.535C-98.1612 153.402 -169.545 196.708 -217.644 249.179" stroke="url(#paint6_linear_571_9143)" stroke-width="0.864782" stroke-miterlimit="10"/>
<path d="M1759.64 215.084C1765.39 214.443 1747.52 210.253 1720.98 200.671C1697.92 192.342 1670.84 181.057 1642.77 173.612C1607.42 164.24 1570.98 152.471 1527.49 146.898C1458.33 138.038 1380.88 136.925 1308.86 136.968C1212.15 137.026 1118.47 145.512 1028.75 156.737C938.998 167.965 849.173 186.386 753.852 180.564C657.165 174.658 582.137 154.248 506.598 133.059C435.262 113.048 374.676 91.6489 297.58 83.4329C200.859 73.1247 88.0696 92.2187 -4.83398 125.647C-100.146 159.943 -173.121 200.587 -223.347 251.465" stroke="url(#paint7_linear_571_9143)" stroke-width="0.864782" stroke-miterlimit="10"/>
<path d="M1768.86 208.582C1773.15 209.947 1753.32 207.871 1724.31 199.191C1699.95 191.904 1671.66 180.94 1642.49 174.256C1606.11 165.923 1568.56 154.896 1524.2 149.85C1452.47 141.691 1372.68 140.214 1298.38 139.525C1202.26 138.634 1109.11 145.751 1020.01 155.705C932.037 165.535 844.067 182.85 750.627 176.724C654.018 170.39 577.727 150.855 501.47 131.484C429.27 113.144 367.965 94.4951 291.315 88.0866C196.202 80.1364 85.8645 100.008 -6.73636 132.748C-102.122 166.473 -176.679 204.458 -229.033 253.744" stroke="url(#paint8_linear_571_9143)" stroke-width="0.864782" stroke-miterlimit="10"/>
<path d="M1778.08 202.081C1780.92 205.454 1759.17 205.451 1727.64 197.714C1702.04 191.433 1672.49 180.82 1642.2 174.905C1604.81 167.601 1566.13 157.338 1520.92 152.809C1446.61 145.366 1364.49 143.533 1287.88 142.089C1192.37 140.289 1099.77 146.008 1011.26 154.684C925.088 163.129 838.943 179.312 747.384 172.892C650.853 166.122 573.295 147.475 496.325 129.918C423.255 113.249 361.276 97.337 285.028 92.7527C191.571 87.1341 83.6377 107.808 -8.66486 139.863C-104.107 173.007 -180.251 208.331 -234.728 256.028" stroke="url(#paint9_linear_571_9143)" stroke-width="0.864782" stroke-miterlimit="10"/>
<path d="M1787.31 195.579C1788.69 200.958 1765.06 202.988 1730.97 196.235C1704.17 190.922 1673.34 180.691 1641.93 175.551C1603.53 169.267 1563.71 159.785 1517.64 155.763C1440.74 149.05 1356.31 146.869 1277.4 144.648C1182.49 141.976 1090.47 146.271 1002.52 153.656C918.17 160.74 833.832 175.762 744.15 169.056C647.692 161.846 568.863 144.095 491.184 128.348C417.236 113.357 354.626 100.154 278.745 97.4134C186.988 94.0978 81.4151 115.602 -10.5847 146.97C-106.096 179.535 -183.818 212.202 -240.427 258.307" stroke="url(#paint10_linear_571_9143)" stroke-width="0.864782" stroke-miterlimit="10"/>
<path d="M1796.53 189.077C1796.45 196.462 1770.96 200.481 1734.3 194.757C1706.3 190.384 1674.19 180.554 1641.65 176.197C1602.25 170.923 1561.27 162.241 1514.35 158.719C1434.87 152.751 1348.13 150.233 1266.91 147.212C1172.61 143.702 1081.19 146.553 993.769 152.634C911.269 158.372 828.717 172.204 740.911 165.226C644.527 157.565 564.417 140.724 486.042 126.784C411.213 113.474 348.014 102.958 272.467 102.081C182.448 101.038 79.1925 123.402 -12.5004 154.085C-108.08 186.07 -187.381 216.08 -246.117 260.595" stroke="url(#paint11_linear_571_9143)" stroke-width="0.864782" stroke-miterlimit="10"/>
<path d="M1805.76 182.574C1804.21 191.966 1776.87 197.934 1737.63 193.278C1708.43 189.814 1675.04 180.408 1641.37 176.843C1600.98 172.568 1558.83 164.706 1511.07 161.673C1428.99 156.464 1339.95 153.617 1256.42 149.77C1162.73 145.454 1071.93 146.847 985.026 151.606C904.389 156.021 823.606 168.632 737.677 161.388C641.366 153.268 559.972 137.351 480.905 125.211C405.185 113.586 341.433 105.725 266.189 106.737C177.938 107.927 76.9657 131.189 -14.4158 161.189C-110.069 192.595 -190.948 219.951 -251.812 262.876" stroke="url(#paint12_linear_571_9143)" stroke-width="0.864782" stroke-miterlimit="10"/>
<path d="M1814.98 176.073C1811.97 187.47 1782.77 195.349 1740.96 191.801C1710.55 189.22 1675.89 180.255 1641.09 177.493C1599.71 174.206 1556.4 167.18 1507.79 164.632C1423.11 160.194 1331.77 157.032 1245.93 152.335C1152.84 147.243 1062.7 147.164 976.279 150.583C897.531 153.699 818.495 165.054 734.438 157.556C638.201 148.969 555.514 133.988 475.764 123.646C399.149 113.711 334.87 108.471 259.906 111.404C173.449 114.786 74.7345 138.982 -16.3357 168.302C-112.067 199.124 -194.515 223.825 -257.506 265.158" stroke="url(#paint13_linear_571_9143)" stroke-width="0.864782" stroke-miterlimit="10"/>
<path d="M1824.2 169.571C1819.74 182.977 1788.65 192.73 1744.29 190.321C1712.66 188.605 1676.75 180.092 1640.81 178.136C1598.44 175.831 1553.96 169.655 1504.5 167.584C1417.24 163.928 1323.59 160.462 1235.44 154.891C1142.95 149.048 1053.48 147.494 967.536 149.553C890.691 151.394 813.388 161.46 731.204 153.716C635.044 144.655 551.061 130.624 470.627 122.071C393.113 113.831 328.323 111.173 253.632 116.059C168.983 121.597 72.5076 146.764 -18.2469 175.407C-114.052 205.642 -198.078 227.695 -263.192 267.437" stroke="url(#paint14_linear_571_9143)" stroke-width="0.864782" stroke-miterlimit="10"/>
<path d="M1833.42 163.069C1827.5 178.481 1794.51 190.082 1747.62 188.844C1714.75 187.975 1677.6 179.925 1640.53 178.785C1597.17 177.452 1551.53 172.142 1501.22 170.541C1411.35 167.682 1315.39 163.921 1224.95 157.453C1133.05 150.882 1044.28 147.853 958.784 148.528C883.855 149.12 808.273 157.862 727.961 149.883C631.875 140.336 546.594 127.27 465.482 120.505C387.068 113.965 321.777 113.852 247.345 120.725C164.508 128.372 70.268 154.554 -20.171 182.52C-116.058 212.168 -201.65 231.571 -268.895 269.723" stroke="url(#paint15_linear_571_9143)" stroke-width="0.864782" stroke-miterlimit="10"/>
<path d="M1842.65 156.567C1835.26 173.986 1800.35 187.413 1750.95 187.365C1716.81 187.332 1678.45 179.75 1640.25 179.432C1595.89 179.063 1549.09 174.632 1497.94 173.497C1405.48 171.446 1307.19 167.407 1214.46 160.017C1123.14 152.74 1035.09 148.241 950.037 147.506C877.036 146.874 803.162 154.257 724.722 146.053C628.718 136.011 542.132 123.926 460.341 118.942C381.028 114.106 315.231 116.5 241.063 125.391C160.032 135.108 68.0326 162.344 -22.0907 189.635C-118.056 218.692 -205.217 235.447 -274.585 272.007" stroke="url(#paint16_linear_571_9143)" stroke-width="0.864782" stroke-miterlimit="10"/>
<path d="M1851.87 150.065C1843.02 169.49 1806.16 184.725 1754.28 185.888C1718.85 186.683 1679.29 179.568 1639.96 180.078C1594.61 180.667 1546.66 177.126 1494.65 176.451C1399.61 175.216 1298.98 170.914 1203.97 162.576C1113.23 154.612 1025.91 148.653 941.294 146.477C870.226 144.65 798.064 150.635 721.488 142.213C625.566 131.666 537.674 120.579 455.204 117.367C374.987 114.243 308.675 119.095 234.788 130.047C155.553 141.792 65.8013 170.119 -24.002 196.737C-120.053 225.208 -208.78 239.316 -280.276 274.286" stroke="url(#paint17_linear_571_9143)" stroke-width="0.864782" stroke-miterlimit="10"/>
<path d="M1861.09 143.563C1850.78 164.996 1811.94 182.021 1757.61 184.408C1720.88 186.022 1680.13 179.379 1639.68 180.724C1593.32 182.266 1544.22 179.628 1491.36 179.407C1393.74 179 1290.75 174.449 1193.47 165.137C1103.3 156.505 1016.72 149.098 932.543 145.452C863.412 142.457 792.958 147.005 718.249 138.38C622.41 127.313 533.212 117.242 450.059 115.801C368.942 114.393 302.086 121.666 228.502 134.713C151.03 148.449 63.553 177.904 -25.926 203.849C-122.064 231.727 -212.351 243.193 -285.979 276.572" stroke="url(#paint18_linear_571_9143)" stroke-width="0.864782" stroke-miterlimit="10"/>
<path d="M1870.32 137.061C1858.55 160.5 1817.7 179.309 1760.94 182.931C1722.88 185.361 1680.97 179.19 1639.41 181.373C1592.03 183.863 1541.8 182.134 1488.09 182.364C1387.88 182.795 1282.52 178.01 1182.99 167.699C1093.37 158.415 1007.56 149.579 923.804 144.428C856.606 140.296 787.868 143.37 715.019 134.545C619.271 122.949 528.762 113.91 444.926 114.231C362.91 114.544 295.474 124.197 222.227 139.374C146.49 155.069 61.3174 185.682 -27.8373 210.96C-124.062 238.241 -215.914 247.067 -291.665 278.856" stroke="url(#paint19_linear_571_9143)" stroke-width="0.864782" stroke-miterlimit="10"/>
<path d="M1879.54 130.559C1866.31 156.004 1823.43 176.587 1764.27 181.452C1724.87 184.693 1681.8 178.991 1639.13 182.019C1590.72 185.452 1539.37 184.641 1484.8 185.32C1382.01 186.596 1274.26 181.593 1172.5 170.26C1083.42 160.34 998.365 150.094 915.052 143.403C849.783 138.16 782.766 139.721 711.776 130.713C616.123 118.573 524.3 110.584 439.781 112.665C356.87 114.704 288.811 126.698 215.945 144.037C141.898 161.659 59.0734 193.46 -29.7613 218.069C-126.076 244.754 -219.486 250.94 -297.368 281.137" stroke="url(#paint20_linear_571_9143)" stroke-width="0.864782" stroke-miterlimit="10"/>
<path d="M1888.77 124.057C1874.07 151.508 1829.14 173.861 1767.6 179.975C1726.84 184.025 1682.62 178.794 1638.84 182.665C1589.41 187.039 1536.95 187.152 1481.51 188.274C1376.15 190.405 1265.99 185.201 1162.01 172.822C1073.46 162.279 989.16 150.647 906.309 142.378C842.955 136.053 777.681 136.065 708.542 126.88C612.992 114.185 519.855 107.262 434.644 111.097C350.842 114.869 282.105 129.168 209.667 148.7C137.263 168.225 56.8294 201.235 -31.6768 225.181C-128.083 251.266 -223.049 254.816 -303.058 283.423" stroke="url(#paint21_linear_571_9143)" stroke-width="0.864782" stroke-miterlimit="10"/>
<path d="M1897.99 117.556C1881.84 147.013 1834.83 171.129 1770.93 178.495C1728.79 183.355 1683.44 178.591 1638.56 183.312C1588.1 188.622 1534.53 189.668 1478.23 191.229C1370.31 194.223 1257.7 188.835 1151.52 175.381C1063.48 164.228 979.932 151.238 897.562 141.349C836.106 133.971 772.596 132.396 705.303 123.04C609.862 109.773 515.406 103.939 429.503 109.524C344.815 115.03 275.338 131.608 203.388 153.359C132.575 174.766 54.5851 209.004 -33.5924 232.287C-130.093 257.768 -226.616 258.687 -308.749 285.702" stroke="url(#paint22_linear_571_9143)" stroke-width="0.864782" stroke-miterlimit="10"/>
<path d="M1907.21 111.054C1889.6 142.52 1840.5 168.396 1774.26 177.019C1730.72 182.685 1684.25 178.388 1638.28 183.961C1586.77 190.207 1532.11 192.189 1474.94 194.188C1364.45 198.052 1249.39 192.495 1141.02 177.945C1053.49 166.191 970.666 151.878 888.81 140.327C829.227 131.919 767.516 128.723 702.061 119.21C606.74 105.354 510.961 100.626 424.357 107.959C338.787 115.205 268.506 134.033 197.101 158.025C127.824 181.301 52.3325 216.777 -35.5164 239.402C-132.113 264.279 -230.188 262.565 -314.452 287.991" stroke="url(#paint23_linear_571_9143)" stroke-width="0.864782" stroke-miterlimit="10"/>
<path d="M1916.44 104.552C1897.36 138.024 1846.15 165.662 1777.59 175.539C1732.65 182.015 1685.05 178.18 1638 184.605C1585.44 191.785 1529.7 194.707 1471.66 197.14C1358.62 201.88 1241.07 196.175 1130.54 180.502C1043.49 168.159 961.365 152.548 880.067 139.298C822.326 129.887 762.448 125.035 698.826 115.37C603.635 100.909 506.529 97.3083 419.22 106.386C332.773 115.373 261.627 136.437 190.823 162.682C123.02 187.815 50.0839 224.538 -37.432 246.505C-134.123 270.774 -233.755 266.432 -320.142 290.266" stroke="url(#paint24_linear_571_9143)" stroke-width="0.864782" stroke-miterlimit="10"/>
<path d="M1925.66 98.0504C1905.12 133.528 1851.79 162.926 1780.92 174.062C1734.56 181.345 1685.85 177.974 1637.72 185.254C1584.1 193.365 1527.28 197.231 1468.38 200.099C1352.78 205.722 1232.72 199.886 1120.05 183.066C1033.47 170.141 952.008 153.269 871.324 138.276C815.395 127.881 757.385 121.346 695.592 111.54C600.544 96.4561 502.101 94.0047 414.084 104.823C326.767 115.555 254.678 138.836 184.549 167.35C118.164 194.339 47.8399 232.309 -39.3432 253.622C-136.134 277.281 -237.313 270.312 -325.833 292.557" stroke="url(#paint25_linear_571_9143)" stroke-width="0.864782" stroke-miterlimit="10"/>
<path d="M1934.88 91.5483C1912.89 129.032 1857.42 160.189 1784.24 172.583C1736.47 180.674 1686.64 177.763 1637.44 185.9C1582.76 194.942 1524.87 199.756 1465.09 203.052C1346.95 209.566 1224.35 203.615 1109.55 185.627C1023.43 172.13 942.587 154.03 862.573 137.251C808.407 125.892 752.326 117.644 692.349 107.707C597.457 91.9816 497.674 90.6984 408.934 103.255C320.752 115.734 247.661 141.225 178.258 172.013C113.235 200.857 45.5786 240.075 -41.2715 260.732C-138.162 283.778 -240.889 274.188 -331.536 294.84" stroke="url(#paint26_linear_571_9143)" stroke-width="0.864782" stroke-miterlimit="10"/>
<path d="M1944.1 85.0466C1920.65 124.537 1863.04 157.456 1787.57 171.106C1738.36 180.009 1687.43 177.553 1637.16 186.547C1581.41 196.52 1522.47 202.284 1461.81 206.007C1341.13 213.416 1215.95 207.367 1099.07 188.186C1013.38 174.125 933.105 154.825 853.83 136.222C801.385 123.914 747.28 113.932 689.115 103.868C594.4 87.4789 493.259 87.3855 403.797 101.682C314.759 115.909 240.596 143.604 171.98 176.672C108.262 207.376 43.3259 247.831 -43.1869 267.837C-140.177 290.266 -244.456 278.057 -337.226 297.117" stroke="url(#paint27_linear_571_9143)" stroke-width="0.864782" stroke-miterlimit="10"/>
<path d="M1953.33 78.5442C1928.41 120.043 1868.65 154.719 1790.91 169.626C1740.25 179.338 1688.22 177.341 1636.88 187.192C1580.07 198.097 1520.07 204.812 1458.53 208.963C1335.31 217.272 1207.53 211.146 1088.58 190.747C1003.31 176.128 923.54 155.66 845.083 135.196C794.311 121.953 742.238 110.213 685.881 100.034C591.356 82.961 488.853 84.0837 398.66 100.113C308.771 116.09 233.478 145.991 165.705 181.332C103.246 213.904 41.0125 255.498 -45.0982 274.947C-142.265 296.657 -248.015 281.93 -342.916 299.4" stroke="url(#paint28_linear_571_9143)" stroke-width="0.864782" stroke-miterlimit="10"/>
<path d="M1962.55 72.0426C1936.18 115.547 1874.25 151.985 1794.24 168.149C1742.13 178.675 1689 177.131 1636.6 187.842C1578.7 199.675 1517.67 207.345 1455.24 211.92C1329.5 221.134 1199.09 214.948 1078.09 193.309C993.228 178.134 913.885 156.527 836.335 134.172C787.177 120.002 737.21 106.489 682.642 96.1997C588.333 78.4176 484.503 80.8714 393.519 98.5457C302.838 116.366 226.301 148.382 159.423 185.996C98.1745 220.442 38.7769 263.281 -47.0181 282.057C-144.263 303.176 -251.587 285.803 -348.611 301.685" stroke="url(#paint29_linear_571_9143)" stroke-width="0.864782" stroke-miterlimit="10"/>
<path d="M1971.78 65.5407C1943.94 111.052 1879.84 149.254 1797.57 166.67C1744.01 178.007 1689.74 176.87 1636.32 188.485C1577.3 201.195 1515.29 209.937 1451.96 214.874C1323.73 225.124 1190.62 218.769 1067.6 195.868C983.132 180.145 904.143 157.417 827.592 133.145C779.995 118.051 732.198 102.754 679.408 92.3646C585.337 73.85 480.08 77.5223 388.383 96.9753C296.837 116.503 219.084 150.779 153.144 190.657C93.0637 226.992 36.5459 271.064 -48.9379 289.167C-146.26 309.692 -255.154 289.679 -354.305 303.968" stroke="url(#paint30_linear_571_9143)" stroke-width="0.864782" stroke-miterlimit="10"/>
<path d="M1981 59.0388C1951.7 106.556 1885.42 146.522 1800.9 165.193C1745.88 177.344 1690.55 176.71 1636.04 189.134C1575.97 202.827 1512.88 212.413 1448.67 217.83C1317.89 228.869 1182.13 222.613 1057.11 198.432C973.014 182.166 894.302 158.336 818.845 132.121C772.744 116.105 727.195 99.0149 676.169 88.532C582.366 69.2561 475.656 74.1756 383.241 95.4097C290.826 116.644 211.824 153.187 146.866 195.323C87.9139 233.558 34.3147 278.849 -50.8533 296.279C-148.258 316.213 -258.717 293.555 -360 306.252" stroke="url(#paint31_linear_571_9143)" stroke-width="0.864782" stroke-miterlimit="10"/>
<path d="M1590.49 210.545C1580.33 150.106 1530.56 91.9455 1452.51 49.3121C1430.31 37.1821 1404.83 25.9713 1374.55 21.8203C1287.06 9.82908 1203.8 51.6725 1136.74 76.5525C1055.81 106.582 976.076 137.758 890.894 164.058C843.072 178.823 786.182 192.282 735.212 181.208C683.598 169.992 658.886 138.438 633.349 111.19C603.592 79.4396 565.157 49.4078 513.002 28.291C460.851 7.17662 393.537 -4.19691 330.369 3.32241C280.903 9.20907 237.923 25.8612 199.203 43.8946C97.4612 91.2776 14.654 151.054 -41.6304 217.739" stroke="url(#paint32_linear_571_9143)" stroke-width="0.864782" stroke-miterlimit="10"/>
<path d="M1592.74 207.78C1582.91 149.289 1532.17 94.2532 1452.68 51.6294C1430.49 39.7292 1405.3 28.6429 1375.44 24.4296C1289.01 12.199 1206.84 51.9956 1139.96 76.0139C1068.65 101.622 998.219 128.556 923.372 152.457C914.17 155.406 904.917 158.307 895.599 161.151C848.14 175.642 791.933 188.899 741.478 178.426C690.356 167.826 665.295 137.557 639.459 111.446C609.278 81.0387 570.735 52.2853 518.961 32.1069C467.052 11.9572 400.511 1.17261 338.031 8.55548C295.57 13.5684 257.844 26.3351 223.447 40.9309C218.12 43.1884 212.905 45.5081 207.712 47.8134C104.674 93.5541 22.182 148.696 -32.2863 213.231" stroke="url(#paint33_linear_571_9143)" stroke-width="0.864782" stroke-miterlimit="10"/>
<path d="M1594.99 205.015C1585.48 148.475 1533.8 96.5584 1452.86 53.949C1430.68 42.2738 1405.77 31.3192 1376.33 27.0412C1290.95 14.5713 1209.88 52.3235 1143.17 75.4799C1072.57 99.9841 1002.76 126.222 927.864 149.727C918.732 152.617 909.548 155.461 900.303 158.252C853.207 172.467 797.68 185.524 747.738 175.651C697.105 165.669 671.694 136.683 645.56 111.712C614.956 82.6497 576.308 55.1699 524.906 35.9323C473.239 16.745 407.477 6.55164 345.68 13.8004C303.599 18.7295 266.12 31.087 231.887 45.1297C226.582 47.301 221.406 49.5489 216.209 51.7441C111.817 95.8474 29.7013 146.352 -22.9553 208.735" stroke="url(#paint34_linear_571_9143)" stroke-width="0.864782" stroke-miterlimit="10"/>
<path d="M1597.24 202.253C1588.06 147.662 1535.45 98.8614 1453.04 56.2687C1430.88 44.8162 1406.25 33.9932 1377.23 29.6531C1292.89 16.9437 1212.94 52.6539 1146.39 74.9437C1076.51 98.3467 1007.2 123.78 932.361 146.998C923.285 149.816 914.183 152.615 905.012 155.351C858.279 169.291 803.435 182.146 754.008 172.877C703.868 163.509 678.193 135.78 651.67 111.978C620.745 84.2225 581.981 57.9804 530.864 39.7578C479.526 21.4586 414.451 11.9308 353.346 19.0456C311.646 23.8909 274.417 35.8414 240.34 49.3287C235.052 51.4138 229.92 53.5899 224.723 55.675C118.925 98.1408 37.2334 144.006 -13.6028 204.24" stroke="url(#paint35_linear_571_9143)" stroke-width="0.864782" stroke-miterlimit="10"/>
<path d="M1599.48 199.488C1590.63 146.848 1537.11 101.159 1453.21 58.5859C1431.08 47.3537 1406.72 36.6648 1378.12 32.2623C1294.83 19.3112 1216.01 52.9794 1149.6 74.405C1080.45 96.7092 1011.71 121.407 936.853 144.267C927.838 147.02 918.81 149.766 909.712 152.447C863.343 166.114 809.177 178.766 760.265 170.097C710.613 161.345 684.614 134.89 657.767 112.236C626.449 85.812 587.577 60.8338 536.81 43.5736C485.74 26.2129 421.417 17.3003 360.995 24.2786C319.676 29.0401 282.693 40.5836 248.781 53.5156C243.514 55.5145 238.416 57.6164 233.219 59.5962C125.96 100.425 44.7484 141.653 -4.27173 199.734" stroke="url(#paint36_linear_571_9143)" stroke-width="0.864782" stroke-miterlimit="10"/>
<path d="M1601.73 196.723C1593.21 146.031 1538.78 103.453 1453.39 60.9035C1431.28 49.8914 1407.2 39.339 1379.01 34.8719C1296.78 21.6814 1219.1 53.3099 1152.82 73.8689C1084.42 95.0815 1016.24 119.04 941.35 141.536C932.4 144.224 923.445 146.917 914.421 149.543C868.415 162.935 814.932 175.386 766.535 167.321C717.372 159.184 691.048 134.002 663.876 112.5C632.165 87.4042 593.176 63.6924 542.764 47.3969C491.958 30.9746 428.387 22.6773 368.653 29.5215C327.714 34.1968 290.978 45.3334 257.225 57.7123C251.976 59.6251 246.913 61.6551 241.72 63.5248C132.943 102.711 52.2677 139.304 5.0636 195.234" stroke="url(#paint37_linear_571_9143)" stroke-width="0.864782" stroke-miterlimit="10"/>
<path d="M1603.98 193.958C1595.79 145.215 1540.47 105.742 1453.56 63.2231C1431.49 52.4265 1407.67 42.013 1379.9 37.4837C1298.72 24.0538 1222.19 53.6451 1156.03 73.3327C1088.39 93.456 1020.75 116.672 945.843 138.807C936.957 141.433 928.076 144.068 919.126 146.644C873.482 159.761 820.683 172.01 772.796 164.546C724.126 157.027 697.473 133.116 669.977 112.765C637.868 88.9985 598.767 66.5555 548.713 51.2224C498.167 35.7385 435.358 28.054 376.306 34.7666C335.752 39.3581 299.263 50.0877 265.67 61.9113C260.443 63.7378 255.409 65.6913 250.225 67.4556C139.879 104.995 59.7957 136.961 14.4033 190.738" stroke="url(#paint38_linear_571_9143)" stroke-width="0.864782" stroke-miterlimit="10"/>
<path d="M1606.23 191.193C1598.36 144.401 1542.17 108.023 1453.74 65.5403C1431.71 54.9592 1408.12 44.718 1380.8 40.0929C1300.62 26.517 1225.31 53.9801 1159.25 72.7939C1092.39 91.8352 1025.28 114.305 950.344 136.075C941.523 138.636 932.715 141.219 923.838 143.74C878.558 156.584 826.438 168.63 779.069 161.767C730.888 154.862 703.907 132.223 676.096 113.024C643.588 90.5856 604.37 69.4089 554.676 55.0406C504.384 40.4975 442.341 33.4258 383.976 40.002C343.803 44.5097 307.603 54.8706 274.127 66.0981C268.921 67.8433 263.914 69.7177 258.739 71.3767C146.767 107.259 67.3278 134.605 23.7515 186.232" stroke="url(#paint39_linear_571_9143)" stroke-width="0.864782" stroke-miterlimit="10"/>
<path d="M1608.48 188.427C1600.94 143.584 1543.88 110.299 1453.91 67.8574C1431.93 57.4869 1408.6 47.3942 1381.69 42.6997C1302.55 28.8939 1228.42 54.3174 1162.46 72.2551C1096.39 90.2215 1029.8 111.942 954.837 133.341C946.081 135.84 937.347 138.368 928.539 140.834C883.622 153.402 832.185 165.247 785.326 158.987C737.638 152.698 710.32 131.33 682.192 113.285C649.283 92.1725 609.953 72.2694 560.621 58.8587C510.585 45.2564 449.302 38.7976 391.626 45.2396C351.833 49.6636 315.884 59.6199 282.568 70.2896C277.384 71.951 272.398 73.7465 267.24 75.3001C153.581 109.512 74.8472 132.254 33.0869 181.729" stroke="url(#paint40_linear_571_9143)" stroke-width="0.864782" stroke-miterlimit="10"/>
<path d="M1610.73 185.663C1603.51 142.771 1545.61 112.569 1454.09 70.1749C1432.15 60.0151 1409.07 50.0707 1382.58 45.3092C1304.49 31.2736 1231.56 54.6599 1165.68 71.7166C1100.41 88.6129 1034.34 109.576 959.333 130.61C950.642 133.047 941.982 135.519 933.247 137.93C888.698 150.223 837.935 161.867 791.596 156.208C744.396 150.537 716.745 130.437 688.302 113.546C654.986 93.7598 615.539 75.1279 566.58 62.6795C516.79 50.0204 456.281 44.1721 399.288 50.4777C359.875 54.8155 324.177 64.372 291.021 74.4816C285.854 76.0568 280.895 77.7732 275.749 79.2239C160.357 111.748 82.3751 129.901 42.4352 177.226" stroke="url(#paint41_linear_571_9143)" stroke-width="0.864782" stroke-miterlimit="10"/>
<path d="M1612.97 182.9C1606.09 141.957 1547.35 114.836 1454.26 72.4972C1432.38 62.5456 1409.54 52.7497 1383.47 47.9235C1306.42 33.6558 1234.71 55.0143 1168.89 71.1829C1104.44 87.0187 1038.86 107.221 963.826 127.881C955.204 130.255 946.608 132.673 937.952 135.031C893.766 147.051 843.686 158.494 797.857 153.436C751.15 148.38 723.157 129.549 694.403 113.812C660.677 95.352 621.117 77.996 572.525 66.5052C522.982 54.7893 463.242 49.5514 406.936 55.7229C367.904 59.9769 332.457 69.1289 299.457 78.6807C294.312 80.1697 289.369 81.8072 284.241 83.1573C167.059 113.977 89.89 127.56 51.7617 172.733" stroke="url(#paint42_linear_571_9143)" stroke-width="0.864782" stroke-miterlimit="10"/>
<path d="M1615.22 180.135C1608.67 141.14 1549.11 117.094 1454.44 74.8144C1432.61 65.0664 1410.01 55.426 1384.37 50.5328C1308.36 36.0328 1237.87 55.3686 1172.11 70.6442C1108.49 85.4243 1043.4 104.863 968.323 125.149C959.766 127.462 951.243 129.824 942.661 132.127C898.838 143.872 849.437 155.114 804.127 150.656C757.909 146.216 729.574 128.656 700.513 114.072C666.371 96.9367 626.695 80.8591 578.483 70.3258C529.182 59.5532 470.221 54.9233 414.603 60.9632C375.951 65.1334 340.755 73.8808 307.915 82.8748C302.787 84.2776 297.866 85.836 292.759 87.0833C173.735 116.172 97.4267 125.211 61.1145 168.233" stroke="url(#paint43_linear_571_9143)" stroke-width="0.864782" stroke-miterlimit="10"/>
<path d="M1617.47 177.371C1611.25 140.327 1550.87 119.342 1454.61 77.1322C1432.85 67.5876 1410.48 58.1005 1385.26 53.1427C1310.3 38.408 1241.04 55.7305 1175.32 70.1084C1112.55 83.8447 1047.93 102.51 972.815 122.42C964.323 124.671 955.874 126.978 947.361 129.226C903.901 140.696 855.196 151.684 810.383 147.882C764.671 144.004 735.973 127.768 706.614 114.339C672.049 98.5291 632.264 83.7298 584.429 74.1493C535.365 64.3247 477.183 60.3005 422.252 66.2039C383.981 70.2903 349.031 78.6331 316.351 87.0693C311.244 88.3884 306.336 89.8607 301.252 91.0097C180.342 118.341 104.937 122.861 70.4412 163.732" stroke="url(#paint44_linear_571_9143)" stroke-width="0.864782" stroke-miterlimit="10"/>
<path d="M1619.72 174.605C1613.82 139.51 1552.66 121.582 1454.79 79.4491C1433.09 70.1056 1410.95 60.7741 1386.16 55.7516C1312.24 40.7824 1244.22 56.0987 1178.54 69.5693C1116.62 82.2691 1052.47 100.154 977.317 119.686C968.894 121.874 960.514 124.127 952.074 126.32C908.977 137.516 860.952 148.298 816.657 145.1C771.434 141.835 742.381 126.873 712.728 114.594C677.739 100.111 637.842 86.5901 590.391 77.9648C541.562 69.0882 484.166 65.6696 429.918 71.439C392.028 75.4392 357.324 83.3799 324.808 91.2583C319.719 92.4912 314.824 93.8796 309.765 94.933C186.923 120.476 112.47 120.51 79.7894 159.229" stroke="url(#paint45_linear_571_9143)" stroke-width="0.864782" stroke-miterlimit="10"/>
<path d="M1621.97 171.84C1616.39 138.696 1554.45 123.813 1454.96 81.7685C1433.32 72.6261 1411.42 63.4502 1387.05 58.3631C1314.18 43.1569 1247.42 56.4767 1181.76 69.0328C1120.7 80.7056 1057.01 97.8054 981.809 116.957C973.451 119.085 965.145 121.28 956.778 123.42C914.045 134.341 866.702 144.92 822.918 142.325C778.183 139.675 748.776 125.984 718.829 114.86C683.407 101.703 643.403 89.465 596.337 81.7901C547.736 73.8638 491.132 71.0485 437.567 76.6838C400.057 80.6003 365.6 88.1364 333.244 95.457C328.176 96.6037 323.295 97.9083 318.262 98.8635C193.448 122.583 119.989 118.163 89.1204 154.733" stroke="url(#paint46_linear_571_9143)" stroke-width="0.864782" stroke-miterlimit="10"/>
<path d="M1624.22 169.075C1618.97 137.88 1556.26 126.037 1455.14 84.086C1433.58 75.1399 1411.9 66.122 1387.94 60.9727C1316.11 45.5295 1250.63 56.8647 1184.97 68.4968C1124.8 79.1545 1061.56 95.4595 986.306 114.228C978.017 116.294 969.776 118.434 961.487 120.519C919.117 131.165 872.453 141.54 829.188 139.551C784.941 137.514 755.176 125.099 724.938 115.126C689.08 103.297 648.972 92.3426 602.295 85.6157C553.924 78.6446 498.106 76.4278 445.233 81.9267C408.104 85.7594 373.893 92.8908 341.702 99.6513C336.651 100.712 331.778 101.928 326.776 102.79C199.955 124.649 127.521 115.815 98.473 150.233" stroke="url(#paint47_linear_571_9143)" stroke-width="0.864782" stroke-miterlimit="10"/>
<path d="M1626.47 166.31C1621.55 137.066 1558.08 128.249 1455.31 86.4034C1433.82 77.6512 1412.37 68.796 1388.83 63.5821C1318.05 47.9019 1253.85 57.2645 1188.19 67.9582C1128.9 77.6129 1066.1 93.1135 990.799 111.494C982.579 113.5 974.407 115.58 966.187 117.613C924.18 127.986 878.195 138.158 835.445 136.769C791.687 135.347 761.554 124.208 731.035 115.382C694.736 104.884 654.524 95.213 608.241 89.4293C560.094 83.4133 505.072 81.7927 452.882 87.1598C416.138 90.9063 382.169 97.6332 350.138 103.838C345.105 104.813 340.245 105.94 335.268 106.711C206.411 126.664 135.032 113.459 107.8 145.727" stroke="url(#paint48_linear_571_9143)" stroke-width="0.864782" stroke-miterlimit="10"/>
<path d="M1628.71 163.545C1624.13 136.25 1559.92 130.454 1455.49 88.7207C1434.07 80.1624 1412.84 71.4677 1389.73 66.1891C1320 50.2671 1257.08 57.6715 1191.4 67.4172C1133.02 76.0808 1070.66 90.7675 995.295 108.76C987.145 110.707 979.042 112.729 970.896 114.707C929.252 124.804 883.942 134.775 841.714 133.99C798.445 133.185 767.944 123.322 737.149 115.643C700.4 106.479 660.089 98.0905 614.199 93.25C566.273 88.1941 512.046 87.1671 460.544 92.4002C424.18 96.0629 390.458 102.383 358.591 108.033C353.575 108.921 348.724 109.957 343.782 110.637C212.862 128.642 142.568 111.111 117.148 141.227" stroke="url(#paint49_linear_571_9143)" stroke-width="0.864782" stroke-miterlimit="10"/>
<path d="M1630.96 160.783C1626.7 135.436 1561.77 132.647 1455.66 91.0432C1434.32 82.6764 1413.31 74.1445 1390.62 68.8036C1321.93 52.6422 1260.32 58.1004 1194.61 66.8861C1137.14 74.5706 1075.21 88.4362 999.788 106.034C991.702 107.92 983.673 109.886 975.6 111.81C934.32 121.633 889.688 131.402 847.975 131.218C805.195 131.029 774.318 122.447 743.25 115.911C706.047 108.086 665.645 100.98 620.149 97.0782C572.443 92.987 519.017 92.5489 468.202 97.6456C432.218 101.225 398.738 107.138 367.04 112.232C362.046 113.034 357.199 113.977 352.287 114.568C219.287 130.576 150.092 108.765 126.488 136.731" stroke="url(#paint50_linear_571_9143)" stroke-width="0.864782" stroke-miterlimit="10"/>
<path d="M1633.21 158.018C1629.28 134.622 1563.63 134.83 1455.84 93.3604C1434.58 85.1803 1413.79 76.816 1391.51 71.4129C1323.88 55.0073 1263.57 58.5383 1197.83 66.3473C1141.27 73.0647 1079.76 86.0996 1004.28 103.302C996.268 105.129 988.308 107.037 980.309 108.907C939.392 118.456 895.439 128.022 854.245 128.439C811.949 128.867 780.7 121.566 749.36 116.17C711.703 109.687 671.201 103.863 626.103 100.896C578.617 97.7724 525.987 97.9208 475.86 102.883C440.257 106.379 407.023 111.882 375.484 116.423C370.508 117.139 365.673 117.989 360.787 118.494C225.7 132.456 157.611 106.417 135.823 132.231" stroke="url(#paint51_linear_571_9143)" stroke-width="0.864782" stroke-miterlimit="10"/>
<path d="M1635.46 155.253C1631.85 133.806 1565.5 136.999 1456.01 95.6776C1434.83 87.6843 1414.26 79.4875 1392.4 74.0222C1325.82 57.3749 1266.81 58.9931 1201.04 65.8087C1145.4 71.5732 1084.32 83.7655 1008.78 100.571C1000.83 102.338 992.935 104.188 985.013 106.003C944.459 115.277 901.185 124.644 860.506 125.662C818.698 126.705 787.073 120.694 755.461 116.433C717.346 111.296 676.753 106.754 632.052 104.717C584.788 102.563 532.957 103.295 483.513 108.124C448.29 111.533 415.299 116.629 383.929 120.618C378.969 121.247 374.144 122.001 369.293 122.42C232.112 134.28 165.135 104.066 145.163 127.73" stroke="url(#paint52_linear_571_9143)" stroke-width="0.864782" stroke-miterlimit="10"/>
<path d="M1637.71 152.488C1634.43 132.992 1567.39 139.158 1456.19 97.9948C1435.1 90.1882 1414.74 82.159 1393.29 76.6315C1327.76 59.7375 1270.07 59.4646 1204.26 65.2699C1149.54 70.096 1088.87 81.4361 1013.27 97.8368C1005.4 99.5461 997.57 101.337 989.717 103.096C949.527 112.095 906.932 121.264 866.771 122.88C825.452 124.543 793.451 119.82 761.566 116.691C722.997 112.907 682.309 109.644 638.006 108.535C590.958 107.357 539.927 108.667 491.171 113.359C456.328 116.684 423.583 121.372 392.374 124.807C387.436 125.35 382.614 126.006 377.793 126.341C238.524 136.046 172.658 101.713 154.502 123.224" stroke="url(#paint53_linear_571_9143)" stroke-width="0.864782" stroke-miterlimit="10"/>
<path d="M1639.96 149.723C1637.01 132.175 1569.29 141.303 1456.36 100.314C1435.36 92.6897 1415.21 84.8304 1394.18 79.243C1329.7 62.1025 1273.32 59.9576 1207.47 64.7359C1153.68 68.6379 1093.43 79.1162 1017.77 95.11C1009.96 96.7594 1002.2 98.4926 994.422 100.197C954.594 108.923 912.678 117.891 873.037 120.107C832.206 122.389 799.829 118.958 767.676 116.957C728.648 114.529 687.87 112.547 643.96 112.361C597.132 112.162 546.902 114.044 498.833 118.604C464.371 121.845 431.868 126.121 400.827 129.006C395.906 129.463 391.094 130.021 386.307 130.274C244.963 137.767 180.191 99.3711 163.851 118.731" stroke="url(#paint54_linear_571_9143)" stroke-width="0.864782" stroke-miterlimit="10"/>
<path d="M1642.2 146.958C1639.58 131.361 1571.2 143.434 1456.54 102.632C1435.62 95.1891 1415.69 87.4998 1395.08 81.8526C1331.65 64.4631 1276.58 60.4676 1210.69 64.1974C1157.81 67.1898 1098 76.7942 1022.26 92.3786C1014.52 93.9706 1006.84 95.644 999.131 97.2958C959.666 105.746 918.429 114.518 879.302 117.331C838.96 120.232 806.206 118.097 773.781 117.22C734.3 116.153 693.426 115.449 649.914 116.184C603.311 116.969 553.876 119.42 506.49 123.847C472.409 127.004 440.148 130.868 409.271 133.202C404.368 133.573 399.569 134.031 394.808 134.203C251.41 139.429 187.71 97.0229 173.186 114.233" stroke="url(#paint55_linear_571_9143)" stroke-width="0.864782" stroke-miterlimit="10"/>
<path d="M1644.45 144.193C1642.16 130.545 1573.12 145.553 1456.71 104.949C1435.88 97.6837 1416.16 90.1691 1395.97 84.462C1333.6 66.8236 1279.83 60.9992 1213.9 63.6588C1161.94 65.7559 1102.56 74.4746 1026.76 89.6449C1019.09 91.1794 1011.47 92.7929 1003.84 94.3896C964.738 102.565 924.18 111.138 885.568 114.549C845.714 118.07 812.593 117.235 779.887 117.479C739.96 117.776 698.986 118.353 655.864 120C609.486 121.774 560.842 124.79 514.144 129.08C480.443 132.151 448.429 135.606 417.716 137.387C412.83 137.669 408.039 138.026 403.309 138.119C257.878 141.023 195.229 94.6649 182.521 109.723" stroke="url(#paint56_linear_571_9143)" stroke-width="0.864782" stroke-miterlimit="10"/>
<path d="M1646.7 141.43C1644.73 129.731 1575.06 147.659 1456.89 107.269C1436.15 100.18 1416.64 92.8407 1396.87 87.0713C1335.55 69.1815 1283.07 61.5521 1217.12 63.1225C1166.07 64.3386 1107.12 72.1644 1031.25 86.9157C1023.65 88.3928 1016.1 89.944 1008.54 91.4881C969.806 99.3905 929.939 107.805 891.828 111.774C852.481 115.956 818.975 116.383 785.988 117.742C745.615 119.408 704.547 121.261 661.814 123.823C615.665 126.588 567.812 130.167 521.797 134.323C488.477 137.31 456.705 140.35 426.156 141.583C421.292 141.78 416.51 142.033 411.809 142.05C264.386 142.574 202.753 92.3188 191.856 105.227" stroke="url(#paint57_linear_571_9143)" stroke-width="0.864782" stroke-miterlimit="10"/>
<path d="M1648.95 138.665C1647.31 128.917 1577.01 149.749 1457.06 109.588C1436.42 102.675 1417.11 95.5121 1397.76 89.6829C1337.51 71.5418 1286.3 62.1289 1220.33 62.5861C1170.18 62.9332 1111.69 69.8564 1035.75 84.1841C1028.22 85.6037 1020.73 87.0951 1013.24 88.5841C974.874 96.2111 935.69 104.425 898.094 108.995C859.235 113.795 825.37 115.525 792.093 118.003C751.288 121.041 710.116 124.175 667.768 127.643C621.852 131.404 574.782 135.541 529.459 139.563C496.524 142.467 464.994 145.093 434.61 145.777C429.762 145.887 424.997 146.036 420.319 145.976C270.945 144.066 210.281 89.9702 201.201 100.726" stroke="url(#paint58_linear_571_9143)" stroke-width="0.864782" stroke-miterlimit="10"/>
<path d="M1651.2 135.9C1649.89 128.101 1578.97 151.822 1457.24 111.906C1436.69 105.167 1417.59 98.1792 1398.65 92.2925C1339.46 73.8952 1289.52 62.7251 1223.55 62.0477C1174.29 61.5426 1116.27 67.5513 1040.25 81.4528C1032.79 82.8174 1025.37 84.2465 1017.96 85.6829C979.95 93.0346 941.445 101.047 904.363 106.22C865.997 111.635 831.774 114.676 798.207 118.269C756.97 122.681 715.698 127.093 673.726 131.467C628.053 136.228 581.761 140.915 537.121 144.803C504.566 147.623 473.283 149.835 443.063 149.972C438.233 149.993 433.485 150.039 428.829 149.902C277.552 145.507 217.809 87.6196 210.549 96.2257" stroke="url(#paint59_linear_571_9143)" stroke-width="0.864782" stroke-miterlimit="10"/>
<path d="M1653.45 133.135C1652.46 127.287 1580.94 153.881 1457.41 114.223C1436.96 107.654 1418.09 100.829 1399.54 94.902C1341.48 76.1935 1292.72 63.3453 1226.77 61.5115C1178.37 60.1637 1120.84 65.2532 1044.74 78.7238C1037.35 80.0309 1030 81.4003 1022.66 82.7816C985.017 89.8604 947.196 97.6694 910.629 103.444C872.751 109.474 838.177 113.826 804.313 118.53C762.656 124.316 721.28 130.011 679.68 135.288C634.249 141.052 588.731 146.29 544.778 150.044C512.604 152.778 481.567 154.547 451.507 154.166C446.699 154.097 441.964 154.039 437.334 153.831C284.211 146.9 225.332 85.2736 219.888 91.7276" stroke="url(#paint60_linear_571_9143)" stroke-width="0.864782" stroke-miterlimit="10"/>
<path d="M1655.69 130.37C1655.04 126.47 1582.92 155.923 1457.59 116.54C1437.22 110.141 1418.56 103.501 1400.44 97.5111C1343.43 78.5608 1295.9 63.989 1229.98 60.9726C1182.44 58.7966 1125.41 62.9596 1049.24 75.9897C1041.92 77.2418 1034.63 78.5488 1027.37 79.8751C990.085 86.6786 952.943 94.2865 916.89 100.662C879.501 107.307 844.585 112.971 810.414 118.788C768.342 125.951 726.863 132.927 685.625 139.106C640.449 145.876 595.697 151.662 552.427 155.281C520.634 157.931 489.843 159.294 459.948 158.357C455.157 158.202 450.444 158.039 445.83 157.754C290.917 148.241 232.851 82.9201 229.219 87.2244" stroke="url(#paint61_linear_571_9143)" stroke-width="0.864782" stroke-miterlimit="10"/>
<path d="M1657.95 127.605C1657.62 125.657 1584.92 157.948 1457.77 118.86C1437.5 112.629 1419.04 106.177 1401.34 100.123C1345.38 80.9334 1299.06 64.6595 1233.21 60.4366C1186.49 57.4418 1130.02 60.7263 1053.74 73.2609C1046.49 74.4626 1039.27 75.7027 1032.08 76.9738C995.161 83.5021 958.702 90.9089 923.164 97.8872C886.268 105.15 851.028 112.148 816.527 119.054C774.067 127.622 732.488 135.895 691.588 142.931C646.697 150.752 602.68 157.041 560.098 160.524C528.685 163.09 498.145 164.043 468.405 162.554C463.631 162.312 458.94 162.04 454.344 161.683C297.71 149.541 240.384 80.5743 238.568 82.7241" stroke="url(#paint62_linear_571_9143)" stroke-width="0.864782" stroke-miterlimit="10"/>
<path d="M1660.2 124.84C1660.2 124.84 1586.92 159.954 1457.95 121.178C1328.97 82.4008 1278.34 35.5182 1058.23 70.5293C838.121 105.54 645.807 178.428 476.85 166.746C307.893 155.064 247.907 78.2234 247.907 78.2234" stroke="url(#paint63_linear_571_9143)" stroke-width="0.864782" stroke-miterlimit="10"/>
<path d="M1758.19 100.391C1745.01 80.7826 1706.41 69.1361 1668.71 67.6184C1631.02 66.1006 1593.93 72.8826 1558.78 80.5647C1486.07 96.4484 1416.38 116.572 1342.2 130.21C1268.02 143.848 1187.11 150.767 1111.7 139.376C1065.34 132.374 1022.75 118.721 975.881 112.859C881.896 101.1 785.836 121.841 690.122 127.974C617.705 132.613 590.508 113.338 550.17 84.8618C511.013 57.2192 453.085 37.9289 390.627 31.7311C328.168 25.5332 261.748 32.4876 207.686 50.8825" stroke="url(#paint64_linear_571_9143)" stroke-width="0.864782" stroke-miterlimit="10"/>
<path d="M1759.56 97.6311C1744.9 79.2434 1705.47 68.3056 1667.17 67.4605C1628.81 66.637 1590.97 73.8116 1554.86 81.6493C1481.8 97.5426 1411.33 117.182 1336.86 129.829C1262.67 142.534 1182.39 148.196 1106.93 136.805C1060.73 129.829 1018.1 116.627 971.367 111.018C877.706 99.7689 782.087 120.191 686.758 126.272C614.765 130.866 586.482 112.21 545.57 84.4047C506.157 57.4515 448.705 38.3289 386.795 32.909C325.015 27.4365 259.746 34.9271 206.181 53.3148" stroke="url(#paint65_linear_571_9143)" stroke-width="0.864782" stroke-miterlimit="10"/>
<path d="M1760.93 94.8684C1744.8 77.704 1704.54 67.47 1665.64 67.2976C1626.6 67.1683 1588.03 74.7331 1550.94 82.7312C1477.53 98.6341 1406.24 117.695 1331.54 129.444C1257.29 141.121 1177.67 145.617 1102.18 134.227C1056.13 127.28 1013.47 114.523 966.861 109.17C873.529 98.4306 778.351 118.535 683.403 124.565C611.833 129.114 582.318 111.15 540.977 83.9402C501.171 57.7411 444.334 38.7213 382.969 34.0771C321.863 29.33 257.744 37.3568 204.681 55.7373" stroke="url(#paint66_linear_571_9143)" stroke-width="0.864782" stroke-miterlimit="10"/>
<path d="M1762.3 92.1058C1744.7 76.1622 1703.61 66.6368 1664.09 67.1371C1624.39 67.7021 1585.07 75.6595 1547.02 83.8132C1473.26 99.7256 1401.18 118.257 1326.2 129.058C1251.93 139.759 1172.95 143.041 1097.41 131.649C1051.52 124.728 1008.82 112.421 962.347 107.324C869.34 97.0947 774.603 116.878 680.039 122.86C608.893 127.363 578.228 110.055 536.373 83.4804C496.247 58.0043 439.928 39.2072 379.129 35.2524C318.685 31.3192 255.729 39.7961 203.168 58.1695" stroke="url(#paint67_linear_571_9143)" stroke-width="0.864782" stroke-miterlimit="10"/>
<path d="M1763.67 89.3429C1744.6 74.6227 1702.67 65.8011 1662.55 66.9765C1622.19 68.2357 1582.11 76.5833 1543.1 84.8974C1468.99 100.819 1396.13 118.827 1320.88 128.675C1246.58 138.402 1168.24 140.465 1092.65 129.072C1046.92 122.178 1004.19 110.319 957.842 105.478C865.159 95.7587 770.863 115.224 676.684 121.153C605.962 125.611 574.151 108.956 531.781 83.0182C491.348 58.2626 435.556 39.6307 375.303 36.4229C315.533 33.2413 253.732 42.2281 201.667 60.5943" stroke="url(#paint68_linear_571_9143)" stroke-width="0.864782" stroke-miterlimit="10"/>
<path d="M1765.03 86.5832C1744.49 73.0839 1701.74 64.9709 1661.01 66.819C1619.97 68.7724 1579.16 77.5127 1539.18 85.9848C1464.71 101.916 1391.07 119.399 1315.54 128.295C1241.22 137.05 1163.51 137.895 1087.87 126.5C1042.3 119.634 999.533 108.222 953.323 103.635C860.969 94.4257 767.11 113.57 673.315 119.452C603.017 123.864 570.065 107.865 527.176 82.5615C486.436 58.5265 431.172 40.0573 371.467 37.6011C312.377 35.1713 251.721 44.668 200.158 63.0294" stroke="url(#paint69_linear_571_9143)" stroke-width="0.864782" stroke-miterlimit="10"/>
<path d="M1766.4 83.8204C1744.4 71.5444 1700.8 64.0849 1659.47 66.6584C1617.76 69.2558 1576.21 78.4389 1535.27 87.0666C1460.44 103.008 1386.03 119.969 1310.21 127.912C1235.88 135.699 1158.8 135.319 1083.12 123.926C1037.71 117.086 994.902 106.122 948.822 101.792C856.792 93.0921 763.374 111.918 669.964 117.747C600.09 122.114 566.004 106.769 522.588 82.1016C481.55 58.7872 426.809 40.4784 367.645 38.7764C309.233 37.0958 249.728 47.1072 198.662 65.459" stroke="url(#paint70_linear_571_9143)" stroke-width="0.864782" stroke-miterlimit="10"/>
<path d="M1767.77 81.0576C1744.29 70.0024 1699.86 63.2468 1657.93 66.4977C1615.55 69.7846 1573.25 79.3627 1531.34 88.1508C1456.17 104.101 1380.98 120.545 1304.88 127.528C1230.53 134.349 1154.07 132.745 1078.35 121.35C1033.1 114.537 990.254 104.022 944.308 99.9456C852.602 91.756 759.625 110.263 666.6 116.042C597.15 120.363 561.94 105.672 517.983 81.6393C476.655 59.043 422.429 40.8971 363.805 39.9467C306.077 39.0131 247.713 49.5391 197.149 67.8862" stroke="url(#paint71_linear_571_9143)" stroke-width="0.864782" stroke-miterlimit="10"/>
<path d="M1769.14 78.2954C1744.19 68.4636 1698.92 62.4094 1656.39 66.3378C1613.33 70.3165 1570.27 80.2393 1527.43 89.2333C1451.84 105.105 1375.94 121.123 1299.55 127.143C1225.2 133.004 1149.36 130.169 1073.59 118.772C1028.49 111.985 985.614 101.919 939.802 98.1004C848.421 90.4183 755.885 108.607 663.24 114.336C594.214 118.614 557.88 104.574 513.387 81.1777C471.773 59.2973 418.062 41.3117 359.979 41.1202C302.933 40.9311 245.715 51.9742 195.644 70.3141" stroke="url(#paint72_linear_571_9143)" stroke-width="0.864782" stroke-miterlimit="10"/>
<path d="M1770.51 75.535C1744.09 66.924 1697.99 61.5736 1654.85 66.1795C1611.12 70.8501 1567.31 81.1631 1523.51 90.3199C1447.57 106.196 1370.9 121.709 1294.22 126.763C1219.86 131.663 1144.64 127.596 1068.83 116.198C1023.89 109.44 980.974 99.8214 935.288 96.2568C844.235 89.0846 752.136 106.955 659.876 112.634C591.273 116.866 553.824 103.477 508.786 80.7202C466.892 59.5556 413.69 41.7304 356.143 42.2954C299.785 42.8484 243.704 54.4134 194.135 72.7437" stroke="url(#paint73_linear_571_9143)" stroke-width="0.864782" stroke-miterlimit="10"/>
<path d="M1771.88 72.7724C1743.98 65.3848 1697.05 60.7358 1653.31 66.0192C1608.91 71.3816 1564.36 82.0848 1519.59 91.4043C1443.3 107.286 1365.87 122.296 1288.89 126.38C1214.53 130.327 1139.93 125.022 1064.07 113.625C1019.28 106.893 976.335 97.7219 930.782 94.4135C840.054 87.7512 748.395 105.301 656.521 110.932C588.342 115.119 549.785 102.378 504.19 80.263C462.023 59.8093 409.323 42.147 352.312 43.4732C296.642 44.7659 241.702 56.8528 192.63 75.1783" stroke="url(#paint74_linear_571_9143)" stroke-width="0.864782" stroke-miterlimit="10"/>
<path d="M1773.25 70.0101C1743.89 63.8433 1696.11 59.9005 1651.77 65.859C1606.7 71.9132 1561.4 83.0091 1515.67 92.4866C1439.02 108.375 1360.84 122.882 1283.56 125.997C1209.2 128.992 1135.21 122.447 1059.3 111.049C1014.68 104.344 971.691 95.6203 926.273 92.568C835.868 86.4156 744.651 103.647 653.161 109.225C585.406 113.366 545.747 101.272 499.593 79.8012C457.159 60.0585 404.96 42.5565 348.486 44.644C293.503 46.6765 239.7 59.2853 191.13 77.6036" stroke="url(#paint75_linear_571_9143)" stroke-width="0.864782" stroke-miterlimit="10"/>
<path d="M1774.62 67.247C1743.78 62.3035 1695.18 59.067 1650.23 65.6981C1604.49 72.4466 1558.44 83.9326 1511.75 93.5706C1434.75 109.466 1355.81 123.475 1278.23 125.613C1203.87 127.662 1130.48 119.873 1054.53 108.473C1010.07 101.796 967.043 93.5203 921.759 90.7242C831.678 85.0817 740.902 101.992 649.797 107.522C582.466 111.618 541.713 100.168 494.993 79.3411C452.294 60.307 400.593 42.9654 344.65 45.819C290.359 48.5863 237.694 61.7242 189.621 80.0353" stroke="url(#paint76_linear_571_9143)" stroke-width="0.864782" stroke-miterlimit="10"/>
<path d="M1775.99 64.4873C1743.68 60.7671 1694.24 58.2343 1648.69 65.5406C1602.28 72.9833 1555.49 84.8595 1507.83 94.6555C1430.48 110.561 1350.78 124.074 1272.9 125.231C1198.55 126.334 1125.77 117.297 1049.78 105.897C1005.47 99.247 962.408 91.4189 917.253 88.8789C827.502 83.7464 737.162 100.339 646.442 105.816C579.534 109.866 537.687 99.0579 490.401 78.8795C447.447 60.5516 396.235 43.3704 340.824 46.9901C287.225 50.4924 235.692 64.1569 188.121 82.4608" stroke="url(#paint77_linear_571_9143)" stroke-width="0.864782" stroke-miterlimit="10"/>
<path d="M1777.35 61.7244C1743.58 59.2252 1693.3 57.401 1647.15 65.38C1600.07 73.5193 1552.53 85.7834 1503.92 95.7397C1426.21 111.655 1345.75 124.675 1267.57 124.847C1193.22 125.013 1121.05 114.724 1045.01 103.321C1000.86 96.6973 957.764 89.3192 912.743 87.033C823.316 82.4104 733.417 98.6842 643.082 104.111C576.598 108.116 533.67 97.9469 485.8 78.4197C442.595 60.7956 391.872 43.7748 336.988 48.1653C284.081 52.3977 233.681 66.5937 186.611 84.8905" stroke="url(#paint78_linear_571_9143)" stroke-width="0.864782" stroke-miterlimit="10"/>
<path d="M1778.72 58.962C1743.48 57.6861 1692.37 56.5681 1645.61 65.2174C1597.86 74.051 1549.58 86.7052 1500 96.822C1421.94 112.749 1340.72 125.279 1262.24 124.465C1187.9 123.694 1116.33 112.15 1040.25 100.748C996.259 94.1527 953.128 87.2199 908.238 85.1899C819.135 81.0771 729.677 97.0302 639.727 102.407C573.666 106.367 529.658 96.8339 481.208 77.9602C437.761 61.0352 387.513 44.1772 333.166 49.3409C280.946 54.3011 231.688 69.0333 185.115 87.3229" stroke="url(#paint79_linear_571_9143)" stroke-width="0.864782" stroke-miterlimit="10"/>
<path d="M1780.09 56.1992C1743.37 56.1441 1691.43 55.7347 1644.07 65.0567C1595.64 74.5869 1546.62 87.6314 1496.08 97.9037C1417.67 113.84 1335.69 125.884 1256.9 124.079C1182.56 122.374 1111.61 109.572 1035.48 98.1694C991.646 91.6005 948.48 85.1178 903.723 83.3439C814.949 79.7386 725.928 95.3757 636.363 100.702C570.726 104.616 525.645 95.7157 476.607 77.5003C432.919 61.2719 383.146 44.5767 329.331 50.5136C277.803 56.1992 229.678 71.4676 183.602 89.75" stroke="url(#paint80_linear_571_9143)" stroke-width="0.864782" stroke-miterlimit="10"/>
<path d="M1781.46 53.4392C1743.27 54.6074 1690.5 54.9067 1642.53 64.8989C1593.44 75.1257 1543.67 88.5604 1492.16 98.9908C1413.4 114.939 1330.67 126.499 1251.58 123.698C1177.24 121.065 1106.9 107.001 1030.72 95.5962C987.045 89.0536 943.841 83.0185 899.214 81.5008C810.764 78.4054 722.184 93.7217 632.999 98.998C567.79 102.867 521.637 94.5931 472.003 77.0385C428.08 61.5019 378.775 44.9695 325.491 51.6868C274.655 58.0954 227.667 73.9025 182.089 92.1801" stroke="url(#paint81_linear_571_9143)" stroke-width="0.864782" stroke-miterlimit="10"/>
<path d="M1782.83 50.6764C1743.17 53.0655 1689.56 54.0734 1640.98 64.7383C1591.23 75.6618 1540.71 89.4867 1488.24 100.075C1409.13 116.038 1325.63 127.117 1246.24 123.315C1171.91 119.755 1102.17 104.425 1025.95 93.0201C982.432 86.5062 939.192 80.9188 894.699 79.6548C806.574 77.0694 718.435 92.0673 629.635 97.2933C564.85 101.116 517.633 93.4678 467.402 76.5786C423.246 61.7315 374.408 45.3619 321.66 52.8596C271.511 59.9888 225.661 76.3392 180.584 94.6073" stroke="url(#paint82_linear_571_9143)" stroke-width="0.864782" stroke-miterlimit="10"/>
<path d="M1784.2 47.9139C1743.07 51.5264 1688.63 53.2428 1639.45 64.578C1589.02 76.2005 1537.81 90.4731 1484.33 101.157C1404.92 117.22 1320.61 127.735 1240.92 122.93C1166.58 118.449 1097.46 101.849 1021.2 90.4444C977.835 83.9569 934.557 78.8171 890.198 77.8093C802.397 75.7337 714.699 90.4133 626.284 95.5889C561.923 99.3666 513.646 92.338 462.814 76.1192C418.434 61.9591 370.053 45.7522 317.838 54.0352C268.377 61.8801 223.667 78.7764 179.088 97.0373" stroke="url(#paint83_linear_571_9143)" stroke-width="0.864782" stroke-miterlimit="10"/>
<path d="M1785.57 45.151C1742.97 49.9843 1687.74 52.462 1637.91 64.4173C1586.86 76.7891 1534.85 91.3968 1480.41 102.241C1400.65 118.314 1315.58 128.359 1235.59 122.549C1161.25 117.148 1092.74 99.2752 1016.43 87.8706C973.226 81.4094 929.913 76.7197 885.684 75.968C798.211 74.4024 710.95 88.7611 622.92 93.8865C558.982 97.6186 509.651 91.2053 458.214 75.6616C413.608 62.1838 365.682 46.1421 314.003 55.2103C265.229 63.7709 221.657 81.2131 177.579 99.4691" stroke="url(#paint84_linear_571_9143)" stroke-width="0.864782" stroke-miterlimit="10"/>
<path d="M1786.93 42.3911C1742.86 48.4477 1686.81 51.6316 1636.37 64.2596C1584.64 77.3256 1531.9 92.3259 1476.49 103.326C1396.38 119.408 1310.54 128.986 1230.26 122.166C1155.92 115.851 1088.02 96.702 1011.67 85.295C968.625 78.8601 925.274 74.6181 881.179 74.1225C794.03 73.0668 707.21 87.1072 619.565 92.1823C556.051 95.8689 505.668 90.0637 453.617 75.2022C408.791 62.3995 361.31 46.5278 310.176 56.3859C262.085 65.6576 219.659 83.6503 176.078 101.899" stroke="url(#paint85_linear_571_9143)" stroke-width="0.864782" stroke-miterlimit="10"/>
<path d="M1788.3 39.6284C1742.77 46.9059 1685.88 50.796 1634.83 64.099C1582.44 77.8617 1528.94 93.2499 1472.57 104.41C1392.11 120.502 1305.5 129.616 1224.93 121.783C1150.58 114.556 1083.3 94.1284 1006.9 82.719C964.016 76.3129 920.634 72.5185 876.669 72.2767C789.845 71.7309 703.466 85.4505 616.205 90.4753C553.115 94.1165 501.682 88.9169 449.021 74.7376C403.974 62.61 356.935 46.9035 306.345 57.5565C258.929 67.5391 217.648 86.0849 174.569 104.327" stroke="url(#paint86_linear_571_9143)" stroke-width="0.864782" stroke-miterlimit="10"/>
<path d="M1789.67 36.866C1742.66 45.3668 1684.94 49.9631 1633.29 63.9389C1580.23 78.3958 1525.99 94.1765 1468.65 105.495C1387.84 121.597 1300.46 130.251 1219.6 121.4C1145.24 113.263 1078.59 91.5528 1002.14 80.1433C959.415 73.7635 915.995 70.4168 872.163 70.4312C785.663 70.3953 699.726 83.7964 612.85 88.771C550.183 92.3667 497.704 87.7656 444.429 74.2782C399.166 62.8185 352.563 47.2843 302.518 58.7297C255.785 69.4185 215.651 88.5197 173.073 106.754" stroke="url(#paint87_linear_571_9143)" stroke-width="0.864782" stroke-miterlimit="10"/>
<path d="M1791.04 34.1033C1742.56 43.825 1684.01 49.1275 1631.75 63.7784C1578.02 78.9295 1523.04 95.1005 1464.73 106.577C1383.57 122.686 1295.42 130.887 1214.27 121.015C1139.9 111.97 1073.87 88.9768 997.379 77.5674C954.806 71.2139 911.351 68.3149 867.649 68.5854C781.478 69.057 695.977 82.1422 609.486 87.0641C547.243 90.6143 493.717 86.6068 439.824 73.8161C394.345 63.0195 348.174 47.6577 298.679 59.9026C252.616 71.2953 213.64 90.9542 171.556 109.184" stroke="url(#paint88_linear_571_9143)" stroke-width="0.864782" stroke-miterlimit="10"/>
<path d="M1792.41 31.343C1742.45 42.288 1683.07 48.2968 1630.21 63.6203C1575.81 79.4657 1520.08 96.0292 1460.81 107.664C1379.29 123.782 1290.37 131.529 1208.94 120.636C1134.56 110.687 1069.15 86.4057 992.614 74.9962C950.201 68.6715 906.707 66.2201 863.139 66.7468C777.292 67.7283 692.232 80.4927 606.126 85.3667C544.307 88.8714 489.739 85.4529 435.228 73.3636C389.533 63.2277 343.79 48.0406 294.852 61.0827C249.459 73.1792 211.638 93.3983 170.055 111.618" stroke="url(#paint89_linear_571_9143)" stroke-width="0.864782" stroke-miterlimit="10"/>
<path d="M1793.78 28.5806C1742.35 40.7465 1682.14 47.4615 1628.67 63.4601C1573.61 79.9997 1517.13 96.9535 1456.89 108.746C1375.03 124.874 1285.32 132.171 1203.6 120.251C1129.21 109.4 1064.43 83.83 987.849 72.4182C945.592 66.1198 902.063 64.116 858.629 64.8989C773.107 66.3903 688.488 78.8363 602.762 83.66C541.367 87.1193 485.753 84.2825 430.627 72.8993C384.716 63.4194 339.397 48.4095 291.017 62.2536C246.29 75.0515 209.632 95.8308 168.546 114.044" stroke="url(#paint90_linear_571_9143)" stroke-width="0.864782" stroke-miterlimit="10"/>
<path d="M1795.15 25.8182C1742.25 39.2075 1681.21 46.6286 1627.13 63.2975C1571.4 80.5314 1514.17 97.8777 1452.97 109.828C1370.75 125.966 1280.26 132.812 1198.27 119.866C1123.85 108.114 1059.71 81.2519 983.08 69.8401C940.983 63.568 897.415 62.0144 854.115 63.0509C768.921 65.0523 684.739 77.1775 599.398 81.951C538.426 85.3671 481.77 83.1048 426.026 72.4351C379.895 63.6063 334.999 48.776 287.181 63.422C243.116 76.9213 207.621 98.2608 167.037 116.469" stroke="url(#paint91_linear_571_9143)" stroke-width="0.864782" stroke-miterlimit="10"/>
<path d="M1796.52 23.0552C1742.15 37.6654 1680.28 45.7927 1625.59 63.1367C1569.19 81.0648 1511.22 98.8038 1449.06 110.912C1366.48 127.059 1275.2 133.461 1192.94 119.483C1118.5 106.833 1055 78.6781 978.319 67.2662C936.377 61.0229 892.78 59.9145 849.605 61.2072C764.736 63.7184 680.999 75.5253 596.038 80.2485C535.49 83.6191 477.788 81.929 421.426 71.9775C375.078 63.795 330.598 49.1466 283.35 64.5994C239.942 78.7978 205.619 100.702 165.532 118.901" stroke="url(#paint92_linear_571_9143)" stroke-width="0.864782" stroke-miterlimit="10"/>
<path d="M1797.89 20.2953C1742.05 36.1287 1679.35 44.9623 1624.05 62.979C1566.99 81.6037 1508.27 99.7305 1445.14 111.997C1362.21 128.154 1270.08 134.201 1187.61 119.102C1113.09 105.636 1050.27 76.1072 973.559 64.693C931.777 58.476 888.14 57.8177 845.1 59.3665C760.555 62.3877 677.259 73.8761 592.683 78.5467C532.559 81.8718 473.81 80.7443 416.834 71.5205C370.265 63.9796 326.196 49.5179 279.524 65.7775C236.769 80.6725 203.618 103.142 164.032 121.336" stroke="url(#paint93_linear_571_9143)" stroke-width="0.864782" stroke-miterlimit="10"/>
<path d="M1799.25 17.5326C1741.95 34.5893 1678.41 44.1267 1622.5 62.8185C1564.77 82.1374 1505.31 100.657 1441.22 113.081C1357.94 129.247 1265.03 134.809 1182.28 118.719C1107.74 104.32 1045.56 73.5313 968.794 62.117C927.168 55.9263 883.496 55.7157 840.59 57.5207C756.369 61.0517 673.514 72.2194 589.323 76.8421C529.623 80.1217 469.823 79.5544 412.238 71.0607C365.444 64.159 321.747 49.853 275.693 66.9504C233.548 82.5133 201.615 105.576 162.527 123.763" stroke="url(#paint94_linear_571_9143)" stroke-width="0.864782" stroke-miterlimit="10"/>
<path d="M1800.62 14.7702C1741.85 33.0478 1677.48 43.2938 1620.97 62.6583C1562.57 82.6715 1502.36 101.581 1437.3 114.166C1353.67 130.342 1260 135.419 1176.95 118.336C1102.4 103.001 1040.84 70.958 964.033 59.5414C922.567 53.3794 878.857 53.6164 836.085 55.6752C752.192 59.7161 669.774 70.5654 585.968 75.1354C526.692 78.3696 465.841 78.3552 407.641 70.5965C360.623 64.3292 317.371 50.2458 271.862 68.1212C230.396 84.4095 199.609 108.011 161.023 126.188" stroke="url(#paint95_linear_571_9143)" stroke-width="0.864782" stroke-miterlimit="10"/>
</g>
<defs>
<linearGradient id="paint0_linear_571_9143" x1="761.635" y1="36.6498" x2="761.635" y2="260.597" gradientUnits="userSpaceOnUse">
<stop stop-color="#4441B8" stop-opacity="0.04"/>
<stop offset="1" stop-color="#47A348" stop-opacity="0.2"/>
</linearGradient>
<linearGradient id="paint1_linear_571_9143" x1="762.101" y1="43.2288" x2="762.101" y2="254.095" gradientUnits="userSpaceOnUse">
<stop stop-color="#4441B8" stop-opacity="0.04"/>
<stop offset="1" stop-color="#47A348" stop-opacity="0.2"/>
</linearGradient>
<linearGradient id="paint2_linear_571_9143" x1="762.789" y1="49.7337" x2="762.789" y2="247.594" gradientUnits="userSpaceOnUse">
<stop stop-color="#4441B8" stop-opacity="0.04"/>
<stop offset="1" stop-color="#47A348" stop-opacity="0.2"/>
</linearGradient>
<linearGradient id="paint3_linear_571_9143" x1="763.68" y1="56.1485" x2="763.68" y2="242.329" gradientUnits="userSpaceOnUse">
<stop stop-color="#4441B8" stop-opacity="0.04"/>
<stop offset="1" stop-color="#47A348" stop-opacity="0.2"/>
</linearGradient>
<linearGradient id="paint4_linear_571_9143" x1="764.739" y1="62.4597" x2="764.739" y2="244.613" gradientUnits="userSpaceOnUse">
<stop stop-color="#4441B8" stop-opacity="0.04"/>
<stop offset="1" stop-color="#47A348" stop-opacity="0.2"/>
</linearGradient>
<linearGradient id="paint5_linear_571_9143" x1="765.941" y1="68.6737" x2="765.941" y2="246.895" gradientUnits="userSpaceOnUse">
<stop stop-color="#4441B8" stop-opacity="0.04"/>
<stop offset="1" stop-color="#47A348" stop-opacity="0.2"/>
</linearGradient>
<linearGradient id="paint6_linear_571_9143" x1="767.263" y1="74.7363" x2="767.263" y2="249.179" gradientUnits="userSpaceOnUse">
<stop stop-color="#4441B8" stop-opacity="0.04"/>
<stop offset="1" stop-color="#47A348" stop-opacity="0.2"/>
</linearGradient>
<linearGradient id="paint7_linear_571_9143" x1="768.685" y1="80.6353" x2="768.685" y2="251.465" gradientUnits="userSpaceOnUse">
<stop stop-color="#4441B8" stop-opacity="0.04"/>
<stop offset="1" stop-color="#47A348" stop-opacity="0.2"/>
</linearGradient>
<linearGradient id="paint8_linear_571_9143" x1="770.206" y1="86.3364" x2="770.206" y2="253.744" gradientUnits="userSpaceOnUse">
<stop stop-color="#4441B8" stop-opacity="0.04"/>
<stop offset="1" stop-color="#47A348" stop-opacity="0.2"/>
</linearGradient>
<linearGradient id="paint9_linear_571_9143" x1="771.802" y1="91.8331" x2="771.802" y2="256.028" gradientUnits="userSpaceOnUse">
<stop stop-color="#4441B8" stop-opacity="0.04"/>
<stop offset="1" stop-color="#47A348" stop-opacity="0.2"/>
</linearGradient>
<linearGradient id="paint10_linear_571_9143" x1="773.471" y1="97.0766" x2="773.471" y2="258.307" gradientUnits="userSpaceOnUse">
<stop stop-color="#4441B8" stop-opacity="0.04"/>
<stop offset="1" stop-color="#47A348" stop-opacity="0.2"/>
</linearGradient>
<linearGradient id="paint11_linear_571_9143" x1="775.208" y1="102.046" x2="775.208" y2="260.595" gradientUnits="userSpaceOnUse">
<stop stop-color="#4441B8" stop-opacity="0.04"/>
<stop offset="1" stop-color="#47A348" stop-opacity="0.2"/>
</linearGradient>
<linearGradient id="paint12_linear_571_9143" x1="776.972" y1="106.65" x2="776.972" y2="262.876" gradientUnits="userSpaceOnUse">
<stop stop-color="#4441B8" stop-opacity="0.04"/>
<stop offset="1" stop-color="#47A348" stop-opacity="0.2"/>
</linearGradient>
<linearGradient id="paint13_linear_571_9143" x1="778.736" y1="110.593" x2="778.736" y2="265.158" gradientUnits="userSpaceOnUse">
<stop stop-color="#4441B8" stop-opacity="0.04"/>
<stop offset="1" stop-color="#47A348" stop-opacity="0.2"/>
</linearGradient>
<linearGradient id="paint14_linear_571_9143" x1="780.505" y1="113.615" x2="780.505" y2="267.437" gradientUnits="userSpaceOnUse">
<stop stop-color="#4441B8" stop-opacity="0.04"/>
<stop offset="1" stop-color="#47A348" stop-opacity="0.2"/>
</linearGradient>
<linearGradient id="paint15_linear_571_9143" x1="782.265" y1="115.585" x2="782.265" y2="269.723" gradientUnits="userSpaceOnUse">
<stop stop-color="#4441B8" stop-opacity="0.04"/>
<stop offset="1" stop-color="#47A348" stop-opacity="0.2"/>
</linearGradient>
<linearGradient id="paint16_linear_571_9143" x1="784.031" y1="116.488" x2="784.031" y2="272.007" gradientUnits="userSpaceOnUse">
<stop stop-color="#4441B8" stop-opacity="0.04"/>
<stop offset="1" stop-color="#47A348" stop-opacity="0.2"/>
</linearGradient>
<linearGradient id="paint17_linear_571_9143" x1="785.797" y1="116.435" x2="785.797" y2="274.286" gradientUnits="userSpaceOnUse">
<stop stop-color="#4441B8" stop-opacity="0.04"/>
<stop offset="1" stop-color="#47A348" stop-opacity="0.2"/>
</linearGradient>
<linearGradient id="paint18_linear_571_9143" x1="787.557" y1="115.628" x2="787.557" y2="276.572" gradientUnits="userSpaceOnUse">
<stop stop-color="#4441B8" stop-opacity="0.04"/>
<stop offset="1" stop-color="#47A348" stop-opacity="0.2"/>
</linearGradient>
<linearGradient id="paint19_linear_571_9143" x1="789.328" y1="114.222" x2="789.328" y2="278.856" gradientUnits="userSpaceOnUse">
<stop stop-color="#4441B8" stop-opacity="0.04"/>
<stop offset="1" stop-color="#47A348" stop-opacity="0.2"/>
</linearGradient>
<linearGradient id="paint20_linear_571_9143" x1="791.088" y1="112.336" x2="791.088" y2="281.137" gradientUnits="userSpaceOnUse">
<stop stop-color="#4441B8" stop-opacity="0.04"/>
<stop offset="1" stop-color="#47A348" stop-opacity="0.2"/>
</linearGradient>
<linearGradient id="paint21_linear_571_9143" x1="792.854" y1="110.041" x2="792.854" y2="283.423" gradientUnits="userSpaceOnUse">
<stop stop-color="#4441B8" stop-opacity="0.04"/>
<stop offset="1" stop-color="#47A348" stop-opacity="0.2"/>
</linearGradient>
<linearGradient id="paint22_linear_571_9143" x1="794.62" y1="107.413" x2="794.62" y2="285.702" gradientUnits="userSpaceOnUse">
<stop stop-color="#4441B8" stop-opacity="0.04"/>
<stop offset="1" stop-color="#47A348" stop-opacity="0.2"/>
</linearGradient>
<linearGradient id="paint23_linear_571_9143" x1="796.38" y1="104.528" x2="796.38" y2="287.991" gradientUnits="userSpaceOnUse">
<stop stop-color="#4441B8" stop-opacity="0.04"/>
<stop offset="1" stop-color="#47A348" stop-opacity="0.2"/>
</linearGradient>
<linearGradient id="paint24_linear_571_9143" x1="798.146" y1="101.424" x2="798.146" y2="290.266" gradientUnits="userSpaceOnUse">
<stop stop-color="#4441B8" stop-opacity="0.04"/>
<stop offset="1" stop-color="#47A348" stop-opacity="0.2"/>
</linearGradient>
<linearGradient id="paint25_linear_571_9143" x1="799.913" y1="98.0504" x2="799.913" y2="292.557" gradientUnits="userSpaceOnUse">
<stop stop-color="#4441B8" stop-opacity="0.04"/>
<stop offset="1" stop-color="#47A348" stop-opacity="0.2"/>
</linearGradient>
<linearGradient id="paint26_linear_571_9143" x1="801.673" y1="91.5483" x2="801.673" y2="294.84" gradientUnits="userSpaceOnUse">
<stop stop-color="#4441B8" stop-opacity="0.04"/>
<stop offset="1" stop-color="#47A348" stop-opacity="0.2"/>
</linearGradient>
<linearGradient id="paint27_linear_571_9143" x1="803.439" y1="85.0466" x2="803.439" y2="297.117" gradientUnits="userSpaceOnUse">
<stop stop-color="#4441B8" stop-opacity="0.04"/>
<stop offset="1" stop-color="#47A348" stop-opacity="0.2"/>
</linearGradient>
<linearGradient id="paint28_linear_571_9143" x1="805.208" y1="78.5442" x2="805.208" y2="299.4" gradientUnits="userSpaceOnUse">
<stop stop-color="#4441B8" stop-opacity="0.04"/>
<stop offset="1" stop-color="#47A348" stop-opacity="0.2"/>
</linearGradient>
<linearGradient id="paint29_linear_571_9143" x1="806.972" y1="72.0426" x2="806.972" y2="301.685" gradientUnits="userSpaceOnUse">
<stop stop-color="#4441B8" stop-opacity="0.04"/>
<stop offset="1" stop-color="#47A348" stop-opacity="0.2"/>
</linearGradient>
<linearGradient id="paint30_linear_571_9143" x1="808.736" y1="65.5407" x2="808.736" y2="303.968" gradientUnits="userSpaceOnUse">
<stop stop-color="#4441B8" stop-opacity="0.04"/>
<stop offset="1" stop-color="#47A348" stop-opacity="0.2"/>
</linearGradient>
<linearGradient id="paint31_linear_571_9143" x1="810.5" y1="59.0388" x2="810.5" y2="306.252" gradientUnits="userSpaceOnUse">
<stop stop-color="#4441B8" stop-opacity="0.04"/>
<stop offset="1" stop-color="#47A348" stop-opacity="0.2"/>
</linearGradient>
<linearGradient id="paint32_linear_571_9143" x1="774.43" y1="1" x2="774.43" y2="217.739" gradientUnits="userSpaceOnUse">
<stop stop-color="#4441B8" stop-opacity="0.04"/>
<stop offset="1" stop-color="#47A348" stop-opacity="0.2"/>
</linearGradient>
<linearGradient id="paint33_linear_571_9143" x1="780.226" y1="6.2254" x2="780.226" y2="213.231" gradientUnits="userSpaceOnUse">
<stop stop-color="#4441B8" stop-opacity="0.04"/>
<stop offset="1" stop-color="#47A348" stop-opacity="0.2"/>
</linearGradient>
<linearGradient id="paint34_linear_571_9143" x1="786.016" y1="11.4589" x2="786.016" y2="208.735" gradientUnits="userSpaceOnUse">
<stop stop-color="#4441B8" stop-opacity="0.04"/>
<stop offset="1" stop-color="#47A348" stop-opacity="0.2"/>
</linearGradient>
<linearGradient id="paint35_linear_571_9143" x1="791.816" y1="16.681" x2="791.816" y2="204.24" gradientUnits="userSpaceOnUse">
<stop stop-color="#4441B8" stop-opacity="0.04"/>
<stop offset="1" stop-color="#47A348" stop-opacity="0.2"/>
</linearGradient>
<linearGradient id="paint36_linear_571_9143" x1="797.606" y1="21.8947" x2="797.606" y2="199.734" gradientUnits="userSpaceOnUse">
<stop stop-color="#4441B8" stop-opacity="0.04"/>
<stop offset="1" stop-color="#47A348" stop-opacity="0.2"/>
</linearGradient>
<linearGradient id="paint37_linear_571_9143" x1="803.398" y1="27.1131" x2="803.398" y2="196.723" gradientUnits="userSpaceOnUse">
<stop stop-color="#4441B8" stop-opacity="0.04"/>
<stop offset="1" stop-color="#47A348" stop-opacity="0.2"/>
</linearGradient>
<linearGradient id="paint38_linear_571_9143" x1="809.192" y1="32.3282" x2="809.192" y2="193.958" gradientUnits="userSpaceOnUse">
<stop stop-color="#4441B8" stop-opacity="0.04"/>
<stop offset="1" stop-color="#47A348" stop-opacity="0.2"/>
</linearGradient>
<linearGradient id="paint39_linear_571_9143" x1="814.99" y1="36.4572" x2="814.99" y2="191.193" gradientUnits="userSpaceOnUse">
<stop stop-color="#4441B8" stop-opacity="0.04"/>
<stop offset="1" stop-color="#47A348" stop-opacity="0.2"/>
</linearGradient>
<linearGradient id="paint40_linear_571_9143" x1="820.782" y1="38.75" x2="820.782" y2="188.427" gradientUnits="userSpaceOnUse">
<stop stop-color="#4441B8" stop-opacity="0.04"/>
<stop offset="1" stop-color="#47A348" stop-opacity="0.2"/>
</linearGradient>
<linearGradient id="paint41_linear_571_9143" x1="826.581" y1="41.0109" x2="826.581" y2="185.663" gradientUnits="userSpaceOnUse">
<stop stop-color="#4441B8" stop-opacity="0.04"/>
<stop offset="1" stop-color="#47A348" stop-opacity="0.2"/>
</linearGradient>
<linearGradient id="paint42_linear_571_9143" x1="832.368" y1="43.236" x2="832.368" y2="182.9" gradientUnits="userSpaceOnUse">
<stop stop-color="#4441B8" stop-opacity="0.04"/>
<stop offset="1" stop-color="#47A348" stop-opacity="0.2"/>
</linearGradient>
<linearGradient id="paint43_linear_571_9143" x1="838.169" y1="45.4099" x2="838.169" y2="180.135" gradientUnits="userSpaceOnUse">
<stop stop-color="#4441B8" stop-opacity="0.04"/>
<stop offset="1" stop-color="#47A348" stop-opacity="0.2"/>
</linearGradient>
<linearGradient id="paint44_linear_571_9143" x1="843.956" y1="47.5295" x2="843.956" y2="177.371" gradientUnits="userSpaceOnUse">
<stop stop-color="#4441B8" stop-opacity="0.04"/>
<stop offset="1" stop-color="#47A348" stop-opacity="0.2"/>
</linearGradient>
<linearGradient id="paint45_linear_571_9143" x1="849.755" y1="49.5854" x2="849.755" y2="174.605" gradientUnits="userSpaceOnUse">
<stop stop-color="#4441B8" stop-opacity="0.04"/>
<stop offset="1" stop-color="#47A348" stop-opacity="0.2"/>
</linearGradient>
<linearGradient id="paint46_linear_571_9143" x1="855.544" y1="51.5685" x2="855.544" y2="171.84" gradientUnits="userSpaceOnUse">
<stop stop-color="#4441B8" stop-opacity="0.04"/>
<stop offset="1" stop-color="#47A348" stop-opacity="0.2"/>
</linearGradient>
<linearGradient id="paint47_linear_571_9143" x1="861.345" y1="53.4628" x2="861.345" y2="169.075" gradientUnits="userSpaceOnUse">
<stop stop-color="#4441B8" stop-opacity="0.04"/>
<stop offset="1" stop-color="#47A348" stop-opacity="0.2"/>
</linearGradient>
<linearGradient id="paint48_linear_571_9143" x1="867.133" y1="55.2538" x2="867.133" y2="166.31" gradientUnits="userSpaceOnUse">
<stop stop-color="#4441B8" stop-opacity="0.04"/>
<stop offset="1" stop-color="#47A348" stop-opacity="0.2"/>
</linearGradient>
<linearGradient id="paint49_linear_571_9143" x1="872.931" y1="56.9169" x2="872.931" y2="163.545" gradientUnits="userSpaceOnUse">
<stop stop-color="#4441B8" stop-opacity="0.04"/>
<stop offset="1" stop-color="#47A348" stop-opacity="0.2"/>
</linearGradient>
<linearGradient id="paint50_linear_571_9143" x1="878.725" y1="58.4434" x2="878.725" y2="160.783" gradientUnits="userSpaceOnUse">
<stop stop-color="#4441B8" stop-opacity="0.04"/>
<stop offset="1" stop-color="#47A348" stop-opacity="0.2"/>
</linearGradient>
<linearGradient id="paint51_linear_571_9143" x1="884.517" y1="59.7905" x2="884.517" y2="158.018" gradientUnits="userSpaceOnUse">
<stop stop-color="#4441B8" stop-opacity="0.04"/>
<stop offset="1" stop-color="#47A348" stop-opacity="0.2"/>
</linearGradient>
<linearGradient id="paint52_linear_571_9143" x1="890.311" y1="60.9382" x2="890.311" y2="155.253" gradientUnits="userSpaceOnUse">
<stop stop-color="#4441B8" stop-opacity="0.04"/>
<stop offset="1" stop-color="#47A348" stop-opacity="0.2"/>
</linearGradient>
<linearGradient id="paint53_linear_571_9143" x1="896.105" y1="61.855" x2="896.105" y2="152.488" gradientUnits="userSpaceOnUse">
<stop stop-color="#4441B8" stop-opacity="0.04"/>
<stop offset="1" stop-color="#47A348" stop-opacity="0.2"/>
</linearGradient>
<linearGradient id="paint54_linear_571_9143" x1="901.903" y1="62.5218" x2="901.903" y2="149.723" gradientUnits="userSpaceOnUse">
<stop stop-color="#4441B8" stop-opacity="0.04"/>
<stop offset="1" stop-color="#47A348" stop-opacity="0.2"/>
</linearGradient>
<linearGradient id="paint55_linear_571_9143" x1="907.695" y1="62.9175" x2="907.695" y2="146.958" gradientUnits="userSpaceOnUse">
<stop stop-color="#4441B8" stop-opacity="0.04"/>
<stop offset="1" stop-color="#47A348" stop-opacity="0.2"/>
</linearGradient>
<linearGradient id="paint56_linear_571_9143" x1="913.487" y1="63.0458" x2="913.487" y2="144.193" gradientUnits="userSpaceOnUse">
<stop stop-color="#4441B8" stop-opacity="0.04"/>
<stop offset="1" stop-color="#47A348" stop-opacity="0.2"/>
</linearGradient>
<linearGradient id="paint57_linear_571_9143" x1="919.279" y1="62.9221" x2="919.279" y2="142.054" gradientUnits="userSpaceOnUse">
<stop stop-color="#4441B8" stop-opacity="0.04"/>
<stop offset="1" stop-color="#47A348" stop-opacity="0.2"/>
</linearGradient>
<linearGradient id="paint58_linear_571_9143" x1="925.075" y1="62.5702" x2="925.075" y2="145.99" gradientUnits="userSpaceOnUse">
<stop stop-color="#4441B8" stop-opacity="0.04"/>
<stop offset="1" stop-color="#47A348" stop-opacity="0.2"/>
</linearGradient>
<linearGradient id="paint59_linear_571_9143" x1="930.873" y1="62.0184" x2="930.873" y2="149.997" gradientUnits="userSpaceOnUse">
<stop stop-color="#4441B8" stop-opacity="0.04"/>
<stop offset="1" stop-color="#47A348" stop-opacity="0.2"/>
</linearGradient>
<linearGradient id="paint60_linear_571_9143" x1="936.667" y1="61.3021" x2="936.667" y2="154.217" gradientUnits="userSpaceOnUse">
<stop stop-color="#4441B8" stop-opacity="0.04"/>
<stop offset="1" stop-color="#47A348" stop-opacity="0.2"/>
</linearGradient>
<linearGradient id="paint61_linear_571_9143" x1="942.457" y1="60.4246" x2="942.457" y2="158.653" gradientUnits="userSpaceOnUse">
<stop stop-color="#4441B8" stop-opacity="0.04"/>
<stop offset="1" stop-color="#47A348" stop-opacity="0.2"/>
</linearGradient>
<linearGradient id="paint62_linear_571_9143" x1="948.258" y1="59.4026" x2="948.258" y2="163.261" gradientUnits="userSpaceOnUse">
<stop stop-color="#4441B8" stop-opacity="0.04"/>
<stop offset="1" stop-color="#47A348" stop-opacity="0.2"/>
</linearGradient>
<linearGradient id="paint63_linear_571_9143" x1="954.052" y1="58.2186" x2="954.052" y2="168" gradientUnits="userSpaceOnUse">
<stop stop-color="#4441B8" stop-opacity="0.04"/>
<stop offset="1" stop-color="#47A348" stop-opacity="0.2"/>
</linearGradient>
<linearGradient id="paint64_linear_571_9143" x1="982.94" y1="29.5176" x2="982.94" y2="145.104" gradientUnits="userSpaceOnUse">
<stop stop-color="#4441B8" stop-opacity="0.04"/>
<stop offset="1" stop-color="#47A348" stop-opacity="0.2"/>
</linearGradient>
<linearGradient id="paint65_linear_571_9143" x1="982.87" y1="31.1564" x2="982.87" y2="142.953" gradientUnits="userSpaceOnUse">
<stop stop-color="#4441B8" stop-opacity="0.04"/>
<stop offset="1" stop-color="#47A348" stop-opacity="0.2"/>
</linearGradient>
<linearGradient id="paint66_linear_571_9143" x1="982.805" y1="32.738" x2="982.805" y2="140.827" gradientUnits="userSpaceOnUse">
<stop stop-color="#4441B8" stop-opacity="0.04"/>
<stop offset="1" stop-color="#47A348" stop-opacity="0.2"/>
</linearGradient>
<linearGradient id="paint67_linear_571_9143" x1="982.732" y1="34.3073" x2="982.732" y2="138.783" gradientUnits="userSpaceOnUse">
<stop stop-color="#4441B8" stop-opacity="0.04"/>
<stop offset="1" stop-color="#47A348" stop-opacity="0.2"/>
</linearGradient>
<linearGradient id="paint68_linear_571_9143" x1="982.667" y1="35.7926" x2="982.667" y2="136.82" gradientUnits="userSpaceOnUse">
<stop stop-color="#4441B8" stop-opacity="0.04"/>
<stop offset="1" stop-color="#47A348" stop-opacity="0.2"/>
</linearGradient>
<linearGradient id="paint69_linear_571_9143" x1="982.596" y1="37.2266" x2="982.596" y2="134.958" gradientUnits="userSpaceOnUse">
<stop stop-color="#4441B8" stop-opacity="0.04"/>
<stop offset="1" stop-color="#47A348" stop-opacity="0.2"/>
</linearGradient>
<linearGradient id="paint70_linear_571_9143" x1="982.533" y1="38.5939" x2="982.533" y2="133.205" gradientUnits="userSpaceOnUse">
<stop stop-color="#4441B8" stop-opacity="0.04"/>
<stop offset="1" stop-color="#47A348" stop-opacity="0.2"/>
</linearGradient>
<linearGradient id="paint71_linear_571_9143" x1="982.46" y1="39.8894" x2="982.46" y2="131.583" gradientUnits="userSpaceOnUse">
<stop stop-color="#4441B8" stop-opacity="0.04"/>
<stop offset="1" stop-color="#47A348" stop-opacity="0.2"/>
</linearGradient>
<linearGradient id="paint72_linear_571_9143" x1="982.393" y1="41.1178" x2="982.393" y2="130.111" gradientUnits="userSpaceOnUse">
<stop stop-color="#4441B8" stop-opacity="0.04"/>
<stop offset="1" stop-color="#47A348" stop-opacity="0.2"/>
</linearGradient>
<linearGradient id="paint73_linear_571_9143" x1="982.323" y1="42.2823" x2="982.323" y2="128.806" gradientUnits="userSpaceOnUse">
<stop stop-color="#4441B8" stop-opacity="0.04"/>
<stop offset="1" stop-color="#47A348" stop-opacity="0.2"/>
</linearGradient>
<linearGradient id="paint74_linear_571_9143" x1="982.254" y1="43.403" x2="982.254" y2="127.675" gradientUnits="userSpaceOnUse">
<stop stop-color="#4441B8" stop-opacity="0.04"/>
<stop offset="1" stop-color="#47A348" stop-opacity="0.2"/>
</linearGradient>
<linearGradient id="paint75_linear_571_9143" x1="982.189" y1="44.4745" x2="982.189" y2="126.721" gradientUnits="userSpaceOnUse">
<stop stop-color="#4441B8" stop-opacity="0.04"/>
<stop offset="1" stop-color="#47A348" stop-opacity="0.2"/>
</linearGradient>
<linearGradient id="paint76_linear_571_9143" x1="982.118" y1="45.5097" x2="982.118" y2="125.941" gradientUnits="userSpaceOnUse">
<stop stop-color="#4441B8" stop-opacity="0.04"/>
<stop offset="1" stop-color="#47A348" stop-opacity="0.2"/>
</linearGradient>
<linearGradient id="paint77_linear_571_9143" x1="982.053" y1="46.5038" x2="982.053" y2="125.322" gradientUnits="userSpaceOnUse">
<stop stop-color="#4441B8" stop-opacity="0.04"/>
<stop offset="1" stop-color="#47A348" stop-opacity="0.2"/>
</linearGradient>
<linearGradient id="paint78_linear_571_9143" x1="981.982" y1="47.4658" x2="981.982" y2="124.849" gradientUnits="userSpaceOnUse">
<stop stop-color="#4441B8" stop-opacity="0.04"/>
<stop offset="1" stop-color="#47A348" stop-opacity="0.2"/>
</linearGradient>
<linearGradient id="paint79_linear_571_9143" x1="981.919" y1="48.3939" x2="981.919" y2="124.502" gradientUnits="userSpaceOnUse">
<stop stop-color="#4441B8" stop-opacity="0.04"/>
<stop offset="1" stop-color="#47A348" stop-opacity="0.2"/>
</linearGradient>
<linearGradient id="paint80_linear_571_9143" x1="981.846" y1="49.2874" x2="981.846" y2="124.258" gradientUnits="userSpaceOnUse">
<stop stop-color="#4441B8" stop-opacity="0.04"/>
<stop offset="1" stop-color="#47A348" stop-opacity="0.2"/>
</linearGradient>
<linearGradient id="paint81_linear_571_9143" x1="981.774" y1="50.1484" x2="981.774" y2="124.118" gradientUnits="userSpaceOnUse">
<stop stop-color="#4441B8" stop-opacity="0.04"/>
<stop offset="1" stop-color="#47A348" stop-opacity="0.2"/>
</linearGradient>
<linearGradient id="paint82_linear_571_9143" x1="981.705" y1="50.6764" x2="981.705" y2="124.066" gradientUnits="userSpaceOnUse">
<stop stop-color="#4441B8" stop-opacity="0.04"/>
<stop offset="1" stop-color="#47A348" stop-opacity="0.2"/>
</linearGradient>
<linearGradient id="paint83_linear_571_9143" x1="981.643" y1="47.9139" x2="981.643" y2="124.101" gradientUnits="userSpaceOnUse">
<stop stop-color="#4441B8" stop-opacity="0.04"/>
<stop offset="1" stop-color="#47A348" stop-opacity="0.2"/>
</linearGradient>
<linearGradient id="paint84_linear_571_9143" x1="981.573" y1="45.151" x2="981.573" y2="124.212" gradientUnits="userSpaceOnUse">
<stop stop-color="#4441B8" stop-opacity="0.04"/>
<stop offset="1" stop-color="#47A348" stop-opacity="0.2"/>
</linearGradient>
<linearGradient id="paint85_linear_571_9143" x1="981.506" y1="42.3911" x2="981.506" y2="124.392" gradientUnits="userSpaceOnUse">
<stop stop-color="#4441B8" stop-opacity="0.04"/>
<stop offset="1" stop-color="#47A348" stop-opacity="0.2"/>
</linearGradient>
<linearGradient id="paint86_linear_571_9143" x1="981.437" y1="39.6284" x2="981.437" y2="124.636" gradientUnits="userSpaceOnUse">
<stop stop-color="#4441B8" stop-opacity="0.04"/>
<stop offset="1" stop-color="#47A348" stop-opacity="0.2"/>
</linearGradient>
<linearGradient id="paint87_linear_571_9143" x1="981.372" y1="36.866" x2="981.372" y2="124.94" gradientUnits="userSpaceOnUse">
<stop stop-color="#4441B8" stop-opacity="0.04"/>
<stop offset="1" stop-color="#47A348" stop-opacity="0.2"/>
</linearGradient>
<linearGradient id="paint88_linear_571_9143" x1="981.299" y1="34.1033" x2="981.299" y2="125.295" gradientUnits="userSpaceOnUse">
<stop stop-color="#4441B8" stop-opacity="0.04"/>
<stop offset="1" stop-color="#47A348" stop-opacity="0.2"/>
</linearGradient>
<linearGradient id="paint89_linear_571_9143" x1="981.232" y1="31.343" x2="981.232" y2="125.704" gradientUnits="userSpaceOnUse">
<stop stop-color="#4441B8" stop-opacity="0.04"/>
<stop offset="1" stop-color="#47A348" stop-opacity="0.2"/>
</linearGradient>
<linearGradient id="paint90_linear_571_9143" x1="981.163" y1="28.5806" x2="981.163" y2="126.153" gradientUnits="userSpaceOnUse">
<stop stop-color="#4441B8" stop-opacity="0.04"/>
<stop offset="1" stop-color="#47A348" stop-opacity="0.2"/>
</linearGradient>
<linearGradient id="paint91_linear_571_9143" x1="981.091" y1="25.8182" x2="981.091" y2="126.643" gradientUnits="userSpaceOnUse">
<stop stop-color="#4441B8" stop-opacity="0.04"/>
<stop offset="1" stop-color="#47A348" stop-opacity="0.2"/>
</linearGradient>
<linearGradient id="paint92_linear_571_9143" x1="981.024" y1="23.0552" x2="981.024" y2="127.173" gradientUnits="userSpaceOnUse">
<stop stop-color="#4441B8" stop-opacity="0.04"/>
<stop offset="1" stop-color="#47A348" stop-opacity="0.2"/>
</linearGradient>
<linearGradient id="paint93_linear_571_9143" x1="980.959" y1="20.2953" x2="980.959" y2="127.777" gradientUnits="userSpaceOnUse">
<stop stop-color="#4441B8" stop-opacity="0.04"/>
<stop offset="1" stop-color="#47A348" stop-opacity="0.2"/>
</linearGradient>
<linearGradient id="paint94_linear_571_9143" x1="980.89" y1="17.5326" x2="980.89" y2="128.354" gradientUnits="userSpaceOnUse">
<stop stop-color="#4441B8" stop-opacity="0.04"/>
<stop offset="1" stop-color="#47A348" stop-opacity="0.2"/>
</linearGradient>
<linearGradient id="paint95_linear_571_9143" x1="980.823" y1="14.7702" x2="980.823" y2="128.961" gradientUnits="userSpaceOnUse">
<stop stop-color="#4441B8" stop-opacity="0.04"/>
<stop offset="1" stop-color="#47A348" stop-opacity="0.2"/>
</linearGradient>
</defs>
</svg>
