<svg width="282" height="71" viewBox="0 0 282 71" fill="none" xmlns="http://www.w3.org/2000/svg">
<path d="M104.754 35.5C104.754 15.895 88.5835 0 68.634 0C62.7856 0 57.2643 1.37636 52.3789 3.80035C47.4898 1.37636 41.9722 0 36.1237 0C16.1743 0 0 15.895 0 35.5C0 42.3529 1.97767 48.7506 5.4 54.1766L0 67.4489L12.6453 62.4781C18.9606 67.7885 27.1581 71 36.1201 71C41.9685 71 47.4862 69.6236 52.3752 67.1997C57.2642 69.6236 62.7819 71 68.6303 71C77.5924 71 85.7934 67.7921 92.1051 62.4781L104.75 67.4489L99.3504 54.1766C102.773 48.7506 104.75 42.3529 104.75 35.5H104.754Z" fill="url(#paint0_linear_757_9317)"/>
<path d="M61.9952 20.0686H58.7696C57.8027 20.0686 56.9095 20.5799 56.4297 21.4031L56.2194 21.7657V50.1674L56.4297 50.53C56.9095 51.3568 57.8027 51.8645 58.7696 51.8645H61.9952C62.9437 51.8645 63.8221 51.3714 64.3056 50.5736V21.3596C63.8184 20.5618 62.9437 20.0686 61.9952 20.0686Z" fill="white"/>
<path d="M74.129 24.047H70.9034C69.9364 24.047 69.0433 24.5583 68.5635 25.3815L68.3531 25.7441V46.1968L68.5635 46.5594C69.0433 47.3863 69.9364 47.8939 70.9034 47.8939H74.129C75.0775 47.8939 75.9559 47.4008 76.4394 46.603V25.338C75.9522 24.5402 75.0775 24.047 74.129 24.047Z" fill="white"/>
<path d="M86.2647 20.0686H83.0391C82.0721 20.0686 81.179 20.5799 80.6992 21.4031L80.4888 21.7657V50.1674L80.6992 50.53C81.179 51.3568 82.0721 51.8645 83.0391 51.8645H86.2647C87.2132 51.8645 88.0916 51.3714 88.5751 50.5736V21.3596C88.0879 20.5618 87.2132 20.0686 86.2647 20.0686Z" fill="white"/>
<path d="M44.0806 35.9705H31.9457V43.9195H40.0356V51.8685H41.7702C42.7187 51.8685 43.5971 51.3753 44.0806 50.5775C44.0916 50.563 44.1027 50.5485 44.1101 50.534L45.6454 47.894L47.9558 43.9195H48.1255V43.6294L50.2698 39.945L51.8162 37.2833C52.0524 36.8771 52.1705 36.4238 52.1705 35.9669H44.0806V35.9705Z" fill="white"/>
<path d="M28.3869 42.5849L27.896 41.7436L26.8516 39.9449L25.3052 37.2831C25.069 36.877 24.9509 36.4237 24.9509 35.9668C24.9509 35.5099 25.069 35.0602 25.3052 34.6504L26.8516 31.9887L27.896 30.19L28.3869 29.3487C28.8667 28.5219 29.7598 28.0142 30.7268 28.0142H47.9548L45.6444 24.0397L44.1091 21.3997C44.1091 21.3997 44.087 21.3707 44.0796 21.3562C43.5924 20.5584 42.7177 20.0652 41.7692 20.0652H26.4087C25.4417 20.0652 24.5486 20.5765 24.0688 21.3997L23.8584 21.7623L22.5335 24.0397L20.2231 28.0142L19.8135 28.7177L17.9128 31.9887L16.3664 34.6504C16.1302 35.0566 16.0121 35.5099 16.0121 35.9668C16.0121 36.4237 16.1302 36.8734 16.3664 37.2831L17.9128 39.9449L19.8135 43.2159L20.2231 43.9194L22.5335 47.8939L23.8584 50.1712L24.0688 50.5339C24.5486 51.3607 25.4417 51.8684 26.4087 51.8684H31.9484V43.9194H30.7341C29.7672 43.9194 28.874 43.4081 28.3943 42.5849H28.3869Z" fill="white"/>
<path d="M139.225 43.5474C138.165 43.9748 136.935 44.1885 135.542 44.1885C134.339 44.1885 133.245 43.9881 132.252 43.5941C131.26 43.2002 130.404 42.6192 129.677 41.8646C128.949 41.11 128.385 40.2152 127.978 39.1668C127.57 38.125 127.373 36.9564 127.373 35.6676C127.373 34.3788 127.577 33.2168 127.978 32.1684C128.379 31.1267 128.949 30.2252 129.677 29.4706C130.404 28.716 131.26 28.1484 132.252 27.7611C133.245 27.3804 134.339 27.1868 135.542 27.1868C136.935 27.1868 138.151 27.4071 139.184 27.8479C140.218 28.2886 141.081 28.8896 141.781 29.6576L146.803 24.7227C145.383 23.4338 143.731 22.4255 141.862 21.6976C139.993 20.9697 137.886 20.6091 135.542 20.6091C133.197 20.6091 131.233 20.9964 129.323 21.7577C127.407 22.5257 125.735 23.5808 124.301 24.9297C122.86 26.2719 121.745 27.8545 120.95 29.6843C120.155 31.5073 119.754 33.504 119.754 35.6676C119.754 37.8312 120.155 39.7945 120.95 41.6309C121.745 43.4673 122.86 45.0633 124.301 46.4255C125.735 47.7811 127.42 48.8429 129.344 49.5908C131.274 50.3454 133.367 50.7193 135.623 50.7193C138.077 50.7193 140.224 50.3654 142.052 49.6509C143.881 48.9364 145.519 47.9347 146.973 46.6459L141.951 41.711C141.196 42.5057 140.285 43.12 139.225 43.5407V43.5474Z" fill="white"/>
<path d="M166.465 30.7114C165.249 30.0636 163.822 29.7431 162.17 29.7431C160.519 29.7431 159.18 30.0636 157.984 30.7114C157.624 30.905 157.291 31.1321 156.978 31.3725V20.2806H149.692V50.2773H156.978V38.9184C156.978 38.2907 157.1 37.7565 157.352 37.3157C157.603 36.875 157.957 36.5344 158.419 36.2873C158.881 36.0403 159.404 35.9201 159.989 35.9201C160.852 35.9201 161.565 36.1872 162.123 36.7214C162.68 37.2556 162.959 37.9902 162.959 38.9251V50.284H170.244V37.2823C170.244 35.7999 169.918 34.4977 169.259 33.3758C168.6 32.2539 167.668 31.3658 166.452 30.7247L166.465 30.7114Z" fill="white"/>
<path d="M187.927 31.5328C187.404 31.0988 186.84 30.7114 186.167 30.4243C185.107 29.9702 183.931 29.7432 182.647 29.7432C180.751 29.7432 179.058 30.1906 177.577 31.0787C176.095 31.9736 174.94 33.2089 174.104 34.8049C173.268 36.3943 172.847 38.2039 172.847 40.234C172.847 42.264 173.268 44.027 174.104 45.6029C174.94 47.1789 176.102 48.421 177.577 49.3292C179.058 50.2373 180.744 50.6848 182.647 50.6848C183.931 50.6848 185.1 50.451 186.167 49.9836C186.84 49.6898 187.404 49.3025 187.927 48.8684V50.2707H195.091V30.1505H187.927V31.5261V31.5328ZM184.203 44.3141C183.449 44.3141 182.762 44.1338 182.151 43.7799C181.539 43.426 181.063 42.9385 180.73 42.3175C180.397 41.7031 180.227 40.9953 180.227 40.2006C180.227 39.4059 180.404 38.7382 180.751 38.1238C181.097 37.5095 181.573 37.022 182.171 36.6614C182.769 36.3074 183.462 36.1271 184.244 36.1271C185.025 36.1271 185.719 36.3074 186.317 36.6614C186.915 37.0153 187.384 37.4961 187.717 38.1038C188.05 38.7048 188.22 39.4059 188.22 40.2006C188.22 41.4093 187.853 42.3976 187.112 43.1655C186.371 43.9335 185.399 44.3208 184.203 44.3208V44.3141Z" fill="white"/>
<path d="M209.45 21.8438H202.157V30.1576H197.638V36.1209H202.157V50.2778H209.45V36.1209H213.969V30.1576H209.45V21.8438Z" fill="white"/>
<path d="M230.594 39.4134L238.586 39.6071C238.464 39.9677 238.321 40.3216 238.151 40.6488C237.553 41.8041 236.683 42.6789 235.555 43.2799C234.427 43.8809 233.047 44.188 231.43 44.188C229.812 44.188 228.378 43.8341 227.134 43.1196C225.891 42.4051 224.919 41.4034 224.205 40.1146C223.492 38.8258 223.138 37.33 223.138 35.6271C223.138 33.9243 223.512 32.4418 224.266 31.1797C225.021 29.9176 226.033 28.9359 227.304 28.2348C228.575 27.5336 230.016 27.1864 231.64 27.1864C233.265 27.1864 234.624 27.4802 235.827 28.0678C237.03 28.6555 238.131 29.5436 239.137 30.7189L244.159 25.784C242.82 24.168 241.073 22.8992 238.926 21.9777C236.778 21.0628 234.372 20.6021 231.722 20.6021C229.486 20.6021 227.386 20.976 225.422 21.7306C223.458 22.4852 221.731 23.5403 220.25 24.8959C218.768 26.2515 217.62 27.8475 216.797 29.6705C215.975 31.4936 215.56 33.4902 215.56 35.6538C215.56 37.8174 215.961 39.774 216.757 41.5971C217.552 43.4201 218.666 45.0161 220.107 46.3917C221.541 47.7674 223.22 48.8291 225.13 49.5837C227.039 50.3383 229.126 50.7123 231.389 50.7123C234.406 50.7123 237.05 50.0912 239.327 48.8425C241.604 47.5937 243.384 45.764 244.669 43.3467C245.953 40.936 246.592 37.9844 246.592 34.4986V33.39H230.594V39.4001V39.4134Z" fill="white"/>
<path d="M275.734 21.1029L265.662 36.1146L255.549 21.1029H250.146V50.2782H257.602V35.3533L263.215 43.6939H268.068L273.722 35.3467V50.2782H281.137V21.1029H275.734Z" fill="white"/>
<defs>
<linearGradient id="paint0_linear_757_9317" x1="101.802" y1="78.8789" x2="10.693" y2="9.59001" gradientUnits="userSpaceOnUse">
<stop stop-color="#8C55FF"/>
<stop offset="1" stop-color="#8A86F1"/>
</linearGradient>
</defs>
</svg>
