<svg width="1440" height="469" viewBox="0 0 1440 469" fill="none" xmlns="http://www.w3.org/2000/svg">
<g opacity="0.7">
<path d="M-682.676 468.444C-684.325 366.427 -623.985 264.446 -515.402 185.742C-484.508 163.351 -448.278 142.179 -402.591 132.357C-270.579 103.983 -129.614 166.01 -18.621 201.228C115.323 243.725 247.753 288.261 387.217 324.123C465.513 344.257 557.472 361.345 633.211 337.976C709.905 314.31 739.089 259.203 770.796 211.215C807.74 155.296 858.616 101.428 933.298 61.1608C1007.98 20.8933 1108.94 -4.52745 1208.91 2.02689C1287.2 7.16093 1358.54 30.9079 1423.68 57.3707C1594.85 126.905 1740.26 218.96 1846.6 325.097" stroke="#7B61FF" stroke-opacity="0.5" stroke-width="0.552088" stroke-miterlimit="10"/>
<path d="M-686.956 464.033C-688.417 373.87 -635.36 285.626 -541.287 209.943C-532.551 202.914 -523.559 196.001 -514.177 189.278C-483.331 167.193 -447.41 146.29 -402.369 136.392C-272.106 107.733 -133.296 166.517 -22.4574 200.471C75.8084 230.576 173.381 262.361 274.42 291.134C309.472 301.156 344.828 310.809 380.634 319.914C458.304 339.662 549.174 356.52 624.347 334.242C700.462 311.682 730.595 258.708 763.178 212.598C801.151 158.872 852.613 107.097 927.153 68.3826C953.106 54.9038 982.149 43.1551 1013.17 33.8325C1071.21 16.3784 1136.19 7.4059 1200.76 11.4858C1278.31 16.3864 1349.13 39.1717 1413.86 64.4275C1544.9 115.522 1660.7 178.945 1756.17 252.005C1784.66 273.804 1811.33 296.457 1836.04 319.902" stroke="#7B61FF" stroke-opacity="0.5" stroke-width="0.552088" stroke-miterlimit="10"/>
<path d="M-691.23 459.628C-692.644 372.47 -636.76 289.114 -540.016 213.162C-531.232 206.269 -522.294 199.445 -512.945 192.823C-482.14 171.047 -446.535 150.411 -402.134 140.432C-273.614 111.483 -136.978 167.028 -26.2874 199.723C70.9486 228.443 167.666 259.388 268.651 287.553C303.448 297.338 338.541 306.785 374.058 315.714C451.103 335.079 540.888 351.704 615.489 330.516C691.026 309.059 722.108 258.217 755.558 213.991C794.555 162.457 846.616 112.774 921.008 75.6171C946.914 62.6814 975.815 51.4034 1006.63 42.4591C1064.26 25.7051 1128.64 17.0706 1192.59 20.9573C1269.41 25.6286 1339.71 47.4483 1404.02 71.493C1534.29 120.125 1649.33 180.064 1745.07 249.764C1773.64 270.562 1800.49 292.22 1825.47 314.716" stroke="#7B61FF" stroke-opacity="0.5" stroke-width="0.552088" stroke-miterlimit="10"/>
<path d="M-695.51 455.218C-696.87 371.065 -638.2 292.598 -538.75 216.377C-529.926 209.613 -521.041 202.882 -511.726 196.363C-480.968 174.894 -445.666 154.531 -401.918 144.472C-275.148 115.237 -140.699 167.543 -30.1298 198.971C66.0563 226.311 162.04 256.27 262.864 283.972C297.445 293.476 332.235 302.762 367.47 311.513C443.888 330.492 532.59 346.888 606.612 326.79C681.57 306.435 713.601 257.73 747.927 215.383C787.953 166.042 840.599 118.452 914.844 82.8473C940.709 70.4548 969.462 59.6476 1000.07 51.0775C1057.3 35.0235 1121.06 26.727 1184.42 30.4246C1260.5 34.8666 1330.27 55.7206 1394.18 78.5542C1523.67 124.728 1637.94 181.179 1733.96 247.523C1762.61 267.319 1789.62 287.983 1814.88 309.533" stroke="#7B61FF" stroke-opacity="0.5" stroke-width="0.552088" stroke-miterlimit="10"/>
<path d="M-699.785 450.812C-701.097 369.665 -639.668 296.078 -537.471 219.595C-528.607 212.964 -519.77 206.321 -510.489 199.908C-479.77 178.748 -444.785 158.65 -401.683 148.511C-276.663 118.99 -144.415 168.065 -33.9534 198.222C61.1692 224.19 156.366 253.252 257.102 280.391C291.441 289.645 325.948 298.738 360.9 307.312C436.692 325.909 524.304 342.075 597.761 323.064C672.14 303.816 705.12 257.243 740.32 216.774C781.376 169.627 834.608 124.124 908.712 90.0772C934.53 78.2238 963.134 67.8914 993.536 59.6954C1050.36 44.3456 1113.51 36.3871 1176.27 39.8875C1251.63 44.0962 1320.88 63.9885 1384.36 85.611C1513.07 129.323 1626.58 182.289 1722.88 245.273C1751.62 264.067 1778.81 283.738 1804.34 304.339" stroke="#7B61FF" stroke-opacity="0.5" stroke-width="0.552088" stroke-miterlimit="10"/>
<path d="M-704.059 446.403C-705.324 368.261 -641.162 299.551 -536.2 222.811C-527.302 216.308 -518.505 209.762 -509.264 203.449C-478.593 182.595 -443.91 162.767 -401.454 152.551C-278.184 122.745 -148.157 168.593 -37.7833 197.474C56.2625 222.082 150.672 250.239 251.327 276.814C285.423 285.819 319.655 294.719 354.317 303.116C429.484 321.327 516.012 337.264 588.897 319.343C662.697 301.197 696.619 256.761 732.701 218.171C774.78 173.212 828.604 129.806 902.566 97.3163C928.338 86.0062 956.801 76.1445 986.994 68.3227C1043.4 53.673 1105.96 46.0525 1168.11 49.3638C1242.73 53.3431 1311.45 72.2738 1374.53 92.6852C1502.46 133.939 1615.21 183.416 1711.78 243.045C1740.61 260.837 1767.96 279.514 1793.78 299.165" stroke="#7B61FF" stroke-opacity="0.5" stroke-width="0.552088" stroke-miterlimit="10"/>
<path d="M-708.34 441.993C-709.558 366.857 -642.704 303.012 -534.934 226.021C-526.01 219.648 -517.253 213.194 -508.039 206.986C-477.415 186.442 -443.043 166.879 -401.232 156.583C-279.706 126.491 -151.927 169.116 -41.6202 196.714C51.3285 219.97 144.977 247.213 245.551 273.221C279.406 281.976 313.362 290.683 347.735 298.899C422.275 316.728 507.712 332.432 580.032 315.601C653.254 298.557 688.124 256.258 725.082 219.547C768.191 176.781 822.601 135.467 896.421 104.53C922.145 93.7634 950.46 84.3725 980.452 76.929C1036.46 62.9793 1098.4 55.6967 1159.95 58.815C1233.84 62.5649 1302.04 80.53 1364.7 99.7303C1491.85 138.521 1603.84 184.514 1700.69 240.784C1729.6 257.574 1757.13 275.257 1783.21 293.959" stroke="#7B61FF" stroke-opacity="0.5" stroke-width="0.552088" stroke-miterlimit="10"/>
<path d="M-712.613 437.587C-713.778 365.457 -644.264 306.472 -533.655 229.24C-524.703 222.991 -515.98 216.634 -506.807 210.53C-476.223 190.292 -442.16 170.999 -400.996 160.627C-281.219 130.245 -155.695 169.663 -45.4491 195.969C46.389 217.882 139.277 244.208 239.784 269.648C273.396 278.158 307.076 286.664 341.16 294.707C415.074 312.149 499.428 327.624 571.175 311.883C643.818 295.946 679.638 255.775 717.464 220.947C761.596 180.374 816.598 141.153 890.27 111.773C915.947 101.545 944.121 92.6287 973.904 85.5594C1029.5 72.3099 1090.84 65.3693 1151.78 68.2944C1224.95 71.8109 1292.62 88.8145 1354.88 106.804C1481.24 143.136 1592.47 185.641 1689.61 238.554C1718.6 254.343 1746.3 271.033 1772.66 288.784" stroke="#7B61FF" stroke-opacity="0.5" stroke-width="0.552088" stroke-miterlimit="10"/>
<path d="M-716.893 433.177C-718.011 364.052 -645.873 309.916 -532.389 232.455C-523.418 226.331 -514.728 220.074 -505.582 214.071C-475.045 194.142 -441.292 175.119 -400.774 164.666C-282.747 133.999 -159.504 170.21 -49.2852 195.217C41.4222 215.797 133.577 241.194 234.003 266.063C267.366 274.324 300.777 282.636 334.577 290.502C407.866 307.562 491.129 322.803 562.311 308.157C634.375 293.323 671.144 255.288 709.845 222.339C755.007 183.959 810.601 146.83 884.125 119.003C909.755 109.318 937.781 100.873 967.362 94.1777C1022.55 81.6323 1083.28 75.0256 1143.63 77.7616C1216.05 81.0488 1283.21 97.0867 1345.05 113.869C1470.64 147.739 1581.11 186.759 1678.52 236.313C1707.59 251.1 1735.46 266.791 1762.1 283.602" stroke="#7B61FF" stroke-opacity="0.5" stroke-width="0.552088" stroke-miterlimit="10"/>
<path d="M-721.168 428.767C-722.238 362.648 -647.502 313.347 -531.118 235.669C-522.126 229.67 -513.464 223.51 -504.357 217.611C-473.861 197.988 -440.417 179.235 -400.552 168.701C-284.269 137.748 -163.321 170.765 -53.1221 194.464C36.4411 213.725 127.869 238.188 228.228 262.482C261.349 270.501 294.483 278.612 327.994 286.301C400.657 302.975 482.837 317.986 553.447 304.431C624.932 290.699 662.65 254.801 702.225 223.731C748.417 187.543 804.597 152.506 877.98 126.237C903.562 117.095 931.447 109.121 960.819 102.8C1015.6 90.9543 1075.73 84.6897 1135.46 87.2285C1207.16 90.2824 1273.79 105.359 1335.22 120.93C1460.02 152.341 1569.73 187.873 1667.42 234.072C1696.57 247.856 1724.62 262.554 1751.52 278.415" stroke="#7B61FF" stroke-opacity="0.5" stroke-width="0.552088" stroke-miterlimit="10"/>
<path d="M-725.447 424.362C-726.47 361.248 -649.17 316.776 -529.844 238.885C-520.839 233.006 -512.204 226.947 -503.124 221.149C-472.676 201.836 -439.541 183.348 -400.316 172.738C-285.782 141.499 -167.149 171.329 -56.9437 193.708C31.4618 211.661 122.169 235.179 222.467 258.894C255.339 266.667 288.205 274.581 321.427 282.093C393.463 298.385 474.553 313.163 544.598 300.698C615.504 288.068 654.171 254.307 694.621 225.116C741.836 191.121 798.608 158.176 871.849 133.46C897.385 124.857 925.128 117.354 954.292 111.411C1008.66 100.266 1068.19 94.3389 1127.32 96.6886C1198.29 99.5132 1264.39 113.624 1325.41 127.984C1449.43 156.933 1558.38 188.977 1656.35 231.819C1685.58 244.602 1713.81 258.306 1740.98 273.217" stroke="#7B61FF" stroke-opacity="0.5" stroke-width="0.552088" stroke-miterlimit="10"/>
<path d="M-729.723 419.951C-730.699 359.844 -650.868 320.184 -528.574 242.099C-519.555 236.341 -510.94 230.386 -501.901 224.689C-471.493 205.682 -438.668 187.463 -400.095 176.773C-287.311 145.248 -171.008 171.908 -60.7817 192.955C26.446 209.613 116.453 232.173 216.685 255.312C249.307 262.844 281.903 270.557 314.836 277.892C386.247 293.797 466.253 308.35 535.718 296.972C606.046 285.448 645.655 253.815 686.987 226.512C735.232 194.705 792.589 163.857 865.683 140.693C891.171 132.634 918.767 125.601 947.728 120.037C1001.69 109.592 1060.61 104.003 1119.14 106.159C1189.37 108.755 1254.96 121.9 1315.56 135.052C1438.8 161.543 1546.99 190.098 1645.23 229.581C1674.56 241.362 1702.95 254.073 1730.39 268.034" stroke="#7B61FF" stroke-opacity="0.5" stroke-width="0.552088" stroke-miterlimit="10"/>
<path d="M-733.997 415.546C-734.919 358.444 -652.598 323.58 -527.302 245.318C-518.276 239.681 -509.695 233.815 -500.669 228.234C-470.369 209.5 -437.793 191.588 -399.866 180.817C-288.833 149.003 -174.871 172.504 -64.6183 192.211C21.4248 207.589 110.739 229.184 210.91 251.736C243.283 259.026 275.603 266.534 308.26 273.692C379.045 289.215 457.96 303.535 526.861 293.246C596.609 282.825 637.168 253.329 679.368 227.904C728.642 198.291 786.585 169.535 859.538 147.928C884.979 140.412 912.433 133.85 941.186 128.66C994.741 118.919 1053.05 113.668 1110.98 115.631C1180.48 117.993 1245.53 130.176 1305.72 142.118C1428.19 166.147 1535.61 191.218 1634.13 227.345C1663.54 238.124 1692.1 249.84 1719.83 262.857" stroke="#7B61FF" stroke-opacity="0.5" stroke-width="0.552088" stroke-miterlimit="10"/>
<path d="M-738.276 411.136C-739.151 357.039 -654.367 326.956 -526.029 248.533C-516.997 243.012 -508.435 237.255 -499.443 231.775C-469.19 213.347 -436.917 195.704 -399.636 184.852C-290.346 152.752 -178.754 173.112 -68.447 191.455C16.3913 205.565 105.032 226.182 205.136 248.15C237.254 255.2 269.311 262.507 301.678 269.487C371.837 284.624 449.669 298.714 517.998 289.516C587.167 280.198 628.675 252.838 671.75 229.292C722.047 201.872 780.583 175.208 853.394 155.154C878.795 148.178 906.094 142.09 934.651 137.274C987.796 128.233 1045.5 123.32 1102.83 125.091C1171.59 127.223 1236.13 138.441 1295.91 149.171C1417.59 170.742 1524.25 192.324 1623.06 225.092C1652.55 234.869 1681.28 245.592 1709.28 257.658" stroke="#7B61FF" stroke-opacity="0.5" stroke-width="0.552088" stroke-miterlimit="10"/>
<path d="M-742.55 406.726C-743.378 355.635 -656.163 330.315 -524.757 251.747C-515.717 246.344 -507.169 240.69 -498.211 235.315C-468.004 217.193 -436.041 199.819 -399.407 188.891C-291.866 156.506 -182.65 173.735 -72.2761 190.706C11.3508 203.565 99.3119 223.192 199.368 244.569C231.237 251.377 263.026 258.483 295.103 265.286C364.636 280.041 441.378 293.898 509.141 285.79C577.732 277.578 620.188 252.351 664.138 230.684C715.465 205.456 774.593 180.885 847.256 162.388C872.61 155.955 899.768 150.338 928.117 145.896C980.85 137.555 1037.95 132.98 1094.68 134.562C1162.71 136.465 1226.72 146.717 1286.09 156.24C1406.99 175.348 1512.9 193.446 1611.98 222.858C1641.55 231.633 1670.46 241.362 1698.73 252.479" stroke="#7B61FF" stroke-opacity="0.5" stroke-width="0.552088" stroke-miterlimit="10"/>
<path d="M-746.831 402.32C-747.611 354.235 -658.001 333.659 -523.491 254.962C-514.452 249.675 -505.918 244.127 -496.994 238.856C-466.834 221.04 -435.173 203.936 -399.185 192.927C-293.395 160.256 -186.575 174.375 -76.1131 189.95C6.28882 201.57 93.5907 220.199 193.593 240.985C225.213 247.555 256.732 254.455 288.52 261.082C357.427 275.45 433.085 289.078 500.276 282.061C568.288 274.951 611.693 251.856 656.519 232.072C708.869 209.038 768.589 186.558 841.104 169.615C866.41 163.725 893.42 158.578 921.567 154.515C973.897 146.874 1030.39 142.641 1086.51 144.029C1153.8 145.699 1217.29 154.989 1276.25 163.302C1396.37 179.951 1501.52 194.561 1600.87 220.613C1630.53 228.383 1659.61 237.118 1688.15 247.289" stroke="#7B61FF" stroke-opacity="0.5" stroke-width="0.552088" stroke-miterlimit="10"/>
<path d="M-751.104 397.91C-751.831 352.831 -659.865 336.978 -522.212 258.177C-513.173 253.003 -504.645 247.563 -495.754 242.397C-465.635 224.89 -434.25 208.096 -398.949 196.967C-294.794 164.135 -190.491 175.038 -79.9353 189.201C1.23495 199.602 87.8771 217.217 187.826 237.403C219.19 243.736 250.446 250.432 281.945 256.881C350.227 270.867 424.794 284.261 491.42 278.335C558.86 272.328 603.207 251.369 648.901 233.464C702.281 212.622 762.586 192.235 834.959 176.849C860.219 171.498 887.087 166.826 915.026 163.137C966.945 156.2 1022.84 152.301 1078.35 153.496C1144.92 154.937 1207.88 163.262 1266.43 170.363C1385.77 184.55 1490.15 195.675 1589.79 218.372C1619.53 225.14 1648.78 232.881 1677.6 242.107" stroke="#7B61FF" stroke-opacity="0.5" stroke-width="0.552088" stroke-miterlimit="10"/>
<path d="M-755.385 393.505C-756.065 351.431 -661.764 340.282 -520.947 261.396C-511.908 256.335 -503.387 251.008 -494.537 245.942C-464.465 228.741 -433.39 212.217 -398.734 201.011C-296.329 167.889 -194.436 175.723 -83.7859 188.458C-3.86083 197.655 82.1352 214.244 182.036 233.831C213.145 239.931 244.139 246.417 275.355 252.689C343.011 266.289 416.495 279.454 482.548 274.622C549.409 269.721 594.699 250.895 641.274 234.869C695.684 216.22 756.575 197.925 828.807 184.092C854.02 179.284 880.747 175.083 908.476 171.768C959.985 165.531 1015.27 161.975 1070.18 162.977C1136.02 164.184 1198.46 171.551 1256.59 177.441C1375.15 189.17 1478.78 196.806 1578.69 216.144C1608.52 221.909 1637.93 228.657 1667.03 236.933" stroke="#7B61FF" stroke-opacity="0.5" stroke-width="0.552088" stroke-miterlimit="10"/>
<path d="M-759.66 389.095C-760.293 350.022 -663.697 343.561 -519.67 264.611C-510.638 259.662 -502.123 254.443 -493.3 249.482C-463.268 232.591 -432.503 216.332 -398.493 205.046C-297.832 171.639 -198.368 176.427 -87.6033 187.701C-8.93011 195.712 76.4265 211.263 176.274 230.242C207.127 236.108 237.858 242.381 268.785 248.48C335.814 261.698 408.208 274.633 473.696 270.887C539.978 267.089 586.217 250.4 633.667 236.253C689.1 219.793 750.583 203.59 822.674 191.314C847.84 187.049 874.419 183.319 901.946 180.378C953.051 174.842 1007.73 171.623 1062.04 172.431C1127.14 173.409 1189.06 179.811 1246.78 184.49C1364.56 193.756 1467.43 197.904 1567.61 213.89C1597.52 218.654 1627.11 224.408 1656.48 231.734" stroke="#7B61FF" stroke-opacity="0.5" stroke-width="0.552088" stroke-miterlimit="10"/>
<path d="M-763.939 384.685C-764.525 348.618 -665.66 346.812 -518.402 267.822C-509.377 262.981 -500.863 257.879 -492.079 253.019C-462.095 236.434 -431.639 220.444 -398.276 209.082C-299.364 175.385 -202.33 177.151 -91.4445 186.948C-14.0232 193.788 70.6871 208.293 170.494 226.661C201.091 232.294 231.56 238.357 262.198 244.276C328.601 257.107 399.911 269.813 464.827 267.158C530.531 264.462 577.718 249.905 626.044 237.641C682.506 223.374 744.575 209.263 816.518 198.544C841.636 194.818 868.074 191.563 895.393 189C946.087 184.164 1000.16 181.283 1053.86 181.903C1118.23 182.651 1179.63 188.087 1236.93 191.555C1353.93 198.363 1456.04 199.023 1556.51 211.649C1586.5 215.411 1616.26 220.171 1645.91 226.548" stroke="#7B61FF" stroke-opacity="0.5" stroke-width="0.552088" stroke-miterlimit="10"/>
<path d="M-768.213 380.279C-768.745 347.218 -667.659 350.043 -517.131 271.04C-508.112 266.309 -499.598 261.32 -490.848 256.564C-460.904 240.288 -430.758 224.565 -398.047 213.122C-300.879 179.135 -206.288 177.908 -95.2746 186.196C-19.1119 191.881 64.9592 205.324 164.726 223.076C195.067 228.475 225.267 234.33 255.622 240.071C321.399 252.52 391.626 264.993 455.963 263.428C521.087 261.839 569.224 249.414 618.424 239.029C675.917 226.954 738.578 214.936 810.372 205.771C835.444 202.588 861.733 199.804 888.85 197.615C939.134 193.483 992.601 190.94 1045.71 191.362C1109.34 191.877 1170.21 196.351 1227.11 198.613C1343.32 202.958 1444.67 200.134 1545.41 209.4C1575.49 212.16 1605.42 215.926 1635.34 221.354" stroke="#7B61FF" stroke-opacity="0.5" stroke-width="0.552088" stroke-miterlimit="10"/>
<path d="M-772.489 375.869C-772.974 345.813 -669.687 353.245 -515.854 274.255C-506.849 269.628 -498.335 264.755 -489.619 260.104C-459.715 244.139 -429.925 228.644 -397.814 217.161C-302.51 182.772 -210.241 178.692 -99.0995 185.447C-24.1954 189.998 59.2295 202.362 158.956 219.498C189.041 224.669 218.979 230.31 249.044 235.874C314.196 247.937 383.332 260.18 447.103 259.706C511.649 259.219 560.735 248.931 610.803 240.425C669.319 230.543 732.572 220.617 804.226 213.008C829.25 210.369 855.398 208.056 882.306 206.241C932.186 202.809 985.041 200.604 1037.55 200.837C1100.46 201.123 1160.8 204.631 1217.29 205.682C1332.72 207.569 1433.31 201.256 1534.33 207.166C1564.49 208.925 1594.59 211.693 1624.79 216.179" stroke="#7B61FF" stroke-opacity="0.5" stroke-width="0.552088" stroke-miterlimit="10"/>
<path d="M-776.768 371.464C-777.205 344.414 -671.751 356.424 -514.587 277.474C-505.588 272.956 -497.074 268.2 -488.391 263.649C-458.528 247.994 -429.048 232.765 -397.59 221.201C-304.035 186.522 -214.203 179.505 -102.94 184.699C-29.295 188.136 53.4837 199.409 153.176 215.918C183.006 220.859 212.681 226.287 242.464 231.674C306.989 243.355 375.042 255.365 438.241 255.98C502.208 256.596 552.243 248.444 603.187 241.818C662.732 234.129 726.571 226.295 798.083 220.239C823.066 218.139 849.06 216.296 875.766 214.86C925.236 212.128 977.492 210.261 1029.38 210.305C1091.56 210.362 1151.38 212.904 1207.45 212.743C1322.11 212.168 1421.94 202.371 1523.24 204.922C1553.48 205.678 1583.76 207.453 1614.22 210.989" stroke="#7B61FF" stroke-opacity="0.5" stroke-width="0.552088" stroke-miterlimit="10"/>
<path d="M-781.043 367.054C-781.434 343.009 -673.84 359.566 -513.317 280.685C-504.331 276.271 -495.81 271.632 -487.168 267.186C-457.345 251.84 -428.182 236.876 -397.363 225.236C-305.558 190.272 -218.156 180.346 -106.772 183.943C-34.3784 186.28 47.7475 196.448 147.406 212.333C176.98 217.044 206.393 222.255 235.886 227.469C299.786 238.763 366.748 250.544 429.382 252.25C492.77 253.973 543.747 247.949 595.572 243.206C656.147 237.709 720.572 231.968 791.936 227.469C816.872 225.912 842.724 224.54 869.222 223.482C918.288 221.45 969.931 219.925 1021.22 219.772C1082.67 219.595 1141.96 221.177 1197.63 219.805C1311.5 216.771 1410.57 203.485 1512.14 202.68C1542.47 202.435 1572.92 203.216 1603.66 205.803" stroke="#7B61FF" stroke-opacity="0.5" stroke-width="0.552088" stroke-miterlimit="10"/>
<path d="M-785.324 362.645C-785.667 341.606 -675.973 362.681 -512.044 283.9C-503.073 279.587 -494.532 275.08 -485.937 270.727C-456.107 255.723 -427.3 240.993 -397.134 229.276C-307.073 194.026 -222.107 181.223 -110.602 183.195C-39.4601 184.45 42.013 193.507 141.632 208.752C170.943 213.239 200.1 218.232 229.304 223.269C292.577 234.181 358.456 245.729 420.518 248.525C483.327 251.35 535.253 247.463 587.954 244.598C649.551 241.291 714.568 237.645 785.791 234.7C810.68 233.686 836.391 232.785 862.68 232.101C911.335 230.773 962.373 229.582 1013.07 229.24C1073.78 228.834 1132.55 229.449 1187.8 226.87C1300.89 221.374 1399.2 204.604 1501.05 200.44C1531.47 199.192 1562.08 198.979 1593.1 200.617" stroke="#7B61FF" stroke-opacity="0.5" stroke-width="0.552088" stroke-miterlimit="10"/>
<path d="M-789.598 358.238C-789.887 340.205 -678.127 365.766 -510.772 287.118C-501.814 282.909 -493.273 278.524 -484.712 274.267C-454.929 259.573 -426.432 245.112 -396.912 233.311C-308.601 197.775 -226.044 182.132 -114.438 182.438C-44.5348 182.631 36.272 190.557 135.857 205.167C164.913 209.428 193.807 214.203 222.721 219.06C285.369 229.585 350.157 240.908 411.654 244.79C473.885 248.717 526.76 246.967 580.335 245.981C642.962 244.867 708.565 243.314 779.646 241.922C804.488 241.447 830.051 241.02 856.138 240.711C904.383 240.083 954.822 239.234 1004.91 238.695C1064.89 238.059 1123.14 237.709 1177.97 233.919C1290.28 225.964 1387.83 205.706 1489.97 198.186C1520.46 195.937 1551.25 194.73 1582.54 195.422" stroke="#7B61FF" stroke-opacity="0.5" stroke-width="0.552088" stroke-miterlimit="10"/>
<path d="M-793.879 353.828C-794.121 338.8 -680.314 368.816 -509.507 290.333C-500.562 286.225 -492.014 281.96 -483.487 277.808C-453.744 263.419 -425.557 249.228 -396.683 237.351C-310.122 201.529 -229.961 183.077 -118.268 181.689C-49.5895 180.836 30.5375 187.624 130.082 201.586C158.882 205.625 187.514 210.18 216.145 214.859C278.167 225.003 341.872 236.092 402.796 241.069C464.448 246.098 518.272 246.484 572.715 247.378C636.366 248.456 702.561 248.995 773.501 249.16C798.296 249.228 823.717 249.273 849.596 249.337C897.437 249.409 947.263 248.898 996.746 248.17C1055.99 247.301 1113.72 245.989 1168.14 240.988C1279.67 230.571 1376.46 206.824 1478.87 195.949C1509.44 192.698 1540.41 190.497 1571.97 190.239" stroke="#7B61FF" stroke-opacity="0.5" stroke-width="0.552088" stroke-miterlimit="10"/>
<path d="M-798.152 349.423C-798.347 337.401 -682.535 371.834 -508.228 293.552C-499.303 289.545 -490.742 285.4 -482.254 281.353C-452.559 267.274 -424.681 253.349 -396.454 241.391C-311.642 205.28 -233.857 184.059 -122.104 180.941C-54.6367 179.058 24.7902 184.695 124.308 198.009C152.845 201.827 181.221 206.161 209.564 210.663C270.959 220.42 333.574 231.28 393.933 237.347C455.006 243.483 509.779 245.998 565.097 248.774C629.778 252.045 696.565 254.677 767.356 256.395C792.105 257.006 817.378 257.521 843.061 257.96C890.492 258.732 939.712 258.559 988.596 257.638C1047.11 256.539 1104.31 254.262 1158.32 248.054C1269.07 235.178 1365.09 207.943 1467.78 193.708C1498.45 189.455 1529.58 186.26 1561.42 185.053" stroke="#7B61FF" stroke-opacity="0.5" stroke-width="0.552088" stroke-miterlimit="10"/>
<path d="M-802.433 345.013C-802.581 335.996 -684.783 374.811 -506.962 296.763C-498.051 292.852 -489.49 288.836 -481.03 284.889C-451.375 271.117 -423.807 257.461 -396.232 245.427C-313.164 209.03 -237.734 185.073 -125.94 180.185C-59.6715 177.288 19.0421 181.766 118.533 194.42C146.815 198.017 174.921 202.125 202.981 206.455C263.751 215.829 325.281 226.456 385.062 233.613C445.556 240.852 501.278 245.503 557.471 250.158C623.181 255.622 690.554 260.346 761.198 263.621C785.899 264.772 811.031 265.761 836.506 266.578C883.525 268.055 932.146 268.22 980.425 267.105C1038.21 265.774 1094.88 262.535 1148.49 255.115C1258.46 239.782 1353.72 209.058 1456.69 191.467C1487.44 186.212 1518.75 182.02 1550.85 179.867" stroke="#7B61FF" stroke-opacity="0.5" stroke-width="0.552088" stroke-miterlimit="10"/>
<path d="M-806.707 340.603C-806.801 334.592 -687.058 377.752 -505.691 299.977C-496.8 296.163 -488.225 292.272 -479.805 288.429C-450.198 274.967 -422.939 261.58 -396.003 249.462C-314.685 212.779 -241.578 186.123 -129.77 179.432C-64.6793 175.537 13.3075 178.848 112.758 190.839C140.777 194.218 168.628 198.101 196.398 202.253C256.542 211.242 316.982 221.639 376.198 229.887C436.113 238.228 492.784 245.016 549.852 251.55C616.585 259.207 684.55 266.022 755.053 270.851C779.707 272.545 804.69 274.005 829.963 275.196C876.579 277.373 924.588 277.876 972.26 276.572C1029.31 275.011 1085.47 270.806 1138.65 262.176C1247.84 244.38 1342.35 210.172 1445.59 189.221C1476.42 182.965 1507.9 177.778 1540.28 174.68" stroke="#7B61FF" stroke-opacity="0.5" stroke-width="0.552088" stroke-miterlimit="10"/>
<path d="M-810.98 336.197C-811.027 333.192 -689.366 380.657 -504.411 303.196C-495.534 299.479 -486.959 295.717 -478.566 291.975C-449.005 278.818 -422.05 265.701 -395.767 253.506C-316.199 216.537 -245.373 187.218 -133.593 178.684C-69.6525 173.803 7.55338 176.012 106.997 187.258C134.754 190.441 162.349 194.078 189.83 198.053C249.348 206.66 308.704 216.823 367.348 226.162C426.684 235.609 484.297 244.529 542.247 252.942C610.01 262.792 678.561 271.7 748.922 278.085C773.528 280.323 798.371 282.254 823.435 283.819C869.64 286.696 917.044 287.537 964.117 286.04C1020.43 284.249 1076.07 279.083 1128.84 269.242C1237.25 248.987 1330.99 211.291 1434.51 186.984C1465.43 179.726 1497.08 173.546 1529.73 169.498" stroke="#7B61FF" stroke-opacity="0.5" stroke-width="0.552088" stroke-miterlimit="10"/>
<path d="M-815.261 331.788C-815.261 331.788 -691.709 383.522 -503.146 306.411C-314.583 229.3 -249.674 146.101 101.215 183.677C343.69 209.645 572.433 273.338 816.88 292.437C917.454 300.295 1022.86 296.594 1119 276.303C1226.63 253.586 1319.61 212.405 1423.42 184.739C1454.42 176.479 1486.23 169.305 1519.16 164.308" stroke="#7B61FF" stroke-opacity="0.5" stroke-width="0.552088" stroke-miterlimit="10"/>
</g>
</svg>
