<svg width="375" height="398" viewBox="0 0 375 398" fill="none" xmlns="http://www.w3.org/2000/svg">
<g opacity="0.7">
<path d="M-675 1C-611.784 40.9596 -545.695 77.5612 -474.873 104.445C-451.911 113.161 -428.316 120.882 -403.782 124.335C-353.755 131.379 -303.024 120.379 -252.445 118.903C-188.208 117.027 -123.611 131.133 -66.7552 158.804C-23.9743 179.626 24.1576 209.828 72.5516 217.407C116.515 224.292 163.809 186.83 202.741 172.213C242.618 157.243 287.218 154.055 329.331 161.755C351.394 165.791 372.853 172.811 392.639 182.727C411.559 192.211 428.042 209.861 450.473 195.989C457.887 191.404 463.013 184.338 469.385 178.562C491.529 158.491 530.254 156.922 554.206 175.128" stroke="#4441B8" stroke-width="0.249919" stroke-miterlimit="10"/>
<path d="M-672.212 2.25281C-610.434 42.7485 -545.024 79.7339 -474.592 106.518C-451.14 115.452 -427.045 122.939 -402.082 126.793C-371.959 131.407 -341.523 129.697 -310.989 127.264C-290.146 125.605 -269.257 123.607 -248.389 123.049C-207.165 121.948 -165.795 126.711 -126.354 136.743C-103.292 142.609 -80.8945 150.282 -59.5483 159.684C-44.5526 166.256 -28.9597 173.869 -12.9675 181.282C9.52452 191.678 32.815 201.667 56.4802 208.064C64.9761 210.369 73.5176 212.212 82.0683 213.423C117.417 218.406 154.862 197.302 188.544 181.776C197.573 177.594 206.331 173.813 214.714 171.042C249.169 159.549 286.745 156.665 323.115 161.671C329.377 162.531 335.606 163.626 341.783 164.952C363.808 169.679 385.249 177.315 405.209 187.575C417.029 193.653 427.993 202.7 440.055 205.558C447.481 207.319 455.288 206.701 463.973 201.673C471.56 197.279 476.975 190.49 483.585 184.911C506.525 165.517 545.561 163.807 570.201 181.779" stroke="#4441B8" stroke-width="0.249919" stroke-miterlimit="10"/>
<path d="M-669.424 3.50256C-609.085 44.5372 -544.354 81.9036 -474.31 108.589C-450.364 117.743 -425.772 124.995 -400.379 129.245C-369.87 134.285 -338.979 133.054 -307.964 130.961C-286.785 129.533 -265.546 127.701 -244.328 127.188C-202.415 126.166 -160.356 130.515 -120.26 139.643C-96.8174 144.979 -74.0542 151.963 -52.3362 160.559C-37.0449 166.549 -21.193 173.513 -4.96616 180.263C17.8794 189.716 41.4898 198.735 65.5786 204.545C74.2115 206.644 82.8933 208.329 91.5964 209.435C127.64 213.975 165.813 193.89 200.107 179.614C209.28 175.76 218.184 172.34 226.695 169.873C261.62 159.754 299.284 158.087 335.605 164.272C341.855 165.333 348.071 166.631 354.239 168.149C376.231 173.567 397.654 181.818 417.784 192.425C429.711 198.712 440.861 207.804 453.148 210.804C460.721 212.652 468.659 212.127 477.478 207.358C485.245 203.156 490.944 196.647 497.791 191.263C521.523 172.546 560.876 170.694 586.199 188.429" stroke="#4441B8" stroke-width="0.249919" stroke-miterlimit="10"/>
<path d="M-666.639 4.75293C-607.735 46.3237 -543.684 84.0766 -474.032 110.661C-449.593 120.032 -424.504 127.05 -398.682 131.7C-367.785 137.169 -336.441 136.415 -304.944 134.66C-283.43 133.467 -261.843 131.802 -240.271 131.328C-197.673 130.388 -154.923 134.319 -114.175 142.542C-90.3479 147.35 -67.2433 153.699 -45.1291 161.431C-29.5575 166.877 -13.4281 173.153 3.02722 179.242C26.2293 187.753 50.1535 195.8 74.6659 201.021C83.4329 202.914 92.2609 204.441 101.11 205.445C137.851 209.543 176.787 190.56 211.66 177.447C220.985 173.94 230.02 170.847 238.665 168.697C274.035 159.899 311.815 159.501 348.081 166.868C354.322 168.133 360.526 169.628 366.681 171.341C388.637 177.45 410.041 186.316 430.342 197.271C442.376 203.766 453.709 212.903 466.224 216.044C473.943 217.983 482.012 217.554 490.968 213.036C498.916 209.029 504.897 202.793 511.982 197.603C536.51 179.564 576.173 177.569 602.185 195.072" stroke="#4441B8" stroke-width="0.249919" stroke-miterlimit="10"/>
<path d="M-663.85 6.00623C-606.384 48.1132 -543.013 86.2499 -473.751 112.738C-448.818 122.329 -423.245 129.158 -396.981 134.158C-365.709 140.11 -333.902 139.779 -301.921 138.366C-280.075 137.404 -258.137 135.908 -236.215 135.476C-192.928 134.618 -149.489 138.134 -108.086 145.451C-83.8779 149.729 -60.4076 155.407 -37.9217 162.314C-22.0545 167.19 -5.66611 172.803 11.0239 178.235C34.5794 185.803 58.8236 192.88 83.7596 197.511C92.6638 199.198 101.635 200.567 110.631 201.467C148.067 205.121 187.736 187.183 223.219 175.292C232.69 172.117 241.859 169.366 250.638 167.532C286.447 160.054 324.346 160.926 360.563 169.473C366.795 170.938 372.987 172.634 379.13 174.541C401.049 181.342 422.438 190.823 442.91 202.122C455.05 208.826 466.566 218.006 479.31 221.29C487.175 223.319 495.378 222.986 504.465 218.722C512.595 214.91 518.858 208.95 526.18 203.956C551.503 186.593 591.481 184.457 618.175 201.724" stroke="#4441B8" stroke-width="0.249919" stroke-miterlimit="10"/>
<path d="M-661.065 7.25623C-605.037 49.9021 -542.345 88.4226 -473.471 114.809C-448.044 124.618 -421.978 131.224 -395.28 136.611C-363.625 142.999 -331.36 143.137 -298.898 142.062C-276.716 141.334 -254.432 140.005 -232.156 139.613C-188.184 138.837 -144.056 141.935 -101.997 148.349C-77.4055 152.099 -53.5727 157.1 -30.715 163.186C-14.5552 167.49 2.08305 172.481 19.0199 177.213C42.9137 183.893 67.4991 189.889 92.8495 193.986C101.894 195.448 111.002 196.678 120.15 197.474C158.284 200.685 198.682 183.788 234.777 173.125C244.391 170.283 253.701 167.873 262.614 166.355C298.858 160.19 336.879 162.34 373.048 172.069C379.267 173.737 385.447 175.63 391.584 177.733C413.467 185.227 434.841 195.324 455.483 206.967C467.73 213.88 479.432 223.104 492.401 226.53C500.412 228.649 508.749 228.412 517.968 224.402C526.281 220.785 532.823 215.102 540.383 210.302C566.499 193.617 606.79 191.339 634.173 208.372" stroke="#4441B8" stroke-width="0.249919" stroke-miterlimit="10"/>
<path d="M-658.276 8.50903C-603.687 51.6911 -541.675 90.5953 -473.19 116.883C-447.273 126.912 -420.709 133.289 -393.579 139.068C-361.54 145.894 -328.818 146.498 -295.874 145.764C-273.358 145.268 -250.723 144.108 -228.099 143.758C-183.438 143.064 -138.622 145.747 -95.9081 151.253C-70.9355 154.472 -46.734 158.798 -23.5075 164.064C-7.05217 167.794 9.84506 172.131 27.0135 176.198C51.2638 181.943 76.1662 186.951 101.94 190.467C111.119 191.72 120.373 192.798 129.667 193.487C168.496 196.255 209.622 180.399 246.333 170.96C256.09 168.452 265.534 166.38 274.587 165.184C311.265 160.331 349.41 163.759 385.53 174.668C391.74 176.536 397.908 178.63 404.033 180.924C425.879 189.11 447.235 199.822 468.051 211.812C480.404 218.934 492.289 228.203 505.486 231.77C513.641 233.98 522.122 233.841 531.468 230.083C539.967 226.663 546.786 221.25 554.581 216.645C581.492 200.637 622.097 198.216 650.163 215.017" stroke="#4441B8" stroke-width="0.249919" stroke-miterlimit="10"/>
<path d="M-655.488 9.75879C-602.334 53.477 -541.004 92.765 -472.907 118.954C-446.496 129.2 -419.439 135.349 -391.876 141.52C-359.453 148.781 -326.274 149.856 -292.848 149.461C-269.997 149.198 -247.014 148.205 -224.038 147.895C-178.691 147.282 -133.183 149.548 -89.8168 154.151C-64.4633 156.843 -39.893 160.491 -16.2948 164.935C0.459157 168.093 17.6154 171.775 35.0154 175.179C59.6223 179.987 84.8386 184.011 111.036 186.946C120.349 187.99 129.75 188.912 139.193 189.496C178.719 191.822 220.568 177.004 257.894 168.793C267.795 166.614 277.375 164.885 286.566 164.007C323.673 160.46 361.95 165.172 398.018 177.264C404.219 179.332 410.374 181.629 416.487 184.115C438.297 192.993 459.637 204.319 480.623 216.653C493.084 223.985 505.154 233.299 518.577 237.007C526.878 239.304 535.499 239.27 544.97 235.757C553.658 232.535 560.752 227.396 568.785 222.986C596.487 207.652 637.406 205.093 666.161 221.657" stroke="#4441B8" stroke-width="0.249919" stroke-miterlimit="10"/>
<path d="M-652.703 11.0087C-600.987 55.2658 -540.337 94.9376 -472.629 121.028C-445.725 131.494 -418.174 137.411 -390.179 143.978C-357.372 151.67 -323.736 153.219 -289.829 153.165C-266.645 153.134 -243.312 152.31 -219.982 152.042C-173.946 151.512 -127.75 153.36 -83.7285 157.06C-57.9911 159.221 -33.0521 162.19 -9.08818 165.818C7.96445 168.4 25.3766 171.431 43.0083 174.168C67.9716 178.043 93.5018 181.082 120.126 183.432C129.576 184.267 139.117 185.035 148.71 185.515C188.931 187.397 231.501 173.615 269.449 166.634C279.493 164.786 289.208 163.397 298.536 162.839C336.072 160.592 374.477 166.594 410.493 179.868C416.682 182.14 422.825 184.634 428.932 187.315C450.705 196.884 472.03 208.826 493.187 221.507C505.754 229.047 518.007 238.404 531.659 242.255C540.106 244.643 548.87 244.713 558.463 241.446C567.34 238.423 574.708 233.553 582.979 229.34C611.477 214.684 652.71 211.983 682.146 228.313" stroke="#4441B8" stroke-width="0.249919" stroke-miterlimit="10"/>
<path d="M-649.914 12.2615C-599.637 57.0548 -539.666 97.1103 -472.346 123.102C-444.947 133.785 -416.903 139.474 -388.472 146.433C-355.281 154.557 -321.188 156.58 -286.799 156.865C-263.28 157.068 -239.597 156.408 -215.919 156.182C-169.198 155.733 -122.31 157.167 -77.6365 159.958C-51.5182 161.591 -26.2104 163.88 -1.8778 166.693C15.4735 168.699 33.1447 171.078 51.0079 173.149C76.3278 176.087 102.172 178.144 129.223 179.91C138.806 180.537 148.494 181.149 158.236 181.525C199.155 182.964 242.448 170.215 281.014 164.47C291.198 162.951 301.053 161.902 310.518 161.665C348.478 160.717 387.017 168.011 422.984 182.464C429.164 184.936 435.295 187.631 441.39 190.506C463.126 200.766 484.433 213.326 505.764 226.352C518.434 234.1 530.877 243.503 544.754 247.496C553.347 249.973 562.255 250.148 571.972 247.126C581.041 244.304 588.681 239.705 597.189 235.683C626.479 221.704 668.029 218.86 698.151 234.955" stroke="#4441B8" stroke-width="0.249919" stroke-miterlimit="10"/>
<path d="M-647.129 13.5117C-598.291 58.8412 -538.999 99.2833 -472.069 125.173C-444.177 136.077 -415.639 141.534 -386.775 148.888C-353.197 157.443 -318.653 159.941 -283.777 160.564C-259.923 160.999 -235.892 160.508 -211.861 160.324C-164.451 159.958 -116.874 160.974 -71.5454 162.861C-45.0431 163.965 -19.3667 165.57 5.33159 167.571C22.9815 168.999 40.9118 170.729 59.0066 172.137C84.6861 174.134 110.841 175.212 138.315 176.398C148.033 176.815 157.867 177.272 167.755 177.543C209.369 178.539 253.381 166.82 292.572 162.311C302.899 161.123 312.888 160.412 322.493 160.497C360.877 160.841 399.55 169.433 435.469 185.069C441.639 187.744 447.758 190.636 453.841 193.706C475.54 204.658 496.832 217.833 518.33 231.203C531.108 239.16 543.733 248.607 557.839 252.741C566.578 255.309 575.629 255.591 585.468 252.812C594.729 250.193 602.649 245.876 611.385 242.035C641.502 228.793 683.332 225.748 714.143 241.609" stroke="#4441B8" stroke-width="0.249919" stroke-miterlimit="10"/>
<path d="M-644.342 14.7616C-596.939 60.63 -538.327 101.453 -471.789 127.244C-443.404 138.365 -414.369 143.591 -385.076 151.34C-351.114 160.324 -316.113 163.299 -280.755 164.261C-256.566 164.93 -232.187 164.605 -207.803 164.461C-159.707 164.176 -111.438 164.774 -65.4579 165.759C-38.5747 166.335 -12.5234 167.255 12.5375 168.443C30.4861 169.292 48.6753 170.37 66.9987 171.115C93.0347 172.173 119.503 172.275 147.404 172.873C157.259 173.085 167.233 173.384 177.274 173.55C219.585 174.103 264.317 163.411 304.129 160.141C314.597 159.28 324.723 158.908 334.468 159.32C373.276 160.951 412.086 170.847 447.952 187.662C454.111 190.537 460.218 193.633 466.291 196.895C487.954 208.538 509.23 222.328 530.9 236.045C543.783 244.211 556.594 253.701 570.926 257.979C579.809 260.637 589.008 261.029 598.967 258.486C608.423 256.074 616.611 252.022 625.585 248.373C656.494 235.808 698.641 232.622 730.134 248.249" stroke="#4441B8" stroke-width="0.249919" stroke-miterlimit="10"/>
<path d="M-641.553 16.0149C-595.587 62.4195 -537.655 103.629 -471.505 129.322C-442.629 140.662 -413.097 145.654 -383.371 153.801C-349.025 163.214 -313.567 166.663 -277.728 167.966C-253.206 168.866 -228.477 168.711 -203.743 168.61C-154.958 168.406 -106.001 168.59 -59.365 168.669C-32.0979 168.714 -5.67794 168.951 19.7517 169.326C37.9988 169.597 56.4471 170.023 75.0021 170.105C101.398 170.224 128.177 169.349 156.502 169.36C166.491 169.363 176.611 169.507 186.798 169.572C229.804 169.682 275.255 160.014 315.689 157.988C326.297 157.455 336.56 157.421 346.442 158.158C385.673 161.073 424.617 172.275 460.435 190.273C466.585 193.351 472.679 196.644 478.743 200.101C500.37 212.438 521.628 226.84 543.471 240.904C556.461 249.279 569.455 258.814 584.015 263.233C593.044 265.979 602.393 266.484 612.471 264.181C622.118 261.977 630.578 258.188 639.79 254.734C671.49 242.848 713.951 239.516 746.134 254.909" stroke="#4441B8" stroke-width="0.249919" stroke-miterlimit="10"/>
<path d="M-638.767 17.2649C-594.24 64.2056 -536.933 105.678 -471.228 131.393C-441.833 142.897 -411.83 147.708 -381.674 156.253C-346.941 166.092 -311.028 170.02 -274.708 171.666C-249.851 172.8 -224.772 172.811 -199.687 172.749C-150.217 172.628 -100.571 172.394 -53.2798 171.567C-25.6317 171.084 1.15996 170.63 26.9553 170.198C45.5011 169.888 64.2084 169.662 82.9919 169.086C109.747 168.265 136.834 166.414 165.589 165.839C175.712 165.635 185.978 165.621 196.314 165.582C240.019 165.249 286.185 156.603 327.244 155.821C337.992 155.615 348.392 155.92 358.415 156.981C398.069 161.177 437.148 173.689 472.914 192.866C479.054 196.145 485.136 199.638 491.188 203.289C512.778 216.318 534.021 231.335 556.035 245.744C569.132 254.327 582.311 263.907 597.097 268.468C606.272 271.303 615.768 271.921 625.964 269.856C635.807 267.861 644.534 264.334 653.981 261.074C686.474 249.869 729.252 246.393 762.117 261.551" stroke="#4441B8" stroke-width="0.249919" stroke-miterlimit="10"/>
<path d="M-635.979 18.5153C-592.89 65.9949 -536.263 107.848 -470.944 133.464C-441.056 145.186 -410.559 149.763 -379.97 158.705C-344.85 168.971 -308.484 173.379 -271.682 175.362C-246.49 176.728 -221.063 176.909 -195.625 176.889C-145.466 176.847 -95.131 176.2 -47.185 174.468C-19.153 173.455 8.01054 172.312 34.1685 171.073C53.0159 170.179 71.9792 169.307 90.9943 168.068C118.109 166.304 145.507 163.483 174.688 162.317C184.948 161.908 195.355 161.739 205.84 161.592C250.239 160.816 297.125 153.192 338.809 153.654C349.7 153.776 360.234 154.419 370.397 155.804C410.478 161.276 449.688 175.103 485.405 195.462C491.533 198.941 497.603 202.635 503.646 206.481C525.199 220.201 546.427 235.836 568.611 250.589C581.815 259.379 595.177 269.004 610.191 273.708C619.513 276.634 629.158 277.368 639.47 275.536C649.51 273.753 658.5 270.483 668.187 267.418C701.473 256.89 744.564 253.272 778.118 268.194" stroke="#4441B8" stroke-width="0.249919" stroke-miterlimit="10"/>
<path d="M-633.195 19.7673C-591.541 67.7831 -535.596 110.023 -470.668 135.537C-440.286 147.477 -409.292 151.819 -378.274 161.162C-342.767 171.854 -305.946 176.741 -268.663 179.064C-243.136 180.664 -217.362 181.011 -191.573 181.031C-140.729 181.07 -89.7017 180.006 -41.1005 177.371C-12.6876 175.83 14.8476 173.996 41.3712 171.95C60.5174 170.474 79.7397 168.95 98.9864 167.051C126.458 164.342 154.17 160.553 183.774 158.798C194.168 158.182 204.721 157.855 215.353 157.604C260.45 156.385 308.052 149.776 350.36 151.489C361.391 151.935 372.063 152.917 382.366 154.633C422.87 161.377 462.217 176.521 497.883 198.063C504.002 201.745 510.06 205.64 516.09 209.678C537.607 224.088 558.816 240.339 581.174 255.439C594.485 264.437 608.03 274.108 623.272 278.953C632.74 281.969 642.534 282.821 652.965 281.222C663.201 279.65 672.459 276.639 682.384 273.769C716.462 263.918 759.87 260.157 794.106 274.847" stroke="#4441B8" stroke-width="0.249919" stroke-miterlimit="10"/>
<path d="M-630.406 21.0178C-590.191 69.5698 -534.98 112.314 -470.384 137.609C-439.533 149.825 -408.018 153.874 -376.57 163.615C-340.676 174.733 -303.405 180.1 -265.636 182.761C-239.777 184.592 -213.653 185.106 -187.51 185.171C-135.977 185.292 -84.262 183.811 -35.0087 180.269C-6.21179 178.198 21.6923 175.672 48.5846 172.822C68.0294 170.76 87.5107 168.59 106.986 166.033C134.817 162.382 162.84 157.621 192.871 155.276C203.399 154.455 214.098 153.97 224.879 153.614C270.671 151.952 318.992 146.36 361.925 149.325C373.096 150.098 383.908 151.416 394.345 153.459C435.276 161.473 474.754 177.938 510.371 200.66C516.477 204.542 522.526 208.637 528.548 212.869C550.028 227.972 571.222 244.838 593.751 260.281C607.168 269.489 620.899 279.204 636.364 284.191C645.975 287.295 655.921 288.268 666.468 286.897C676.899 285.539 686.419 282.766 696.587 280.11C731.439 270.872 775.18 267.034 810.105 281.487" stroke="#4441B8" stroke-width="0.249919" stroke-miterlimit="10"/>
<path d="M-627.617 22.2682C-588.841 71.3591 -534.309 114.488 -470.103 139.683C-438.762 152.116 -406.75 155.931 -374.869 166.073C-338.588 177.614 -300.863 183.461 -262.613 186.466C-236.419 188.532 -209.944 189.212 -183.451 189.316C-131.232 189.519 -78.8251 187.623 -28.9166 183.176C0.261153 180.577 28.5369 177.357 55.7949 173.703C75.5382 171.056 95.2756 168.234 114.985 165.02C143.173 160.424 171.51 154.695 201.964 151.761C212.627 150.734 223.469 150.09 234.399 149.63C280.889 147.525 329.929 142.943 373.481 147.164C384.795 148.262 395.741 149.915 406.318 152.288C447.679 161.569 487.285 179.358 522.853 203.262C528.95 207.348 534.984 211.639 540.996 216.064C562.44 231.858 583.616 249.339 606.318 265.13C619.842 274.546 633.756 284.304 649.449 289.434C659.207 292.628 669.302 293.723 679.965 292.58C690.591 291.44 700.379 288.917 710.785 286.457C746.429 277.895 790.487 273.917 826.098 288.136" stroke="#4441B8" stroke-width="0.249919" stroke-miterlimit="10"/>
<path d="M-624.832 23.521C-587.494 73.1481 -533.642 116.66 -469.826 141.757C-437.991 154.41 -405.482 157.986 -373.172 168.528C-336.504 180.492 -298.324 186.822 -259.593 190.165C-233.064 192.462 -206.241 193.312 -179.398 193.458C-126.491 193.743 -73.3949 191.43 -22.8343 186.079C6.72747 182.95 35.3689 179.036 62.9956 174.581C83.0376 171.347 103.034 167.879 122.972 164.005C151.519 158.46 180.167 151.769 211.048 148.245C221.848 147.012 232.833 146.21 243.913 145.646C291.1 143.098 340.86 139.525 385.033 145.002C396.488 146.422 407.574 148.414 418.288 151.117C460.079 161.66 499.812 180.777 535.328 205.86C541.417 210.147 547.438 214.639 553.438 219.258C574.846 235.743 596.006 253.842 618.876 269.975C632.506 279.6 646.606 289.403 662.525 294.674C672.429 297.958 682.671 299.177 693.455 298.26C704.276 297.34 714.332 295.069 724.976 292.803C761.416 284.916 805.784 280.796 842.081 294.784" stroke="#4441B8" stroke-width="0.249919" stroke-miterlimit="10"/>
<path d="M-622.044 24.7709C-586.144 74.9341 -532.972 118.83 -469.542 143.828C-437.214 156.699 -404.205 160.037 -371.465 170.983C-334.41 183.37 -295.777 190.182 -256.564 193.865C-229.699 196.396 -202.53 197.412 -175.333 197.598C-121.74 197.965 -67.9524 195.236 -16.7366 188.977C13.2061 185.32 42.2193 180.709 70.2117 175.452C90.5493 171.632 110.808 167.515 130.978 162.986C159.881 156.495 188.843 148.84 220.147 144.723C231.081 143.284 242.213 142.324 253.439 141.656C301.321 138.665 351.802 136.102 396.598 142.838C408.196 144.582 419.416 146.91 430.27 149.943C472.493 161.747 512.355 182.194 547.819 208.459C553.896 212.948 559.908 217.641 565.896 222.452C587.266 239.631 608.412 258.343 631.452 274.822C645.189 284.656 659.472 294.504 675.62 299.919C685.67 303.294 696.061 304.637 706.961 303.946C717.98 303.246 728.301 301.223 739.183 299.155C776.415 291.945 821.1 287.684 858.082 301.435" stroke="#4441B8" stroke-width="0.249919" stroke-miterlimit="10"/>
<path d="M-619.258 26.0205C-584.793 76.7227 -532.301 121.002 -469.264 145.899C-436.442 158.99 -402.937 162.088 -369.767 173.434C-332.322 186.245 -293.238 193.54 -253.544 197.561C-226.344 200.323 -198.827 201.508 -171.279 201.737C-116.998 202.186 -62.5216 199.039 -10.6537 191.878C19.673 187.69 49.0519 182.385 77.413 176.327C98.0492 171.919 118.564 167.153 138.968 161.967C168.228 154.528 197.504 145.911 229.235 141.201C240.306 139.559 251.578 138.438 262.956 137.665C311.536 134.231 362.74 132.676 408.154 140.67C419.892 142.736 431.252 145.403 442.24 148.769C484.899 161.834 524.883 183.61 560.299 211.055C566.366 215.744 572.363 220.638 578.345 225.643C599.682 243.514 620.806 262.84 644.02 279.667C657.861 289.71 672.332 299.6 688.705 305.159C698.901 308.624 709.442 310.094 720.458 309.623C731.672 309.146 742.261 307.371 753.381 305.495C791.408 298.962 836.404 294.56 874.072 308.077" stroke="#4441B8" stroke-width="0.249919" stroke-miterlimit="10"/>
<path d="M-616.471 27.2739C-583.445 78.5122 -531.632 123.176 -468.983 147.977C-435.667 161.284 -401.665 164.143 -368.066 175.896C-330.234 189.127 -290.695 196.907 -250.52 201.269C-222.987 204.266 -195.117 205.618 -167.219 205.886C-112.252 206.416 -57.0839 202.852 -4.56079 194.787C26.1467 190.072 55.8943 184.067 84.6272 177.21C105.559 172.216 126.332 166.801 146.969 160.957C176.582 152.571 206.178 142.99 238.332 137.688C249.537 135.84 260.956 134.562 272.48 133.684C321.755 129.807 373.684 129.257 419.716 138.512C431.598 140.902 443.098 143.905 454.221 147.601C497.315 161.922 537.421 185.033 572.788 213.66C578.846 218.553 584.831 223.643 590.8 228.844C612.101 247.406 633.209 267.347 656.594 284.518C670.542 294.77 685.196 304.705 701.798 310.405C712.137 313.958 722.827 315.558 733.965 315.31C745.371 315.056 756.231 313.526 767.586 311.847C806.408 305.992 851.718 301.449 890.071 314.728" stroke="#4441B8" stroke-width="0.249919" stroke-miterlimit="10"/>
<path d="M-613.683 28.5238C-582.095 80.2983 -530.961 125.348 -468.702 150.048C-434.895 163.575 -400.394 166.194 -366.365 178.348C-328.143 191.999 -288.156 200.264 -247.496 204.966C-219.629 208.194 -191.411 209.712 -163.159 210.025C-107.504 210.637 -51.6499 206.659 1.52835 197.685C32.6198 192.44 62.7332 185.738 91.8348 178.082C113.062 172.498 134.098 166.437 154.965 159.938C184.936 150.603 214.845 140.064 247.423 134.167C258.765 132.115 270.327 130.679 282.001 129.697C331.973 125.377 384.624 125.828 431.272 136.348C443.297 139.06 454.934 142.398 466.194 146.427C509.728 162.004 549.952 186.449 585.267 216.258C591.313 221.352 597.289 226.643 603.246 232.038C624.51 251.291 645.603 271.848 669.159 289.366C683.213 299.826 698.053 309.807 714.88 315.648C725.366 319.291 736.202 321.021 747.459 320.993C759.06 320.964 770.189 319.68 781.781 318.193C821.395 313.015 867.022 308.328 906.058 321.376" stroke="#4441B8" stroke-width="0.249919" stroke-miterlimit="10"/>
<path d="M-610.896 29.7742C-580.747 82.0876 -530.293 127.519 -468.421 152.119C-434.12 165.864 -399.095 168.181 -364.663 180.8C-326.024 194.805 -285.614 203.62 -244.472 208.662C-216.27 212.125 -187.704 213.809 -159.102 214.162C-102.761 214.856 -46.2156 210.46 7.61779 200.584C39.0902 194.81 69.5692 187.409 99.0425 178.954C120.566 172.78 141.86 166.073 162.959 158.917C193.283 148.634 223.524 137.195 256.514 130.642C267.996 128.405 279.695 126.791 291.518 125.704C342.186 120.941 395.565 122.397 442.828 134.181C454.996 137.214 466.771 140.891 478.168 145.251C522.14 162.083 562.486 187.863 597.75 218.852C603.786 224.146 609.747 229.64 615.698 235.227C636.926 255.171 658.001 276.346 681.73 294.208C695.891 304.877 710.914 314.901 727.969 320.886C738.601 324.619 749.584 326.478 760.959 326.67C772.755 326.868 784.152 325.829 795.982 324.537C836.392 320.036 882.33 315.208 922.054 328.022" stroke="#4441B8" stroke-width="0.249919" stroke-miterlimit="10"/>
<path d="M-608.109 31.0269C-579.395 83.8764 -529.623 129.691 -468.141 154.193C-433.347 168.158 -397.825 170.241 -362.964 183.258C-323.938 197.688 -283.073 206.983 -241.45 212.364C-212.913 216.058 -184 217.912 -155.045 218.307C-98.0146 219.083 -40.7804 214.272 13.7051 203.49C45.5615 197.186 76.4031 189.087 106.248 179.835C128.067 173.071 149.605 165.681 170.954 157.904C201.61 146.622 232.193 134.265 265.603 127.126C277.219 124.683 289.064 122.91 301.037 121.72C352.402 116.513 406.507 118.971 454.386 132.019C466.697 135.374 478.612 139.387 490.14 144.082C534.554 162.167 575.016 189.285 610.23 221.456C616.258 226.953 622.206 232.645 628.145 238.427C649.336 259.062 670.396 280.852 694.296 299.059C708.563 309.937 723.769 320.005 741.053 326.131C751.832 329.955 762.96 331.944 774.458 332.353C786.446 332.779 798.114 331.981 810.181 330.886C851.383 327.062 897.638 322.09 938.048 334.67" stroke="#4441B8" stroke-width="0.249919" stroke-miterlimit="10"/>
<path d="M-605.324 32.2769C-578.048 85.6626 -528.956 131.864 -467.864 156.267C-432.576 170.449 -396.557 172.298 -361.267 185.712C-321.853 200.572 -280.535 210.344 -238.43 216.067C-209.56 219.995 -180.294 222.015 -150.989 222.449C-93.2698 223.307 -35.347 218.078 19.7937 206.393C52.031 199.562 83.2383 190.761 113.458 180.712C135.569 173.359 157.37 165.325 178.954 156.891C209.966 144.664 240.862 131.339 274.699 123.61C286.453 120.96 298.441 119.03 310.56 117.735C362.62 112.086 417.456 115.543 465.947 129.858C478.401 133.534 490.457 137.883 502.119 142.911C546.978 162.249 587.552 190.704 622.718 224.055C628.733 229.752 634.673 235.644 640.6 241.621C661.754 262.948 682.798 285.353 706.866 303.906C721.24 314.993 736.632 325.107 754.141 331.374C765.066 335.288 776.341 337.41 787.957 338.036C800.137 338.694 812.076 338.135 824.381 337.232C866.379 334.086 912.945 328.973 954.041 341.318" stroke="#4441B8" stroke-width="0.249919" stroke-miterlimit="10"/>
<path d="M-602.535 33.5266C-576.697 87.4513 -528.285 134.034 -467.58 158.338C-431.799 172.74 -395.283 174.352 -359.562 188.167C-319.762 203.453 -277.99 213.704 -235.404 219.766C-206.199 223.928 -176.585 226.115 -146.929 226.592C-88.5245 227.531 -29.9099 221.885 25.8829 209.294C58.5041 201.932 90.0739 192.434 120.666 181.587C143.072 173.643 165.132 164.969 186.947 155.872C218.313 142.702 249.529 128.407 283.787 120.091C295.675 117.235 307.809 115.147 320.077 113.748C372.835 107.655 428.399 112.114 477.5 127.693C490.101 131.692 502.293 136.376 514.089 141.737C559.393 162.325 600.08 192.12 635.197 226.654C641.203 232.554 647.127 238.644 653.045 244.815C674.163 266.836 695.189 289.854 719.43 308.754C733.911 320.05 749.486 330.205 767.224 336.617C778.292 340.618 789.713 342.878 801.451 343.719C813.823 344.605 826.034 344.286 838.576 343.581C881.369 341.112 928.249 335.858 970.03 347.966" stroke="#4441B8" stroke-width="0.249919" stroke-miterlimit="10"/>
<path d="M-599.748 34.7794C-575.348 89.2402 -527.615 136.209 -467.3 160.412C-431.025 175.032 -394.013 176.409 -357.863 190.622C-317.675 206.334 -275.449 217.065 -232.379 223.465C-202.838 227.858 -172.877 230.215 -142.868 230.734C-83.7746 231.753 -24.4713 225.694 31.9766 212.198C64.9788 204.308 96.893 194.062 127.878 182.467C150.562 173.9 172.898 164.616 194.949 154.858C226.671 140.747 258.201 125.478 292.885 116.575C304.91 113.513 317.185 111.267 329.602 109.763C383.055 103.228 439.384 108.603 489.064 125.534C501.817 129.832 514.14 134.874 526.07 140.569C571.822 162.41 612.622 193.543 647.684 229.255C653.681 235.356 659.593 241.649 665.502 248.012C686.583 270.725 707.594 294.357 732.006 313.602C746.593 325.103 762.354 335.307 780.317 341.859C791.531 345.951 803.096 348.344 814.959 349.402C827.52 350.522 840.005 350.441 852.785 349.93C896.37 348.138 943.564 342.74 986.031 354.617" stroke="#4441B8" stroke-width="0.249919" stroke-miterlimit="10"/>
<path d="M-596.962 36.0298C-573.998 91.0267 -526.944 138.379 -467.019 162.483C-430.254 177.323 -392.742 178.466 -356.162 193.077C-315.588 209.215 -272.907 220.423 -229.355 227.165C-199.48 231.792 -169.171 234.315 -138.808 234.874C-79.0295 235.974 -19.0344 229.498 38.0687 215.099C71.4517 206.678 103.732 195.744 135.088 183.342C158.068 174.191 180.663 164.258 202.945 153.843C235.021 138.789 266.871 122.549 301.979 113.057C314.138 109.786 326.559 107.385 339.123 105.776C393.273 98.798 450.327 105.189 500.623 123.37C513.519 127.995 525.994 133.348 538.043 139.395C584.295 162.401 625.153 194.959 660.167 231.855C666.151 238.158 672.054 244.649 677.95 251.204C698.995 274.608 719.988 298.858 744.573 318.447C759.267 330.158 775.211 340.407 793.403 347.1C804.763 351.282 816.471 353.81 828.456 355.08C841.206 356.432 853.965 356.587 866.98 356.271C911.361 355.156 958.868 349.617 1002.02 361.26" stroke="#4441B8" stroke-width="0.249919" stroke-miterlimit="10"/>
<path d="M-594.174 37.2802C-572.647 92.8161 -526.274 140.55 -466.739 164.555C-429.48 179.612 -391.471 180.521 -354.458 195.53C-313.497 212.097 -270.366 223.782 -226.329 230.862C-196.121 235.721 -165.46 238.41 -134.749 239.014C-74.2817 240.196 -13.598 233.302 44.1573 217.997C77.9243 209.049 110.57 197.423 142.295 184.214C165.57 174.482 188.428 163.9 210.941 152.822C243.374 136.825 275.538 119.615 311.069 109.532C323.365 106.056 335.929 103.497 348.642 101.784C403.487 94.3624 461.27 101.772 512.181 121.201C525.22 126.15 537.836 131.842 550.019 138.219C596.707 162.503 637.687 196.371 672.651 234.448C678.627 240.952 684.514 247.643 690.402 254.393C711.41 278.488 732.387 303.354 757.143 323.29C771.944 335.209 788.073 345.5 806.491 352.337C817.998 356.61 829.846 359.273 841.956 360.758C854.894 362.343 867.928 362.736 881.18 362.614C926.353 362.174 974.174 356.497 1018.01 367.902" stroke="#4441B8" stroke-width="0.249919" stroke-miterlimit="10"/>
<path d="M-591.389 38.5328C-571.301 94.6049 -525.607 142.725 -466.459 166.631C-428.706 181.909 -390.201 182.58 -352.759 197.987C-311.41 214.98 -267.825 227.145 -223.307 234.566C-192.764 239.66 -161.755 242.515 -130.691 243.159C-69.5376 244.423 -8.16521 237.114 50.2483 220.903C84.3962 211.425 117.41 199.11 149.508 185.095C173.078 174.778 196.195 163.547 218.943 151.809C251.729 134.869 284.213 116.686 320.168 106.016C332.598 102.334 345.305 99.6193 358.168 97.7992C413.711 89.9348 472.218 98.3636 523.745 119.042C536.928 124.319 549.681 130.349 562.001 137.05C609.127 162.613 650.226 197.793 685.142 237.052C691.108 243.757 696.983 250.648 702.859 257.592C723.83 282.379 744.792 307.86 769.719 328.14C784.626 340.268 800.939 350.605 819.585 357.583C831.238 361.945 843.223 364.767 855.464 366.443C868.588 368.286 881.899 368.89 895.389 368.966C941.358 369.203 989.493 363.385 1034.02 374.556" stroke="#4441B8" stroke-width="0.249919" stroke-miterlimit="10"/>
<path d="M-588.6 39.7832C-569.951 96.3914 -524.936 144.895 -466.178 168.703C-427.932 184.198 -388.933 184.635 -351.058 200.443C-309.322 217.862 -265.283 230.506 -220.284 238.266C-128.624 254.074 -32.7351 249.615 56.3371 223.804C116.253 206.442 172.692 180.058 226.936 150.79C260.079 132.908 292.877 113.754 329.255 102.495C396.134 81.797 471.091 89.8787 535.298 116.875C599.504 143.871 653.624 188.616 697.618 239.649C737.543 285.957 773.404 340.463 832.664 362.823C900.439 388.395 979.193 364.068 1050 381.199" stroke="#4441B8" stroke-width="0.249919" stroke-miterlimit="10"/>
<path d="M-447.117 397.613C-447.864 326.067 -420.545 254.545 -371.383 199.348C-357.396 183.644 -340.992 168.796 -320.307 161.908C-260.538 142.009 -196.715 185.51 -146.462 210.209C-85.8184 240.013 -25.86 271.247 37.2829 296.398C72.732 310.518 114.367 322.503 148.658 306.114C183.382 289.516 196.595 250.868 210.951 217.213C227.677 177.995 250.712 140.217 284.525 111.976C318.337 83.7356 364.047 65.9074 409.311 70.5041C444.757 74.1047 477.055 90.759 506.55 109.318C584.046 158.084 649.882 222.645 698.026 297.081" stroke="#7B61FF" stroke-opacity="0.5" stroke-width="0.249919" stroke-miterlimit="10"/>
<path d="M-449.055 394.52C-449.716 331.287 -425.694 269.399 -383.102 216.321C-379.147 211.391 -375.076 206.543 -370.828 201.828C-356.862 186.339 -340.599 171.68 -320.206 164.738C-261.229 144.638 -198.382 185.865 -148.199 209.678C-103.709 230.791 -59.5321 253.083 -13.7863 273.262C2.08402 280.291 18.0915 287.06 34.303 293.446C69.4687 307.296 110.61 319.119 144.645 303.495C179.107 287.673 192.75 250.521 207.502 218.183C224.695 180.504 247.994 144.193 281.743 117.041C293.493 107.588 306.642 99.3485 320.687 92.8103C346.967 80.5693 376.386 74.2767 405.618 77.138C440.732 80.575 472.796 96.5548 502.101 114.267C561.432 150.101 613.861 194.582 657.083 245.82C669.983 261.108 682.059 276.995 693.246 293.438" stroke="#7B61FF" stroke-opacity="0.5" stroke-width="0.249919" stroke-miterlimit="10"/>
<path d="M-450.99 391.43C-451.63 330.304 -426.329 271.845 -382.527 218.578C-378.55 213.744 -374.503 208.958 -370.271 204.314C-356.323 189.042 -340.203 174.569 -320.1 167.571C-261.912 147.268 -200.049 186.223 -149.933 209.153C-105.909 229.295 -62.1196 250.998 -16.3981 270.75C-0.643656 277.613 15.2449 284.239 31.3254 290.5C66.2077 304.081 106.859 315.741 140.635 300.882C174.834 285.833 188.907 250.177 204.052 219.159C221.708 183.018 245.279 148.174 278.96 122.115C290.689 113.043 303.774 105.133 317.725 98.8601C343.819 87.1101 372.966 81.0546 401.921 83.7804C436.703 87.0565 468.529 102.359 497.649 119.222C556.626 153.329 608.71 195.366 652.058 244.248C664.994 258.834 677.149 274.024 688.461 289.8" stroke="#7B61FF" stroke-opacity="0.5" stroke-width="0.249919" stroke-miterlimit="10"/>
<path d="M-452.928 388.338C-453.544 329.32 -426.98 274.289 -381.954 220.833C-377.959 216.089 -373.936 211.368 -369.719 206.797C-355.793 191.74 -339.81 177.459 -320.002 170.404C-262.607 149.901 -201.734 186.585 -151.673 208.626C-108.124 227.8 -64.6669 248.811 -19.0185 268.239C-3.36152 274.904 12.3899 281.417 28.3424 287.554C62.9414 300.865 103.102 312.364 136.616 298.269C170.553 283.993 185.055 249.835 200.597 220.136C218.719 185.532 242.555 152.156 276.169 127.186C287.88 118.494 300.898 110.915 314.754 104.905C340.665 93.6456 369.535 87.827 398.219 90.4203C432.669 93.5355 464.257 108.161 493.191 124.175C551.818 156.558 603.555 196.148 647.027 242.676C660 256.56 672.231 271.052 683.668 286.166" stroke="#7B61FF" stroke-opacity="0.5" stroke-width="0.249919" stroke-miterlimit="10"/>
<path d="M-454.863 385.248C-455.457 328.337 -427.645 276.729 -381.375 223.09C-377.362 218.439 -373.36 213.781 -369.158 209.283C-355.25 194.443 -339.411 180.348 -319.896 173.237C-263.292 152.533 -203.416 186.951 -153.404 208.1C-110.337 226.312 -67.236 246.694 -21.6273 265.727C-6.08002 272.217 9.54341 278.595 25.368 284.608C59.6835 297.65 99.3501 308.988 132.608 295.655C166.284 282.156 181.215 249.493 197.153 221.112C215.741 188.046 239.842 156.134 273.393 132.256C285.082 123.943 298.033 116.696 311.798 110.948C337.523 100.183 366.119 94.6017 394.532 97.0567C428.652 100.008 460.003 113.959 488.748 129.124C547.021 159.78 598.414 196.926 642.014 241.098C655.026 254.279 667.334 268.075 678.896 282.523" stroke="#7B61FF" stroke-opacity="0.5" stroke-width="0.249919" stroke-miterlimit="10"/>
<path d="M-456.798 382.155C-457.371 327.353 -428.322 279.165 -380.799 225.345C-376.771 220.785 -372.788 216.194 -368.604 211.766C-354.717 197.141 -339.015 183.235 -319.792 176.071C-263.981 155.167 -205.111 187.321 -155.138 207.576C-112.558 224.834 -69.8141 244.581 -24.2419 263.219C-8.80434 269.534 6.69417 275.776 22.3877 281.665C56.4198 294.437 95.5958 305.614 128.595 293.046C162.008 280.319 177.367 249.155 193.703 222.091C212.755 190.561 237.124 160.119 270.611 137.333C282.279 129.401 295.166 122.485 308.836 116.999C334.375 106.725 362.7 101.38 390.835 103.703C424.624 106.493 455.737 119.77 484.296 134.085C542.216 163.017 593.264 197.717 636.989 239.536C650.038 252.014 662.425 265.113 674.111 278.894" stroke="#7B61FF" stroke-opacity="0.5" stroke-width="0.249919" stroke-miterlimit="10"/>
<path d="M-458.736 379.063C-459.288 326.368 -429.019 281.592 -380.226 227.597C-376.185 223.127 -372.221 218.601 -368.049 214.247C-354.184 199.839 -338.621 186.119 -319.692 178.898C-264.67 157.794 -206.817 187.688 -156.875 207.043C-114.792 223.353 -72.392 242.459 -26.8564 260.699C-11.5285 266.84 3.84515 272.946 19.4076 278.708C53.1564 291.212 91.8386 302.225 124.582 290.421C157.733 278.468 173.521 248.803 190.254 223.057C209.772 193.064 234.406 164.089 267.829 142.392C279.475 134.841 292.295 128.255 305.874 123.035C331.23 113.252 359.278 108.144 387.142 110.331C420.598 112.961 451.476 125.56 479.847 139.026C537.413 166.231 588.117 198.487 631.967 237.95C645.056 249.725 657.519 262.127 669.327 275.243" stroke="#7B61FF" stroke-opacity="0.5" stroke-width="0.249919" stroke-miterlimit="10"/>
<path d="M-460.672 375.973C-461.199 325.386 -429.726 284.019 -379.647 229.854C-375.594 225.472 -371.645 221.013 -367.491 216.733C-353.645 202.539 -338.222 189.009 -319.585 181.734C-265.356 160.427 -208.524 188.072 -158.609 206.521C-117.029 221.888 -74.9732 240.351 -29.468 258.194C-14.2499 264.162 0.99878 270.127 16.4302 275.768C49.8956 288 88.0872 298.853 120.571 287.814C153.461 276.637 169.678 248.464 186.804 224.038C206.785 195.583 231.688 168.076 265.043 147.472C276.669 140.299 289.425 134.045 302.909 129.088C328.079 119.795 355.852 114.928 383.446 116.979C416.57 119.445 447.21 131.37 475.398 143.987C532.61 169.468 582.97 199.277 626.948 236.387C640.073 247.459 652.616 259.164 664.549 271.614" stroke="#7B61FF" stroke-opacity="0.5" stroke-width="0.249919" stroke-miterlimit="10"/>
<path d="M-462.609 372.88C-463.115 324.401 -430.454 286.434 -379.074 232.109C-375.012 227.814 -371.078 223.426 -366.936 219.216C-353.111 205.239 -337.829 191.898 -319.484 184.567C-266.047 163.059 -210.248 188.455 -160.346 205.993C-119.277 220.426 -77.5538 238.238 -32.0852 255.679C-16.9798 261.472 -1.85301 267.302 13.4505 272.819C46.6324 284.783 84.3303 295.472 116.558 285.201C149.186 274.797 165.833 248.122 183.355 225.015C203.802 198.097 228.973 172.058 262.262 152.542C273.866 145.75 286.554 139.827 299.947 135.132C324.932 126.333 352.431 121.7 379.753 123.619C412.545 125.924 442.947 137.172 470.949 148.942C527.808 172.696 577.823 200.061 621.927 234.815C635.091 245.185 647.71 256.19 659.768 267.979" stroke="#7B61FF" stroke-opacity="0.5" stroke-width="0.249919" stroke-miterlimit="10"/>
<path d="M-464.544 369.787C-465.029 323.416 -431.192 288.841 -378.498 234.363C-374.427 230.156 -370.505 225.835 -366.382 221.699C-352.575 207.937 -337.433 194.784 -319.384 187.397C-266.736 165.689 -211.976 188.844 -162.083 205.465C-121.533 218.973 -80.1382 236.129 -34.7 253.167C-19.7043 258.791 -4.70254 264.48 10.4699 269.872C43.3684 281.566 80.5758 292.094 112.545 282.587C144.91 272.957 161.987 247.781 179.905 225.991C200.819 200.611 226.254 176.039 259.479 157.615C271.062 151.204 283.687 145.611 296.985 141.178C321.787 132.871 349.011 128.477 376.056 130.258C408.516 132.4 438.684 142.973 466.497 153.893C523.002 175.923 572.673 200.843 616.902 233.243C630.102 242.91 642.8 253.218 654.98 264.342" stroke="#7B61FF" stroke-opacity="0.5" stroke-width="0.249919" stroke-miterlimit="10"/>
<path d="M-466.482 366.698C-466.945 322.435 -431.947 291.245 -377.922 236.618C-373.844 232.495 -369.935 228.246 -365.824 224.18C-352.038 210.635 -337.036 197.669 -319.277 190.228C-267.421 168.319 -213.709 189.24 -163.813 204.935C-123.787 217.526 -82.7188 234.019 -37.3081 250.651C-22.4251 256.103 -7.54512 261.653 7.49629 266.921C40.1114 278.347 76.8251 288.711 108.538 279.969C140.641 271.112 158.148 247.434 176.462 226.962C197.839 203.12 223.543 180.016 256.704 162.681C268.265 156.648 280.826 151.385 294.03 147.218C318.646 139.401 345.596 135.245 372.369 136.893C404.5 138.874 434.427 148.77 462.054 158.841C518.207 179.144 567.533 201.616 611.889 231.663C625.127 240.628 637.904 250.239 650.209 260.696" stroke="#7B61FF" stroke-opacity="0.5" stroke-width="0.249919" stroke-miterlimit="10"/>
<path d="M-468.418 363.605C-468.86 321.45 -432.716 293.635 -377.346 238.872C-373.263 234.834 -369.363 230.658 -365.27 226.662C-351.502 213.332 -336.641 200.555 -319.177 193.058C-268.113 170.949 -215.456 189.646 -165.551 204.407C-126.058 216.089 -85.3064 231.911 -39.9262 248.139C-25.156 253.422 -10.398 258.831 4.51242 263.975C36.8441 275.13 73.0672 285.336 104.518 277.356C136.359 269.275 154.293 247.09 173.006 227.941C194.849 205.634 220.818 184 253.912 167.754C265.452 162.102 277.946 157.17 291.058 153.267C315.488 145.942 342.164 142.022 368.666 143.535C400.465 145.355 430.158 154.574 457.595 163.798C513.394 182.377 562.376 202.403 606.858 230.094C620.135 238.356 632.988 247.27 645.415 257.062" stroke="#7B61FF" stroke-opacity="0.5" stroke-width="0.249919" stroke-miterlimit="10"/>
<path d="M-470.353 360.515C-470.771 320.468 -433.499 296.017 -376.771 241.13C-372.684 237.177 -368.799 233.063 -364.713 229.149C-350.994 216.011 -336.245 203.448 -319.074 195.894C-268.802 173.582 -217.206 190.064 -167.288 203.885C-128.332 214.67 -87.894 229.815 -42.5412 245.631C-27.8837 250.744 -13.2507 256.01 1.53477 261.03C33.5831 271.916 69.3126 281.959 100.508 274.744C132.087 267.435 150.45 246.748 169.556 228.917C191.865 208.149 218.099 187.982 251.129 172.828C262.648 167.557 275.078 162.955 288.096 159.315C312.343 152.483 338.745 148.801 364.97 150.178C396.436 151.834 425.891 160.379 453.143 168.754C508.588 185.606 557.226 203.188 601.832 228.525C615.146 236.085 628.079 244.302 640.63 253.43" stroke="#7B61FF" stroke-opacity="0.5" stroke-width="0.249919" stroke-miterlimit="10"/>
<path d="M-472.291 357.422C-472.687 319.483 -434.3 298.384 -376.194 243.385C-372.105 239.513 -368.229 235.475 -364.157 231.632C-350.46 218.708 -335.848 206.334 -318.969 198.724C-269.487 176.212 -218.963 190.49 -169.021 203.355C-130.61 213.251 -90.4775 227.71 -45.1552 243.117C-30.6135 248.06 -16.0993 253.185 -1.44489 258.081C30.32 268.696 65.5589 278.578 96.495 272.128C127.812 265.592 146.605 246.404 166.107 229.891C188.88 210.66 215.382 191.96 248.347 177.896C259.848 173.003 272.208 168.734 285.137 165.356C309.199 159.016 335.326 155.57 361.28 156.812C392.414 158.307 421.632 166.174 448.698 173.7C503.789 188.828 552.083 203.964 596.817 226.945C610.17 233.802 623.179 241.322 635.856 249.784" stroke="#7B61FF" stroke-opacity="0.5" stroke-width="0.249919" stroke-miterlimit="10"/>
<path d="M-474.225 354.329C-474.6 318.498 -435.113 300.74 -375.618 245.639C-371.526 241.849 -367.655 237.885 -363.599 234.115C-349.923 221.405 -335.452 209.221 -318.865 201.557C-270.176 178.844 -220.727 190.927 -170.755 202.829C-132.892 211.848 -93.0674 225.613 -47.7664 240.605C-33.3375 245.379 -18.9451 250.363 -4.42172 255.134C27.0598 265.482 61.805 275.2 92.4851 269.514C123.54 263.755 142.762 246.062 162.661 230.867C185.9 213.174 212.67 195.941 245.569 182.969C257.048 178.457 269.344 174.518 282.179 171.403C306.054 165.553 331.907 162.345 357.59 163.454C388.392 164.789 417.375 171.979 444.255 178.658C498.993 192.059 546.942 204.751 591.802 225.378C605.191 231.533 618.28 238.356 631.078 246.152" stroke="#7B61FF" stroke-opacity="0.5" stroke-width="0.249919" stroke-miterlimit="10"/>
<path d="M-476.163 351.24C-476.517 317.516 -435.945 303.085 -375.045 247.894C-370.953 244.186 -367.089 240.295 -363.048 236.598C-349.393 224.103 -335.059 212.108 -318.765 204.387C-270.868 181.474 -222.504 191.376 -172.492 202.299C-135.184 210.448 -95.6577 223.513 -50.3811 238.091C-36.065 242.699 -21.7947 247.538 -7.40231 252.186C23.7958 262.262 58.0505 271.82 88.4715 266.899C119.264 261.913 138.916 245.715 159.211 231.841C182.913 215.686 209.952 199.92 242.783 188.038C254.241 183.907 266.47 180.297 279.213 177.447C302.906 172.089 328.485 169.12 353.89 170.094C384.36 171.265 413.105 177.78 439.8 183.61C494.184 195.287 541.789 205.533 586.773 223.804C600.203 229.253 613.367 235.379 626.291 242.513" stroke="#7B61FF" stroke-opacity="0.5" stroke-width="0.249919" stroke-miterlimit="10"/>
<path d="M-478.098 348.147C-478.427 316.531 -436.789 305.413 -374.466 250.148C-370.373 246.519 -366.513 242.704 -362.487 239.081C-348.85 226.803 -334.641 215.025 -318.658 207.22C-271.501 184.194 -224.277 191.841 -174.223 201.774C-137.472 209.068 -98.2445 221.422 -52.9923 235.579C-38.792 240.021 -24.6403 244.716 -10.379 249.24C20.5357 259.048 54.2966 268.442 84.4617 264.286C114.996 260.073 135.074 245.374 155.762 232.817C179.93 218.2 207.234 203.902 240.001 193.111C251.438 189.358 263.603 186.082 276.252 183.494C299.759 178.63 325.063 175.895 350.197 176.733C380.338 177.744 408.845 183.582 435.351 188.562C489.382 198.512 536.643 206.314 581.755 222.232C595.221 226.978 608.464 232.408 621.513 238.878" stroke="#7B61FF" stroke-opacity="0.5" stroke-width="0.249919" stroke-miterlimit="10"/>
<path d="M-480.037 345.057C-480.344 315.55 -437.649 307.73 -373.894 252.406C-369.801 248.856 -365.943 245.12 -361.936 241.568C-348.321 229.504 -334.251 217.915 -318.561 210.057C-272.196 186.827 -226.064 192.321 -175.966 201.253C-139.78 207.703 -100.844 219.337 -55.6135 233.074C-41.5289 237.352 -27.4961 241.901 -13.3628 246.3C17.2686 255.837 50.5388 265.07 80.4449 261.681C110.717 258.244 131.222 245.041 152.309 233.802C176.943 220.723 204.512 207.892 237.216 198.191C248.631 194.819 260.732 191.873 273.287 189.548C296.607 185.174 321.638 182.679 346.501 183.382C376.309 184.229 404.579 189.395 430.898 193.526C484.576 201.752 531.495 207.108 576.729 220.669C590.235 224.713 603.552 229.445 616.725 235.25" stroke="#7B61FF" stroke-opacity="0.5" stroke-width="0.249919" stroke-miterlimit="10"/>
<path d="M-481.973 341.964C-482.259 314.562 -438.524 310.03 -373.315 254.661C-369.226 251.19 -365.371 247.53 -361.376 244.051C-347.779 232.205 -333.85 220.802 -318.452 212.887C-272.877 189.457 -227.844 192.815 -177.695 200.722C-142.075 206.34 -103.429 217.246 -58.2226 230.557C-44.2538 234.671 -30.34 239.07 -16.3377 243.348C14.0102 252.618 46.7869 261.69 76.437 259.063C106.447 256.399 127.382 244.694 148.865 234.773C173.962 223.229 201.799 211.865 234.439 203.256C245.833 200.265 257.866 197.649 270.33 195.586C293.468 191.703 318.224 189.446 342.813 190.013C372.289 190.699 400.321 195.188 426.455 198.47C479.779 204.969 526.354 207.878 571.713 219.089C585.255 222.43 598.651 226.465 611.949 231.604" stroke="#7B61FF" stroke-opacity="0.5" stroke-width="0.249919" stroke-miterlimit="10"/>
<path d="M-483.91 338.872C-484.175 313.577 -439.413 312.31 -372.742 256.912C-368.655 253.518 -364.8 249.94 -360.824 246.531C-347.248 234.899 -333.459 223.685 -318.354 215.717C-273.571 192.084 -229.638 193.323 -179.434 200.194C-144.381 204.991 -106.028 215.164 -60.8395 228.045C-46.9866 231.996 -33.1915 236.248 -19.3202 240.399C10.7443 249.398 43.0304 258.309 72.4215 256.447C102.169 254.556 123.534 244.347 145.413 235.746C170.977 225.74 199.079 215.844 231.651 208.326C243.024 205.713 254.994 203.431 267.363 201.633C290.315 198.241 314.797 196.221 339.111 196.655C368.255 197.18 396.053 200.993 421.997 203.425C474.968 208.199 521.199 208.662 566.685 217.517C580.264 220.155 593.739 223.494 607.163 227.966" stroke="#7B61FF" stroke-opacity="0.5" stroke-width="0.249919" stroke-miterlimit="10"/>
<path d="M-485.845 335.782C-486.086 312.595 -440.318 314.576 -372.166 259.17C-368.082 255.851 -364.227 252.352 -360.266 249.017C-346.709 237.603 -333.06 226.575 -318.25 218.55C-274.256 194.714 -231.43 193.853 -181.168 199.666C-146.685 203.654 -108.621 213.081 -63.451 225.531C-49.7139 229.318 -36.0407 233.424 -22.2974 237.45C7.48376 246.181 39.2791 254.929 68.4082 253.831C97.8937 252.716 119.688 244.003 141.964 236.719C167.994 228.251 196.364 219.822 228.869 213.394C240.22 211.162 252.123 209.21 264.401 207.675C287.167 204.777 311.375 202.993 335.418 203.29C364.23 203.651 391.789 206.789 417.548 208.374C470.166 211.422 516.052 209.441 561.664 215.94C575.282 217.875 588.833 220.517 602.378 224.323" stroke="#7B61FF" stroke-opacity="0.5" stroke-width="0.249919" stroke-miterlimit="10"/>
<path d="M-487.781 332.689C-488 311.61 -441.236 316.822 -371.588 261.424C-367.51 258.179 -363.655 254.762 -359.709 251.5C-346.17 240.303 -332.683 229.436 -318.144 221.383C-274.995 197.265 -233.219 194.404 -182.899 199.141C-148.986 202.333 -111.215 211.004 -66.0633 223.022C-52.442 226.648 -38.8876 230.604 -25.2753 234.507C4.22241 242.967 35.5242 251.554 64.3972 251.221C93.6207 250.879 115.845 243.664 138.513 237.698C165.007 230.768 193.645 223.807 226.086 218.471C237.416 216.62 249.255 214.997 261.438 213.724C284.021 211.317 307.952 209.771 331.724 209.935C360.207 210.135 387.529 212.596 413.102 213.332C465.366 214.656 510.907 210.228 556.644 214.373C570.299 215.607 583.929 217.548 597.6 220.694" stroke="#7B61FF" stroke-opacity="0.5" stroke-width="0.249919" stroke-miterlimit="10"/>
<path d="M-489.718 329.599C-489.916 310.628 -442.171 319.051 -371.014 263.682C-366.94 260.513 -363.085 257.178 -359.154 253.986C-345.633 243.007 -332.286 232.326 -318.043 224.216C-275.686 199.895 -235.013 194.974 -184.639 198.617C-151.295 201.027 -113.817 208.933 -68.6803 220.511C-55.1747 223.976 -41.7392 227.783 -28.255 231.561C0.959389 239.753 31.7706 248.176 60.3846 248.608C89.346 249.04 112 243.323 135.064 238.675C162.024 233.283 190.927 227.789 223.305 223.542C234.616 222.069 246.385 220.777 258.477 219.769C280.874 217.853 304.533 216.544 328.028 216.575C356.179 216.614 383.263 218.398 408.65 218.285C460.561 217.881 505.758 211.01 551.623 212.799C565.317 213.33 579.024 214.574 592.816 217.055" stroke="#7B61FF" stroke-opacity="0.5" stroke-width="0.249919" stroke-miterlimit="10"/>
<path d="M-491.654 326.507C-491.83 309.644 -443.116 321.255 -370.439 265.934C-366.37 262.838 -362.513 259.585 -358.6 256.467C-345.097 245.704 -331.893 235.21 -317.94 227.046C-276.375 202.525 -236.803 195.564 -186.373 198.086C-153.597 199.726 -116.414 206.856 -71.2924 217.997C-57.9026 221.301 -44.5859 224.955 -31.2327 228.613C-2.30177 236.533 28.0157 244.796 56.3738 245.992C85.0731 247.2 108.153 242.976 131.617 239.649C159.043 235.794 188.212 231.767 220.522 228.613C231.812 227.521 243.517 226.558 255.514 225.816C277.729 224.391 301.111 223.322 324.334 223.214C352.153 223.09 378.999 224.199 404.2 223.237C455.758 221.109 500.611 211.792 546.6 211.227C560.331 211.055 574.117 211.603 588.034 213.417" stroke="#7B61FF" stroke-opacity="0.5" stroke-width="0.249919" stroke-miterlimit="10"/>
<path d="M-493.592 323.414C-493.747 308.659 -444.082 323.439 -369.863 268.189C-365.801 265.164 -361.934 262.003 -358.042 258.95C-344.537 248.427 -331.494 238.097 -317.836 229.88C-277.061 205.158 -238.592 196.179 -188.107 197.562C-155.897 198.442 -119.01 204.794 -73.907 215.486C-60.6361 218.632 -47.4352 222.134 -34.213 225.667C-5.56547 233.32 24.2614 241.418 52.3605 243.379C80.7978 245.36 104.308 242.634 128.168 240.625C156.057 238.306 185.493 235.749 217.74 233.684C229.009 232.972 240.649 232.34 252.552 231.861C274.581 230.929 297.688 230.094 320.641 229.854C348.127 229.569 374.739 230.001 399.751 228.192C450.955 224.338 495.464 212.576 541.578 209.656C555.349 208.781 569.211 208.632 583.253 209.78" stroke="#7B61FF" stroke-opacity="0.5" stroke-width="0.249919" stroke-miterlimit="10"/>
<path d="M-495.527 320.324C-495.658 307.676 -445.058 325.603 -369.287 270.446C-365.231 267.494 -361.364 264.418 -357.488 261.433C-344.004 251.127 -331.101 240.986 -317.736 232.71C-277.752 207.787 -240.374 196.816 -189.844 197.031C-158.195 197.166 -121.609 202.725 -76.5216 212.971C-63.3665 215.959 -50.2845 219.309 -37.1934 222.715C-8.82919 230.097 20.5041 238.037 48.3471 240.76C76.5224 243.514 100.462 242.287 124.718 241.595C153.073 240.814 182.775 239.725 214.958 238.748C226.205 238.415 237.779 238.116 249.59 237.899C271.433 237.459 294.269 236.863 316.947 236.485C344.102 236.039 370.476 235.794 395.302 233.136C446.152 227.557 490.317 213.349 536.559 208.075C550.367 206.498 564.308 205.651 578.472 206.137" stroke="#7B61FF" stroke-opacity="0.5" stroke-width="0.249919" stroke-miterlimit="10"/>
<path d="M-497.465 317.231C-497.574 306.692 -446.048 327.742 -368.714 272.7C-364.664 269.819 -360.794 266.828 -356.933 263.916C-343.467 253.825 -330.705 243.873 -317.632 235.543C-278.441 210.42 -242.148 197.479 -191.578 196.506C-160.484 195.907 -124.206 200.668 -79.1362 210.46C-66.0968 213.293 -53.1336 216.487 -40.1704 219.769C-12.0897 226.882 16.7529 234.659 44.3369 238.15C72.2501 241.677 96.6192 241.948 121.269 242.574C150.087 243.331 180.057 243.709 212.175 243.825C223.402 243.873 234.911 243.904 246.628 243.949C268.288 244 290.847 243.641 313.251 243.13C340.073 242.521 366.213 241.601 390.85 238.093C441.347 230.788 485.167 214.134 531.534 206.506C545.378 204.226 559.399 202.683 573.688 202.502" stroke="#7B61FF" stroke-opacity="0.5" stroke-width="0.249919" stroke-miterlimit="10"/>
<path d="M-499.4 314.141C-499.488 305.71 -447.053 329.859 -368.135 274.958C-364.094 272.147 -360.218 269.241 -356.375 266.402C-342.93 256.529 -330.309 246.762 -317.528 238.376C-279.129 213.05 -243.912 198.168 -193.315 195.981C-162.769 194.66 -126.808 198.614 -81.7504 207.951C-68.8299 210.629 -55.9825 213.668 -43.1504 216.826C-15.353 223.669 12.9959 231.285 40.324 235.54C67.9751 239.843 92.7739 241.607 117.82 243.554C147.104 245.848 177.342 247.693 209.394 248.898C220.599 249.327 232.041 249.688 243.67 249.996C265.144 250.538 287.429 250.416 309.561 249.77C336.054 249 361.953 247.403 386.405 243.049C436.548 234.019 480.023 214.918 526.516 204.935C540.399 201.952 554.496 199.711 568.91 198.865" stroke="#7B61FF" stroke-opacity="0.5" stroke-width="0.249919" stroke-miterlimit="10"/>
<path d="M-501.337 311.049C-501.405 304.725 -448.071 331.947 -367.562 277.21C-363.527 274.467 -359.651 271.651 -355.82 268.882C-342.394 259.223 -329.912 249.646 -317.428 241.206C-279.818 215.68 -245.667 198.879 -195.052 195.451C-165.048 193.419 -129.41 196.56 -84.3649 205.434C-71.5601 207.957 -58.8347 210.838 -46.1306 213.874C-18.6166 220.449 9.24171 227.901 36.3077 232.921C63.6968 237.998 88.9252 241.26 114.367 244.525C144.118 248.357 174.621 251.669 206.605 253.966C217.789 254.773 229.168 255.468 240.702 256.04C261.99 257.076 284.003 257.192 305.862 256.41C332.023 255.476 357.684 253.205 381.953 248.001C431.742 237.247 474.873 215.7 521.494 203.363C535.414 199.678 549.59 196.737 564.125 195.228" stroke="#7B61FF" stroke-opacity="0.5" stroke-width="0.249919" stroke-miterlimit="10"/>
<path d="M-503.273 307.956C-503.316 303.74 -449.101 334.009 -366.986 279.464C-362.961 276.789 -359.078 274.06 -355.266 271.365C-341.861 261.923 -329.52 252.535 -317.324 244.036C-280.507 218.31 -247.407 199.615 -196.786 194.923C-167.316 192.191 -132.007 194.513 -86.9799 202.922C-74.294 205.293 -61.6843 208.016 -49.1112 210.928C-21.8807 217.232 5.48395 224.523 32.294 230.308C59.421 236.158 85.0791 240.918 110.917 245.501C141.131 250.87 171.903 255.651 203.823 259.037C214.985 260.225 226.297 261.249 237.739 262.084C258.845 263.611 280.581 263.964 302.165 263.049C327.994 261.954 353.42 259.006 377.5 252.953C426.936 240.472 469.723 216.481 516.469 201.788C530.428 197.4 544.68 193.763 559.341 191.59" stroke="#7B61FF" stroke-opacity="0.5" stroke-width="0.249919" stroke-miterlimit="10"/>
<path d="M-505.208 304.866C-505.229 302.758 -450.146 336.047 -366.407 281.722C-362.387 279.114 -358.505 276.476 -354.705 273.852C-341.321 264.624 -329.117 255.425 -317.217 246.872C-281.192 220.946 -249.126 200.383 -198.516 194.398C-169.567 190.975 -134.612 192.524 -89.5881 200.411C-77.0211 202.643 -64.5272 205.194 -52.0851 207.982C-25.1379 214.018 1.73612 221.146 28.2871 227.695C55.152 234.321 81.2369 240.577 107.474 246.477C138.154 253.385 169.191 259.632 201.047 264.111C212.188 265.68 223.435 267.034 234.784 268.132C255.703 270.149 277.165 270.739 298.478 269.689C323.975 268.434 349.164 264.81 373.057 257.908C422.14 243.703 464.583 217.266 511.453 200.219C525.449 195.129 539.781 190.795 554.563 187.956" stroke="#7B61FF" stroke-opacity="0.5" stroke-width="0.249919" stroke-miterlimit="10"/>
<path d="M-507.146 301.773C-507.146 301.773 -451.207 338.056 -365.834 283.976C-280.461 229.896 -251.073 171.547 -92.2055 197.9C17.5761 216.112 121.141 260.781 231.816 274.176C277.351 279.687 325.075 277.091 368.602 262.86C417.331 246.929 459.43 218.047 506.428 198.645C520.464 192.852 534.868 187.82 549.779 184.316" stroke="#7B61FF" stroke-opacity="0.5" stroke-width="0.249919" stroke-miterlimit="10"/>
</g>
</svg>
