<svg width="36" height="20" viewBox="0 0 36 20" fill="none" xmlns="http://www.w3.org/2000/svg">
<path d="M20 10C20 15.531 15.5111 20 10 20C4.48889 20 0 15.5752 0 10C0 4.42478 4.48889 0 10 0C15.5111 0 20 4.46903 20 10Z" fill="#393E46"/>
<path d="M30.9811 10.0004C30.9811 15.3231 28.7928 19.6083 26.0792 19.6083C23.3656 19.6083 21.1772 15.3231 21.1772 10.0004C21.1772 4.67777 23.3656 0.392578 26.0792 0.392578C28.749 0.392578 30.9811 4.72287 30.9811 10.0004Z" fill="#393E46"/>
<path d="M35.6855 10.0002C35.6855 14.6353 34.8914 18.4316 33.9208 18.4316C32.9502 18.4316 32.1561 14.6353 32.1561 10.0002C32.1561 5.36517 32.9502 1.56885 33.9208 1.56885C34.9355 1.56885 35.6855 5.36517 35.6855 10.0002Z" fill="#393E46"/>
</svg>
