<svg width="32" height="18" viewBox="0 0 32 18" fill="none" xmlns="http://www.w3.org/2000/svg">
<path fill-rule="evenodd" clip-rule="evenodd" d="M3.07461 0.592469C3.53181 0.166443 4.27307 0.166443 4.73027 0.592469L8.56013 4.1612C10.7827 3.07147 13.3141 2.45477 16 2.45477C18.6859 2.45477 21.2173 3.07147 23.4399 4.1612L27.2697 0.592469C27.7269 0.166443 28.4682 0.166443 28.9254 0.592469C29.3826 1.0185 29.3826 1.70922 28.9254 2.13525L25.4759 5.34952C29.4326 8.06376 32 12.4344 32 17.3639C32 17.4854 31.9984 17.6066 31.9953 17.7275H0.00466591C0.00156119 17.6066 0 17.4854 0 17.3639C0 12.4344 2.56736 8.06376 6.52407 5.34952L3.07461 2.13525C2.61741 1.70922 2.61741 1.0185 3.07461 0.592469ZM9.7561 12.6366C10.6182 12.6366 11.3171 11.9854 11.3171 11.182C11.3171 10.3787 10.6182 9.72749 9.7561 9.72749C8.894 9.72749 8.19512 10.3787 8.19512 11.182C8.19512 11.9854 8.894 12.6366 9.7561 12.6366ZM23.8049 11.182C23.8049 11.9854 23.106 12.6366 22.2439 12.6366C21.3818 12.6366 20.6829 11.9854 20.6829 11.182C20.6829 10.3787 21.3818 9.72749 22.2439 9.72749C23.106 9.72749 23.8049 10.3787 23.8049 11.182Z" fill="#F2F2F2"/>
</svg>
