<svg width="24" height="18" viewBox="0 0 24 18" fill="none" xmlns="http://www.w3.org/2000/svg">
<path d="M20.307 1.64285C18.787 0.959204 17.1412 0.46301 15.4269 0.17632C15.4119 0.175856 15.3969 0.178578 15.3831 0.184293C15.3693 0.190009 15.3569 0.198579 15.3469 0.2094C15.1412 0.573276 14.9012 1.04742 14.7412 1.41129C12.9228 1.14665 11.0736 1.14665 9.2553 1.41129C9.0953 1.03639 8.85529 0.573276 8.63814 0.2094C8.62671 0.187347 8.59242 0.17632 8.55814 0.17632C6.8438 0.46301 5.20947 0.959204 3.678 1.64285C3.66657 1.64285 3.65515 1.65387 3.64372 1.6649C0.53506 6.1527 -0.322107 10.5192 0.100762 14.8416C0.100762 14.8637 0.11219 14.8857 0.135048 14.8967C2.19225 16.3522 4.16945 17.2344 6.12379 17.8188C6.15807 17.8298 6.19236 17.8188 6.20379 17.7967C6.66094 17.1903 7.07238 16.5507 7.42668 15.8781C7.44954 15.834 7.42668 15.7899 7.38096 15.7789C6.72952 15.5363 6.11236 15.2496 5.50662 14.9188C5.46091 14.8967 5.46091 14.8306 5.4952 14.7975C5.62091 14.7093 5.74663 14.61 5.87235 14.5218C5.89521 14.4998 5.92949 14.4998 5.95235 14.5108C9.88389 16.242 14.124 16.242 18.0098 14.5108C18.0327 14.4998 18.067 14.4998 18.0898 14.5218C18.2155 14.6211 18.3413 14.7093 18.467 14.8085C18.5127 14.8416 18.5127 14.9078 18.4556 14.9298C17.8612 15.2716 17.2327 15.5473 16.5812 15.7899C16.5355 15.8009 16.5241 15.856 16.5355 15.8891C16.9012 16.5617 17.3127 17.2013 17.7584 17.8077C17.7927 17.8188 17.827 17.8298 17.8612 17.8188C19.827 17.2344 21.8042 16.3522 23.8614 14.8967C23.8843 14.8857 23.8957 14.8637 23.8957 14.8416C24.3986 9.84658 23.0614 5.51316 20.3527 1.6649C20.3413 1.65387 20.3299 1.64285 20.307 1.64285ZM8.02098 12.2063C6.84381 12.2063 5.86092 11.1587 5.86092 9.86864C5.86092 8.57853 6.82095 7.53101 8.02098 7.53101C9.23244 7.53101 10.1925 8.58956 10.181 9.86864C10.181 11.1587 9.22101 12.2063 8.02098 12.2063ZM15.9869 12.2063C14.8097 12.2063 13.8269 11.1587 13.8269 9.86864C13.8269 8.57853 14.7869 7.53101 15.9869 7.53101C17.1984 7.53101 18.1584 8.58956 18.147 9.86864C18.147 11.1587 17.1984 12.2063 15.9869 12.2063Z" fill="#393E46"/>
</svg>
