<svg width="25" height="24" viewBox="0 0 25 24" fill="none" xmlns="http://www.w3.org/2000/svg">
<path fill-rule="evenodd" clip-rule="evenodd" d="M12.2638 0C5.63379 0 0.263794 5.37 0.263794 12C0.263794 17.31 3.69879 21.795 8.46879 23.385C9.06879 23.49 9.29379 23.13 9.29379 22.815C9.29379 22.53 9.27879 21.585 9.27879 20.58C6.26379 21.135 5.48379 19.845 5.24379 19.17C5.10879 18.825 4.52379 17.76 4.01379 17.475C3.59379 17.25 2.99379 16.695 3.99879 16.68C4.94379 16.665 5.61879 17.55 5.84379 17.91C6.92379 19.725 8.64879 19.215 9.33879 18.9C9.44379 18.12 9.75879 17.595 10.1038 17.295C7.43379 16.995 4.64379 15.96 4.64379 11.37C4.64379 10.065 5.10879 8.985 5.87379 8.145C5.75379 7.845 5.33379 6.615 5.99379 4.965C5.99379 4.965 6.99879 4.65 9.29379 6.195C10.2538 5.925 11.2738 5.79 12.2938 5.79C13.3138 5.79 14.3338 5.925 15.2938 6.195C17.5888 4.635 18.5938 4.965 18.5938 4.965C19.2538 6.615 18.8338 7.845 18.7138 8.145C19.4788 8.985 19.9438 10.05 19.9438 11.37C19.9438 15.975 17.1388 16.995 14.4688 17.295C14.9038 17.67 15.2788 18.39 15.2788 19.515C15.2788 21.12 15.2638 22.41 15.2638 22.815C15.2638 23.13 15.4888 23.505 16.0888 23.385C20.8288 21.795 24.2638 17.295 24.2638 12C24.2638 5.37 18.8938 0 12.2638 0Z" fill="#393E46"/>
</svg>
