<svg width="36" height="24" viewBox="0 0 36 24" fill="none" xmlns="http://www.w3.org/2000/svg">
<g clip-path="url(#clip0_50_1168)">
<path d="M35.3523 12C35.3523 5.37185 29.9805 0 23.3523 0C21.4353 0 19.6264 0.451852 18.019 1.25037C16.4116 0.451852 14.6027 0 12.6857 0C6.05752 0 0.685669 5.37185 0.685669 12C0.685669 14.2948 1.33011 16.4385 2.44715 18.2607L0.685669 22.6667L4.78197 21.0252C6.89308 22.8756 9.65752 24 12.6857 24C14.6027 24 16.4116 23.5481 18.019 22.7496C19.6264 23.5481 21.4353 24 23.3523 24C26.3805 24 29.1449 22.8756 31.256 21.0252L35.3523 22.6667L33.5909 18.2607C34.7079 16.4385 35.3523 14.2948 35.3523 12ZM17.902 12.4415L15.3627 16.8859C15.3627 16.8859 15.3553 16.8963 15.3523 16.9007C15.1923 17.1689 14.9034 17.3333 14.5909 17.3333H14.019V14.6667H11.3523V17.3333H9.44715C9.12863 17.3333 8.83382 17.163 8.6753 16.8859L6.13604 12.4415C6.05752 12.3052 6.019 12.1526 6.019 12C6.019 11.8474 6.05752 11.6963 6.13604 11.5585L8.6753 7.11407C8.83382 6.83704 9.12863 6.66667 9.44715 6.66667H14.5894C14.902 6.66667 15.1909 6.83259 15.3509 7.09926C15.3538 7.1037 15.3583 7.10963 15.3612 7.11407L16.6294 9.33333H10.8723C10.5538 9.33333 10.259 9.5037 10.1005 9.78074L9.08419 11.5585C9.00567 11.6948 8.96715 11.8474 8.96715 12C8.96715 12.1526 9.00567 12.3037 9.08419 12.4415L9.939 13.9363L10.1005 14.2193C10.259 14.4963 10.5538 14.6667 10.8723 14.6667H11.3523V11.9985H18.0205C18.019 12.1511 17.979 12.3037 17.902 12.44V12.4415ZM22.019 16.7644L21.9494 16.8859C21.7909 17.163 21.496 17.3333 21.1775 17.3333H20.1938C19.8753 17.3333 19.5805 17.163 19.422 16.8859L19.3523 16.7644V7.23556L19.422 7.11407C19.5805 6.83704 19.8753 6.66667 20.1938 6.66667H21.1775C21.496 6.66667 21.7909 6.83704 21.9494 7.11407L22.019 7.23556V16.763V16.7644ZM26.019 15.4311L25.9494 15.5526C25.7909 15.8296 25.496 16 25.1775 16H24.1938C23.8753 16 23.5805 15.8296 23.422 15.5526L23.3523 15.4311V8.57037L23.422 8.44889C23.5805 8.17185 23.8753 8.00148 24.1938 8.00148H25.1775C25.496 8.00148 25.7909 8.17185 25.9494 8.44889L26.019 8.57037V15.4311ZM30.019 16.7644L29.9494 16.8859C29.7909 17.163 29.496 17.3333 29.1775 17.3333H28.1938C27.8753 17.3333 27.5805 17.163 27.422 16.8859L27.3523 16.7644V7.23556L27.422 7.11407C27.5805 6.83704 27.8753 6.66667 28.1938 6.66667H29.1775C29.496 6.66667 29.7909 6.83704 29.9494 7.11407L30.019 7.23556V16.763V16.7644Z" fill="#393E46"/>
</g>
<defs>
<clipPath id="clip0_50_1168">
<rect width="34.6667" height="24" fill="white" transform="translate(0.685669)"/>
</clipPath>
</defs>
</svg>
