<svg width="28" height="32" viewBox="0 0 28 32" fill="none" xmlns="http://www.w3.org/2000/svg">
<path d="M9.11187 32C8.05322 31.9426 7.05701 31.481 6.32889 30.7104C5.45779 29.8723 4.68045 28.942 4.01059 27.9358C2.9642 26.4374 2.13707 24.7973 1.55423 23.0652C0.894605 21.2017 0.547597 19.2419 0.52724 17.2652C0.475996 15.3256 0.956319 13.409 1.9162 11.7228C2.61922 10.5074 3.62199 9.49251 4.82881 8.77487C6.02228 8.0603 7.38419 7.67566 8.77515 7.66034C9.82372 7.72237 10.8541 7.96204 11.8224 8.36913C12.5952 8.70921 13.4067 8.94828 14.2401 9.0796C15.1594 8.88703 16.0576 8.60509 16.922 8.23781C17.9451 7.83835 19.0283 7.61465 20.1259 7.57616C20.2724 7.57616 20.4172 7.57616 20.5569 7.59299C22.9644 7.66202 25.2036 8.8439 26.6178 10.7918C25.5141 11.3821 24.5957 12.267 23.9647 13.3479C23.3337 14.4289 23.0149 15.6637 23.0436 16.915C23.0326 17.8719 23.2245 18.8202 23.6067 19.6975C23.9889 20.5747 24.5526 21.361 25.2609 22.0045C25.9057 22.619 26.6566 23.1106 27.4765 23.4575C27.3081 23.9625 27.1145 24.4508 26.9091 24.9424C26.4428 26.0287 25.8674 27.065 25.1918 28.0351C24.5531 29.007 23.8095 29.9058 22.9745 30.7154C22.2129 31.4712 21.1977 31.917 20.1259 31.9663C19.2174 31.9261 18.3248 31.7129 17.4961 31.3384C16.6025 30.9491 15.6421 30.7358 14.6677 30.7104C13.6658 30.7301 12.677 30.9422 11.7551 31.335C10.9588 31.6942 10.1081 31.9179 9.23813 31.9966L9.11187 32ZM14.4152 7.57616C14.2889 7.57616 14.1626 7.57616 14.0364 7.561C14.0098 7.3606 13.9958 7.15874 13.9943 6.95659C14.0493 5.27491 14.7066 3.66894 15.8462 2.4311C16.4837 1.71971 17.2563 1.14225 18.1191 0.732362C18.9231 0.318459 19.8017 0.0694591 20.7034 0C20.7286 0.22055 20.7286 0.43605 20.7286 0.641448C20.705 2.2967 20.083 3.88745 18.9777 5.1198C18.4425 5.83738 17.7568 6.42912 16.9686 6.85347C16.1804 7.27781 15.3089 7.52448 14.4152 7.57616Z" fill="#F2F2F2"/>
</svg>
