<svg width="24" height="20" viewBox="0 0 24 20" fill="none" xmlns="http://www.w3.org/2000/svg">
<path fill-rule="evenodd" clip-rule="evenodd" d="M1.64987 8.61747C8.09231 5.8106 12.3883 3.96014 14.5378 3.0661C20.675 0.513404 21.9503 0.0699742 22.7815 0.0553319C22.9643 0.0521115 23.3731 0.097419 23.6378 0.312268C23.8614 0.493682 23.9229 0.738746 23.9524 0.910746C23.9818 1.08275 24.0185 1.47457 23.9893 1.78073C23.6568 5.27517 22.2177 13.7553 21.4856 17.6691C21.1758 19.3252 20.5658 19.8805 19.9753 19.9348C18.6919 20.0529 17.7174 19.0867 16.4744 18.2719C14.5294 16.9969 13.4305 16.2032 11.5425 14.959C9.36064 13.5212 10.7751 12.7309 12.0185 11.4394C12.344 11.1014 17.9985 5.95822 18.1079 5.49165C18.1216 5.4333 18.1343 5.21579 18.0051 5.10093C17.8759 4.98608 17.6851 5.02535 17.5475 5.05659C17.3524 5.10087 14.2452 7.15463 8.22584 11.2179C7.34386 11.8235 6.54499 12.1186 5.82924 12.1031C5.04017 12.0861 3.52233 11.657 2.39397 11.2902C1.00999 10.8403 -0.0899676 10.6025 0.00581422 9.83842C0.0557033 9.44047 0.603724 9.03348 1.64987 8.61747Z" fill="#393E46"/>
</svg>
