<svg width="24" height="20" viewBox="0 0 24 20" fill="none" xmlns="http://www.w3.org/2000/svg">
<path d="M7.54776 20C16.6048 20 21.5578 12.3062 21.5578 5.6344C21.5578 5.4159 21.5534 5.1984 21.5438 4.9818C22.5075 4.26676 23.3393 3.38142 24 2.3673C23.1177 2.7695 22.1683 3.0402 21.1723 3.16225C22.1889 2.5372 22.9694 1.54835 23.3376 0.36965C22.371 0.957597 21.3136 1.37207 20.2109 1.5952C19.3123 0.6138 18.0331 0 16.6166 0C13.8974 0 11.6923 2.2611 11.6923 5.04825C11.6923 5.4445 11.7356 5.8298 11.8201 6.1995C7.72766 5.98835 4.09878 3.97925 1.67015 0.9243C1.23273 1.69482 1.00265 2.57053 1.00341 3.462C1.00341 5.2137 1.87268 6.76005 3.19463 7.66475C2.41268 7.64026 1.6479 7.42369 0.964585 7.03325C0.963854 7.05445 0.963854 7.0751 0.963854 7.09775C0.963854 9.5429 2.66112 11.5844 4.91419 12.047C4.49104 12.1652 4.05439 12.225 3.6158 12.2247C3.29907 12.2247 2.99039 12.1927 2.69039 12.1337C3.31727 14.1398 5.13502 15.5996 7.29019 15.6404C5.60488 16.9949 3.4819 17.8016 1.17454 17.8016C0.782024 17.802 0.389833 17.7786 0 17.7317C2.17922 19.164 4.76659 20 7.54776 20Z" fill="#393E46"/>
</svg>
