<?xml version="1.0" encoding="UTF-8"?>
<svg id="Layer_2" data-name="Layer 2" xmlns="http://www.w3.org/2000/svg" xmlns:xlink="http://www.w3.org/1999/xlink" viewBox="0 0 234 216.51">
  <defs>
    <style>
      .cls-1 {
        fill: url(#linear-gradient-2);
      }

      .cls-2 {
        fill: #fff;
      }

      .cls-3 {
        fill: url(#linear-gradient-6);
      }

      .cls-4 {
        fill: url(#linear-gradient-5);
      }

      .cls-5 {
        fill: url(#linear-gradient-7);
      }

      .cls-6 {
        fill: url(#linear-gradient-3);
      }

      .cls-7 {
        fill: url(#linear-gradient);
      }

      .cls-8 {
        fill: url(#linear-gradient-4);
      }
    </style>
    <linearGradient id="linear-gradient" x1="227.12" y1="171.44" x2="-6.22" y2="10.94" gradientUnits="userSpaceOnUse">
      <stop offset="0" stop-color="#8c56ff"/>
      <stop offset="1" stop-color="#8a86f1"/>
    </linearGradient>
    <linearGradient id="linear-gradient-2" x1="220.67" y1="310.78" x2="-43.54" y2="144.2" gradientUnits="userSpaceOnUse">
      <stop offset="0" stop-color="#8c56ff"/>
      <stop offset="1" stop-color="#8a86f1"/>
    </linearGradient>
    <linearGradient id="linear-gradient-3" x1="226.2" y1="302" x2="-38" y2="135.43" xlink:href="#linear-gradient-2"/>
    <linearGradient id="linear-gradient-4" x1="234.35" y1="289.08" x2="-29.85" y2="122.5" xlink:href="#linear-gradient-2"/>
    <linearGradient id="linear-gradient-5" x1="242.41" y1="276.3" x2="-21.8" y2="109.72" xlink:href="#linear-gradient-2"/>
    <linearGradient id="linear-gradient-6" x1="252.75" y1="259.88" x2="-11.45" y2="93.31" xlink:href="#linear-gradient-2"/>
    <linearGradient id="linear-gradient-7" x1="263.57" y1="242.73" x2="-.63" y2="76.15" xlink:href="#linear-gradient-2"/>
  </defs>
  <g id="Layer_1-2" data-name="Layer 1">
    <g>
      <g>
        <path class="cls-7" d="M222.11,123.26c7.54-12.3,11.89-26.77,11.89-42.26C234,36.26,197.74,0,153,0c-12.94,0-25.15,3.05-36,8.44C106.15,3.05,93.94,0,81,0,36.26,0,0,36.26,0,81c0,15.49,4.35,29.96,11.89,42.26L0,153l27.65-11.08c14.25,12.49,32.91,20.08,53.35,20.08,12.94,0,25.15-3.05,36-8.44,10.85,5.39,23.06,8.44,36,8.44,20.44,0,39.1-7.59,53.35-20.08l27.65,11.08-11.89-29.74Z"/>
        <g>
          <path class="cls-2" d="M192.86,45h-7.18c-2.15,0-4.14,1.15-5.21,3.02l-.47,.82V113.16l.47,.82c1.07,1.87,3.06,3.02,5.21,3.02h7.18c2.11,0,4.06-1.12,5.14-2.92V47.92c-1.08-1.81-3.03-2.92-5.14-2.92Z"/>
          <path class="cls-2" d="M138.86,45h-7.18c-2.15,0-4.14,1.15-5.21,3.02l-.47,.82V113.16l.47,.82c1.07,1.87,3.06,3.02,5.21,3.02h7.18c2.11,0,4.06-1.12,5.14-2.92V47.92c-1.08-1.81-3.03-2.92-5.14-2.92Z"/>
          <path class="cls-2" d="M165.86,54h-7.18c-2.15,0-4.14,1.15-5.21,3.02l-.47,.82v46.31l.47,.82c1.07,1.87,3.06,3.02,5.21,3.02h7.18c2.11,0,4.06-1.12,5.14-2.92V56.92c-1.08-1.81-3.03-2.92-5.14-2.92Z"/>
          <path class="cls-2" d="M99,81h-27v18h18v18h3.86c2.11,0,4.06-1.12,5.14-2.92,.02-.03,.05-.07,.07-.1l3.42-5.98,10.29-18,3.44-6.02c.53-.92,.79-1.95,.79-2.98h-18Z"/>
          <path class="cls-2" d="M63.55,95.98l-1.09-1.91-2.33-4.07-3.44-6.02c-.53-.92-.79-1.95-.79-2.98s.26-2.05,.79-2.98l3.44-6.02,2.33-4.07,1.09-1.91c1.07-1.87,3.06-3.02,5.21-3.02h38.86l-5.14-9-3.42-5.98s-.05-.07-.07-.1c-1.08-1.81-3.03-2.92-5.14-2.92H59.14c-2.15,0-4.14,1.15-5.21,3.02l-.47,.82-2.95,5.16-5.14,9-.91,1.59-4.23,7.41-3.44,6.02c-.53,.92-.79,1.95-.79,2.98s.26,2.05,.79,2.98l3.44,6.02,4.23,7.41,.91,1.59,5.14,9,2.95,5.16,.47,.82c1.07,1.87,3.06,3.02,5.21,3.02h12.86v-18h-3.24c-2.15,0-4.14-1.15-5.21-3.02Z"/>
        </g>
      </g>
      <g>
        <path class="cls-1" d="M46.13,207.69c-1.28,.52-2.76,.78-4.45,.78-1.45,0-2.77-.24-3.97-.73-1.2-.49-2.23-1.2-3.11-2.12-.88-.93-1.56-2.03-2.05-3.31-.49-1.28-.73-2.71-.73-4.3s.24-3.01,.73-4.3c.49-1.28,1.17-2.38,2.05-3.31,.88-.93,1.91-1.63,3.11-2.1,1.2-.47,2.52-.71,3.97-.71,1.68,0,3.15,.27,4.4,.81,1.25,.54,2.29,1.28,3.13,2.22l6.07-6.07c-1.72-1.58-3.71-2.82-5.96-3.72-2.26-.89-4.8-1.34-7.63-1.34s-5.2,.47-7.51,1.41c-2.31,.94-4.33,2.24-6.07,3.89-1.74,1.65-3.08,3.6-4.04,5.84-.96,2.24-1.44,4.69-1.44,7.35s.48,5.07,1.44,7.33c.96,2.26,2.31,4.22,4.04,5.89,1.73,1.67,3.77,2.97,6.09,3.89,2.33,.93,4.85,1.39,7.58,1.39,2.96,0,5.55-.44,7.76-1.31s4.19-2.11,5.94-3.69l-6.06-6.07c-.91,.98-2.01,1.73-3.29,2.25Z"/>
        <path class="cls-6" d="M76.67,192.48c-1.43-.77-3.12-1.16-5.06-1.16s-3.52,.39-4.94,1.16c-.43,.23-.81,.5-1.18,.79v-13.31h-8.59v36h8.59v-13.63c0-.76,.15-1.4,.44-1.93,.3-.53,.72-.94,1.26-1.24,.54-.3,1.16-.44,1.85-.44,1.02,0,1.86,.32,2.52,.96,.66,.64,.99,1.52,.99,2.64v13.63h8.59v-15.61c0-1.78-.39-3.34-1.16-4.69-.77-1.35-1.88-2.41-3.31-3.18Z"/>
        <path class="cls-8" d="M100.3,193.54c-.61-.52-1.28-.98-2.07-1.33-1.25-.54-2.63-.81-4.14-.81-2.24,0-4.23,.54-5.97,1.6-1.74,1.07-3.11,2.56-4.09,4.46-.99,1.91-1.48,4.08-1.48,6.51s.49,4.55,1.48,6.44,2.35,3.38,4.09,4.46c1.74,1.09,3.73,1.63,5.97,1.63,1.51,0,2.89-.28,4.14-.84,.79-.35,1.46-.82,2.07-1.34v1.68h8.43v-24.12h-8.43v1.65Zm-4.39,15.32c-.89,0-1.69-.21-2.42-.64-.72-.43-1.28-1.01-1.68-1.75-.4-.74-.59-1.59-.59-2.54s.2-1.75,.62-2.49c.41-.74,.97-1.32,1.68-1.75,.71-.43,1.52-.64,2.44-.64s1.73,.21,2.44,.64c.71,.43,1.26,1,1.65,1.73,.39,.72,.59,1.56,.59,2.52,0,1.45-.44,2.63-1.31,3.55-.87,.92-2.01,1.38-3.43,1.38Z"/>
        <polygon class="cls-4" points="124.05 181.93 115.47 181.93 115.47 191.89 110.14 191.89 110.14 199.04 115.47 199.04 115.47 216.01 124.05 216.01 124.05 199.04 129.38 199.04 129.38 191.89 124.05 191.89 124.05 181.93"/>
        <path class="cls-3" d="M153.14,202.56l9.65,.24c-.15,.45-.32,.88-.52,1.28-.72,1.42-1.77,2.49-3.13,3.24-1.36,.74-3.03,1.11-4.98,1.11s-3.68-.44-5.18-1.31-2.68-2.11-3.54-3.69-1.29-3.42-1.29-5.51,.45-3.91,1.36-5.46c.91-1.55,2.13-2.75,3.66-3.61,1.53-.86,3.28-1.29,5.23-1.29s3.61,.36,5.05,1.09c1.45,.72,2.78,1.81,3.99,3.26l6.07-6.06c-1.62-1.99-3.72-3.55-6.32-4.68-2.6-1.13-5.49-1.69-8.69-1.69-2.7,0-5.23,.46-7.61,1.39s-4.46,2.22-6.24,3.89c-1.79,1.67-3.18,3.62-4.17,5.86-.99,2.24-1.49,4.69-1.49,7.35s.48,5.06,1.44,7.3,2.31,4.2,4.04,5.89c1.73,1.69,3.76,2.99,6.07,3.92,2.31,.93,4.83,1.39,7.56,1.39,3.64,0,6.83-.77,9.58-2.3s4.89-3.78,6.45-6.75c1.55-2.96,2.33-6.59,2.33-10.87v-1.36h-19.31v7.38Z"/>
        <polygon class="cls-5" points="204.88 180.01 192.67 198.53 180.41 180.01 173.86 180.01 173.86 216.01 182.9 216.01 182.9 197.6 189.7 207.89 195.59 207.89 202.44 197.58 202.44 216.01 211.43 216.01 211.43 180.01 204.88 180.01"/>
      </g>
    </g>
  </g>
</svg>