<svg width="219" height="51" viewBox="0 0 219 51" fill="none" xmlns="http://www.w3.org/2000/svg">
<path d="M12.5002 25.4182L74.5 25.5818" stroke="url(#paint0_linear_571_9375)" stroke-width="2"/>
<circle cx="6" cy="6" r="5" transform="matrix(4.37114e-08 -1 -1 -4.37114e-08 12.5002 31.5)" fill="#131416" fill-opacity="0.5" stroke="url(#paint1_linear_571_9375)" stroke-width="2"/>
<g filter="url(#filter0_b_571_9375)">
<rect x="74.5" y="0.5" width="144" height="50" rx="10" fill="#121212" fill-opacity="0.5"/>
<path d="M99.3959 29.56C98.7959 29.56 98.2519 29.44 97.7639 29.2C97.2759 28.952 96.8519 28.624 96.4919 28.216C96.1399 27.808 95.8679 27.348 95.6759 26.836C95.4839 26.316 95.3879 25.784 95.3879 25.24C95.3879 24.672 95.4879 24.132 95.6879 23.62C95.8959 23.1 96.1799 22.64 96.5399 22.24C96.9079 21.832 97.3359 21.512 97.8239 21.28C98.3119 21.04 98.8439 20.92 99.4199 20.92C100.02 20.92 100.564 21.044 101.052 21.292C101.54 21.54 101.96 21.872 102.312 22.288C102.664 22.704 102.936 23.168 103.128 23.68C103.32 24.192 103.416 24.716 103.416 25.252C103.416 25.82 103.316 26.364 103.116 26.884C102.916 27.396 102.632 27.856 102.264 28.264C101.904 28.664 101.48 28.98 100.992 29.212C100.504 29.444 99.9719 29.56 99.3959 29.56ZM99.4079 28.588C99.8639 28.588 100.272 28.492 100.632 28.3C100.992 28.108 101.296 27.852 101.544 27.532C101.8 27.212 101.992 26.852 102.12 26.452C102.256 26.052 102.324 25.648 102.324 25.24C102.324 24.808 102.252 24.392 102.108 23.992C101.972 23.584 101.772 23.224 101.508 22.912C101.252 22.6 100.944 22.352 100.584 22.168C100.232 21.984 99.8399 21.892 99.4079 21.892C98.9519 21.892 98.5439 21.988 98.1839 22.18C97.8239 22.372 97.5159 22.628 97.2599 22.948C97.0119 23.268 96.8199 23.628 96.6839 24.028C96.5479 24.42 96.4799 24.824 96.4799 25.24C96.4799 25.672 96.5479 26.092 96.6839 26.5C96.8279 26.9 97.0279 27.256 97.2839 27.568C97.5399 27.88 97.8479 28.128 98.2079 28.312C98.5679 28.496 98.9679 28.588 99.4079 28.588ZM99.8879 26.716H100.944L103.332 29.5H102.276L99.8879 26.716ZM104.893 29.5V20.98H108.541C108.917 20.98 109.261 21.06 109.573 21.22C109.885 21.372 110.157 21.58 110.389 21.844C110.621 22.1 110.801 22.392 110.929 22.72C111.057 23.04 111.121 23.368 111.121 23.704C111.121 24.096 111.045 24.468 110.893 24.82C110.749 25.172 110.541 25.472 110.269 25.72C110.005 25.968 109.693 26.14 109.333 26.236L111.397 29.5H110.173L108.229 26.44H105.973V29.5H104.893ZM105.973 25.48H108.553C108.849 25.48 109.105 25.4 109.321 25.24C109.545 25.072 109.717 24.852 109.837 24.58C109.965 24.308 110.029 24.016 110.029 23.704C110.029 23.384 109.957 23.092 109.813 22.828C109.669 22.556 109.481 22.34 109.249 22.18C109.017 22.02 108.761 21.94 108.481 21.94H105.973V25.48ZM112.528 26.704V25.744H116.068V26.704H112.528ZM120.458 29.62C119.986 29.62 119.554 29.536 119.162 29.368C118.778 29.192 118.442 28.952 118.154 28.648C117.874 28.344 117.654 27.996 117.494 27.604C117.342 27.212 117.266 26.796 117.266 26.356C117.266 25.764 117.398 25.224 117.662 24.736C117.926 24.248 118.298 23.86 118.778 23.572C119.258 23.276 119.814 23.128 120.446 23.128C121.062 23.128 121.598 23.268 122.054 23.548C122.518 23.82 122.862 24.188 123.086 24.652L122.054 24.976C121.894 24.68 121.67 24.452 121.382 24.292C121.094 24.124 120.774 24.04 120.422 24.04C120.038 24.04 119.686 24.14 119.366 24.34C119.054 24.54 118.806 24.816 118.622 25.168C118.438 25.512 118.346 25.908 118.346 26.356C118.346 26.796 118.438 27.196 118.622 27.556C118.814 27.908 119.066 28.188 119.378 28.396C119.698 28.604 120.05 28.708 120.434 28.708C120.682 28.708 120.918 28.664 121.142 28.576C121.374 28.488 121.574 28.372 121.742 28.228C121.918 28.076 122.038 27.912 122.102 27.736L123.134 28.048C123.006 28.352 122.81 28.624 122.546 28.864C122.29 29.096 121.982 29.28 121.622 29.416C121.27 29.552 120.882 29.62 120.458 29.62ZM127.008 29.62C126.536 29.62 126.108 29.536 125.724 29.368C125.34 29.192 125.008 28.956 124.728 28.66C124.448 28.356 124.232 28.008 124.08 27.616C123.928 27.224 123.852 26.812 123.852 26.38C123.852 25.94 123.928 25.524 124.08 25.132C124.232 24.74 124.448 24.396 124.728 24.1C125.008 23.796 125.34 23.56 125.724 23.392C126.116 23.216 126.544 23.128 127.008 23.128C127.48 23.128 127.908 23.216 128.292 23.392C128.676 23.56 129.008 23.796 129.288 24.1C129.576 24.396 129.796 24.74 129.948 25.132C130.1 25.524 130.176 25.94 130.176 26.38C130.176 26.812 130.1 27.224 129.948 27.616C129.796 28.008 129.58 28.356 129.3 28.66C129.02 28.956 128.684 29.192 128.292 29.368C127.908 29.536 127.48 29.62 127.008 29.62ZM124.932 26.392C124.932 26.824 125.024 27.216 125.208 27.568C125.4 27.92 125.652 28.2 125.964 28.408C126.276 28.608 126.624 28.708 127.008 28.708C127.392 28.708 127.74 28.604 128.052 28.396C128.372 28.188 128.624 27.908 128.808 27.556C129 27.196 129.096 26.8 129.096 26.368C129.096 25.936 129 25.544 128.808 25.192C128.624 24.84 128.372 24.56 128.052 24.352C127.74 24.144 127.392 24.04 127.008 24.04C126.624 24.04 126.276 24.148 125.964 24.364C125.652 24.572 125.4 24.852 125.208 25.204C125.024 25.556 124.932 25.952 124.932 26.392ZM131.048 26.38C131.048 25.788 131.168 25.248 131.408 24.76C131.656 24.264 131.992 23.868 132.416 23.572C132.848 23.276 133.34 23.128 133.892 23.128C134.396 23.128 134.848 23.26 135.248 23.524C135.648 23.788 135.96 24.108 136.184 24.484V20.74H137.24V28.3C137.24 28.428 137.264 28.524 137.312 28.588C137.368 28.644 137.456 28.676 137.576 28.684V29.5C137.376 29.532 137.22 29.548 137.108 29.548C136.9 29.548 136.716 29.476 136.556 29.332C136.404 29.188 136.328 29.028 136.328 28.852V28.324C136.08 28.724 135.748 29.04 135.332 29.272C134.916 29.504 134.484 29.62 134.036 29.62C133.604 29.62 133.204 29.536 132.836 29.368C132.476 29.192 132.16 28.952 131.888 28.648C131.624 28.344 131.416 28 131.264 27.616C131.12 27.224 131.048 26.812 131.048 26.38ZM136.184 27.304V25.504C136.088 25.232 135.932 24.988 135.716 24.772C135.5 24.548 135.256 24.372 134.984 24.244C134.72 24.108 134.456 24.04 134.192 24.04C133.88 24.04 133.596 24.108 133.34 24.244C133.092 24.372 132.876 24.548 132.692 24.772C132.516 24.988 132.38 25.236 132.284 25.516C132.188 25.796 132.14 26.088 132.14 26.392C132.14 26.704 132.192 27 132.296 27.28C132.408 27.56 132.56 27.808 132.752 28.024C132.952 28.24 133.18 28.408 133.436 28.528C133.7 28.648 133.984 28.708 134.288 28.708C134.48 28.708 134.676 28.672 134.876 28.6C135.084 28.528 135.28 28.428 135.464 28.3C135.648 28.172 135.804 28.024 135.932 27.856C136.06 27.68 136.144 27.496 136.184 27.304ZM141.774 29.62C141.302 29.62 140.87 29.536 140.478 29.368C140.094 29.192 139.758 28.956 139.47 28.66C139.19 28.356 138.97 28.008 138.81 27.616C138.658 27.224 138.582 26.808 138.582 26.368C138.582 25.776 138.718 25.236 138.99 24.748C139.262 24.26 139.638 23.868 140.118 23.572C140.606 23.276 141.162 23.128 141.786 23.128C142.418 23.128 142.966 23.28 143.43 23.584C143.902 23.88 144.266 24.272 144.522 24.76C144.786 25.24 144.918 25.76 144.918 26.32C144.918 26.4 144.914 26.48 144.906 26.56C144.906 26.632 144.902 26.688 144.894 26.728H139.698C139.73 27.136 139.842 27.5 140.034 27.82C140.234 28.132 140.49 28.38 140.802 28.564C141.114 28.74 141.45 28.828 141.81 28.828C142.194 28.828 142.554 28.732 142.89 28.54C143.234 28.348 143.47 28.096 143.598 27.784L144.51 28.036C144.374 28.34 144.17 28.612 143.898 28.852C143.634 29.092 143.318 29.28 142.95 29.416C142.59 29.552 142.198 29.62 141.774 29.62ZM139.662 25.996H143.934C143.902 25.588 143.786 25.228 143.586 24.916C143.386 24.604 143.13 24.36 142.818 24.184C142.506 24.008 142.162 23.92 141.786 23.92C141.418 23.92 141.078 24.008 140.766 24.184C140.454 24.36 140.198 24.604 139.998 24.916C139.806 25.228 139.694 25.588 139.662 25.996ZM149.295 29.5V20.98H152.847C153.223 20.98 153.567 21.06 153.879 21.22C154.191 21.372 154.463 21.58 154.695 21.844C154.927 22.1 155.107 22.392 155.235 22.72C155.363 23.04 155.427 23.368 155.427 23.704C155.427 24.168 155.323 24.612 155.115 25.036C154.907 25.452 154.615 25.792 154.239 26.056C153.863 26.312 153.423 26.44 152.919 26.44H150.375V29.5H149.295ZM150.375 25.48H152.859C153.155 25.48 153.411 25.4 153.627 25.24C153.851 25.08 154.023 24.864 154.143 24.592C154.271 24.32 154.335 24.024 154.335 23.704C154.335 23.368 154.263 23.068 154.119 22.804C153.975 22.532 153.787 22.32 153.555 22.168C153.323 22.016 153.067 21.94 152.787 21.94H150.375V25.48ZM156.042 27.688C156.042 27.288 156.154 26.944 156.378 26.656C156.61 26.36 156.926 26.132 157.326 25.972C157.726 25.812 158.19 25.732 158.718 25.732C158.998 25.732 159.294 25.756 159.606 25.804C159.918 25.844 160.194 25.908 160.434 25.996V25.54C160.434 25.06 160.29 24.684 160.002 24.412C159.714 24.132 159.306 23.992 158.778 23.992C158.434 23.992 158.102 24.056 157.782 24.184C157.47 24.304 157.138 24.48 156.786 24.712L156.402 23.968C156.81 23.688 157.218 23.48 157.626 23.344C158.034 23.2 158.458 23.128 158.898 23.128C159.698 23.128 160.33 23.352 160.794 23.8C161.258 24.24 161.49 24.856 161.49 25.648V28.3C161.49 28.428 161.514 28.524 161.562 28.588C161.618 28.644 161.706 28.676 161.826 28.684V29.5C161.722 29.516 161.63 29.528 161.55 29.536C161.478 29.544 161.418 29.548 161.37 29.548C161.122 29.548 160.934 29.48 160.806 29.344C160.686 29.208 160.618 29.064 160.602 28.912L160.578 28.516C160.306 28.868 159.95 29.14 159.51 29.332C159.07 29.524 158.634 29.62 158.202 29.62C157.786 29.62 157.414 29.536 157.086 29.368C156.758 29.192 156.502 28.96 156.318 28.672C156.134 28.376 156.042 28.048 156.042 27.688ZM160.122 28.132C160.218 28.02 160.294 27.908 160.35 27.796C160.406 27.676 160.434 27.576 160.434 27.496V26.716C160.186 26.62 159.926 26.548 159.654 26.5C159.382 26.444 159.114 26.416 158.85 26.416C158.314 26.416 157.878 26.524 157.542 26.74C157.214 26.948 157.05 27.236 157.05 27.604C157.05 27.804 157.102 28 157.206 28.192C157.318 28.376 157.478 28.528 157.686 28.648C157.902 28.768 158.166 28.828 158.478 28.828C158.806 28.828 159.118 28.764 159.414 28.636C159.71 28.5 159.946 28.332 160.122 28.132ZM163.267 31.204C163.371 31.212 163.475 31.22 163.579 31.228C163.683 31.244 163.763 31.252 163.819 31.252C163.947 31.252 164.059 31.208 164.155 31.12C164.251 31.032 164.355 30.86 164.467 30.604C164.587 30.356 164.739 29.988 164.923 29.5L162.271 23.236H163.387L165.499 28.432L167.407 23.236H168.451L165.403 31.144C165.331 31.328 165.223 31.5 165.079 31.66C164.943 31.828 164.767 31.96 164.551 32.056C164.335 32.152 164.075 32.2 163.771 32.2C163.699 32.2 163.623 32.196 163.543 32.188C163.471 32.18 163.379 32.164 163.267 32.14V31.204ZM178.962 29.5H177.906V25.996C177.906 25.34 177.798 24.856 177.582 24.544C177.374 24.232 177.062 24.076 176.646 24.076C176.222 24.076 175.838 24.232 175.494 24.544C175.15 24.848 174.906 25.244 174.762 25.732V29.5H173.706V25.996C173.706 25.332 173.602 24.848 173.394 24.544C173.186 24.232 172.874 24.076 172.458 24.076C172.042 24.076 171.658 24.228 171.306 24.532C170.962 24.828 170.718 25.224 170.574 25.72V29.5H169.518V23.236H170.478V24.58C170.734 24.116 171.066 23.76 171.474 23.512C171.882 23.256 172.342 23.128 172.854 23.128C173.374 23.128 173.79 23.272 174.102 23.56C174.414 23.84 174.606 24.204 174.678 24.652C174.958 24.156 175.298 23.78 175.698 23.524C176.098 23.26 176.554 23.128 177.066 23.128C177.426 23.128 177.726 23.196 177.966 23.332C178.214 23.46 178.41 23.644 178.554 23.884C178.698 24.116 178.802 24.392 178.866 24.712C178.93 25.032 178.962 25.38 178.962 25.756V29.5ZM183.376 29.62C182.904 29.62 182.472 29.536 182.08 29.368C181.696 29.192 181.36 28.956 181.072 28.66C180.792 28.356 180.572 28.008 180.412 27.616C180.26 27.224 180.184 26.808 180.184 26.368C180.184 25.776 180.32 25.236 180.592 24.748C180.864 24.26 181.24 23.868 181.72 23.572C182.208 23.276 182.764 23.128 183.388 23.128C184.02 23.128 184.568 23.28 185.032 23.584C185.504 23.88 185.868 24.272 186.124 24.76C186.388 25.24 186.52 25.76 186.52 26.32C186.52 26.4 186.516 26.48 186.508 26.56C186.508 26.632 186.504 26.688 186.496 26.728H181.3C181.332 27.136 181.444 27.5 181.636 27.82C181.836 28.132 182.092 28.38 182.404 28.564C182.716 28.74 183.052 28.828 183.412 28.828C183.796 28.828 184.156 28.732 184.492 28.54C184.836 28.348 185.072 28.096 185.2 27.784L186.112 28.036C185.976 28.34 185.772 28.612 185.5 28.852C185.236 29.092 184.92 29.28 184.552 29.416C184.192 29.552 183.8 29.62 183.376 29.62ZM181.264 25.996H185.536C185.504 25.588 185.388 25.228 185.188 24.916C184.988 24.604 184.732 24.36 184.42 24.184C184.108 24.008 183.764 23.92 183.388 23.92C183.02 23.92 182.68 24.008 182.368 24.184C182.056 24.36 181.8 24.604 181.6 24.916C181.408 25.228 181.296 25.588 181.264 25.996ZM193.13 29.5H192.074V25.996C192.074 25.332 191.97 24.848 191.762 24.544C191.562 24.232 191.254 24.076 190.838 24.076C190.55 24.076 190.262 24.148 189.974 24.292C189.694 24.436 189.442 24.632 189.218 24.88C189.002 25.12 188.846 25.4 188.75 25.72V29.5H187.694V23.236H188.654V24.58C188.822 24.284 189.038 24.028 189.302 23.812C189.566 23.596 189.866 23.428 190.202 23.308C190.538 23.188 190.89 23.128 191.258 23.128C191.618 23.128 191.918 23.196 192.158 23.332C192.406 23.46 192.598 23.644 192.734 23.884C192.878 24.116 192.978 24.392 193.034 24.712C193.098 25.032 193.13 25.38 193.13 25.756V29.5ZM197.953 29.188C197.865 29.228 197.745 29.28 197.593 29.344C197.441 29.408 197.265 29.464 197.065 29.512C196.865 29.56 196.653 29.584 196.429 29.584C196.173 29.584 195.937 29.54 195.721 29.452C195.505 29.356 195.333 29.212 195.205 29.02C195.077 28.82 195.013 28.572 195.013 28.276V24.064H194.161V23.236H195.013V21.148H196.069V23.236H197.473V24.064H196.069V27.952C196.085 28.176 196.161 28.344 196.297 28.456C196.433 28.56 196.593 28.612 196.777 28.612C196.985 28.612 197.177 28.576 197.353 28.504C197.529 28.432 197.645 28.38 197.701 28.348L197.953 29.188Z" fill="#8C56FF"/>
<rect x="75.5" y="1.5" width="142" height="48" rx="9" stroke="url(#paint2_linear_571_9375)" stroke-width="2"/>
</g>
<defs>
<filter id="filter0_b_571_9375" x="69.5" y="-4.5" width="154" height="60" filterUnits="userSpaceOnUse" color-interpolation-filters="sRGB">
<feFlood flood-opacity="0" result="BackgroundImageFix"/>
<feGaussianBlur in="BackgroundImageFix" stdDeviation="2.5"/>
<feComposite in2="SourceAlpha" operator="in" result="effect1_backgroundBlur_571_9375"/>
<feBlend mode="normal" in="SourceGraphic" in2="effect1_backgroundBlur_571_9375" result="shape"/>
</filter>
<linearGradient id="paint0_linear_571_9375" x1="74.5008" y1="25.0813" x2="-16.2648" y2="24.9349" gradientUnits="userSpaceOnUse">
<stop stop-color="#7B61FF"/>
<stop offset="0.484375" stop-color="#2B84F8"/>
<stop offset="1" stop-color="#7B61FF"/>
</linearGradient>
<linearGradient id="paint1_linear_571_9375" x1="6.00622" y1="-1.41936e-08" x2="6.00622" y2="17.5676" gradientUnits="userSpaceOnUse">
<stop stop-color="#7B61FF"/>
<stop offset="0.484375" stop-color="#2B84F8"/>
<stop offset="1" stop-color="#7B61FF"/>
</linearGradient>
<linearGradient id="paint2_linear_571_9375" x1="146.575" y1="0.5" x2="146.575" y2="73.6982" gradientUnits="userSpaceOnUse">
<stop stop-color="#8C56FF"/>
<stop offset="0.484375" stop-color="#66E3FF"/>
<stop offset="1" stop-color="#8C56FF"/>
</linearGradient>
</defs>
</svg>
