<svg width="298" height="203" viewBox="0 0 298 203" fill="none" xmlns="http://www.w3.org/2000/svg">
<g filter="url(#filter0_b_431_8837)">
<rect width="298" height="68" rx="10" fill="#121212" fill-opacity="0.5"/>
<path d="M50.3291 29.78C50.1691 29.5933 49.9557 29.4133 49.6891 29.24C49.4224 29.0667 49.1224 28.9133 48.7891 28.78C48.4557 28.6333 48.0891 28.52 47.6891 28.44C47.3024 28.3467 46.8957 28.3 46.4691 28.3C45.3757 28.3 44.5691 28.5067 44.0491 28.92C43.5291 29.3333 43.2691 29.9 43.2691 30.62C43.2691 31.1267 43.4024 31.5267 43.6691 31.82C43.9357 32.1133 44.3424 32.3533 44.8891 32.54C45.4491 32.7267 46.1557 32.92 47.0091 33.12C47.9957 33.3333 48.8491 33.5933 49.5691 33.9C50.2891 34.2067 50.8424 34.62 51.2291 35.14C51.6157 35.6467 51.8091 36.3267 51.8091 37.18C51.8091 37.86 51.6757 38.4533 51.4091 38.96C51.1557 39.4533 50.7957 39.8667 50.3291 40.2C49.8624 40.52 49.3157 40.76 48.6891 40.92C48.0624 41.0667 47.3824 41.14 46.6491 41.14C45.9291 41.14 45.2224 41.0667 44.5291 40.92C43.8491 40.76 43.2024 40.5333 42.5891 40.24C41.9757 39.9467 41.4024 39.58 40.8691 39.14L41.7291 37.62C41.9424 37.8467 42.2157 38.0733 42.5491 38.3C42.8957 38.5133 43.2824 38.7133 43.7091 38.9C44.1491 39.0867 44.6224 39.24 45.1291 39.36C45.6357 39.4667 46.1557 39.52 46.6891 39.52C47.7024 39.52 48.4891 39.34 49.0491 38.98C49.6091 38.6067 49.8891 38.0667 49.8891 37.36C49.8891 36.8267 49.7291 36.4 49.4091 36.08C49.1024 35.76 48.6424 35.4933 48.0291 35.28C47.4157 35.0667 46.6691 34.8533 45.7891 34.64C44.8291 34.4 44.0224 34.14 43.3691 33.86C42.7157 33.5667 42.2224 33.1867 41.8891 32.72C41.5691 32.2533 41.4091 31.6467 41.4091 30.9C41.4091 29.9933 41.6291 29.2267 42.0691 28.6C42.5091 27.9733 43.1157 27.5 43.8891 27.18C44.6624 26.86 45.5357 26.7 46.5091 26.7C47.1491 26.7 47.7424 26.7667 48.2891 26.9C48.8491 27.0333 49.3691 27.22 49.8491 27.46C50.3291 27.7 50.7691 27.9867 51.1691 28.32L50.3291 29.78ZM69.6366 41H67.8766V35.16C67.8766 34.0667 67.6966 33.26 67.3366 32.74C66.9899 32.22 66.4699 31.96 65.7766 31.96C65.0699 31.96 64.4299 32.22 63.8566 32.74C63.2832 33.2467 62.8766 33.9067 62.6366 34.72V41H60.8766V35.16C60.8766 34.0533 60.7032 33.2467 60.3566 32.74C60.0099 32.22 59.4899 31.96 58.7966 31.96C58.1032 31.96 57.4632 32.2133 56.8766 32.72C56.3032 33.2133 55.8966 33.8733 55.6566 34.7V41H53.8966V30.56H55.4966V32.8C55.9232 32.0267 56.4766 31.4333 57.1566 31.02C57.8366 30.5933 58.6032 30.38 59.4566 30.38C60.3232 30.38 61.0166 30.62 61.5366 31.1C62.0566 31.5667 62.3766 32.1733 62.4966 32.92C62.9632 32.0933 63.5299 31.4667 64.1966 31.04C64.8632 30.6 65.6232 30.38 66.4766 30.38C67.0766 30.38 67.5766 30.4933 67.9766 30.72C68.3899 30.9333 68.7166 31.24 68.9566 31.64C69.1966 32.0267 69.3699 32.4867 69.4766 33.02C69.5832 33.5533 69.6366 34.1333 69.6366 34.76V41ZM71.5531 37.98C71.5531 37.3133 71.7398 36.74 72.1131 36.26C72.4998 35.7667 73.0265 35.3867 73.6931 35.12C74.3598 34.8533 75.1331 34.72 76.0131 34.72C76.4798 34.72 76.9731 34.76 77.4931 34.84C78.0131 34.9067 78.4731 35.0133 78.8731 35.16V34.4C78.8731 33.6 78.6331 32.9733 78.1531 32.52C77.6731 32.0533 76.9931 31.82 76.1131 31.82C75.5398 31.82 74.9865 31.9267 74.4531 32.14C73.9331 32.34 73.3798 32.6333 72.7931 33.02L72.1531 31.78C72.8331 31.3133 73.5131 30.9667 74.1931 30.74C74.8731 30.5 75.5798 30.38 76.3131 30.38C77.6465 30.38 78.6998 30.7533 79.4731 31.5C80.2465 32.2333 80.6331 33.26 80.6331 34.58V39C80.6331 39.2133 80.6731 39.3733 80.7531 39.48C80.8465 39.5733 80.9931 39.6267 81.1931 39.64V41C81.0198 41.0267 80.8665 41.0467 80.7331 41.06C80.6131 41.0733 80.5131 41.08 80.4331 41.08C80.0198 41.08 79.7065 40.9667 79.4931 40.74C79.2931 40.5133 79.1798 40.2733 79.1531 40.02L79.1131 39.36C78.6598 39.9467 78.0665 40.4 77.3331 40.72C76.5998 41.04 75.8731 41.2 75.1531 41.2C74.4598 41.2 73.8398 41.06 73.2931 40.78C72.7465 40.4867 72.3198 40.1 72.0131 39.62C71.7065 39.1267 71.5531 38.58 71.5531 37.98ZM78.3531 38.72C78.5131 38.5333 78.6398 38.3467 78.7331 38.16C78.8265 37.96 78.8731 37.7933 78.8731 37.66V36.36C78.4598 36.2 78.0265 36.08 77.5731 36C77.1198 35.9067 76.6731 35.86 76.2331 35.86C75.3398 35.86 74.6131 36.04 74.0531 36.4C73.5065 36.7467 73.2331 37.2267 73.2331 37.84C73.2331 38.1733 73.3198 38.5 73.4931 38.82C73.6798 39.1267 73.9465 39.38 74.2931 39.58C74.6531 39.78 75.0931 39.88 75.6131 39.88C76.1598 39.88 76.6798 39.7733 77.1731 39.56C77.6665 39.3333 78.0598 39.0533 78.3531 38.72ZM88.9673 32.1C88.0873 32.1133 87.3073 32.34 86.6273 32.78C85.9607 33.2067 85.4873 33.8 85.2073 34.56V41H83.4473V30.56H85.0873V32.98C85.4473 32.26 85.9207 31.68 86.5073 31.24C87.1073 30.7867 87.734 30.5333 88.3873 30.48C88.5207 30.48 88.634 30.48 88.7273 30.48C88.8207 30.48 88.9007 30.4867 88.9673 30.5V32.1ZM96.113 40.48C95.9663 40.5467 95.7663 40.6333 95.513 40.74C95.2596 40.8467 94.9663 40.94 94.633 41.02C94.2996 41.1 93.9463 41.14 93.573 41.14C93.1463 41.14 92.753 41.0667 92.393 40.92C92.033 40.76 91.7463 40.52 91.533 40.2C91.3196 39.8667 91.213 39.4533 91.213 38.96V31.94H89.793V30.56H91.213V27.08H92.973V30.56H95.313V31.94H92.973V38.42C92.9996 38.7933 93.1263 39.0733 93.353 39.26C93.5796 39.4333 93.8463 39.52 94.153 39.52C94.4996 39.52 94.8196 39.46 95.113 39.34C95.4063 39.22 95.5996 39.1333 95.693 39.08L96.113 40.48ZM107.58 26.88H109.28L111.16 31.82L113.06 26.88H114.76L112.3 33.06L114.74 38.92L119.54 26.8H121.5L115.56 41H114L111.18 34.3L108.34 41H106.78L100.86 26.8H102.8L107.62 38.92L110.04 33.06L107.58 26.88ZM121.182 37.98C121.182 37.3133 121.369 36.74 121.742 36.26C122.129 35.7667 122.655 35.3867 123.322 35.12C123.989 34.8533 124.762 34.72 125.642 34.72C126.109 34.72 126.602 34.76 127.122 34.84C127.642 34.9067 128.102 35.0133 128.502 35.16V34.4C128.502 33.6 128.262 32.9733 127.782 32.52C127.302 32.0533 126.622 31.82 125.742 31.82C125.169 31.82 124.615 31.9267 124.082 32.14C123.562 32.34 123.009 32.6333 122.422 33.02L121.782 31.78C122.462 31.3133 123.142 30.9667 123.822 30.74C124.502 30.5 125.209 30.38 125.942 30.38C127.275 30.38 128.329 30.7533 129.102 31.5C129.875 32.2333 130.262 33.26 130.262 34.58V39C130.262 39.2133 130.302 39.3733 130.382 39.48C130.475 39.5733 130.622 39.6267 130.822 39.64V41C130.649 41.0267 130.495 41.0467 130.362 41.06C130.242 41.0733 130.142 41.08 130.062 41.08C129.649 41.08 129.335 40.9667 129.122 40.74C128.922 40.5133 128.809 40.2733 128.782 40.02L128.742 39.36C128.289 39.9467 127.695 40.4 126.962 40.72C126.229 41.04 125.502 41.2 124.782 41.2C124.089 41.2 123.469 41.06 122.922 40.78C122.375 40.4867 121.949 40.1 121.642 39.62C121.335 39.1267 121.182 38.58 121.182 37.98ZM127.982 38.72C128.142 38.5333 128.269 38.3467 128.362 38.16C128.455 37.96 128.502 37.7933 128.502 37.66V36.36C128.089 36.2 127.655 36.08 127.202 36C126.749 35.9067 126.302 35.86 125.862 35.86C124.969 35.86 124.242 36.04 123.682 36.4C123.135 36.7467 122.862 37.2267 122.862 37.84C122.862 38.1733 122.949 38.5 123.122 38.82C123.309 39.1267 123.575 39.38 123.922 39.58C124.282 39.78 124.722 39.88 125.242 39.88C125.789 39.88 126.309 39.7733 126.802 39.56C127.295 39.3333 127.689 39.0533 127.982 38.72ZM133.116 26.4H134.876V38.3C134.876 38.8733 134.956 39.2267 135.116 39.36C135.276 39.4933 135.47 39.56 135.696 39.56C135.976 39.56 136.243 39.5333 136.496 39.48C136.75 39.4133 136.963 39.3467 137.136 39.28L137.416 40.72C137.123 40.84 136.776 40.94 136.376 41.02C135.976 41.1 135.623 41.14 135.316 41.14C134.636 41.14 134.096 40.9467 133.696 40.56C133.31 40.1733 133.116 39.6333 133.116 38.94V26.4ZM138.839 26.4H140.599V38.3C140.599 38.8733 140.679 39.2267 140.839 39.36C140.999 39.4933 141.192 39.56 141.419 39.56C141.699 39.56 141.966 39.5333 142.219 39.48C142.472 39.4133 142.686 39.3467 142.859 39.28L143.139 40.72C142.846 40.84 142.499 40.94 142.099 41.02C141.699 41.1 141.346 41.14 141.039 41.14C140.359 41.14 139.819 40.9467 139.419 40.56C139.032 40.1733 138.839 39.6333 138.839 38.94V26.4ZM149.142 41.2C148.355 41.2 147.635 41.06 146.982 40.78C146.342 40.4867 145.782 40.0933 145.302 39.6C144.835 39.0933 144.468 38.5133 144.202 37.86C143.948 37.2067 143.822 36.5133 143.822 35.78C143.822 34.7933 144.048 33.8933 144.502 33.08C144.955 32.2667 145.582 31.6133 146.382 31.12C147.195 30.6267 148.122 30.38 149.162 30.38C150.215 30.38 151.128 30.6333 151.902 31.14C152.688 31.6333 153.295 32.2867 153.722 33.1C154.162 33.9 154.382 34.7667 154.382 35.7C154.382 35.8333 154.375 35.9667 154.362 36.1C154.362 36.22 154.355 36.3133 154.342 36.38H145.682C145.735 37.06 145.922 37.6667 146.242 38.2C146.575 38.72 147.002 39.1333 147.522 39.44C148.042 39.7333 148.602 39.88 149.202 39.88C149.842 39.88 150.442 39.72 151.002 39.4C151.575 39.08 151.968 38.66 152.182 38.14L153.702 38.56C153.475 39.0667 153.135 39.52 152.682 39.92C152.242 40.32 151.715 40.6333 151.102 40.86C150.502 41.0867 149.848 41.2 149.142 41.2ZM145.622 35.16H152.742C152.688 34.48 152.495 33.88 152.162 33.36C151.828 32.84 151.402 32.4333 150.882 32.14C150.362 31.8467 149.788 31.7 149.162 31.7C148.548 31.7 147.982 31.8467 147.462 32.14C146.942 32.4333 146.515 32.84 146.182 33.36C145.862 33.88 145.675 34.48 145.622 35.16ZM161.64 40.48C161.494 40.5467 161.294 40.6333 161.04 40.74C160.787 40.8467 160.494 40.94 160.16 41.02C159.827 41.1 159.474 41.14 159.1 41.14C158.674 41.14 158.28 41.0667 157.92 40.92C157.56 40.76 157.274 40.52 157.06 40.2C156.847 39.8667 156.74 39.4533 156.74 38.96V31.94H155.32V30.56H156.74V27.08H158.5V30.56H160.84V31.94H158.5V38.42C158.527 38.7933 158.654 39.0733 158.88 39.26C159.107 39.4333 159.374 39.52 159.68 39.52C160.027 39.52 160.347 39.46 160.64 39.34C160.934 39.22 161.127 39.1333 161.22 39.08L161.64 40.48ZM178.25 39.4V41H168.61V26.8H178.07V28.4H170.41V33H177.07V34.5H170.41V39.4H178.25ZM180.72 41V26.8H186.8C187.426 26.8 188 26.9333 188.52 27.2C189.04 27.4533 189.493 27.8 189.88 28.24C190.266 28.6667 190.566 29.1533 190.78 29.7C190.993 30.2333 191.1 30.78 191.1 31.34C191.1 31.9933 190.973 32.6133 190.72 33.2C190.48 33.7867 190.133 34.2867 189.68 34.7C189.24 35.1133 188.72 35.4 188.12 35.56L191.56 41H189.52L186.28 35.9H182.52V41H180.72ZM182.52 34.3H186.82C187.313 34.3 187.74 34.1667 188.1 33.9C188.473 33.62 188.76 33.2533 188.96 32.8C189.173 32.3467 189.28 31.86 189.28 31.34C189.28 30.8067 189.16 30.32 188.92 29.88C188.68 29.4267 188.366 29.0667 187.98 28.8C187.593 28.5333 187.166 28.4 186.7 28.4H182.52V34.3ZM192.944 33.8C192.944 32.9333 193.091 32.0867 193.384 31.26C193.691 30.42 194.131 29.66 194.704 28.98C195.291 28.2867 196.004 27.74 196.844 27.34C197.684 26.9267 198.637 26.72 199.704 26.72C200.971 26.72 202.057 27.0133 202.964 27.6C203.871 28.1733 204.544 28.9133 204.984 29.82L203.564 30.74C203.284 30.14 202.924 29.6667 202.484 29.32C202.057 28.96 201.591 28.7067 201.084 28.56C200.591 28.4133 200.104 28.34 199.624 28.34C198.837 28.34 198.137 28.5 197.524 28.82C196.924 29.14 196.417 29.5667 196.004 30.1C195.591 30.6333 195.277 31.2333 195.064 31.9C194.864 32.5533 194.764 33.2133 194.764 33.88C194.764 34.6133 194.884 35.32 195.124 36C195.377 36.68 195.724 37.28 196.164 37.8C196.604 38.32 197.124 38.7333 197.724 39.04C198.324 39.3467 198.977 39.5 199.684 39.5C200.177 39.5 200.684 39.4133 201.204 39.24C201.724 39.0667 202.211 38.8 202.664 38.44C203.117 38.0667 203.477 37.5867 203.744 37L205.244 37.82C204.951 38.5267 204.497 39.1267 203.884 39.62C203.271 40.1133 202.584 40.4867 201.824 40.74C201.077 40.9933 200.337 41.12 199.604 41.12C198.631 41.12 197.737 40.9133 196.924 40.5C196.111 40.0733 195.404 39.5133 194.804 38.82C194.217 38.1133 193.757 37.3267 193.424 36.46C193.104 35.58 192.944 34.6933 192.944 33.8ZM207.077 36.34V34.74H212.977V36.34H207.077ZM221.154 43.54V40.16H214.734V38.6L221.714 29.58H222.914V38.56H224.674V40.16H222.914V43.54H221.154ZM216.554 38.56H221.334V32.3L216.554 38.56ZM232.566 36.28C233.14 36.3733 233.633 36.5867 234.046 36.92C234.46 37.24 234.78 37.6533 235.006 38.16C235.233 38.6533 235.346 39.2133 235.346 39.84C235.346 40.6533 235.146 41.3667 234.746 41.98C234.36 42.6067 233.806 43.0867 233.086 43.42C232.366 43.7667 231.526 43.94 230.566 43.94C229.553 43.94 228.66 43.7467 227.886 43.36C227.126 42.9867 226.533 42.4533 226.106 41.76L227.286 40.58C227.593 41.1133 228.006 41.54 228.526 41.86C229.06 42.18 229.74 42.34 230.566 42.34C231.486 42.34 232.206 42.1267 232.726 41.7C233.26 41.2867 233.526 40.6667 233.526 39.84C233.526 39 233.24 38.3333 232.666 37.84C232.106 37.3333 231.286 37.08 230.206 37.08H229.686V35.6H230.246C231.206 35.6 231.94 35.3667 232.446 34.9C232.966 34.4333 233.226 33.8533 233.226 33.16C233.226 32.68 233.113 32.2867 232.886 31.98C232.66 31.6733 232.353 31.4467 231.966 31.3C231.58 31.14 231.133 31.06 230.626 31.06C229.893 31.06 229.246 31.22 228.686 31.54C228.14 31.8467 227.713 32.28 227.406 32.84L226.326 31.72C226.566 31.2667 226.906 30.8733 227.346 30.54C227.8 30.2067 228.32 29.9467 228.906 29.76C229.506 29.5733 230.14 29.48 230.806 29.48C231.646 29.48 232.386 29.6267 233.026 29.92C233.68 30.2133 234.186 30.6267 234.546 31.16C234.906 31.6933 235.086 32.32 235.086 33.04C235.086 33.56 234.986 34.0533 234.786 34.52C234.586 34.9733 234.293 35.36 233.906 35.68C233.533 35.9867 233.086 36.1867 232.566 36.28ZM243.367 36.28C243.94 36.3733 244.434 36.5867 244.847 36.92C245.26 37.24 245.58 37.6533 245.807 38.16C246.034 38.6533 246.147 39.2133 246.147 39.84C246.147 40.6533 245.947 41.3667 245.547 41.98C245.16 42.6067 244.607 43.0867 243.887 43.42C243.167 43.7667 242.327 43.94 241.367 43.94C240.354 43.94 239.46 43.7467 238.687 43.36C237.927 42.9867 237.334 42.4533 236.907 41.76L238.087 40.58C238.394 41.1133 238.807 41.54 239.327 41.86C239.86 42.18 240.54 42.34 241.367 42.34C242.287 42.34 243.007 42.1267 243.527 41.7C244.06 41.2867 244.327 40.6667 244.327 39.84C244.327 39 244.04 38.3333 243.467 37.84C242.907 37.3333 242.087 37.08 241.007 37.08H240.487V35.6H241.047C242.007 35.6 242.74 35.3667 243.247 34.9C243.767 34.4333 244.027 33.8533 244.027 33.16C244.027 32.68 243.914 32.2867 243.687 31.98C243.46 31.6733 243.154 31.4467 242.767 31.3C242.38 31.14 241.934 31.06 241.427 31.06C240.694 31.06 240.047 31.22 239.487 31.54C238.94 31.8467 238.514 32.28 238.207 32.84L237.127 31.72C237.367 31.2667 237.707 30.8733 238.147 30.54C238.6 30.2067 239.12 29.9467 239.707 29.76C240.307 29.5733 240.94 29.48 241.607 29.48C242.447 29.48 243.187 29.6267 243.827 29.92C244.48 30.2133 244.987 30.6267 245.347 31.16C245.707 31.6933 245.887 32.32 245.887 33.04C245.887 33.56 245.787 34.0533 245.587 34.52C245.387 34.9733 245.094 35.36 244.707 35.68C244.334 35.9867 243.887 36.1867 243.367 36.28ZM254.848 30.96H247.548V29.34H257.628L250.488 43.54H248.488L254.848 30.96Z" fill="#8C56FF"/>
<rect x="1" y="1" width="296" height="66" rx="9" stroke="url(#paint0_linear_431_8837)" stroke-width="2"/>
</g>
<path d="M149.114 179L148.886 68.0001" stroke="url(#paint1_linear_431_8837)" stroke-width="2"/>
<circle cx="149" cy="191" r="11" fill="#131416" fill-opacity="0.5" stroke="url(#paint2_linear_431_8837)" stroke-width="2"/>
<defs>
<filter id="filter0_b_431_8837" x="-5" y="-5" width="308" height="78" filterUnits="userSpaceOnUse" color-interpolation-filters="sRGB">
<feFlood flood-opacity="0" result="BackgroundImageFix"/>
<feGaussianBlur in="BackgroundImageFix" stdDeviation="2.5"/>
<feComposite in2="SourceAlpha" operator="in" result="effect1_backgroundBlur_431_8837"/>
<feBlend mode="normal" in="SourceGraphic" in2="effect1_backgroundBlur_431_8837" result="shape"/>
</filter>
<linearGradient id="paint0_linear_431_8837" x1="149.154" y1="-8.04303e-08" x2="149.154" y2="99.5496" gradientUnits="userSpaceOnUse">
<stop stop-color="#8C56FF"/>
<stop offset="0.484375" stop-color="#66E3FF"/>
<stop offset="1" stop-color="#8C56FF"/>
</linearGradient>
<linearGradient id="paint1_linear_431_8837" x1="149.386" y1="67.9991" x2="149.723" y2="230.499" gradientUnits="userSpaceOnUse">
<stop stop-color="#7B61FF"/>
<stop offset="0.484375" stop-color="#2B84F8"/>
<stop offset="1" stop-color="#7B61FF"/>
</linearGradient>
<linearGradient id="paint2_linear_431_8837" x1="149.012" y1="179" x2="149.012" y2="214.135" gradientUnits="userSpaceOnUse">
<stop stop-color="#7B61FF"/>
<stop offset="0.484375" stop-color="#2B84F8"/>
<stop offset="1" stop-color="#7B61FF"/>
</linearGradient>
</defs>
</svg>
