<svg width="163" height="203" viewBox="0 0 163 203" fill="none" xmlns="http://www.w3.org/2000/svg">
<g filter="url(#filter0_b_431_8831)">
<rect width="163" height="68" rx="10" fill="#121212" fill-opacity="0.5"/>
<path d="M54.396 41V30.16L49.716 38.5H48.616L43.916 30.16V41H42.116V26.8H44.016L49.156 36.02L54.316 26.8H56.196V41H54.396ZM59.2165 36.82V30.56H60.9765V36.48C60.9765 37.5467 61.1632 38.3467 61.5365 38.88C61.9098 39.4133 62.4632 39.68 63.1965 39.68C63.6765 39.68 64.1365 39.58 64.5765 39.38C65.0298 39.1667 65.4365 38.8667 65.7965 38.48C66.1565 38.0933 66.4365 37.6333 66.6365 37.1V30.56H68.3965V39C68.3965 39.2133 68.4365 39.3733 68.5165 39.48C68.6098 39.5733 68.7565 39.6267 68.9565 39.64V41C68.7565 41.0267 68.5965 41.04 68.4765 41.04C68.3698 41.0533 68.2632 41.06 68.1565 41.06C67.8232 41.06 67.5365 40.96 67.2965 40.76C67.0565 40.5467 66.9298 40.2867 66.9165 39.98L66.8765 38.76C66.4232 39.5333 65.8098 40.1333 65.0365 40.56C64.2765 40.9867 63.4432 41.2 62.5365 41.2C61.4432 41.2 60.6165 40.8333 60.0565 40.1C59.4965 39.3533 59.2165 38.26 59.2165 36.82ZM71.3682 26.4H73.1282V38.3C73.1282 38.8733 73.2082 39.2267 73.3682 39.36C73.5282 39.4933 73.7215 39.56 73.9482 39.56C74.2282 39.56 74.4949 39.5333 74.7482 39.48C75.0015 39.4133 75.2149 39.3467 75.3882 39.28L75.6682 40.72C75.3749 40.84 75.0282 40.94 74.6282 41.02C74.2282 41.1 73.8749 41.14 73.5682 41.14C72.8882 41.14 72.3482 40.9467 71.9482 40.56C71.5615 40.1733 71.3682 39.6333 71.3682 38.94V26.4ZM82.4509 40.48C82.3042 40.5467 82.1042 40.6333 81.8509 40.74C81.5975 40.8467 81.3042 40.94 80.9709 41.02C80.6375 41.1 80.2842 41.14 79.9109 41.14C79.4842 41.14 79.0909 41.0667 78.7309 40.92C78.3709 40.76 78.0842 40.52 77.8709 40.2C77.6575 39.8667 77.5509 39.4533 77.5509 38.96V31.94H76.1309V30.56H77.5509V27.08H79.3109V30.56H81.6509V31.94H79.3109V38.42C79.3375 38.7933 79.4642 39.0733 79.6909 39.26C79.9175 39.4333 80.1842 39.52 80.4909 39.52C80.8375 39.52 81.1575 39.46 81.4509 39.34C81.7442 39.22 81.9375 39.1333 82.0309 39.08L82.4509 40.48ZM84.0821 41V30.56H85.8421V41H84.0821ZM84.0821 28.6V26.4H85.8421V28.6H84.0821ZM88.5515 36.34V34.74H94.4515V36.34H88.5515ZM100.729 41.2C99.8618 41.2 99.0485 41.06 98.2885 40.78C97.5285 40.4867 96.8752 40.0533 96.3285 39.48L97.0085 38.24C97.6085 38.8 98.2085 39.2 98.8085 39.44C99.4085 39.68 100.022 39.8 100.649 39.8C101.369 39.8 101.955 39.6667 102.409 39.4C102.862 39.12 103.089 38.7133 103.089 38.18C103.089 37.7933 102.969 37.5067 102.729 37.32C102.502 37.1333 102.175 36.98 101.749 36.86C101.322 36.7267 100.815 36.58 100.229 36.42C99.5085 36.2067 98.9018 35.98 98.4085 35.74C97.9152 35.5 97.5418 35.2 97.2885 34.84C97.0352 34.48 96.9085 34.0267 96.9085 33.48C96.9085 32.8133 97.0818 32.2533 97.4285 31.8C97.7752 31.3333 98.2485 30.98 98.8485 30.74C99.4618 30.5 100.155 30.38 100.929 30.38C101.702 30.38 102.402 30.5 103.029 30.74C103.655 30.98 104.195 31.3333 104.649 31.8L103.849 33.02C103.435 32.5933 102.982 32.28 102.489 32.08C101.995 31.8667 101.442 31.76 100.829 31.76C100.469 31.76 100.115 31.8067 99.7685 31.9C99.4218 31.98 99.1352 32.1333 98.9085 32.36C98.6818 32.5733 98.5685 32.88 98.5685 33.28C98.5685 33.6133 98.6552 33.88 98.8285 34.08C99.0152 34.2667 99.2818 34.4267 99.6285 34.56C99.9885 34.6933 100.422 34.84 100.929 35C101.715 35.2267 102.395 35.4533 102.969 35.68C103.555 35.9067 104.009 36.2 104.329 36.56C104.649 36.92 104.809 37.42 104.809 38.06C104.809 39.0467 104.435 39.82 103.689 40.38C102.942 40.9267 101.955 41.2 100.729 41.2ZM106.914 41V30.56H108.674V41H106.914ZM106.914 28.6V26.4H108.674V28.6H106.914ZM115.684 41.12C114.977 41.12 114.324 40.98 113.724 40.7C113.137 40.4067 112.63 40.0133 112.204 39.52C111.777 39.0133 111.444 38.44 111.204 37.8C110.977 37.16 110.864 36.4933 110.864 35.8C110.864 35.0667 110.977 34.3733 111.204 33.72C111.444 33.0667 111.777 32.4933 112.204 32C112.644 31.4933 113.157 31.1 113.744 30.82C114.33 30.5267 114.984 30.38 115.704 30.38C116.57 30.38 117.324 30.5933 117.964 31.02C118.617 31.4467 119.164 31.9867 119.604 32.64V30.56H121.164V40.88C121.164 41.8667 120.924 42.7 120.444 43.38C119.977 44.06 119.337 44.5733 118.524 44.92C117.724 45.28 116.83 45.46 115.844 45.46C114.67 45.46 113.71 45.2533 112.964 44.84C112.217 44.4267 111.597 43.8667 111.104 43.16L112.124 42.26C112.537 42.8733 113.07 43.3333 113.724 43.64C114.39 43.9467 115.097 44.1 115.844 44.1C116.484 44.1 117.07 43.98 117.604 43.74C118.15 43.5133 118.584 43.16 118.904 42.68C119.237 42.2 119.404 41.6 119.404 40.88V39.04C119.017 39.68 118.484 40.1867 117.804 40.56C117.137 40.9333 116.43 41.12 115.684 41.12ZM116.224 39.68C116.597 39.68 116.957 39.6133 117.304 39.48C117.65 39.3467 117.97 39.1733 118.264 38.96C118.557 38.7333 118.804 38.48 119.004 38.2C119.204 37.92 119.337 37.6333 119.404 37.34V34.34C119.217 33.86 118.95 33.44 118.604 33.08C118.257 32.7067 117.864 32.42 117.424 32.22C116.984 32.0067 116.53 31.9 116.064 31.9C115.53 31.9 115.05 32.0133 114.624 32.24C114.21 32.4667 113.857 32.7733 113.564 33.16C113.27 33.5333 113.044 33.9533 112.884 34.42C112.724 34.8867 112.644 35.36 112.644 35.84C112.644 36.36 112.737 36.8533 112.924 37.32C113.11 37.7733 113.364 38.18 113.684 38.54C114.004 38.9 114.384 39.18 114.824 39.38C115.264 39.58 115.73 39.68 116.224 39.68Z" fill="#8C56FF"/>
<rect x="1" y="1" width="161" height="66" rx="9" stroke="url(#paint0_linear_431_8831)" stroke-width="2"/>
</g>
<path d="M81.6143 179L81.3857 68.0001" stroke="url(#paint1_linear_431_8831)" stroke-width="2"/>
<circle cx="81.5" cy="191" r="11" fill="#131416" fill-opacity="0.5" stroke="url(#paint2_linear_431_8831)" stroke-width="2"/>
<defs>
<filter id="filter0_b_431_8831" x="-5" y="-5" width="173" height="78" filterUnits="userSpaceOnUse" color-interpolation-filters="sRGB">
<feFlood flood-opacity="0" result="BackgroundImageFix"/>
<feGaussianBlur in="BackgroundImageFix" stdDeviation="2.5"/>
<feComposite in2="SourceAlpha" operator="in" result="effect1_backgroundBlur_431_8831"/>
<feBlend mode="normal" in="SourceGraphic" in2="effect1_backgroundBlur_431_8831" result="shape"/>
</filter>
<linearGradient id="paint0_linear_431_8831" x1="81.5845" y1="-8.04303e-08" x2="81.5845" y2="99.5496" gradientUnits="userSpaceOnUse">
<stop stop-color="#8C56FF"/>
<stop offset="0.484375" stop-color="#66E3FF"/>
<stop offset="1" stop-color="#8C56FF"/>
</linearGradient>
<linearGradient id="paint1_linear_431_8831" x1="81.8863" y1="67.9991" x2="82.2231" y2="230.499" gradientUnits="userSpaceOnUse">
<stop stop-color="#767DFF"/>
<stop offset="0.484375" stop-color="#66B6FF"/>
<stop offset="1" stop-color="#767DFF"/>
</linearGradient>
<linearGradient id="paint2_linear_431_8831" x1="81.5124" y1="179" x2="81.5124" y2="214.135" gradientUnits="userSpaceOnUse">
<stop stop-color="#767DFF"/>
<stop offset="0.484375" stop-color="#66B6FF"/>
<stop offset="1" stop-color="#767DFF"/>
</linearGradient>
</defs>
</svg>
