<svg width="246" height="50" viewBox="0 0 246 50" fill="none" xmlns="http://www.w3.org/2000/svg">
<path d="M12.5 25L74.5 25" stroke="url(#paint0_linear_571_9381)" stroke-width="2"/>
<circle cx="6.5" cy="25" r="5" transform="rotate(90 6.5 25)" fill="#131416" fill-opacity="0.5" stroke="url(#paint1_linear_571_9381)" stroke-width="2"/>
<g filter="url(#filter0_b_571_9381)">
<rect x="74.5" width="171" height="50" rx="10" fill="#121212" fill-opacity="0.5"/>
<path d="M100.797 22.268C100.701 22.156 100.573 22.048 100.413 21.944C100.253 21.84 100.073 21.748 99.8734 21.668C99.6734 21.58 99.4534 21.512 99.2134 21.464C98.9814 21.408 98.7374 21.38 98.4814 21.38C97.8254 21.38 97.3414 21.504 97.0294 21.752C96.7174 22 96.5614 22.34 96.5614 22.772C96.5614 23.076 96.6414 23.316 96.8014 23.492C96.9614 23.668 97.2054 23.812 97.5334 23.924C97.8694 24.036 98.2934 24.152 98.8054 24.272C99.3974 24.4 99.9094 24.556 100.341 24.74C100.773 24.924 101.105 25.172 101.337 25.484C101.569 25.788 101.685 26.196 101.685 26.708C101.685 27.116 101.605 27.472 101.445 27.776C101.293 28.072 101.077 28.32 100.797 28.52C100.517 28.712 100.189 28.856 99.8134 28.952C99.4374 29.04 99.0294 29.084 98.5894 29.084C98.1574 29.084 97.7334 29.04 97.3174 28.952C96.9094 28.856 96.5214 28.72 96.1534 28.544C95.7854 28.368 95.4414 28.148 95.1214 27.884L95.6374 26.972C95.7654 27.108 95.9294 27.244 96.1294 27.38C96.3374 27.508 96.5694 27.628 96.8254 27.74C97.0894 27.852 97.3734 27.944 97.6774 28.016C97.9814 28.08 98.2934 28.112 98.6134 28.112C99.2214 28.112 99.6934 28.004 100.029 27.788C100.365 27.564 100.533 27.24 100.533 26.816C100.533 26.496 100.437 26.24 100.245 26.048C100.061 25.856 99.7854 25.696 99.4174 25.568C99.0494 25.44 98.6014 25.312 98.0734 25.184C97.4974 25.04 97.0134 24.884 96.6214 24.716C96.2294 24.54 95.9334 24.312 95.7334 24.032C95.5414 23.752 95.4454 23.388 95.4454 22.94C95.4454 22.396 95.5774 21.936 95.8414 21.56C96.1054 21.184 96.4694 20.9 96.9334 20.708C97.3974 20.516 97.9214 20.42 98.5054 20.42C98.8894 20.42 99.2454 20.46 99.5734 20.54C99.9094 20.62 100.221 20.732 100.509 20.876C100.797 21.02 101.061 21.192 101.301 21.392L100.797 22.268ZM112.382 29H111.326V25.496C111.326 24.84 111.218 24.356 111.002 24.044C110.794 23.732 110.482 23.576 110.066 23.576C109.642 23.576 109.258 23.732 108.914 24.044C108.57 24.348 108.326 24.744 108.182 25.232V29H107.126V25.496C107.126 24.832 107.022 24.348 106.814 24.044C106.606 23.732 106.294 23.576 105.878 23.576C105.462 23.576 105.078 23.728 104.726 24.032C104.382 24.328 104.138 24.724 103.994 25.22V29H102.938V22.736H103.898V24.08C104.154 23.616 104.486 23.26 104.894 23.012C105.302 22.756 105.762 22.628 106.274 22.628C106.794 22.628 107.21 22.772 107.522 23.06C107.834 23.34 108.026 23.704 108.098 24.152C108.378 23.656 108.718 23.28 109.118 23.024C109.518 22.76 109.974 22.628 110.486 22.628C110.846 22.628 111.146 22.696 111.386 22.832C111.634 22.96 111.83 23.144 111.974 23.384C112.118 23.616 112.222 23.892 112.286 24.212C112.35 24.532 112.382 24.88 112.382 25.256V29ZM113.532 27.188C113.532 26.788 113.644 26.444 113.868 26.156C114.1 25.86 114.416 25.632 114.816 25.472C115.216 25.312 115.68 25.232 116.208 25.232C116.488 25.232 116.784 25.256 117.096 25.304C117.408 25.344 117.684 25.408 117.924 25.496V25.04C117.924 24.56 117.78 24.184 117.492 23.912C117.204 23.632 116.796 23.492 116.268 23.492C115.924 23.492 115.592 23.556 115.272 23.684C114.96 23.804 114.628 23.98 114.276 24.212L113.892 23.468C114.3 23.188 114.708 22.98 115.116 22.844C115.524 22.7 115.948 22.628 116.388 22.628C117.188 22.628 117.82 22.852 118.284 23.3C118.748 23.74 118.98 24.356 118.98 25.148V27.8C118.98 27.928 119.004 28.024 119.052 28.088C119.108 28.144 119.196 28.176 119.316 28.184V29C119.212 29.016 119.12 29.028 119.04 29.036C118.968 29.044 118.908 29.048 118.86 29.048C118.612 29.048 118.424 28.98 118.296 28.844C118.176 28.708 118.108 28.564 118.092 28.412L118.068 28.016C117.796 28.368 117.44 28.64 117 28.832C116.56 29.024 116.124 29.12 115.692 29.12C115.276 29.12 114.904 29.036 114.576 28.868C114.248 28.692 113.992 28.46 113.808 28.172C113.624 27.876 113.532 27.548 113.532 27.188ZM117.612 27.632C117.708 27.52 117.784 27.408 117.84 27.296C117.896 27.176 117.924 27.076 117.924 26.996V26.216C117.676 26.12 117.416 26.048 117.144 26C116.872 25.944 116.604 25.916 116.34 25.916C115.804 25.916 115.368 26.024 115.032 26.24C114.704 26.448 114.54 26.736 114.54 27.104C114.54 27.304 114.592 27.5 114.696 27.692C114.808 27.876 114.968 28.028 115.176 28.148C115.392 28.268 115.656 28.328 115.968 28.328C116.296 28.328 116.608 28.264 116.904 28.136C117.2 28 117.436 27.832 117.612 27.632ZM123.98 23.66C123.452 23.668 122.984 23.804 122.576 24.068C122.176 24.324 121.892 24.68 121.724 25.136V29H120.668V22.736H121.652V24.188C121.868 23.756 122.152 23.408 122.504 23.144C122.864 22.872 123.24 22.72 123.632 22.688C123.712 22.688 123.78 22.688 123.836 22.688C123.892 22.688 123.94 22.692 123.98 22.7V23.66ZM128.268 28.688C128.18 28.728 128.06 28.78 127.908 28.844C127.756 28.908 127.58 28.964 127.38 29.012C127.18 29.06 126.968 29.084 126.744 29.084C126.488 29.084 126.252 29.04 126.036 28.952C125.82 28.856 125.648 28.712 125.52 28.52C125.392 28.32 125.328 28.072 125.328 27.776V23.564H124.476V22.736H125.328V20.648H126.384V22.736H127.788V23.564H126.384V27.452C126.4 27.676 126.476 27.844 126.612 27.956C126.748 28.06 126.908 28.112 127.092 28.112C127.3 28.112 127.492 28.076 127.668 28.004C127.844 27.932 127.96 27.88 128.016 27.848L128.268 28.688ZM135.148 20.528H136.168L137.296 23.492L138.436 20.528H139.456L137.98 24.236L139.444 27.752L142.324 20.48H143.5L139.936 29H139L137.308 24.98L135.604 29H134.668L131.116 20.48H132.28L135.172 27.752L136.624 24.236L135.148 20.528ZM143.309 27.188C143.309 26.788 143.421 26.444 143.645 26.156C143.877 25.86 144.193 25.632 144.593 25.472C144.993 25.312 145.457 25.232 145.985 25.232C146.265 25.232 146.561 25.256 146.873 25.304C147.185 25.344 147.461 25.408 147.701 25.496V25.04C147.701 24.56 147.557 24.184 147.269 23.912C146.981 23.632 146.573 23.492 146.045 23.492C145.701 23.492 145.369 23.556 145.049 23.684C144.737 23.804 144.405 23.98 144.053 24.212L143.669 23.468C144.077 23.188 144.485 22.98 144.893 22.844C145.301 22.7 145.725 22.628 146.165 22.628C146.965 22.628 147.597 22.852 148.061 23.3C148.525 23.74 148.757 24.356 148.757 25.148V27.8C148.757 27.928 148.781 28.024 148.829 28.088C148.885 28.144 148.973 28.176 149.093 28.184V29C148.989 29.016 148.897 29.028 148.817 29.036C148.745 29.044 148.685 29.048 148.637 29.048C148.389 29.048 148.201 28.98 148.073 28.844C147.953 28.708 147.885 28.564 147.869 28.412L147.845 28.016C147.573 28.368 147.217 28.64 146.777 28.832C146.337 29.024 145.901 29.12 145.469 29.12C145.053 29.12 144.681 29.036 144.353 28.868C144.025 28.692 143.769 28.46 143.585 28.172C143.401 27.876 143.309 27.548 143.309 27.188ZM147.389 27.632C147.485 27.52 147.561 27.408 147.617 27.296C147.673 27.176 147.701 27.076 147.701 26.996V26.216C147.453 26.12 147.193 26.048 146.921 26C146.649 25.944 146.381 25.916 146.117 25.916C145.581 25.916 145.145 26.024 144.809 26.24C144.481 26.448 144.317 26.736 144.317 27.104C144.317 27.304 144.369 27.5 144.473 27.692C144.585 27.876 144.745 28.028 144.953 28.148C145.169 28.268 145.433 28.328 145.745 28.328C146.073 28.328 146.385 28.264 146.681 28.136C146.977 28 147.213 27.832 147.389 27.632ZM150.47 20.24H151.526V27.38C151.526 27.724 151.574 27.936 151.67 28.016C151.766 28.096 151.882 28.136 152.018 28.136C152.186 28.136 152.346 28.12 152.498 28.088C152.65 28.048 152.778 28.008 152.882 27.968L153.05 28.832C152.874 28.904 152.666 28.964 152.426 29.012C152.186 29.06 151.974 29.084 151.79 29.084C151.382 29.084 151.058 28.968 150.818 28.736C150.586 28.504 150.47 28.18 150.47 27.764V20.24ZM153.903 20.24H154.959V27.38C154.959 27.724 155.007 27.936 155.103 28.016C155.199 28.096 155.315 28.136 155.451 28.136C155.619 28.136 155.779 28.12 155.931 28.088C156.083 28.048 156.211 28.008 156.315 27.968L156.483 28.832C156.307 28.904 156.099 28.964 155.859 29.012C155.619 29.06 155.407 29.084 155.223 29.084C154.815 29.084 154.491 28.968 154.251 28.736C154.019 28.504 153.903 28.18 153.903 27.764V20.24ZM160.085 29.12C159.613 29.12 159.181 29.036 158.789 28.868C158.405 28.692 158.069 28.456 157.781 28.16C157.501 27.856 157.281 27.508 157.121 27.116C156.969 26.724 156.893 26.308 156.893 25.868C156.893 25.276 157.029 24.736 157.301 24.248C157.573 23.76 157.949 23.368 158.429 23.072C158.917 22.776 159.473 22.628 160.097 22.628C160.729 22.628 161.277 22.78 161.741 23.084C162.213 23.38 162.577 23.772 162.833 24.26C163.097 24.74 163.229 25.26 163.229 25.82C163.229 25.9 163.225 25.98 163.217 26.06C163.217 26.132 163.213 26.188 163.205 26.228H158.009C158.041 26.636 158.153 27 158.345 27.32C158.545 27.632 158.801 27.88 159.113 28.064C159.425 28.24 159.761 28.328 160.121 28.328C160.505 28.328 160.865 28.232 161.201 28.04C161.545 27.848 161.781 27.596 161.909 27.284L162.821 27.536C162.685 27.84 162.481 28.112 162.209 28.352C161.945 28.592 161.629 28.78 161.261 28.916C160.901 29.052 160.509 29.12 160.085 29.12ZM157.973 25.496H162.245C162.213 25.088 162.097 24.728 161.897 24.416C161.697 24.104 161.441 23.86 161.129 23.684C160.817 23.508 160.473 23.42 160.097 23.42C159.729 23.42 159.389 23.508 159.077 23.684C158.765 23.86 158.509 24.104 158.309 24.416C158.117 24.728 158.005 25.088 157.973 25.496ZM167.584 28.688C167.496 28.728 167.376 28.78 167.224 28.844C167.072 28.908 166.896 28.964 166.696 29.012C166.496 29.06 166.284 29.084 166.06 29.084C165.804 29.084 165.568 29.04 165.352 28.952C165.136 28.856 164.964 28.712 164.836 28.52C164.708 28.32 164.644 28.072 164.644 27.776V23.564H163.792V22.736H164.644V20.648H165.7V22.736H167.104V23.564H165.7V27.452C165.716 27.676 165.792 27.844 165.928 27.956C166.064 28.06 166.224 28.112 166.408 28.112C166.616 28.112 166.808 28.076 166.984 28.004C167.16 27.932 167.276 27.88 167.332 27.848L167.584 28.688ZM177.55 28.04V29H171.766V20.48H177.442V21.44H172.846V24.2H176.842V25.1H172.846V28.04H177.55ZM179.032 29V20.48H182.68C183.056 20.48 183.4 20.56 183.712 20.72C184.024 20.872 184.296 21.08 184.528 21.344C184.76 21.6 184.94 21.892 185.068 22.22C185.196 22.54 185.26 22.868 185.26 23.204C185.26 23.596 185.184 23.968 185.032 24.32C184.888 24.672 184.68 24.972 184.408 25.22C184.144 25.468 183.832 25.64 183.472 25.736L185.536 29H184.312L182.368 25.94H180.112V29H179.032ZM180.112 24.98H182.692C182.988 24.98 183.244 24.9 183.46 24.74C183.684 24.572 183.856 24.352 183.976 24.08C184.104 23.808 184.168 23.516 184.168 23.204C184.168 22.884 184.096 22.592 183.952 22.328C183.808 22.056 183.62 21.84 183.388 21.68C183.156 21.52 182.9 21.44 182.62 21.44H180.112V24.98ZM186.366 24.68C186.366 24.16 186.454 23.652 186.63 23.156C186.814 22.652 187.078 22.196 187.422 21.788C187.774 21.372 188.202 21.044 188.706 20.804C189.21 20.556 189.782 20.432 190.422 20.432C191.182 20.432 191.834 20.608 192.378 20.96C192.922 21.304 193.326 21.748 193.59 22.292L192.738 22.844C192.57 22.484 192.354 22.2 192.09 21.992C191.834 21.776 191.554 21.624 191.25 21.536C190.954 21.448 190.662 21.404 190.374 21.404C189.902 21.404 189.482 21.5 189.114 21.692C188.754 21.884 188.45 22.14 188.202 22.46C187.954 22.78 187.766 23.14 187.638 23.54C187.518 23.932 187.458 24.328 187.458 24.728C187.458 25.168 187.53 25.592 187.674 26C187.826 26.408 188.034 26.768 188.298 27.08C188.562 27.392 188.874 27.64 189.234 27.824C189.594 28.008 189.986 28.1 190.41 28.1C190.706 28.1 191.01 28.048 191.322 27.944C191.634 27.84 191.926 27.68 192.198 27.464C192.47 27.24 192.686 26.952 192.846 26.6L193.746 27.092C193.57 27.516 193.298 27.876 192.93 28.172C192.562 28.468 192.15 28.692 191.694 28.844C191.246 28.996 190.802 29.072 190.362 29.072C189.778 29.072 189.242 28.948 188.754 28.7C188.266 28.444 187.842 28.108 187.482 27.692C187.13 27.268 186.854 26.796 186.654 26.276C186.462 25.748 186.366 25.216 186.366 24.68ZM194.846 26.204V25.244H198.386V26.204H194.846ZM203.292 30.524V28.496H199.44V27.56L203.628 22.148H204.348V27.536H205.404V28.496H204.348V30.524H203.292ZM200.532 27.536H203.4V23.78L200.532 27.536ZM210.14 26.168C210.484 26.224 210.78 26.352 211.028 26.552C211.276 26.744 211.468 26.992 211.604 27.296C211.74 27.592 211.808 27.928 211.808 28.304C211.808 28.792 211.688 29.22 211.448 29.588C211.216 29.964 210.884 30.252 210.452 30.452C210.02 30.66 209.516 30.764 208.94 30.764C208.332 30.764 207.796 30.648 207.332 30.416C206.876 30.192 206.52 29.872 206.264 29.456L206.972 28.748C207.156 29.068 207.404 29.324 207.716 29.516C208.036 29.708 208.444 29.804 208.94 29.804C209.492 29.804 209.924 29.676 210.236 29.42C210.556 29.172 210.716 28.8 210.716 28.304C210.716 27.8 210.544 27.4 210.2 27.104C209.864 26.8 209.372 26.648 208.724 26.648H208.412V25.76H208.748C209.324 25.76 209.764 25.62 210.068 25.34C210.38 25.06 210.536 24.712 210.536 24.296C210.536 24.008 210.468 23.772 210.332 23.588C210.196 23.404 210.012 23.268 209.78 23.18C209.548 23.084 209.28 23.036 208.976 23.036C208.536 23.036 208.148 23.132 207.812 23.324C207.484 23.508 207.228 23.768 207.044 24.104L206.396 23.432C206.54 23.16 206.744 22.924 207.008 22.724C207.28 22.524 207.592 22.368 207.944 22.256C208.304 22.144 208.684 22.088 209.084 22.088C209.588 22.088 210.032 22.176 210.416 22.352C210.808 22.528 211.112 22.776 211.328 23.096C211.544 23.416 211.652 23.792 211.652 24.224C211.652 24.536 211.592 24.832 211.472 25.112C211.352 25.384 211.176 25.616 210.944 25.808C210.72 25.992 210.452 26.112 210.14 26.168ZM216.62 26.168C216.964 26.224 217.26 26.352 217.508 26.552C217.756 26.744 217.948 26.992 218.084 27.296C218.22 27.592 218.288 27.928 218.288 28.304C218.288 28.792 218.168 29.22 217.928 29.588C217.696 29.964 217.364 30.252 216.932 30.452C216.5 30.66 215.996 30.764 215.42 30.764C214.812 30.764 214.276 30.648 213.812 30.416C213.356 30.192 213 29.872 212.744 29.456L213.452 28.748C213.636 29.068 213.884 29.324 214.196 29.516C214.516 29.708 214.924 29.804 215.42 29.804C215.972 29.804 216.404 29.676 216.716 29.42C217.036 29.172 217.196 28.8 217.196 28.304C217.196 27.8 217.024 27.4 216.68 27.104C216.344 26.8 215.852 26.648 215.204 26.648H214.892V25.76H215.228C215.804 25.76 216.244 25.62 216.548 25.34C216.86 25.06 217.016 24.712 217.016 24.296C217.016 24.008 216.948 23.772 216.812 23.588C216.676 23.404 216.492 23.268 216.26 23.18C216.028 23.084 215.76 23.036 215.456 23.036C215.016 23.036 214.628 23.132 214.292 23.324C213.964 23.508 213.708 23.768 213.524 24.104L212.876 23.432C213.02 23.16 213.224 22.924 213.488 22.724C213.76 22.524 214.072 22.368 214.424 22.256C214.784 22.144 215.164 22.088 215.564 22.088C216.068 22.088 216.512 22.176 216.896 22.352C217.288 22.528 217.592 22.776 217.808 23.096C218.024 23.416 218.132 23.792 218.132 24.224C218.132 24.536 218.072 24.832 217.952 25.112C217.832 25.384 217.656 25.616 217.424 25.808C217.2 25.992 216.932 26.112 216.62 26.168ZM223.509 22.976H219.129V22.004H225.177L220.893 30.524H219.693L223.509 22.976Z" fill="#8C56FF"/>
<rect x="75.5" y="1" width="169" height="48" rx="9" stroke="url(#paint2_linear_571_9381)" stroke-width="2"/>
</g>
<defs>
<filter id="filter0_b_571_9381" x="69.5" y="-5" width="181" height="60" filterUnits="userSpaceOnUse" color-interpolation-filters="sRGB">
<feFlood flood-opacity="0" result="BackgroundImageFix"/>
<feGaussianBlur in="BackgroundImageFix" stdDeviation="2.5"/>
<feComposite in2="SourceAlpha" operator="in" result="effect1_backgroundBlur_571_9381"/>
<feBlend mode="normal" in="SourceGraphic" in2="effect1_backgroundBlur_571_9381" result="shape"/>
</filter>
<linearGradient id="paint0_linear_571_9381" x1="74.5" y1="25.5005" x2="-16.2658" y2="25.5012" gradientUnits="userSpaceOnUse">
<stop stop-color="#767DFF"/>
<stop offset="0.484375" stop-color="#66B6FF"/>
<stop offset="1" stop-color="#767DFF"/>
</linearGradient>
<linearGradient id="paint1_linear_571_9381" x1="6.50622" y1="19" x2="6.50622" y2="36.5676" gradientUnits="userSpaceOnUse">
<stop stop-color="#767DFF"/>
<stop offset="0.484375" stop-color="#66B6FF"/>
<stop offset="1" stop-color="#767DFF"/>
</linearGradient>
<linearGradient id="paint2_linear_571_9381" x1="160.089" y1="-5.914e-08" x2="160.089" y2="73.1982" gradientUnits="userSpaceOnUse">
<stop stop-color="#8C56FF"/>
<stop offset="0.484375" stop-color="#66E3FF"/>
<stop offset="1" stop-color="#8C56FF"/>
</linearGradient>
</defs>
</svg>
