<svg width="164" height="50" viewBox="0 0 164 50" fill="none" xmlns="http://www.w3.org/2000/svg">
<path d="M12.0002 24.9182L74 25.0818" stroke="url(#paint0_linear_571_9369)" stroke-width="2"/>
<circle cx="6" cy="6" r="5" transform="matrix(4.37114e-08 -1 -1 -4.37114e-08 12.0002 31)" fill="#131416" fill-opacity="0.5" stroke="url(#paint1_linear_571_9369)" stroke-width="2"/>
<g filter="url(#filter0_b_571_9369)">
<rect x="74" width="90" height="50" rx="10" fill="#121212" fill-opacity="0.5"/>
<path d="M102.738 29V22.496L99.9296 27.5H99.2696L96.4496 22.496V29H95.3696V20.48H96.5096L99.5936 26.012L102.69 20.48H103.818V29H102.738ZM105.63 26.492V22.736H106.686V26.288C106.686 26.928 106.798 27.408 107.022 27.728C107.246 28.048 107.578 28.208 108.018 28.208C108.306 28.208 108.582 28.148 108.846 28.028C109.118 27.9 109.362 27.72 109.578 27.488C109.794 27.256 109.962 26.98 110.082 26.66V22.736H111.138V27.8C111.138 27.928 111.162 28.024 111.21 28.088C111.266 28.144 111.354 28.176 111.474 28.184V29C111.354 29.016 111.258 29.024 111.186 29.024C111.122 29.032 111.058 29.036 110.994 29.036C110.794 29.036 110.622 28.976 110.478 28.856C110.334 28.728 110.258 28.572 110.25 28.388L110.226 27.656C109.954 28.12 109.586 28.48 109.122 28.736C108.666 28.992 108.166 29.12 107.622 29.12C106.966 29.12 106.47 28.9 106.134 28.46C105.798 28.012 105.63 27.356 105.63 26.492ZM112.921 20.24H113.977V27.38C113.977 27.724 114.025 27.936 114.121 28.016C114.217 28.096 114.333 28.136 114.469 28.136C114.637 28.136 114.797 28.12 114.949 28.088C115.101 28.048 115.229 28.008 115.333 27.968L115.501 28.832C115.325 28.904 115.117 28.964 114.877 29.012C114.637 29.06 114.425 29.084 114.241 29.084C113.833 29.084 113.509 28.968 113.269 28.736C113.037 28.504 112.921 28.18 112.921 27.764V20.24ZM119.571 28.688C119.483 28.728 119.363 28.78 119.211 28.844C119.059 28.908 118.883 28.964 118.683 29.012C118.483 29.06 118.271 29.084 118.047 29.084C117.791 29.084 117.555 29.04 117.339 28.952C117.123 28.856 116.951 28.712 116.823 28.52C116.695 28.32 116.631 28.072 116.631 27.776V23.564H115.779V22.736H116.631V20.648H117.687V22.736H119.091V23.564H117.687V27.452C117.703 27.676 117.779 27.844 117.915 27.956C118.051 28.06 118.211 28.112 118.395 28.112C118.603 28.112 118.795 28.076 118.971 28.004C119.147 27.932 119.263 27.88 119.319 27.848L119.571 28.688ZM120.549 29V22.736H121.605V29H120.549ZM120.549 21.56V20.24H121.605V21.56H120.549ZM123.231 26.204V25.244H126.771V26.204H123.231ZM130.537 29.12C130.017 29.12 129.529 29.036 129.073 28.868C128.617 28.692 128.225 28.432 127.897 28.088L128.305 27.344C128.665 27.68 129.025 27.92 129.385 28.064C129.745 28.208 130.113 28.28 130.489 28.28C130.921 28.28 131.273 28.2 131.545 28.04C131.817 27.872 131.953 27.628 131.953 27.308C131.953 27.076 131.881 26.904 131.737 26.792C131.601 26.68 131.405 26.588 131.149 26.516C130.893 26.436 130.589 26.348 130.237 26.252C129.805 26.124 129.441 25.988 129.145 25.844C128.849 25.7 128.625 25.52 128.473 25.304C128.321 25.088 128.245 24.816 128.245 24.488C128.245 24.088 128.349 23.752 128.557 23.48C128.765 23.2 129.049 22.988 129.409 22.844C129.777 22.7 130.193 22.628 130.657 22.628C131.121 22.628 131.541 22.7 131.917 22.844C132.293 22.988 132.617 23.2 132.889 23.48L132.409 24.212C132.161 23.956 131.889 23.768 131.593 23.648C131.297 23.52 130.965 23.456 130.597 23.456C130.381 23.456 130.169 23.484 129.961 23.54C129.753 23.588 129.581 23.68 129.445 23.816C129.309 23.944 129.241 24.128 129.241 24.368C129.241 24.568 129.293 24.728 129.397 24.848C129.509 24.96 129.669 25.056 129.877 25.136C130.093 25.216 130.353 25.304 130.657 25.4C131.129 25.536 131.537 25.672 131.881 25.808C132.233 25.944 132.505 26.12 132.697 26.336C132.889 26.552 132.985 26.852 132.985 27.236C132.985 27.828 132.761 28.292 132.313 28.628C131.865 28.956 131.273 29.12 130.537 29.12ZM134.248 29V22.736H135.304V29H134.248ZM134.248 21.56V20.24H135.304V21.56H134.248ZM139.51 29.072C139.086 29.072 138.694 28.988 138.334 28.82C137.982 28.644 137.678 28.408 137.422 28.112C137.166 27.808 136.966 27.464 136.822 27.08C136.686 26.696 136.618 26.296 136.618 25.88C136.618 25.44 136.686 25.024 136.822 24.632C136.966 24.24 137.166 23.896 137.422 23.6C137.686 23.296 137.994 23.06 138.346 22.892C138.698 22.716 139.09 22.628 139.522 22.628C140.042 22.628 140.494 22.756 140.878 23.012C141.27 23.268 141.598 23.592 141.862 23.984V22.736H142.798V28.928C142.798 29.52 142.654 30.02 142.366 30.428C142.086 30.836 141.702 31.144 141.214 31.352C140.734 31.568 140.198 31.676 139.606 31.676C138.902 31.676 138.326 31.552 137.878 31.304C137.43 31.056 137.058 30.72 136.762 30.296L137.374 29.756C137.622 30.124 137.942 30.4 138.334 30.584C138.734 30.768 139.158 30.86 139.606 30.86C139.99 30.86 140.342 30.788 140.662 30.644C140.99 30.508 141.25 30.296 141.442 30.008C141.642 29.72 141.742 29.36 141.742 28.928V27.824C141.51 28.208 141.19 28.512 140.782 28.736C140.382 28.96 139.958 29.072 139.51 29.072ZM139.834 28.208C140.058 28.208 140.274 28.168 140.482 28.088C140.69 28.008 140.882 27.904 141.058 27.776C141.234 27.64 141.382 27.488 141.502 27.32C141.622 27.152 141.702 26.98 141.742 26.804V25.004C141.63 24.716 141.47 24.464 141.262 24.248C141.054 24.024 140.818 23.852 140.554 23.732C140.29 23.604 140.018 23.54 139.738 23.54C139.418 23.54 139.13 23.608 138.874 23.744C138.626 23.88 138.414 24.064 138.238 24.296C138.062 24.52 137.926 24.772 137.83 25.052C137.734 25.332 137.686 25.616 137.686 25.904C137.686 26.216 137.742 26.512 137.854 26.792C137.966 27.064 138.118 27.308 138.31 27.524C138.502 27.74 138.73 27.908 138.994 28.028C139.258 28.148 139.538 28.208 139.834 28.208Z" fill="#8C56FF"/>
<rect x="75" y="1" width="88" height="48" rx="9" stroke="url(#paint2_linear_571_9369)" stroke-width="2"/>
</g>
<defs>
<filter id="filter0_b_571_9369" x="69" y="-5" width="100" height="60" filterUnits="userSpaceOnUse" color-interpolation-filters="sRGB">
<feFlood flood-opacity="0" result="BackgroundImageFix"/>
<feGaussianBlur in="BackgroundImageFix" stdDeviation="2.5"/>
<feComposite in2="SourceAlpha" operator="in" result="effect1_backgroundBlur_571_9369"/>
<feBlend mode="normal" in="SourceGraphic" in2="effect1_backgroundBlur_571_9369" result="shape"/>
</filter>
<linearGradient id="paint0_linear_571_9369" x1="74.0008" y1="24.5813" x2="-16.7648" y2="24.4349" gradientUnits="userSpaceOnUse">
<stop stop-color="#767DFF"/>
<stop offset="0.484375" stop-color="#66B6FF"/>
<stop offset="1" stop-color="#767DFF"/>
</linearGradient>
<linearGradient id="paint1_linear_571_9369" x1="6.00622" y1="-1.41936e-08" x2="6.00622" y2="17.5676" gradientUnits="userSpaceOnUse">
<stop stop-color="#767DFF"/>
<stop offset="0.484375" stop-color="#66B6FF"/>
<stop offset="1" stop-color="#767DFF"/>
</linearGradient>
<linearGradient id="paint2_linear_571_9369" x1="119.047" y1="-5.914e-08" x2="119.047" y2="73.1982" gradientUnits="userSpaceOnUse">
<stop stop-color="#8C56FF"/>
<stop offset="0.484375" stop-color="#66E3FF"/>
<stop offset="1" stop-color="#8C56FF"/>
</linearGradient>
</defs>
</svg>
