<svg width="252" height="203" viewBox="0 0 252 203" fill="none" xmlns="http://www.w3.org/2000/svg">
<g filter="url(#filter0_b_431_8843)">
<rect width="252" height="68" rx="10" fill="#121212" fill-opacity="0.5"/>
<path d="M47.4932 41.1C46.4932 41.1 45.5865 40.9 44.7732 40.5C43.9599 40.0867 43.2532 39.54 42.6532 38.86C42.0665 38.18 41.6132 37.4133 41.2932 36.56C40.9732 35.6933 40.8132 34.8067 40.8132 33.9C40.8132 32.9533 40.9799 32.0533 41.3132 31.2C41.6599 30.3333 42.1332 29.5667 42.7332 28.9C43.3465 28.22 44.0599 27.6867 44.8732 27.3C45.6865 26.9 46.5732 26.7 47.5332 26.7C48.5332 26.7 49.4399 26.9067 50.2532 27.32C51.0665 27.7333 51.7665 28.2867 52.3532 28.98C52.9399 29.6733 53.3932 30.4467 53.7132 31.3C54.0332 32.1533 54.1932 33.0267 54.1932 33.92C54.1932 34.8667 54.0265 35.7733 53.6932 36.64C53.3599 37.4933 52.8865 38.26 52.2732 38.94C51.6732 39.6067 50.9665 40.1333 50.1532 40.52C49.3399 40.9067 48.4532 41.1 47.4932 41.1ZM47.5132 39.48C48.2732 39.48 48.9532 39.32 49.5532 39C50.1532 38.68 50.6599 38.2533 51.0732 37.72C51.4999 37.1867 51.8199 36.5867 52.0332 35.92C52.2599 35.2533 52.3732 34.58 52.3732 33.9C52.3732 33.18 52.2532 32.4867 52.0132 31.82C51.7865 31.14 51.4532 30.54 51.0132 30.02C50.5865 29.5 50.0732 29.0867 49.4732 28.78C48.8865 28.4733 48.2332 28.32 47.5132 28.32C46.7532 28.32 46.0732 28.48 45.4732 28.8C44.8732 29.12 44.3599 29.5467 43.9332 30.08C43.5199 30.6133 43.1999 31.2133 42.9732 31.88C42.7465 32.5333 42.6332 33.2067 42.6332 33.9C42.6332 34.62 42.7465 35.32 42.9732 36C43.2132 36.6667 43.5465 37.26 43.9732 37.78C44.3999 38.3 44.9132 38.7133 45.5132 39.02C46.1132 39.3267 46.7799 39.48 47.5132 39.48ZM48.3132 36.36H50.0732L54.0532 41H52.2932L48.3132 36.36ZM56.6551 41V26.8H62.7351C63.3617 26.8 63.9351 26.9333 64.4551 27.2C64.9751 27.4533 65.4284 27.8 65.8151 28.24C66.2017 28.6667 66.5017 29.1533 66.7151 29.7C66.9284 30.2333 67.0351 30.78 67.0351 31.34C67.0351 31.9933 66.9084 32.6133 66.6551 33.2C66.4151 33.7867 66.0684 34.2867 65.6151 34.7C65.1751 35.1133 64.6551 35.4 64.0551 35.56L67.4951 41H65.4551L62.2151 35.9H58.4551V41H56.6551ZM58.4551 34.3H62.7551C63.2484 34.3 63.6751 34.1667 64.0351 33.9C64.4084 33.62 64.6951 33.2533 64.8951 32.8C65.1084 32.3467 65.2151 31.86 65.2151 31.34C65.2151 30.8067 65.0951 30.32 64.8551 29.88C64.6151 29.4267 64.3017 29.0667 63.9151 28.8C63.5284 28.5333 63.1017 28.4 62.6351 28.4H58.4551V34.3ZM69.3796 36.34V34.74H75.2796V36.34H69.3796ZM82.5966 41.2C81.81 41.2 81.09 41.06 80.4366 40.78C79.7966 40.4867 79.2366 40.0867 78.7566 39.58C78.29 39.0733 77.9233 38.4933 77.6566 37.84C77.4033 37.1867 77.2766 36.4933 77.2766 35.76C77.2766 34.7733 77.4966 33.8733 77.9366 33.06C78.3766 32.2467 78.9966 31.6 79.7966 31.12C80.5966 30.6267 81.5233 30.38 82.5766 30.38C83.6033 30.38 84.4966 30.6133 85.2566 31.08C86.03 31.5333 86.6033 32.1467 86.9766 32.92L85.2566 33.46C84.99 32.9667 84.6166 32.5867 84.1366 32.32C83.6566 32.04 83.1233 31.9 82.5366 31.9C81.8966 31.9 81.31 32.0667 80.7766 32.4C80.2566 32.7333 79.8433 33.1933 79.5366 33.78C79.23 34.3533 79.0766 35.0133 79.0766 35.76C79.0766 36.4933 79.23 37.16 79.5366 37.76C79.8566 38.3467 80.2766 38.8133 80.7966 39.16C81.33 39.5067 81.9166 39.68 82.5566 39.68C82.97 39.68 83.3633 39.6067 83.7366 39.46C84.1233 39.3133 84.4566 39.12 84.7366 38.88C85.03 38.6267 85.23 38.3533 85.3366 38.06L87.0566 38.58C86.8433 39.0867 86.5166 39.54 86.0766 39.94C85.65 40.3267 85.1366 40.6333 84.5366 40.86C83.95 41.0867 83.3033 41.2 82.5966 41.2ZM93.5132 41.2C92.7265 41.2 92.0132 41.06 91.3732 40.78C90.7332 40.4867 90.1799 40.0933 89.7132 39.6C89.2465 39.0933 88.8865 38.5133 88.6332 37.86C88.3799 37.2067 88.2532 36.52 88.2532 35.8C88.2532 35.0667 88.3799 34.3733 88.6332 33.72C88.8865 33.0667 89.2465 32.4933 89.7132 32C90.1799 31.4933 90.7332 31.1 91.3732 30.82C92.0265 30.5267 92.7399 30.38 93.5132 30.38C94.2999 30.38 95.0132 30.5267 95.6532 30.82C96.2932 31.1 96.8465 31.4933 97.3132 32C97.7932 32.4933 98.1599 33.0667 98.4132 33.72C98.6665 34.3733 98.7932 35.0667 98.7932 35.8C98.7932 36.52 98.6665 37.2067 98.4132 37.86C98.1599 38.5133 97.7999 39.0933 97.3332 39.6C96.8665 40.0933 96.3065 40.4867 95.6532 40.78C95.0132 41.06 94.2999 41.2 93.5132 41.2ZM90.0532 35.82C90.0532 36.54 90.2065 37.1933 90.5132 37.78C90.8332 38.3667 91.2532 38.8333 91.7732 39.18C92.2932 39.5133 92.8732 39.68 93.5132 39.68C94.1532 39.68 94.7332 39.5067 95.2532 39.16C95.7865 38.8133 96.2065 38.3467 96.5132 37.76C96.8332 37.16 96.9932 36.5 96.9932 35.78C96.9932 35.06 96.8332 34.4067 96.5132 33.82C96.2065 33.2333 95.7865 32.7667 95.2532 32.42C94.7332 32.0733 94.1532 31.9 93.5132 31.9C92.8732 31.9 92.2932 32.08 91.7732 32.44C91.2532 32.7867 90.8332 33.2533 90.5132 33.84C90.2065 34.4267 90.0532 35.0867 90.0532 35.82ZM100.246 35.8C100.246 34.8133 100.446 33.9133 100.846 33.1C101.259 32.2733 101.819 31.6133 102.526 31.12C103.246 30.6267 104.066 30.38 104.986 30.38C105.826 30.38 106.579 30.6 107.246 31.04C107.913 31.48 108.433 32.0133 108.806 32.64V26.4H110.566V39C110.566 39.2133 110.606 39.3733 110.686 39.48C110.779 39.5733 110.926 39.6267 111.126 39.64V41C110.793 41.0533 110.533 41.08 110.346 41.08C109.999 41.08 109.693 40.96 109.426 40.72C109.173 40.48 109.046 40.2133 109.046 39.92V39.04C108.633 39.7067 108.079 40.2333 107.386 40.62C106.693 41.0067 105.973 41.2 105.226 41.2C104.506 41.2 103.839 41.06 103.226 40.78C102.626 40.4867 102.099 40.0867 101.646 39.58C101.206 39.0733 100.859 38.5 100.606 37.86C100.366 37.2067 100.246 36.52 100.246 35.8ZM108.806 37.34V34.34C108.646 33.8867 108.386 33.48 108.026 33.12C107.666 32.7467 107.259 32.4533 106.806 32.24C106.366 32.0133 105.926 31.9 105.486 31.9C104.966 31.9 104.493 32.0133 104.066 32.24C103.653 32.4533 103.293 32.7467 102.986 33.12C102.693 33.48 102.466 33.8933 102.306 34.36C102.146 34.8267 102.066 35.3133 102.066 35.82C102.066 36.34 102.153 36.8333 102.326 37.3C102.513 37.7667 102.766 38.18 103.086 38.54C103.419 38.9 103.799 39.18 104.226 39.38C104.666 39.58 105.139 39.68 105.646 39.68C105.966 39.68 106.293 39.62 106.626 39.5C106.973 39.38 107.299 39.2133 107.606 39C107.913 38.7867 108.173 38.54 108.386 38.26C108.599 37.9667 108.739 37.66 108.806 37.34ZM118.124 41.2C117.337 41.2 116.617 41.06 115.964 40.78C115.324 40.4867 114.764 40.0933 114.284 39.6C113.817 39.0933 113.451 38.5133 113.184 37.86C112.931 37.2067 112.804 36.5133 112.804 35.78C112.804 34.7933 113.031 33.8933 113.484 33.08C113.937 32.2667 114.564 31.6133 115.364 31.12C116.177 30.6267 117.104 30.38 118.144 30.38C119.197 30.38 120.111 30.6333 120.884 31.14C121.671 31.6333 122.277 32.2867 122.704 33.1C123.144 33.9 123.364 34.7667 123.364 35.7C123.364 35.8333 123.357 35.9667 123.344 36.1C123.344 36.22 123.337 36.3133 123.324 36.38H114.664C114.717 37.06 114.904 37.6667 115.224 38.2C115.557 38.72 115.984 39.1333 116.504 39.44C117.024 39.7333 117.584 39.88 118.184 39.88C118.824 39.88 119.424 39.72 119.984 39.4C120.557 39.08 120.951 38.66 121.164 38.14L122.684 38.56C122.457 39.0667 122.117 39.52 121.664 39.92C121.224 40.32 120.697 40.6333 120.084 40.86C119.484 41.0867 118.831 41.2 118.124 41.2ZM114.604 35.16H121.724C121.671 34.48 121.477 33.88 121.144 33.36C120.811 32.84 120.384 32.4333 119.864 32.14C119.344 31.8467 118.771 31.7 118.144 31.7C117.531 31.7 116.964 31.8467 116.444 32.14C115.924 32.4333 115.497 32.84 115.164 33.36C114.844 33.88 114.657 34.48 114.604 35.16ZM130.659 41V26.8H136.579C137.206 26.8 137.779 26.9333 138.299 27.2C138.819 27.4533 139.272 27.8 139.659 28.24C140.046 28.6667 140.346 29.1533 140.559 29.7C140.772 30.2333 140.879 30.78 140.879 31.34C140.879 32.1133 140.706 32.8533 140.359 33.56C140.012 34.2533 139.526 34.82 138.899 35.26C138.272 35.6867 137.539 35.9 136.699 35.9H132.459V41H130.659ZM132.459 34.3H136.599C137.092 34.3 137.519 34.1667 137.879 33.9C138.252 33.6333 138.539 33.2733 138.739 32.82C138.952 32.3667 139.059 31.8733 139.059 31.34C139.059 30.78 138.939 30.28 138.699 29.84C138.459 29.3867 138.146 29.0333 137.759 28.78C137.372 28.5267 136.946 28.4 136.479 28.4H132.459V34.3ZM141.903 37.98C141.903 37.3133 142.089 36.74 142.463 36.26C142.849 35.7667 143.376 35.3867 144.043 35.12C144.709 34.8533 145.483 34.72 146.363 34.72C146.829 34.72 147.323 34.76 147.843 34.84C148.363 34.9067 148.823 35.0133 149.223 35.16V34.4C149.223 33.6 148.983 32.9733 148.503 32.52C148.023 32.0533 147.343 31.82 146.463 31.82C145.889 31.82 145.336 31.9267 144.803 32.14C144.283 32.34 143.729 32.6333 143.143 33.02L142.503 31.78C143.183 31.3133 143.863 30.9667 144.543 30.74C145.223 30.5 145.929 30.38 146.663 30.38C147.996 30.38 149.049 30.7533 149.823 31.5C150.596 32.2333 150.983 33.26 150.983 34.58V39C150.983 39.2133 151.023 39.3733 151.103 39.48C151.196 39.5733 151.343 39.6267 151.543 39.64V41C151.369 41.0267 151.216 41.0467 151.083 41.06C150.963 41.0733 150.863 41.08 150.783 41.08C150.369 41.08 150.056 40.9667 149.843 40.74C149.643 40.5133 149.529 40.2733 149.503 40.02L149.463 39.36C149.009 39.9467 148.416 40.4 147.683 40.72C146.949 41.04 146.223 41.2 145.503 41.2C144.809 41.2 144.189 41.06 143.643 40.78C143.096 40.4867 142.669 40.1 142.363 39.62C142.056 39.1267 141.903 38.58 141.903 37.98ZM148.703 38.72C148.863 38.5333 148.989 38.3467 149.083 38.16C149.176 37.96 149.223 37.7933 149.223 37.66V36.36C148.809 36.2 148.376 36.08 147.923 36C147.469 35.9067 147.023 35.86 146.583 35.86C145.689 35.86 144.963 36.04 144.403 36.4C143.856 36.7467 143.583 37.2267 143.583 37.84C143.583 38.1733 143.669 38.5 143.843 38.82C144.029 39.1267 144.296 39.38 144.643 39.58C145.003 39.78 145.443 39.88 145.963 39.88C146.509 39.88 147.029 39.7733 147.523 39.56C148.016 39.3333 148.409 39.0533 148.703 38.72ZM153.945 43.84C154.118 43.8533 154.292 43.8667 154.465 43.88C154.638 43.9067 154.772 43.92 154.865 43.92C155.078 43.92 155.265 43.8467 155.425 43.7C155.585 43.5533 155.758 43.2667 155.945 42.84C156.145 42.4267 156.398 41.8133 156.705 41L152.285 30.56H154.145L157.665 39.22L160.845 30.56H162.585L157.505 43.74C157.385 44.0467 157.205 44.3333 156.965 44.6C156.738 44.88 156.445 45.1 156.085 45.26C155.725 45.42 155.292 45.5 154.785 45.5C154.665 45.5 154.538 45.4933 154.405 45.48C154.285 45.4667 154.132 45.44 153.945 45.4V43.84ZM180.103 41H178.343V35.16C178.343 34.0667 178.163 33.26 177.803 32.74C177.457 32.22 176.937 31.96 176.243 31.96C175.537 31.96 174.897 32.22 174.323 32.74C173.75 33.2467 173.343 33.9067 173.103 34.72V41H171.343V35.16C171.343 34.0533 171.17 33.2467 170.823 32.74C170.477 32.22 169.957 31.96 169.263 31.96C168.57 31.96 167.93 32.2133 167.343 32.72C166.77 33.2133 166.363 33.8733 166.123 34.7V41H164.363V30.56H165.963V32.8C166.39 32.0267 166.943 31.4333 167.623 31.02C168.303 30.5933 169.07 30.38 169.923 30.38C170.79 30.38 171.483 30.62 172.003 31.1C172.523 31.5667 172.843 32.1733 172.963 32.92C173.43 32.0933 173.997 31.4667 174.663 31.04C175.33 30.6 176.09 30.38 176.943 30.38C177.543 30.38 178.043 30.4933 178.443 30.72C178.857 30.9333 179.183 31.24 179.423 31.64C179.663 32.0267 179.837 32.4867 179.943 33.02C180.05 33.5533 180.103 34.1333 180.103 34.76V41ZM187.46 41.2C186.673 41.2 185.953 41.06 185.3 40.78C184.66 40.4867 184.1 40.0933 183.62 39.6C183.153 39.0933 182.787 38.5133 182.52 37.86C182.267 37.2067 182.14 36.5133 182.14 35.78C182.14 34.7933 182.367 33.8933 182.82 33.08C183.273 32.2667 183.9 31.6133 184.7 31.12C185.513 30.6267 186.44 30.38 187.48 30.38C188.533 30.38 189.447 30.6333 190.22 31.14C191.007 31.6333 191.613 32.2867 192.04 33.1C192.48 33.9 192.7 34.7667 192.7 35.7C192.7 35.8333 192.693 35.9667 192.68 36.1C192.68 36.22 192.673 36.3133 192.66 36.38H184C184.053 37.06 184.24 37.6667 184.56 38.2C184.893 38.72 185.32 39.1333 185.84 39.44C186.36 39.7333 186.92 39.88 187.52 39.88C188.16 39.88 188.76 39.72 189.32 39.4C189.893 39.08 190.287 38.66 190.5 38.14L192.02 38.56C191.793 39.0667 191.453 39.52 191 39.92C190.56 40.32 190.033 40.6333 189.42 40.86C188.82 41.0867 188.167 41.2 187.46 41.2ZM183.94 35.16H191.06C191.007 34.48 190.813 33.88 190.48 33.36C190.147 32.84 189.72 32.4333 189.2 32.14C188.68 31.8467 188.107 31.7 187.48 31.7C186.867 31.7 186.3 31.8467 185.78 32.14C185.26 32.4333 184.833 32.84 184.5 33.36C184.18 33.88 183.993 34.48 183.94 35.16ZM203.716 41H201.956V35.16C201.956 34.0533 201.783 33.2467 201.436 32.74C201.103 32.22 200.59 31.96 199.896 31.96C199.416 31.96 198.936 32.08 198.456 32.32C197.99 32.56 197.57 32.8867 197.196 33.3C196.836 33.7 196.576 34.1667 196.416 34.7V41H194.656V30.56H196.256V32.8C196.536 32.3067 196.896 31.88 197.336 31.52C197.776 31.16 198.276 30.88 198.836 30.68C199.396 30.48 199.983 30.38 200.596 30.38C201.196 30.38 201.696 30.4933 202.096 30.72C202.51 30.9333 202.83 31.24 203.056 31.64C203.296 32.0267 203.463 32.4867 203.556 33.02C203.663 33.5533 203.716 34.1333 203.716 34.76V41ZM211.756 40.48C211.609 40.5467 211.409 40.6333 211.156 40.74C210.902 40.8467 210.609 40.94 210.276 41.02C209.942 41.1 209.589 41.14 209.216 41.14C208.789 41.14 208.396 41.0667 208.036 40.92C207.676 40.76 207.389 40.52 207.176 40.2C206.962 39.8667 206.856 39.4533 206.856 38.96V31.94H205.436V30.56H206.856V27.08H208.616V30.56H210.956V31.94H208.616V38.42C208.642 38.7933 208.769 39.0733 208.996 39.26C209.222 39.4333 209.489 39.52 209.796 39.52C210.142 39.52 210.462 39.46 210.756 39.34C211.049 39.22 211.242 39.1333 211.336 39.08L211.756 40.48Z" fill="#8C56FF"/>
<rect x="1" y="1" width="250" height="66" rx="9" stroke="url(#paint0_linear_431_8843)" stroke-width="2"/>
</g>
<path d="M126.114 179L125.886 68.0001" stroke="url(#paint1_linear_431_8843)" stroke-width="2"/>
<circle cx="126" cy="191" r="11" fill="#131416" fill-opacity="0.5" stroke="url(#paint2_linear_431_8843)" stroke-width="2"/>
<defs>
<filter id="filter0_b_431_8843" x="-5" y="-5" width="262" height="78" filterUnits="userSpaceOnUse" color-interpolation-filters="sRGB">
<feFlood flood-opacity="0" result="BackgroundImageFix"/>
<feGaussianBlur in="BackgroundImageFix" stdDeviation="2.5"/>
<feComposite in2="SourceAlpha" operator="in" result="effect1_backgroundBlur_431_8843"/>
<feBlend mode="normal" in="SourceGraphic" in2="effect1_backgroundBlur_431_8843" result="shape"/>
</filter>
<linearGradient id="paint0_linear_431_8843" x1="126.131" y1="-8.04303e-08" x2="126.131" y2="99.5496" gradientUnits="userSpaceOnUse">
<stop stop-color="#8C56FF"/>
<stop offset="0.484375" stop-color="#66E3FF"/>
<stop offset="1" stop-color="#8C56FF"/>
</linearGradient>
<linearGradient id="paint1_linear_431_8843" x1="126.386" y1="67.9991" x2="126.723" y2="230.499" gradientUnits="userSpaceOnUse">
<stop stop-color="#767DFF"/>
<stop offset="0.484375" stop-color="#66B6FF"/>
<stop offset="1" stop-color="#767DFF"/>
</linearGradient>
<linearGradient id="paint2_linear_431_8843" x1="126.012" y1="179" x2="126.012" y2="214.135" gradientUnits="userSpaceOnUse">
<stop stop-color="#767DFF"/>
<stop offset="0.484375" stop-color="#66B6FF"/>
<stop offset="1" stop-color="#767DFF"/>
</linearGradient>
</defs>
</svg>
