<svg width="166" height="60" viewBox="0 0 166 60" fill="none" xmlns="http://www.w3.org/2000/svg">
<path fill-rule="evenodd" clip-rule="evenodd" d="M93.1911 20.095C93.6472 18.729 95.0007 17.7488 96.7329 17.5302C97.2473 17.4653 98.4109 17.51 98.9881 17.6168C100.03 17.8097 100.738 18.0798 101.057 18.4069L101.233 18.587L101.248 19.223C101.262 19.8163 101.257 19.8655 101.168 19.9541C101.037 20.0857 100.945 20.0753 100.438 19.8711C99.4589 19.4766 98.8321 19.3529 97.8196 19.3543C96.5418 19.3561 95.852 19.6141 95.4945 20.2241C95.3938 20.396 95.3692 20.503 95.3532 20.8377C95.3348 21.2205 95.3419 21.2597 95.4803 21.5408C95.5894 21.7624 95.6882 21.8848 95.8668 22.0197C96.2964 22.344 96.6737 22.4938 98.6299 23.117C100.007 23.5558 100.544 23.8243 101.052 24.3286C101.487 24.7611 101.75 25.2308 101.877 25.804C101.975 26.2429 101.949 27.177 101.829 27.5642C101.33 29.1649 99.8527 30.1626 97.6778 30.3666C96.1163 30.5132 93.7489 29.9974 93.1266 29.3752C92.9296 29.1781 92.904 29.0513 92.9238 28.3678C92.9464 27.5886 93.0049 27.5636 93.9424 27.9323C95.033 28.3614 95.7834 28.5032 96.9489 28.5004C97.6799 28.4987 97.8497 28.4842 98.1817 28.3951C98.8987 28.2028 99.2815 27.9309 99.5215 27.4434C99.6496 27.1833 99.6692 27.0961 99.6684 26.7923C99.667 26.3388 99.5427 26.0416 99.2328 25.7518C98.9196 25.4588 98.5335 25.2934 97.1546 24.8616C95.6028 24.3757 95.4876 24.3343 95.0092 24.091C94.2173 23.6883 93.7276 23.2001 93.368 22.4549C93.2707 22.2533 93.1582 21.9337 93.118 21.7446C93.0192 21.2796 93.0534 20.5075 93.1911 20.095ZM65.0329 18.6279C65.3677 18.2767 66.7667 17.7846 67.9626 17.5973C68.5059 17.5122 69.9149 17.514 70.5029 17.6006C71.5302 17.7518 72.2588 18.0851 72.8475 18.6732C73.4138 19.239 73.6937 19.8195 73.8855 20.8261C73.9473 21.1504 73.9654 21.7295 73.9909 24.1962C74.0169 26.711 74.0138 27.2738 74.1878 27.7752C74.2488 27.9509 74.3316 28.1191 74.4449 28.361C74.5735 28.6355 74.6787 28.9162 74.6787 28.9849C74.6787 29.1799 74.5223 29.335 73.9336 29.724C73.3346 30.1197 73.1848 30.1599 72.9199 29.9962C72.7315 29.8797 72.3608 29.3804 72.0915 28.8805L71.8749 28.4785L71.4691 28.8646C70.7174 29.5799 69.9654 29.994 69.0425 30.2008C67.8466 30.4687 66.5601 30.3231 65.6973 29.8221C65.2571 29.5665 64.7494 29.0358 64.5215 28.593C64.1838 27.9369 64.0911 27.5302 64.0906 26.7047C64.09 25.6461 64.3738 24.8766 65.0148 24.1994C65.5412 23.6433 66.0422 23.3295 66.7975 23.0829C67.8712 22.7322 69.345 22.737 71.1159 23.0969C71.4246 23.1597 71.6875 23.211 71.7001 23.211C71.7542 23.211 71.6949 21.5622 71.6285 21.2177C71.4466 20.2748 70.9785 19.7633 70.0735 19.5186C69.6378 19.4008 68.4309 19.3772 67.8442 19.4751C67.3146 19.5634 66.5586 19.7812 65.8348 20.0541C64.9454 20.3895 64.8954 20.3564 64.8954 19.4318V18.772L65.0329 18.6279ZM75.3431 18.4291C75.2788 18.1542 75.308 17.9625 75.4263 17.8842C75.4562 17.8644 75.9072 17.8537 76.4286 17.8604L77.3765 17.8726L77.5185 18.0087C77.6989 18.1816 77.734 18.2997 78.4533 21.1489C79.8885 26.8344 80.0743 27.587 80.1068 27.5805C80.1152 27.5788 80.1133 27.5266 80.1201 27.4955C80.1311 27.4451 80.3758 26.4037 80.6639 25.1814C80.952 23.9591 81.228 22.7837 81.2774 22.5695C81.8232 20.2026 82.3005 18.2674 82.3669 18.1521C82.5266 17.8754 82.66 17.8454 83.668 17.8598C84.5481 17.8722 84.5722 17.8752 84.6864 17.9826C84.7508 18.0431 84.8353 18.1771 84.8742 18.2804C84.9399 18.4549 85.1749 19.4368 86.575 25.387C86.8656 26.6216 87.1108 27.6392 87.12 27.6484C87.1291 27.6576 87.1576 27.5857 87.1833 27.4887C87.2465 27.2494 88.5572 22.1713 89.0976 20.0721C89.3377 19.1396 89.5787 18.2941 89.6332 18.1933C89.8011 17.8826 89.9224 17.8498 90.9046 17.8497C91.7076 17.8497 91.7616 17.8551 91.8424 17.9443C91.9017 18.0099 91.9254 18.0988 91.9195 18.2337C91.9122 18.4027 91.4275 19.9822 88.9068 28.053C88.6457 28.8889 88.3993 29.6362 88.3592 29.7137C88.2111 30.0001 88.144 30.0158 87.0682 30.0158H86.0961L85.972 29.9012C85.9037 29.8382 85.8215 29.7248 85.7893 29.6492C85.7364 29.525 85.4285 28.2591 84.0504 22.5007C83.8091 21.4926 83.5999 20.6369 83.5854 20.5991C83.5583 20.5282 83.5079 20.7308 82.4458 25.1814C81.422 29.4712 81.3622 29.7606 81.1859 29.8851C81.1624 29.9016 81.137 29.9152 81.1069 29.9349C80.9993 30.0054 80.8651 30.0158 80.057 30.0158C79.1867 30.0158 79.1226 30.0099 79.001 29.9193C78.969 29.8955 78.9427 29.8792 78.9184 29.8603C78.7536 29.7316 78.686 29.4783 77.5816 25.8458C77.3671 25.1402 77.05 24.0988 76.8771 23.5318C75.7644 19.8833 75.3985 18.666 75.3431 18.4291ZM66.489 26.7769C66.406 25.4977 67.0863 24.6901 68.4058 24.5014C69.2022 24.3876 70.6811 24.493 71.5742 24.7274L71.746 24.7725V25.2917C71.746 26.3116 71.555 26.948 71.0991 27.4469C70.4767 28.1278 69.6677 28.4715 68.583 28.5156C67.9461 28.5415 67.5791 28.4636 67.2209 28.2265C66.7722 27.9296 66.533 27.4558 66.489 26.7769ZM96.0834 34.5624C96.7147 33.9787 98.2775 33.4117 99.6511 33.2681C101.294 33.0964 103.311 33.3815 103.545 33.8185C103.638 33.9929 103.674 34.5059 103.629 35.0206C103.458 36.9737 102.543 39.0682 101.322 40.3033C100.857 40.7729 100.715 40.859 100.494 40.8036C100.303 40.7558 100.345 40.535 100.742 39.5002C101.638 37.1588 101.923 35.8164 101.629 35.3189C101.589 35.2506 101.48 35.1522 101.387 35.1C100.803 34.7717 99.2448 34.739 96.9241 35.0065C96.2236 35.0873 96.1393 35.0891 96.042 35.0254C95.8832 34.9214 95.9002 34.7318 96.0834 34.5624ZM62.4089 34.5149C62.3271 34.3194 62.3285 34.3042 62.4409 34.1613C62.601 33.9577 62.7875 33.9955 63.4457 34.3646C67.6637 36.7305 72.5515 38.3814 77.4677 39.1008C78.3184 39.2252 79.4361 39.3505 80.4233 39.4318C81.6408 39.5322 84.9554 39.5467 86.0596 39.4565C90.5548 39.0892 94.3044 38.2275 98.3786 36.6254C98.8712 36.4317 99.3109 36.2859 99.4027 36.2859C99.7633 36.2859 100.013 36.5277 100.013 36.8771C100.013 37.148 99.8165 37.3413 98.9651 37.9089C95.0581 40.5133 89.7879 42.172 84.4786 42.4682C83.1504 42.5424 80.995 42.4822 79.6214 42.3326C74.1884 41.7409 69.0955 39.7566 64.7746 36.5481C63.6076 35.6816 62.4978 34.7278 62.4089 34.5149Z" fill="#FFE580"/>
</svg>
