<svg width="166" height="60" viewBox="0 0 166 60" fill="none" xmlns="http://www.w3.org/2000/svg">
<path d="M118.8 32.7677L120.918 34.1792C120.231 35.1915 118.587 36.9281 115.745 36.9281C112.216 36.9281 109.588 34.1978 109.588 30.7246C109.588 27.0284 112.244 24.521 115.448 24.521C118.67 24.521 120.249 27.0841 120.76 28.4679L121.038 29.1737L112.736 32.6098C113.368 33.8542 114.352 34.4857 115.745 34.4857C117.138 34.4857 118.104 33.7985 118.8 32.7677ZM112.29 30.5295L117.835 28.2264C117.528 27.4556 116.618 26.9077 115.531 26.9077C114.148 26.9077 112.225 28.1336 112.29 30.5295Z" fill="#FFE580"/>
<path d="M105.585 18.1968H108.26V36.3617H105.585V18.1968Z" fill="#FFE580"/>
<path d="M101.369 25.0039H103.951V36.0366C103.951 40.615 101.248 42.5002 98.0534 42.5002C95.0445 42.5002 93.2336 40.4757 92.5557 38.8319L94.9238 37.8475C95.351 38.8598 96.3818 40.0578 98.0534 40.0578C100.106 40.0578 101.369 38.7855 101.369 36.4081V35.5165H101.276C100.663 36.2595 99.4929 36.9281 98.007 36.9281C94.9052 36.9281 92.0635 34.2257 92.0635 30.7431C92.0635 27.242 94.9052 24.5117 98.007 24.5117C99.4836 24.5117 100.663 25.1711 101.276 25.8954H101.369V25.0039ZM101.555 30.7431C101.555 28.5515 100.097 26.9541 98.2392 26.9541C96.3633 26.9541 94.7845 28.5515 94.7845 30.7431C94.7845 32.907 96.3633 34.4764 98.2392 34.4764C100.097 34.4857 101.555 32.907 101.555 30.7431Z" fill="#FFE580"/>
<path d="M77.3808 30.6963C77.3808 34.2717 74.5947 36.8998 71.1772 36.8998C67.7597 36.8998 64.9736 34.2624 64.9736 30.6963C64.9736 27.1023 67.7597 24.4834 71.1772 24.4834C74.5947 24.4834 77.3808 27.1023 77.3808 30.6963ZM74.669 30.6963C74.669 28.4674 73.0531 26.9351 71.1772 26.9351C69.3013 26.9351 67.6854 28.4674 67.6854 30.6963C67.6854 32.9065 69.3013 34.4574 71.1772 34.4574C73.0531 34.4574 74.669 32.9065 74.669 30.6963Z" fill="#FFE580"/>
<path d="M90.9306 30.7246C90.9306 34.3 88.1445 36.9281 84.727 36.9281C81.3095 36.9281 78.5234 34.3 78.5234 30.7246C78.5234 27.1306 81.3095 24.521 84.727 24.521C88.1445 24.521 90.9306 27.1213 90.9306 30.7246ZM88.2095 30.7246C88.2095 28.4957 86.5936 26.9634 84.7177 26.9634C82.8418 26.9634 81.2259 28.4957 81.2259 30.7246C81.2259 32.9348 82.8418 34.4857 84.7177 34.4857C86.6029 34.4857 88.2095 32.9255 88.2095 30.7246Z" fill="#FFE580"/>
<path d="M54.7771 34.2069C50.8859 34.2069 47.8398 31.068 47.8398 27.1768C47.8398 23.2857 50.8859 20.1467 54.7771 20.1467C56.8759 20.1467 58.4082 20.9733 59.5412 22.0319L61.4078 20.1653C59.8291 18.6516 57.721 17.5 54.7771 17.5C49.4464 17.5 44.9609 21.8462 44.9609 27.1768C44.9609 32.5074 49.4464 36.8536 54.7771 36.8536C57.656 36.8536 59.8291 35.9064 61.5285 34.1419C63.2745 32.396 63.8131 29.9443 63.8131 27.9569C63.8131 27.3347 63.7388 26.6939 63.6552 26.2203H54.7771V28.802H61.1014C60.9156 30.4179 60.4048 31.523 59.6526 32.2753C58.7425 33.1947 57.3031 34.2069 54.7771 34.2069Z" fill="#FFE580"/>
</svg>
