<svg width="166" height="60" viewBox="0 0 166 60" fill="none" xmlns="http://www.w3.org/2000/svg">
<g clip-path="url(#clip0_5303_9052)">
<path fill-rule="evenodd" clip-rule="evenodd" d="M39.7142 17.7756C39.6479 17.8159 39.5729 17.8992 39.5473 17.9607C39.4917 18.0948 37.2717 28.3983 37.2937 28.4203C37.3022 28.4287 37.5077 28.3224 37.7505 28.184C39.4109 27.238 46.1619 23.3673 46.2934 23.2859C46.4954 23.1609 46.581 23.0203 46.581 22.8136C46.581 22.686 46.5551 22.6262 46.4539 22.5205C46.3526 22.4146 40.9644 18.2865 40.3209 17.8216C40.1245 17.6798 39.8998 17.6628 39.7142 17.7756ZM37.1275 18.2488C36.9842 18.3063 30.7669 23.064 30.626 23.224C30.5544 23.3053 30.4587 23.4517 30.4134 23.5493L30.3311 23.7268V30.0049V36.2831L30.4369 36.4978C30.4951 36.6158 30.6095 36.7761 30.6911 36.8539C30.816 36.9731 35.8653 40.8319 36.816 41.5346C37.0844 41.7331 37.1458 41.7619 37.3005 41.7619C37.4542 41.7619 37.4979 41.7418 37.6296 41.6105C37.7377 41.5027 37.7814 41.4258 37.7814 41.3434C37.7814 41.253 35.8991 32.4274 35.4546 30.4339L35.359 30.0049L36.5702 24.3827C37.2364 21.2905 37.7813 18.7198 37.7812 18.67C37.781 18.5273 37.6359 18.3265 37.4885 18.2652C37.3367 18.202 37.2537 18.1982 37.1275 18.2488ZM44.6206 26.0372C43.2785 26.8039 41.1822 28.0016 39.9621 28.6986C38.7419 29.3956 37.7477 29.9788 37.7527 29.9945C37.7577 30.0102 38.8706 30.6569 40.2257 31.4316C41.5809 32.2063 43.6576 33.395 44.8407 34.0733C46.8154 35.2053 47.0067 35.3065 47.1746 35.3073C47.4028 35.3085 47.5593 35.2015 47.6278 34.9974C47.6669 34.881 47.6751 33.8122 47.6669 29.9124C47.657 25.2228 47.653 24.9694 47.5858 24.8707C47.5052 24.7523 47.2995 24.6432 47.1571 24.6432C47.1019 24.6432 46.0182 25.2387 44.6206 26.0372ZM37.2863 31.633C37.2983 31.6812 37.5123 32.6683 37.7619 33.8264C39.6716 42.6882 39.5245 42.0314 39.6246 42.1377C39.7539 42.2749 39.9198 42.3273 40.0856 42.2831C40.2036 42.2517 43.5851 39.7132 46.2177 37.6797C46.4692 37.4854 46.5472 37.4013 46.5776 37.2913C46.6256 37.1181 46.5474 36.8576 46.4212 36.7705C46.2791 36.6723 37.3117 31.5452 37.2821 31.5452C37.2724 31.5452 37.2743 31.5847 37.2863 31.633Z" fill="#FFE580"/>
</g>
<path d="M66.9658 35.5H64.5596L61.9414 31.2891L61.0459 31.9316V35.5H58.9268V25.5059H61.0459V30.0791C61.1872 29.8831 61.3262 29.6872 61.4629 29.4912C61.5996 29.2952 61.7386 29.0993 61.8799 28.9033L64.5869 25.5059H66.9385L63.4521 29.9287L66.9658 35.5ZM66.9658 27.8574H69.249L70.6914 32.1572C70.737 32.2939 70.7757 32.4329 70.8076 32.5742C70.8395 32.7155 70.8669 32.8613 70.8896 33.0117C70.9124 33.1621 70.9307 33.3193 70.9443 33.4834H70.9854C71.0127 33.2373 71.0492 33.0072 71.0947 32.793C71.1449 32.5788 71.2064 32.3669 71.2793 32.1572L72.6943 27.8574H74.9297L71.6963 36.4775C71.5003 37.0062 71.2451 37.446 70.9307 37.7969C70.6162 38.1523 70.2539 38.4189 69.8438 38.5967C69.4382 38.7744 68.9915 38.8633 68.5039 38.8633C68.2669 38.8633 68.0618 38.8496 67.8887 38.8223C67.7155 38.7995 67.5674 38.7744 67.4443 38.7471V37.0928C67.54 37.1156 67.6608 37.1361 67.8066 37.1543C67.9525 37.1725 68.1051 37.1816 68.2646 37.1816C68.5563 37.1816 68.807 37.1201 69.0166 36.9971C69.2262 36.874 69.4017 36.7077 69.543 36.498C69.6842 36.293 69.7959 36.0674 69.8779 35.8213L70.001 35.4453L66.9658 27.8574ZM78.1152 24.8633V27.3379C78.1152 27.625 78.1061 27.9098 78.0879 28.1924C78.0742 28.4749 78.056 28.6937 78.0332 28.8486H78.1152C78.3158 28.5342 78.5892 28.2676 78.9355 28.0488C79.2819 27.8255 79.7308 27.7139 80.2822 27.7139C81.139 27.7139 81.834 28.0488 82.3672 28.7188C82.9004 29.3887 83.167 30.3708 83.167 31.665C83.167 32.5355 83.0439 33.2669 82.7979 33.8594C82.5518 34.4473 82.2077 34.8916 81.7656 35.1924C81.3236 35.4886 80.8109 35.6367 80.2275 35.6367C79.667 35.6367 79.2249 35.5365 78.9014 35.3359C78.5778 35.1354 78.3158 34.9098 78.1152 34.6592H77.9717L77.623 35.5H76.0303V24.8633H78.1152ZM79.6123 29.3818C79.2477 29.3818 78.9583 29.457 78.7441 29.6074C78.5299 29.7578 78.3727 29.9834 78.2725 30.2842C78.1768 30.585 78.1243 30.9655 78.1152 31.4258V31.6514C78.1152 32.3942 78.2246 32.9639 78.4434 33.3604C78.6621 33.7523 79.0609 33.9482 79.6396 33.9482C80.068 33.9482 80.4076 33.75 80.6582 33.3535C80.9134 32.957 81.041 32.3851 81.041 31.6377C81.041 30.8903 80.9134 30.3275 80.6582 29.9492C80.403 29.571 80.0544 29.3818 79.6123 29.3818ZM88.041 27.7139C88.7474 27.7139 89.3558 27.8506 89.8662 28.124C90.3766 28.3929 90.7708 28.7848 91.0488 29.2998C91.3268 29.8148 91.4658 30.4437 91.4658 31.1865V32.1982H86.5371C86.5599 32.7861 86.7354 33.2487 87.0635 33.5859C87.3962 33.9186 87.8564 34.085 88.4443 34.085C88.932 34.085 89.3786 34.0348 89.7842 33.9346C90.1898 33.8343 90.6068 33.6839 91.0352 33.4834V35.0967C90.6569 35.2835 90.2604 35.4202 89.8457 35.5068C89.4355 35.5934 88.9365 35.6367 88.3486 35.6367C87.583 35.6367 86.904 35.4954 86.3115 35.2129C85.7236 34.9303 85.2611 34.4997 84.9238 33.9209C84.5911 33.3421 84.4248 32.613 84.4248 31.7334C84.4248 30.8402 84.5752 30.0973 84.876 29.5049C85.1813 28.9079 85.6051 28.4613 86.1475 28.165C86.6898 27.8643 87.321 27.7139 88.041 27.7139ZM88.0547 29.1973C87.6491 29.1973 87.3118 29.3271 87.043 29.5869C86.7786 29.8467 86.626 30.2546 86.585 30.8105H89.5107C89.5062 30.5007 89.4492 30.2249 89.3398 29.9834C89.235 29.7419 89.0755 29.5505 88.8613 29.4092C88.6517 29.2679 88.3828 29.1973 88.0547 29.1973ZM97.4268 27.7139C97.5316 27.7139 97.6523 27.7207 97.7891 27.7344C97.9303 27.7435 98.0443 27.7572 98.1309 27.7754L97.9736 29.7305C97.9053 29.7077 97.8073 29.6917 97.6797 29.6826C97.5566 29.6689 97.4495 29.6621 97.3584 29.6621C97.0895 29.6621 96.8275 29.6963 96.5723 29.7646C96.3216 29.833 96.096 29.9447 95.8955 30.0996C95.695 30.25 95.5355 30.4505 95.417 30.7012C95.3031 30.9473 95.2461 31.2503 95.2461 31.6104V35.5H93.1611V27.8574H94.7402L95.0479 29.1426H95.1504C95.3008 28.8828 95.4876 28.6458 95.7109 28.4316C95.9388 28.2129 96.1963 28.0397 96.4834 27.9121C96.7751 27.7799 97.0895 27.7139 97.4268 27.7139ZM105.582 32.7246C105.582 33.3171 105.438 33.832 105.151 34.2695C104.864 34.707 104.445 35.0443 103.894 35.2812C103.347 35.5182 102.681 35.6367 101.897 35.6367C101.551 35.6367 101.212 35.6139 100.879 35.5684C100.551 35.5228 100.234 35.4567 99.9287 35.3701C99.6279 35.279 99.3408 35.1673 99.0674 35.0352V33.0664C99.5413 33.276 100.034 33.4652 100.544 33.6338C101.054 33.8024 101.56 33.8867 102.062 33.8867C102.408 33.8867 102.686 33.8411 102.896 33.75C103.11 33.6589 103.265 33.5335 103.36 33.374C103.456 33.2145 103.504 33.0322 103.504 32.8271C103.504 32.5765 103.42 32.3623 103.251 32.1846C103.082 32.0068 102.85 31.8405 102.554 31.6855C102.262 31.5306 101.932 31.3643 101.562 31.1865C101.33 31.0771 101.077 30.945 100.804 30.79C100.53 30.6305 100.271 30.4368 100.024 30.209C99.7783 29.9811 99.5755 29.7054 99.416 29.3818C99.2611 29.0537 99.1836 28.6618 99.1836 28.2061C99.1836 27.609 99.3203 27.0986 99.5938 26.6748C99.8672 26.251 100.257 25.9274 100.763 25.7041C101.273 25.4762 101.875 25.3623 102.567 25.3623C103.087 25.3623 103.581 25.4238 104.051 25.5469C104.525 25.6654 105.019 25.8385 105.534 26.0664L104.851 27.7139C104.39 27.527 103.978 27.3835 103.613 27.2832C103.249 27.1784 102.877 27.126 102.499 27.126C102.235 27.126 102.009 27.1693 101.822 27.2559C101.635 27.3379 101.494 27.4564 101.398 27.6113C101.303 27.7617 101.255 27.9372 101.255 28.1377C101.255 28.3747 101.323 28.5752 101.46 28.7393C101.601 28.8988 101.811 29.0537 102.089 29.2041C102.371 29.3545 102.722 29.5299 103.142 29.7305C103.652 29.972 104.087 30.2249 104.447 30.4893C104.812 30.749 105.092 31.0566 105.288 31.4121C105.484 31.763 105.582 32.2005 105.582 32.7246ZM113.512 35.5L112.924 32.8271C112.892 32.6676 112.84 32.4329 112.767 32.123C112.694 31.8086 112.614 31.4736 112.527 31.1182C112.445 30.7581 112.368 30.4255 112.295 30.1201C112.227 29.8148 112.176 29.5915 112.145 29.4502H112.083C112.051 29.5915 112.001 29.8148 111.933 30.1201C111.864 30.4255 111.787 30.7581 111.7 31.1182C111.618 31.4782 111.541 31.8177 111.468 32.1367C111.395 32.4512 111.34 32.6904 111.304 32.8545L110.688 35.5H108.446L106.272 27.8574H108.351L109.232 31.2412C109.292 31.4782 109.349 31.7607 109.403 32.0889C109.458 32.4124 109.506 32.7269 109.547 33.0322C109.592 33.333 109.627 33.5723 109.649 33.75H109.704C109.713 33.6178 109.731 33.4424 109.759 33.2236C109.791 33.0049 109.825 32.7793 109.861 32.5469C109.902 32.3099 109.939 32.098 109.971 31.9111C110.007 31.7197 110.035 31.5898 110.053 31.5215L110.996 27.8574H113.293L114.188 31.5215C114.22 31.6536 114.261 31.8633 114.312 32.1504C114.366 32.4375 114.414 32.7337 114.455 33.0391C114.496 33.3398 114.519 33.5768 114.523 33.75H114.578C114.596 33.5951 114.628 33.3649 114.674 33.0596C114.719 32.7542 114.772 32.4352 114.831 32.1025C114.895 31.7653 114.959 31.4782 115.022 31.2412L115.938 27.8574H117.982L115.781 35.5H113.512ZM122.351 27.7002C123.376 27.7002 124.162 27.9235 124.709 28.3701C125.256 28.8167 125.529 29.4958 125.529 30.4072V35.5H124.073L123.67 34.4609H123.615C123.396 34.7344 123.173 34.9577 122.945 35.1309C122.717 35.304 122.455 35.4316 122.159 35.5137C121.863 35.5957 121.503 35.6367 121.079 35.6367C120.628 35.6367 120.222 35.5501 119.862 35.377C119.507 35.2038 119.227 34.9395 119.021 34.584C118.816 34.224 118.714 33.7682 118.714 33.2168C118.714 32.4056 118.999 31.8086 119.568 31.4258C120.138 31.0384 120.993 30.8242 122.132 30.7832L123.458 30.7422V30.4072C123.458 30.0062 123.353 29.7122 123.144 29.5254C122.934 29.3385 122.642 29.2451 122.269 29.2451C121.899 29.2451 121.537 29.2975 121.182 29.4023C120.826 29.5072 120.471 29.6393 120.115 29.7988L119.425 28.3906C119.83 28.1764 120.284 28.0078 120.785 27.8848C121.291 27.7617 121.813 27.7002 122.351 27.7002ZM123.458 31.959L122.651 31.9863C121.977 32.0046 121.507 32.1253 121.243 32.3486C120.983 32.5719 120.854 32.8659 120.854 33.2305C120.854 33.5495 120.947 33.7773 121.134 33.9141C121.321 34.0462 121.564 34.1123 121.865 34.1123C122.312 34.1123 122.688 33.9801 122.993 33.7158C123.303 33.4515 123.458 33.0755 123.458 32.5879V31.959ZM131.935 27.7139C132.796 27.7139 133.491 28.0488 134.02 28.7188C134.553 29.3887 134.819 30.3708 134.819 31.665C134.819 32.5309 134.694 33.2601 134.443 33.8525C134.193 34.4404 133.846 34.8848 133.404 35.1855C132.962 35.4863 132.454 35.6367 131.88 35.6367C131.511 35.6367 131.194 35.5911 130.93 35.5C130.665 35.4043 130.44 35.2835 130.253 35.1377C130.066 34.9873 129.904 34.8278 129.768 34.6592H129.658C129.695 34.8415 129.722 35.0283 129.74 35.2197C129.758 35.4111 129.768 35.598 129.768 35.7803V38.8633H127.683V27.8574H129.378L129.672 28.8486H129.768C129.904 28.6436 130.071 28.4544 130.267 28.2812C130.463 28.1081 130.697 27.9714 130.971 27.8711C131.249 27.7663 131.57 27.7139 131.935 27.7139ZM131.265 29.3818C130.9 29.3818 130.611 29.457 130.396 29.6074C130.182 29.7578 130.025 29.9834 129.925 30.2842C129.829 30.585 129.777 30.9655 129.768 31.4258V31.6514C129.768 32.1436 129.813 32.5605 129.904 32.9023C130 33.2441 130.157 33.5039 130.376 33.6816C130.599 33.8594 130.905 33.9482 131.292 33.9482C131.611 33.9482 131.873 33.8594 132.078 33.6816C132.283 33.5039 132.436 33.2441 132.536 32.9023C132.641 32.556 132.693 32.1344 132.693 31.6377C132.693 30.8903 132.577 30.3275 132.345 29.9492C132.112 29.571 131.752 29.3818 131.265 29.3818Z" fill="#FFE580"/>
<defs>
<clipPath id="clip0_5303_9052">
<rect width="17.3387" height="25" fill="white" transform="translate(30.3311 17.5)"/>
</clipPath>
</defs>
</svg>
