<svg width="166" height="60" viewBox="0 0 166 60" fill="none" xmlns="http://www.w3.org/2000/svg">
<path fill-rule="evenodd" clip-rule="evenodd" d="M83.0938 18.36V19.22H83.9538H84.8138V18.36V17.5H83.9538H83.0938V18.36ZM76.5534 20.3308C76.3873 20.3705 76.2593 20.5066 76.2359 20.6686C76.2017 20.9048 76.2531 20.94 76.6306 20.94H77.0645L77.0998 22.0634C77.1285 22.9749 77.1757 23.2124 77.3502 23.3221C77.5066 23.4205 77.6238 23.4205 77.7802 23.3221C77.9546 23.2124 78.0018 22.9749 78.0306 22.0634L78.0658 20.94H78.5527C79.0541 20.94 79.2007 20.7351 78.8859 20.4743C78.7153 20.3329 76.9891 20.2267 76.5534 20.3308ZM79.9609 20.318L79.5923 20.3891L79.5574 21.7912C79.5196 23.3064 79.5527 23.3918 80.1759 23.3953C80.4996 23.3971 80.5138 23.3716 80.5138 22.7829V22.1686H80.9438H81.3738V22.7829C81.3738 23.3738 81.3869 23.3972 81.7178 23.3972C82.2801 23.3972 82.3566 23.2133 82.3566 21.8615C82.3566 20.5097 82.2801 20.3257 81.7178 20.3257C81.3869 20.3257 81.3738 20.3491 81.3738 20.94V21.5543H80.9438H80.5138V20.9473C80.5138 20.6133 80.4724 20.3192 80.4216 20.2934C80.3709 20.2677 80.1636 20.2788 79.9609 20.318ZM83.0289 20.4524C82.7968 20.7088 82.7691 23.0233 82.9955 23.2498C83.0804 23.3346 83.4869 23.3972 83.9538 23.3972C84.7516 23.3972 85.0595 23.2706 85.0595 22.9426C85.0595 22.8329 84.8674 22.7829 84.4452 22.7829C83.8718 22.7829 83.8309 22.7624 83.8309 22.4757C83.8309 22.1891 83.8718 22.1686 84.4452 22.1686C85.0186 22.1686 85.0595 22.1481 85.0595 21.8615C85.0595 21.5748 85.0186 21.5543 84.4452 21.5543C83.8718 21.5543 83.8309 21.5338 83.8309 21.2472C83.8309 20.9605 83.8718 20.94 84.4452 20.94C84.8851 20.94 85.0595 20.892 85.0595 20.7707C85.0595 20.4751 84.7739 20.3507 83.9811 20.3009C83.3807 20.2632 83.1698 20.2967 83.0289 20.4524ZM41.7781 25.0907L41.1992 25.6785V28.2589V30.8393L41.787 31.4183L42.3748 31.9972H44.9198H47.465V33.2258V34.4544L46.2057 34.4546L44.9464 34.4548V33.8711V33.2872L43.0728 33.2533L41.1992 33.2194V34.548V35.8765L41.787 36.4555L42.3748 37.0344H46.1838H49.9928L50.581 36.4372L51.1693 35.84L51.1558 33.2736L51.1422 30.7072L50.5675 30.1237L49.9928 29.5401H47.5004H45.0078V28.2421V26.9442L46.2057 26.9828L47.4035 27.0215L47.4406 27.6665L47.4779 28.3115H49.3142H51.1507V26.9861V25.6608L50.563 25.0818L49.9751 24.5029H46.1661H42.3572L41.7781 25.0907ZM53.0114 25.1713L52.3793 25.8396V30.7962V35.7528L53.0281 36.3936L53.677 37.0344H54.9299H56.1829L56.216 34.5465L56.2493 32.0587L57.4472 32.0235L58.6451 31.9884V34.5114V37.0344H59.9704H61.2957L61.8747 36.4467L62.4536 35.8588V30.8216V25.7846L61.8048 25.1437L61.1559 24.5029H57.3998H53.6435L53.0114 25.1713ZM64.3231 25.1517L63.6822 25.8007V30.7768V35.7528L64.331 36.3936L64.98 37.0344H66.2353H67.4908V33.3196V29.6046L69.3337 31.4444L71.1766 33.2842V35.1592V37.0344H72.4578H73.7391L74.3596 36.3894L74.9799 35.7444L74.9825 30.7026L74.9852 25.6608L74.3974 25.0818L73.8095 24.5029H72.4931H71.1766V26.2843C71.1766 27.2641 71.1419 28.0658 71.0997 28.0658C71.0574 28.0658 70.2397 27.2641 69.2826 26.2843L67.5423 24.5029H66.2532H64.9639L64.3231 25.1517ZM76.2137 30.7687V37.0344H80.6101H85.0064L85.6473 36.3856L86.2881 35.7367V30.7606V25.7846L85.6393 25.1437L84.9903 24.5029H80.6021H76.2137V30.7687ZM87.5167 30.7687V37.0344H91.9135H96.3102L96.9007 36.435L97.491 35.8357L97.4748 33.8857L97.4585 31.9358L96.8843 31.3522L96.3102 30.7687L96.8893 30.1809L97.4682 29.593V27.6269V25.6608L96.8804 25.0818L96.2925 24.5029H91.9047H87.5167V30.7687ZM99.3376 25.1517L98.6968 25.8007V30.7768V35.7528L99.3456 36.3936L99.9945 37.0344H103.773H107.552L108.162 36.4152L108.771 35.796V30.7285V25.6608L108.183 25.0818L107.595 24.5029H103.787H99.9784L99.3376 25.1517ZM110.641 25.1517L110 25.8007V27.6358V29.4709L110.641 30.1198L111.281 30.7687L110.641 31.4175L110 32.0664V33.9096V35.7528L110.648 36.3936L111.297 37.0344H112.553H113.808V35.1562V33.278L114.423 32.673L115.037 32.0679L115.651 32.673L116.265 33.278V35.1562V37.0344H117.529H118.792L119.433 36.3856L120.074 35.7367V33.9015V32.0664L119.433 31.4175L118.792 30.7687L119.433 30.1198L120.074 29.4709V27.6277V25.7846L119.425 25.1437L118.776 24.5029H117.521H116.265V26.3812V28.2593L115.651 28.8644L115.037 29.4694L114.423 28.8644L113.808 28.2593V26.3812V24.5029H112.545H111.281L110.641 25.1517ZM56.6783 27.6368L55.8855 28.4367L56.6511 29.2022L57.4166 29.9677L58.2163 29.1679L59.0161 28.3683L58.2436 27.6026L57.471 26.837L56.6783 27.6368ZM80.1086 27.0377C80.0612 27.0851 80.0223 28.7732 80.0223 30.7892V34.4544H81.2528H82.4831L82.4506 30.7379L82.4181 27.0215L81.3064 26.9865C80.695 26.9672 80.1559 26.9903 80.1086 27.0377ZM91.3253 28.2501V29.5489L92.5231 29.5138L93.721 29.4787V28.2501V27.0215L92.5231 26.9864L91.3253 26.9512V28.2501ZM102.659 27.0414C102.541 27.0891 102.505 27.9535 102.505 30.7789V34.4544H103.734H104.963V30.7072V26.9601L103.888 26.9698C103.296 26.9751 102.743 27.0074 102.659 27.0414ZM121.179 29.6024L120.016 30.7703L121.212 31.9665L122.408 33.1628L123.605 31.9665L124.801 30.7703L123.638 29.6024C122.998 28.9599 122.445 28.4344 122.408 28.4344C122.372 28.4344 121.819 28.9599 121.179 29.6024ZM91.3253 33.2214V34.4544H92.5583H93.7913L93.7561 33.2565L93.721 32.0587L92.5231 32.0235L91.3253 31.9884V33.2214ZM56.0642 38.9396L54.9011 40.1075L56.0973 41.3037L57.2936 42.5L58.4899 41.3037L59.6861 40.1075L58.5231 38.9396C57.8833 38.2971 57.3301 37.7716 57.2936 37.7716C57.2571 37.7716 56.7039 38.2971 56.0642 38.9396Z" fill="#FFE580"/>
</svg>
