<svg width="166" height="60" viewBox="0 0 166 60" fill="none" xmlns="http://www.w3.org/2000/svg">
<path fill-rule="evenodd" clip-rule="evenodd" d="M40.0529 19.3244C38.3407 20.3373 35.3916 22.9312 31.7171 26.6562C29.6588 28.7427 28.0291 30.5788 27.3872 31.5343C26.913 32.2403 26.8161 32.4955 26.8983 32.8229C26.9847 33.1668 27.7186 34.1841 28.7617 35.4055C29.8263 36.6521 34.1547 41.0773 34.233 40.999C34.2599 40.9721 34.3821 40.2605 34.5046 39.4176C34.6272 38.5748 34.8072 37.4714 34.9047 36.9658C35.0024 36.4601 35.0822 35.9668 35.0822 35.8695C35.0822 35.7671 34.7412 35.3345 34.2738 34.8439C33.3269 33.8499 33.3188 33.8837 34.5781 33.5812C35.4444 33.3731 35.653 33.2529 35.7384 32.9127C35.7679 32.7952 35.9181 32.4354 36.0721 32.1129C36.8057 30.5772 38.3898 29.7702 40.6937 29.7581C41.9675 29.7515 42.9054 29.9329 43.7866 30.3564C45.084 30.9799 45.6143 31.8233 46.4264 34.5551C46.6941 35.4554 47.0199 36.4893 47.1505 36.8528C47.4331 37.6392 48.0793 38.9517 48.4486 39.4896L48.7132 39.875L49.9014 38.6943C51.9777 36.6309 54.1146 34.1857 54.6733 33.2338C54.7996 33.0186 54.8997 32.7233 54.8955 32.5778C54.877 31.9276 53.1091 29.7913 49.8857 26.5239C45.4278 22.0052 41.8282 19 40.8736 19C40.7185 19 40.3653 19.1396 40.0529 19.3244ZM38.3239 24.607C37.6705 24.84 37.2914 25.4095 37.2914 26.158C37.2914 27.2529 38.267 28.0137 39.671 28.0137C40.0683 28.0137 40.1826 28.1237 40.2225 28.5443L40.2518 28.8532L40.8925 28.8792L41.5332 28.9052V28.5586C41.5332 28.3681 41.5829 28.1729 41.6436 28.125C41.7044 28.0771 42.0305 28.0134 42.3684 27.9833C43.121 27.9163 43.8281 27.5911 44.1562 27.161C44.4416 26.7868 44.5314 26.0557 44.357 25.527C44.156 24.9182 43.4738 24.4808 42.7228 24.4795C42.0647 24.4782 41.3764 25.0738 41.1761 25.8178C41.1035 26.0874 41.0424 26.158 40.881 26.158C40.7179 26.158 40.6554 26.0834 40.5665 25.7824C40.2617 24.751 39.3135 24.254 38.3239 24.607ZM38.5357 25.6056C38.4317 25.6907 38.3238 25.9025 38.2959 26.0762C38.1498 26.9901 39.5236 27.2364 39.7222 26.332C39.7845 26.0481 39.5866 25.5912 39.3641 25.5059C39.1004 25.4047 38.7266 25.4497 38.5357 25.6056ZM42.2038 25.7229C41.9384 26.0383 41.9247 26.1577 42.1118 26.5197C42.3622 27.0038 42.9611 27.0554 43.302 26.6222C43.6871 26.1325 43.3589 25.451 42.738 25.451C42.5054 25.451 42.378 25.5159 42.2038 25.7229ZM63.5172 27.2674C62.4391 27.5288 61.5771 28.1549 61.1788 28.966C60.9544 29.423 60.9304 29.5615 60.9304 30.3997C60.9304 31.4594 61.0476 31.7776 61.6663 32.3963C62.1459 32.8758 62.6672 33.1429 64.0421 33.6136C65.3778 34.0707 65.5248 34.1381 65.8527 34.4438C66.1605 34.7307 66.2324 35.0721 66.0678 35.466C65.8841 35.9055 65.5008 36.0845 64.8444 36.0369C64.4091 36.0055 64.28 35.9553 64.0545 35.7297C63.9061 35.5814 63.7573 35.3255 63.7238 35.1612L63.6628 34.8624L62.3034 34.8379C61.5557 34.8245 60.9146 34.8444 60.8788 34.8821C60.843 34.9198 60.848 35.163 60.89 35.4226C61.1519 37.0404 62.6026 38.1164 64.6861 38.2381C65.7108 38.298 66.3343 38.1799 67.1512 37.7712C68.3173 37.1878 68.8482 36.3617 68.9101 35.0341C68.942 34.3506 68.9188 34.1672 68.7514 33.778C68.3742 32.9012 67.5145 32.3109 65.6582 31.6542C64.0155 31.0731 63.714 30.8483 63.714 30.2042C63.714 29.9371 63.7742 29.7957 63.9723 29.5976C64.5632 29.0067 65.9041 29.4526 65.9202 30.2451C65.923 30.386 66.0528 30.3997 67.3824 30.3997H68.8416L68.7841 30.0241C68.6133 28.9101 67.9864 28.0704 66.9622 27.5841C66.01 27.1321 64.6075 27.0031 63.5172 27.2674ZM133.683 27.2674C132.446 27.5673 131.534 28.3259 131.231 29.3077C130.865 30.4931 131.047 31.5044 131.77 32.295C132.281 32.8543 132.943 33.2042 134.366 33.6682C136.003 34.2021 136.483 34.6087 136.305 35.3121C136.189 35.7691 135.856 35.9922 135.229 36.0324C134.467 36.0813 134.101 35.8009 133.845 34.9729C133.802 34.8343 133.654 34.8182 132.424 34.8182H131.052V35.1683C131.052 36.1039 131.849 37.2423 132.848 37.7328C135.024 38.8013 137.809 38.1897 138.761 36.4343C139.206 35.6146 139.251 34.436 138.87 33.6316C138.518 32.8894 137.547 32.2612 135.808 31.6506C134.816 31.3022 134.192 30.9829 134.018 30.7352C133.786 30.4037 133.84 29.896 134.138 29.5976C134.356 29.3793 134.466 29.3393 134.849 29.3393C135.099 29.3393 135.419 29.3996 135.562 29.4733C135.822 29.608 136.089 30.0075 136.089 30.2627C136.089 30.381 136.29 30.3997 137.557 30.3997H139.025L138.964 29.98C138.773 28.679 137.792 27.6655 136.361 27.292C135.656 27.1078 134.389 27.0962 133.683 27.2674ZM70.2056 27.4172C70.1823 27.478 70.1737 29.9137 70.1863 32.8299L70.2092 38.1321H71.5348H72.8603L72.9045 35.8239L72.9487 33.5158L74.7041 35.846L76.4595 38.1763H78.0474C79.0424 38.1763 79.6243 38.144 79.6058 38.0899C79.5897 38.0424 78.6294 36.7876 77.4718 35.3015L75.3672 32.5993L76.0098 31.7868C77.7741 29.5558 79.4439 27.4018 79.4439 27.357C79.4439 27.3294 78.7578 27.3068 77.9195 27.3068L76.3951 27.3069L74.6498 29.6153L72.9045 31.9236V29.6152V27.3068H71.5762C70.5949 27.3068 70.2368 27.3357 70.2056 27.4172ZM80.3137 27.9475C80.503 28.2999 81.3391 29.9294 82.1718 31.5688L83.6856 34.5494V36.3628V38.1763H85.0112H86.3367V36.3978V34.6194L88.1981 30.9631L90.0595 27.3068H88.568H87.0764L86.9159 27.6382C86.8277 27.8205 86.4089 28.7475 85.9854 29.6983C85.5617 30.6492 85.1755 31.4979 85.1272 31.5844C85.0277 31.7622 85.067 31.8302 84.3655 30.2672C84.1473 29.7811 83.748 28.9162 83.478 28.3451L82.9872 27.3068H81.4784H79.9695L80.3137 27.9475ZM92.8761 32.7415V38.1763H94.2005H95.525L95.5481 35.0348L95.5714 31.8933L96.3879 34.0848C96.837 35.2901 97.355 36.6939 97.539 37.2042L97.8737 38.1321H98.9637H100.054L100.78 36.1438C101.18 35.0502 101.683 33.6864 101.897 33.113L102.287 32.0706L102.332 35.1013L102.376 38.1321H103.701H105.027L105.05 32.7194L105.072 27.3068H103.488H101.903L101.713 27.8149C101.609 28.0943 101.015 29.5955 100.393 31.1509C99.7716 32.7062 99.2147 34.1279 99.1556 34.3101C99.0966 34.4924 99.0215 34.6401 98.9888 34.6385C98.9562 34.6368 98.2735 32.9865 97.4719 30.9711L96.0145 27.3068H94.4453H92.8761V32.7415ZM109.975 27.4172C109.953 27.478 109.711 28.1441 109.438 28.8974C109.165 29.6508 108.783 30.7245 108.589 31.2834C108.215 32.363 106.474 37.2054 106.265 37.7465C106.197 37.9233 106.165 38.0922 106.195 38.1221C106.225 38.1519 106.855 38.1763 107.596 38.1763H108.943L109.706 35.8308C110.126 34.5407 110.714 32.7826 111.012 31.9239L111.555 30.3625L112.845 34.2473L114.135 38.1321L115.534 38.1565L116.933 38.1809L116.872 37.9355C116.839 37.8006 116.354 36.4177 115.795 34.8624C115.236 33.3071 114.427 31.0404 113.998 29.8253C113.57 28.6102 113.191 27.5465 113.156 27.4614C113.1 27.3224 112.938 27.3068 111.554 27.3068C110.402 27.3068 110.004 27.3346 109.975 27.4172ZM115.499 27.3843C115.499 27.427 115.88 28.5304 116.346 29.8365C116.812 31.1426 117.486 33.0663 117.845 34.1112C118.203 35.1562 118.672 36.4884 118.887 37.0716L119.278 38.1321H120.935H122.592L123.027 36.8507C123.266 36.146 123.815 34.5752 124.247 33.3601C124.678 32.145 125.329 30.2859 125.693 29.2288L126.354 27.3068H124.952H123.549L122.235 31.3055L120.92 35.3042L119.984 32.4764C119.47 30.9211 118.883 29.1216 118.681 28.4777L118.315 27.3068H116.907C116.132 27.3068 115.499 27.3417 115.499 27.3843ZM127.097 32.7194L127.119 38.1321H128.445H129.771L129.793 32.7194L129.816 27.3068H128.445H127.074L127.097 32.7194Z" fill="#FFE580"/>
</svg>
