<svg width="945" height="263" viewBox="0 0 945 263" fill="none" xmlns="http://www.w3.org/2000/svg">
<rect x="115.5" y="1" width="200" height="85" rx="4" stroke="#7C81FF" stroke-opacity="0.5"/>
<g filter="url(#filter0_d_5276_9075)">
<path d="M202.55 43.9072C202.55 45.0329 202.333 45.974 201.9 46.7305C201.472 47.4824 200.85 48.0498 200.034 48.4326C199.218 48.8109 198.236 49 197.088 49H194.258V39.0059H197.396C198.444 39.0059 199.353 39.1927 200.123 39.5664C200.893 39.9355 201.49 40.4847 201.914 41.2139C202.338 41.9385 202.55 42.8363 202.55 43.9072ZM200.349 43.9619C200.349 43.2236 200.239 42.6175 200.021 42.1436C199.806 41.665 199.487 41.3118 199.063 41.084C198.644 40.8561 198.125 40.7422 197.505 40.7422H196.377V47.25H197.286C198.321 47.25 199.089 46.9743 199.59 46.4229C200.096 45.8714 200.349 45.0511 200.349 43.9619ZM210.739 49L210.015 46.6211H206.371L205.646 49H203.363L206.891 38.9648H209.481L213.022 49H210.739ZM209.509 44.8438L208.784 42.5195C208.739 42.3646 208.677 42.1663 208.6 41.9248C208.527 41.6787 208.451 41.4303 208.374 41.1797C208.301 40.9245 208.242 40.7035 208.196 40.5166C208.151 40.7035 208.087 40.9359 208.005 41.2139C207.927 41.4873 207.852 41.7471 207.779 41.9932C207.706 42.2393 207.654 42.4147 207.622 42.5195L206.904 44.8438H209.509ZM218.375 41.2139C219.236 41.2139 219.931 41.5488 220.46 42.2188C220.993 42.8887 221.26 43.8708 221.26 45.165C221.26 46.0309 221.134 46.7601 220.884 47.3525C220.633 47.9404 220.287 48.3848 219.845 48.6855C219.403 48.9863 218.895 49.1367 218.32 49.1367C217.951 49.1367 217.634 49.0911 217.37 49C217.106 48.9043 216.88 48.7835 216.693 48.6377C216.507 48.4873 216.345 48.3278 216.208 48.1592H216.099C216.135 48.3415 216.162 48.5283 216.181 48.7197C216.199 48.9111 216.208 49.098 216.208 49.2803V52.3633H214.123V41.3574H215.818L216.112 42.3486H216.208C216.345 42.1436 216.511 41.9544 216.707 41.7812C216.903 41.6081 217.138 41.4714 217.411 41.3711C217.689 41.2663 218.01 41.2139 218.375 41.2139ZM217.705 42.8818C217.34 42.8818 217.051 42.957 216.837 43.1074C216.623 43.2578 216.465 43.4834 216.365 43.7842C216.27 44.085 216.217 44.4655 216.208 44.9258V45.1514C216.208 45.6436 216.254 46.0605 216.345 46.4023C216.44 46.7441 216.598 47.0039 216.816 47.1816C217.04 47.3594 217.345 47.4482 217.732 47.4482C218.051 47.4482 218.313 47.3594 218.519 47.1816C218.724 47.0039 218.876 46.7441 218.977 46.4023C219.081 46.056 219.134 45.6344 219.134 45.1377C219.134 44.3903 219.018 43.8275 218.785 43.4492C218.553 43.071 218.193 42.8818 217.705 42.8818ZM227.234 41.2139C228.096 41.2139 228.791 41.5488 229.319 42.2188C229.853 42.8887 230.119 43.8708 230.119 45.165C230.119 46.0309 229.994 46.7601 229.743 47.3525C229.493 47.9404 229.146 48.3848 228.704 48.6855C228.262 48.9863 227.754 49.1367 227.18 49.1367C226.811 49.1367 226.494 49.0911 226.229 49C225.965 48.9043 225.74 48.7835 225.553 48.6377C225.366 48.4873 225.204 48.3278 225.067 48.1592H224.958C224.994 48.3415 225.022 48.5283 225.04 48.7197C225.058 48.9111 225.067 49.098 225.067 49.2803V52.3633H222.982V41.3574H224.678L224.972 42.3486H225.067C225.204 42.1436 225.37 41.9544 225.566 41.7812C225.762 41.6081 225.997 41.4714 226.271 41.3711C226.549 41.2663 226.87 41.2139 227.234 41.2139ZM226.564 42.8818C226.2 42.8818 225.91 42.957 225.696 43.1074C225.482 43.2578 225.325 43.4834 225.225 43.7842C225.129 44.085 225.076 44.4655 225.067 44.9258V45.1514C225.067 45.6436 225.113 46.0605 225.204 46.4023C225.3 46.7441 225.457 47.0039 225.676 47.1816C225.899 47.3594 226.204 47.4482 226.592 47.4482C226.911 47.4482 227.173 47.3594 227.378 47.1816C227.583 47.0039 227.736 46.7441 227.836 46.4023C227.941 46.056 227.993 45.6344 227.993 45.1377C227.993 44.3903 227.877 43.8275 227.645 43.4492C227.412 43.071 227.052 42.8818 226.564 42.8818ZM237.174 46.7305C237.174 47.25 237.051 47.6898 236.805 48.0498C236.563 48.4053 236.201 48.6764 235.718 48.8633C235.235 49.0456 234.633 49.1367 233.913 49.1367C233.38 49.1367 232.922 49.1025 232.539 49.0342C232.161 48.9658 231.778 48.8519 231.391 48.6924V46.9697C231.805 47.1566 232.25 47.3115 232.724 47.4346C233.202 47.5531 233.621 47.6123 233.981 47.6123C234.387 47.6123 234.676 47.5531 234.85 47.4346C235.027 47.3115 235.116 47.152 235.116 46.9561C235.116 46.8285 235.08 46.7145 235.007 46.6143C234.938 46.5094 234.788 46.3932 234.556 46.2656C234.323 46.1335 233.959 45.9626 233.462 45.7529C232.983 45.5524 232.589 45.3496 232.279 45.1445C231.974 44.9395 231.746 44.6979 231.596 44.4199C231.45 44.1374 231.377 43.7796 231.377 43.3467C231.377 42.6403 231.65 42.1094 232.197 41.7539C232.749 41.3939 233.485 41.2139 234.405 41.2139C234.879 41.2139 235.33 41.2617 235.759 41.3574C236.192 41.4531 236.636 41.6058 237.092 41.8154L236.463 43.3193C236.085 43.1553 235.727 43.0208 235.39 42.916C235.057 42.8112 234.717 42.7588 234.371 42.7588C234.066 42.7588 233.836 42.7998 233.681 42.8818C233.526 42.9639 233.448 43.0892 233.448 43.2578C233.448 43.3809 233.487 43.4902 233.564 43.5859C233.646 43.6816 233.801 43.7887 234.029 43.9072C234.262 44.0212 234.601 44.1693 235.048 44.3516C235.481 44.5293 235.857 44.7161 236.176 44.9121C236.495 45.1035 236.741 45.3428 236.914 45.6299C237.087 45.9124 237.174 46.2793 237.174 46.7305Z" fill="white"/>
</g>
<path d="M325.146 43.8535C324.951 43.6583 324.951 43.3417 325.146 43.1464L328.328 39.9645C328.524 39.7692 328.84 39.7692 329.036 39.9645C329.231 40.1597 329.231 40.4763 329.036 40.6716L326.207 43.5L329.036 46.3284C329.231 46.5237 329.231 46.8403 329.036 47.0355C328.84 47.2308 328.524 47.2308 328.328 47.0355L325.146 43.8535ZM362.5 44L361.472 44L361.472 43L362.5 43L362.5 44ZM359.417 44L357.361 44L357.361 43L359.417 43L359.417 44ZM355.306 44L353.25 44L353.25 43L355.306 43L355.306 44ZM351.194 44L349.139 44L349.139 43L351.194 43L351.194 44ZM347.083 44L345.028 44L345.028 43L347.083 43L347.083 44ZM342.972 44L340.917 44L340.917 43L342.972 43L342.972 44ZM338.861 44L336.806 44L336.806 43L338.861 43L338.861 44ZM334.75 44L332.694 44L332.694 43L334.75 43L334.75 44ZM330.639 44L328.583 44L328.583 43L330.639 43L330.639 44ZM326.528 44L325.5 44L325.5 43L326.528 43L326.528 44ZM325.146 43.8535C324.951 43.6583 324.951 43.3417 325.146 43.1464L328.328 39.9645C328.524 39.7692 328.84 39.7692 329.036 39.9645C329.231 40.1597 329.231 40.4763 329.036 40.6716L326.207 43.5L329.036 46.3284C329.231 46.5237 329.231 46.8403 329.036 47.0355C328.84 47.2308 328.524 47.2308 328.328 47.0355L325.146 43.8535ZM362.5 44L361.472 44L361.472 43L362.5 43L362.5 44ZM359.417 44L357.361 44L357.361 43L359.417 43L359.417 44ZM355.306 44L353.25 44L353.25 43L355.306 43L355.306 44ZM351.194 44L349.139 44L349.139 43L351.194 43L351.194 44ZM347.083 44L345.028 44L345.028 43L347.083 43L347.083 44ZM342.972 44L340.917 44L340.917 43L342.972 43L342.972 44ZM338.861 44L336.806 44L336.806 43L338.861 43L338.861 44ZM334.75 44L332.694 44L332.694 43L334.75 43L334.75 44ZM330.639 44L328.583 44L328.583 43L330.639 43L330.639 44ZM326.528 44L325.5 44L325.5 43L326.528 43L326.528 44Z" fill="#5C528B"/>
<rect x="372.5" y="1" width="200" height="85" rx="4" stroke="#7C81FF" stroke-opacity="0.5"/>
<g filter="url(#filter1_d_5276_9075)">
<path d="M429.283 49H427.171V43.2168C427.171 43.0573 427.173 42.8613 427.178 42.6289C427.182 42.3919 427.189 42.1504 427.198 41.9043C427.207 41.6536 427.216 41.4281 427.226 41.2275C427.175 41.2868 427.073 41.3893 426.918 41.5352C426.768 41.6764 426.626 41.804 426.494 41.918L425.346 42.8408L424.327 41.5693L427.547 39.0059H429.283V49ZM437.015 40.626C436.609 40.626 436.249 40.7057 435.935 40.8652C435.625 41.0202 435.363 41.2458 435.148 41.542C434.939 41.8382 434.779 42.196 434.67 42.6152C434.561 43.0345 434.506 43.5062 434.506 44.0303C434.506 44.7367 434.592 45.3405 434.766 45.8418C434.943 46.3385 435.217 46.7191 435.586 46.9834C435.955 47.2432 436.431 47.373 437.015 47.373C437.42 47.373 437.826 47.3275 438.231 47.2363C438.642 47.1452 439.086 47.0153 439.564 46.8467V48.624C439.122 48.8063 438.687 48.9362 438.259 49.0137C437.83 49.0957 437.35 49.1367 436.816 49.1367C435.786 49.1367 434.939 48.9248 434.273 48.501C433.613 48.0726 433.123 47.4756 432.804 46.71C432.485 45.9398 432.325 45.042 432.325 44.0166C432.325 43.2601 432.428 42.5674 432.633 41.9385C432.838 41.3096 433.139 40.765 433.535 40.3047C433.932 39.8444 434.422 39.4889 435.005 39.2383C435.588 38.9876 436.258 38.8623 437.015 38.8623C437.511 38.8623 438.008 38.9261 438.505 39.0537C439.006 39.1768 439.485 39.3477 439.94 39.5664L439.257 41.2891C438.883 41.1113 438.507 40.9564 438.129 40.8242C437.751 40.6921 437.379 40.626 437.015 40.626ZM443.618 38.3633V40.5303C443.618 40.9085 443.604 41.2686 443.577 41.6104C443.554 41.9521 443.536 42.1937 443.522 42.335H443.632C443.796 42.0706 443.99 41.8564 444.213 41.6924C444.441 41.5283 444.691 41.4076 444.965 41.3301C445.238 41.2526 445.532 41.2139 445.847 41.2139C446.398 41.2139 446.879 41.3118 447.289 41.5078C447.699 41.6992 448.018 42.0023 448.246 42.417C448.474 42.8271 448.588 43.3604 448.588 44.0166V49H446.503V44.5361C446.503 43.9893 446.403 43.5768 446.202 43.2988C446.002 43.0208 445.692 42.8818 445.272 42.8818C444.853 42.8818 444.523 42.9798 444.281 43.1758C444.04 43.3672 443.869 43.652 443.769 44.0303C443.668 44.404 443.618 44.862 443.618 45.4043V49H441.533V38.3633H443.618ZM453.865 41.2002C454.891 41.2002 455.677 41.4235 456.224 41.8701C456.771 42.3167 457.044 42.9958 457.044 43.9072V49H455.588L455.185 47.9609H455.13C454.911 48.2344 454.688 48.4577 454.46 48.6309C454.232 48.804 453.97 48.9316 453.674 49.0137C453.378 49.0957 453.018 49.1367 452.594 49.1367C452.143 49.1367 451.737 49.0501 451.377 48.877C451.021 48.7038 450.741 48.4395 450.536 48.084C450.331 47.724 450.229 47.2682 450.229 46.7168C450.229 45.9056 450.513 45.3086 451.083 44.9258C451.653 44.5384 452.507 44.3242 453.646 44.2832L454.973 44.2422V43.9072C454.973 43.5062 454.868 43.2122 454.658 43.0254C454.449 42.8385 454.157 42.7451 453.783 42.7451C453.414 42.7451 453.052 42.7975 452.696 42.9023C452.341 43.0072 451.985 43.1393 451.63 43.2988L450.939 41.8906C451.345 41.6764 451.799 41.5078 452.3 41.3848C452.806 41.2617 453.327 41.2002 453.865 41.2002ZM454.973 45.459L454.166 45.4863C453.492 45.5046 453.022 45.6253 452.758 45.8486C452.498 46.0719 452.368 46.3659 452.368 46.7305C452.368 47.0495 452.462 47.2773 452.648 47.4141C452.835 47.5462 453.079 47.6123 453.38 47.6123C453.826 47.6123 454.202 47.4801 454.508 47.2158C454.818 46.9515 454.973 46.5755 454.973 46.0879V45.459ZM461.282 41.3574V49H459.197V41.3574H461.282ZM460.243 38.3633C460.553 38.3633 460.82 38.4362 461.043 38.582C461.266 38.7233 461.378 38.9899 461.378 39.3818C461.378 39.7692 461.266 40.0381 461.043 40.1885C460.82 40.3343 460.553 40.4072 460.243 40.4072C459.929 40.4072 459.66 40.3343 459.437 40.1885C459.218 40.0381 459.108 39.7692 459.108 39.3818C459.108 38.9899 459.218 38.7233 459.437 38.582C459.66 38.4362 459.929 38.3633 460.243 38.3633ZM467.817 41.2139C468.633 41.2139 469.289 41.4372 469.786 41.8838C470.283 42.3258 470.531 43.0368 470.531 44.0166V49H468.446V44.5361C468.446 43.9893 468.346 43.5768 468.146 43.2988C467.95 43.0208 467.64 42.8818 467.216 42.8818C466.578 42.8818 466.143 43.0983 465.91 43.5312C465.678 43.9642 465.562 44.5885 465.562 45.4043V49H463.477V41.3574H465.069L465.35 42.335H465.466C465.63 42.0706 465.833 41.8564 466.074 41.6924C466.32 41.5283 466.591 41.4076 466.888 41.3301C467.188 41.2526 467.498 41.2139 467.817 41.2139ZM482.597 49L481.872 46.6211H478.229L477.504 49H475.221L478.748 38.9648H481.339L484.88 49H482.597ZM481.366 44.8438L480.642 42.5195C480.596 42.3646 480.535 42.1663 480.457 41.9248C480.384 41.6787 480.309 41.4303 480.231 41.1797C480.159 40.9245 480.099 40.7035 480.054 40.5166C480.008 40.7035 479.944 40.9359 479.862 41.2139C479.785 41.4873 479.71 41.7471 479.637 41.9932C479.564 42.2393 479.511 42.4147 479.479 42.5195L478.762 44.8438H481.366ZM486.145 49V39.0059H488.264V49H486.145ZM500.315 46.2246C500.315 46.8171 500.172 47.332 499.885 47.7695C499.598 48.207 499.178 48.5443 498.627 48.7812C498.08 49.0182 497.415 49.1367 496.631 49.1367C496.285 49.1367 495.945 49.1139 495.612 49.0684C495.284 49.0228 494.967 48.9567 494.662 48.8701C494.361 48.779 494.074 48.6673 493.801 48.5352V46.5664C494.275 46.776 494.767 46.9652 495.277 47.1338C495.788 47.3024 496.294 47.3867 496.795 47.3867C497.141 47.3867 497.419 47.3411 497.629 47.25C497.843 47.1589 497.998 47.0335 498.094 46.874C498.189 46.7145 498.237 46.5322 498.237 46.3271C498.237 46.0765 498.153 45.8623 497.984 45.6846C497.816 45.5068 497.583 45.3405 497.287 45.1855C496.995 45.0306 496.665 44.8643 496.296 44.6865C496.063 44.5771 495.811 44.445 495.537 44.29C495.264 44.1305 495.004 43.9368 494.758 43.709C494.512 43.4811 494.309 43.2054 494.149 42.8818C493.994 42.5537 493.917 42.1618 493.917 41.7061C493.917 41.109 494.054 40.5986 494.327 40.1748C494.601 39.751 494.99 39.4274 495.496 39.2041C496.007 38.9762 496.608 38.8623 497.301 38.8623C497.82 38.8623 498.315 38.9238 498.784 39.0469C499.258 39.1654 499.753 39.3385 500.268 39.5664L499.584 41.2139C499.124 41.027 498.711 40.8835 498.347 40.7832C497.982 40.6784 497.611 40.626 497.232 40.626C496.968 40.626 496.743 40.6693 496.556 40.7559C496.369 40.8379 496.228 40.9564 496.132 41.1113C496.036 41.2617 495.988 41.4372 495.988 41.6377C495.988 41.8747 496.057 42.0752 496.193 42.2393C496.335 42.3988 496.544 42.5537 496.822 42.7041C497.105 42.8545 497.456 43.0299 497.875 43.2305C498.385 43.472 498.821 43.7249 499.181 43.9893C499.545 44.249 499.826 44.5566 500.021 44.9121C500.217 45.263 500.315 45.7005 500.315 46.2246ZM510.419 43.9072C510.419 45.0329 510.202 45.974 509.77 46.7305C509.341 47.4824 508.719 48.0498 507.903 48.4326C507.088 48.8109 506.105 49 504.957 49H502.127V39.0059H505.265C506.313 39.0059 507.222 39.1927 507.992 39.5664C508.762 39.9355 509.359 40.4847 509.783 41.2139C510.207 41.9385 510.419 42.8363 510.419 43.9072ZM508.218 43.9619C508.218 43.2236 508.108 42.6175 507.89 42.1436C507.675 41.665 507.356 41.3118 506.933 41.084C506.513 40.8561 505.994 40.7422 505.374 40.7422H504.246V47.25H505.155C506.19 47.25 506.958 46.9743 507.459 46.4229C507.965 45.8714 508.218 45.0511 508.218 43.9619ZM520.529 49H518.123L515.505 44.7891L514.609 45.4316V49H512.49V39.0059H514.609V43.5791C514.751 43.3831 514.89 43.1872 515.026 42.9912C515.163 42.7952 515.302 42.5993 515.443 42.4033L518.15 39.0059H520.502L517.016 43.4287L520.529 49Z" fill="white"/>
</g>
<path d="M619.854 43.8535C620.049 43.6583 620.049 43.3417 619.854 43.1464L616.672 39.9645C616.476 39.7692 616.16 39.7692 615.964 39.9645C615.769 40.1597 615.769 40.4763 615.964 40.6716L618.793 43.5L615.964 46.3284C615.769 46.5237 615.769 46.8403 615.964 47.0355C616.16 47.2308 616.476 47.2308 616.672 47.0355L619.854 43.8535ZM582.5 44L583.528 44L583.528 43L582.5 43L582.5 44ZM585.583 44L587.639 44L587.639 43L585.583 43L585.583 44ZM589.694 44L591.75 44L591.75 43L589.694 43L589.694 44ZM593.806 44L595.861 44L595.861 43L593.806 43L593.806 44ZM597.917 44L599.972 44L599.972 43L597.917 43L597.917 44ZM602.028 44L604.083 44L604.083 43L602.028 43L602.028 44ZM606.139 44L608.194 44L608.194 43L606.139 43L606.139 44ZM610.25 44L612.306 44L612.306 43L610.25 43L610.25 44ZM614.361 44L616.417 44L616.417 43L614.361 43L614.361 44ZM618.472 44L619.5 44L619.5 43L618.472 43L618.472 44ZM619.854 43.8535C620.049 43.6583 620.049 43.3417 619.854 43.1464L616.672 39.9645C616.476 39.7692 616.16 39.7692 615.964 39.9645C615.769 40.1597 615.769 40.4763 615.964 40.6716L618.793 43.5L615.964 46.3284C615.769 46.5237 615.769 46.8403 615.964 47.0355C616.16 47.2308 616.476 47.2308 616.672 47.0355L619.854 43.8535ZM582.5 44L583.528 44L583.528 43L582.5 43L582.5 44ZM585.583 44L587.639 44L587.639 43L585.583 43L585.583 44ZM589.694 44L591.75 44L591.75 43L589.694 43L589.694 44ZM593.806 44L595.861 44L595.861 43L593.806 43L593.806 44ZM597.917 44L599.972 44L599.972 43L597.917 43L597.917 44ZM602.028 44L604.083 44L604.083 43L602.028 43L602.028 44ZM606.139 44L608.194 44L608.194 43L606.139 43L606.139 44ZM610.25 44L612.306 44L612.306 43L610.25 43L610.25 44ZM614.361 44L616.417 44L616.417 43L614.361 43L614.361 44ZM618.472 44L619.5 44L619.5 43L618.472 43L618.472 44Z" fill="#5C528B"/>
<rect x="629.5" y="1" width="200" height="85" rx="4" stroke="#7C81FF" stroke-opacity="0.5"/>
<g filter="url(#filter2_d_5276_9075)">
<path d="M705.376 49L704.651 46.6211H701.008L700.283 49H698L701.527 38.9648H704.118L707.659 49H705.376ZM704.146 44.8438L703.421 42.5195C703.375 42.3646 703.314 42.1663 703.236 41.9248C703.163 41.6787 703.088 41.4303 703.011 41.1797C702.938 40.9245 702.879 40.7035 702.833 40.5166C702.787 40.7035 702.724 40.9359 702.642 41.2139C702.564 41.4873 702.489 41.7471 702.416 41.9932C702.343 42.2393 702.291 42.4147 702.259 42.5195L701.541 44.8438H704.146ZM708.924 49V39.0059H711.043V49H708.924ZM725.487 43.9072C725.487 45.0329 725.271 45.974 724.838 46.7305C724.41 47.4824 723.787 48.0498 722.972 48.4326C722.156 48.8109 721.174 49 720.025 49H717.195V39.0059H720.333C721.381 39.0059 722.29 39.1927 723.061 39.5664C723.831 39.9355 724.428 40.4847 724.852 41.2139C725.275 41.9385 725.487 42.8363 725.487 43.9072ZM723.286 43.9619C723.286 43.2236 723.177 42.6175 722.958 42.1436C722.744 41.665 722.425 41.3118 722.001 41.084C721.582 40.8561 721.062 40.7422 720.442 40.7422H719.314V47.25H720.224C721.258 47.25 722.026 46.9743 722.527 46.4229C723.033 45.8714 723.286 45.0511 723.286 43.9619ZM733.677 49L732.952 46.6211H729.309L728.584 49H726.301L729.828 38.9648H732.419L735.96 49H733.677ZM732.446 44.8438L731.722 42.5195C731.676 42.3646 731.615 42.1663 731.537 41.9248C731.464 41.6787 731.389 41.4303 731.312 41.1797C731.239 40.9245 731.179 40.7035 731.134 40.5166C731.088 40.7035 731.024 40.9359 730.942 41.2139C730.865 41.4873 730.79 41.7471 730.717 41.9932C730.644 42.2393 730.591 42.4147 730.56 42.5195L729.842 44.8438H732.446ZM741.312 41.2139C742.174 41.2139 742.869 41.5488 743.397 42.2188C743.931 42.8887 744.197 43.8708 744.197 45.165C744.197 46.0309 744.072 46.7601 743.821 47.3525C743.571 47.9404 743.224 48.3848 742.782 48.6855C742.34 48.9863 741.832 49.1367 741.258 49.1367C740.889 49.1367 740.572 49.0911 740.308 49C740.043 48.9043 739.818 48.7835 739.631 48.6377C739.444 48.4873 739.282 48.3278 739.146 48.1592H739.036C739.073 48.3415 739.1 48.5283 739.118 48.7197C739.136 48.9111 739.146 49.098 739.146 49.2803V52.3633H737.061V41.3574H738.756L739.05 42.3486H739.146C739.282 42.1436 739.449 41.9544 739.645 41.7812C739.84 41.6081 740.075 41.4714 740.349 41.3711C740.627 41.2663 740.948 41.2139 741.312 41.2139ZM740.643 42.8818C740.278 42.8818 739.989 42.957 739.774 43.1074C739.56 43.2578 739.403 43.4834 739.303 43.7842C739.207 44.085 739.155 44.4655 739.146 44.9258V45.1514C739.146 45.6436 739.191 46.0605 739.282 46.4023C739.378 46.7441 739.535 47.0039 739.754 47.1816C739.977 47.3594 740.283 47.4482 740.67 47.4482C740.989 47.4482 741.251 47.3594 741.456 47.1816C741.661 47.0039 741.814 46.7441 741.914 46.4023C742.019 46.056 742.071 45.6344 742.071 45.1377C742.071 44.3903 741.955 43.8275 741.723 43.4492C741.49 43.071 741.13 42.8818 740.643 42.8818ZM750.172 41.2139C751.033 41.2139 751.728 41.5488 752.257 42.2188C752.79 42.8887 753.057 43.8708 753.057 45.165C753.057 46.0309 752.931 46.7601 752.681 47.3525C752.43 47.9404 752.084 48.3848 751.642 48.6855C751.2 48.9863 750.691 49.1367 750.117 49.1367C749.748 49.1367 749.431 49.0911 749.167 49C748.903 48.9043 748.677 48.7835 748.49 48.6377C748.303 48.4873 748.142 48.3278 748.005 48.1592H747.896C747.932 48.3415 747.959 48.5283 747.978 48.7197C747.996 48.9111 748.005 49.098 748.005 49.2803V52.3633H745.92V41.3574H747.615L747.909 42.3486H748.005C748.142 42.1436 748.308 41.9544 748.504 41.7812C748.7 41.6081 748.935 41.4714 749.208 41.3711C749.486 41.2663 749.807 41.2139 750.172 41.2139ZM749.502 42.8818C749.137 42.8818 748.848 42.957 748.634 43.1074C748.42 43.2578 748.262 43.4834 748.162 43.7842C748.066 44.085 748.014 44.4655 748.005 44.9258V45.1514C748.005 45.6436 748.05 46.0605 748.142 46.4023C748.237 46.7441 748.395 47.0039 748.613 47.1816C748.837 47.3594 749.142 47.4482 749.529 47.4482C749.848 47.4482 750.11 47.3594 750.315 47.1816C750.521 47.0039 750.673 46.7441 750.773 46.4023C750.878 46.056 750.931 45.6344 750.931 45.1377C750.931 44.3903 750.814 43.8275 750.582 43.4492C750.35 43.071 749.99 42.8818 749.502 42.8818ZM760.111 46.7305C760.111 47.25 759.988 47.6898 759.742 48.0498C759.501 48.4053 759.138 48.6764 758.655 48.8633C758.172 49.0456 757.571 49.1367 756.851 49.1367C756.317 49.1367 755.859 49.1025 755.477 49.0342C755.098 48.9658 754.715 48.8519 754.328 48.6924V46.9697C754.743 47.1566 755.187 47.3115 755.661 47.4346C756.14 47.5531 756.559 47.6123 756.919 47.6123C757.325 47.6123 757.614 47.5531 757.787 47.4346C757.965 47.3115 758.054 47.152 758.054 46.9561C758.054 46.8285 758.017 46.7145 757.944 46.6143C757.876 46.5094 757.726 46.3932 757.493 46.2656C757.261 46.1335 756.896 45.9626 756.399 45.7529C755.921 45.5524 755.527 45.3496 755.217 45.1445C754.911 44.9395 754.684 44.6979 754.533 44.4199C754.387 44.1374 754.314 43.7796 754.314 43.3467C754.314 42.6403 754.588 42.1094 755.135 41.7539C755.686 41.3939 756.422 41.2139 757.343 41.2139C757.817 41.2139 758.268 41.2617 758.696 41.3574C759.129 41.4531 759.574 41.6058 760.029 41.8154L759.4 43.3193C759.022 43.1553 758.664 43.0208 758.327 42.916C757.994 42.8112 757.655 42.7588 757.309 42.7588C757.003 42.7588 756.773 42.7998 756.618 42.8818C756.463 42.9639 756.386 43.0892 756.386 43.2578C756.386 43.3809 756.424 43.4902 756.502 43.5859C756.584 43.6816 756.739 43.7887 756.967 43.9072C757.199 44.0212 757.539 44.1693 757.985 44.3516C758.418 44.5293 758.794 44.7161 759.113 44.9121C759.432 45.1035 759.678 45.3428 759.852 45.6299C760.025 45.9124 760.111 46.2793 760.111 46.7305Z" fill="white"/>
</g>
<rect x="6" y="176" width="165" height="60" rx="4" stroke="#454C74"/>
<path d="M46.4746 206.635C46.4746 207.6 46.2988 208.406 45.9473 209.055C45.5957 209.699 45.0859 210.186 44.418 210.514C43.7539 210.838 42.9473 211 41.998 211H39.6719V202.434H42.2559C43.127 202.434 43.877 202.594 44.5059 202.914C45.1348 203.23 45.6191 203.701 45.959 204.326C46.3027 204.947 46.4746 205.717 46.4746 206.635ZM45.4258 206.67C45.4258 205.9 45.2969 205.266 45.0391 204.766C44.7852 204.266 44.4102 203.895 43.9141 203.652C43.4219 203.406 42.8184 203.283 42.1035 203.283H40.668V210.145H41.8809C43.0605 210.145 43.9453 209.854 44.5352 209.271C45.1289 208.689 45.4258 207.822 45.4258 206.67ZM50.6348 204.473C51.4004 204.473 51.9688 204.645 52.3398 204.988C52.7109 205.332 52.8965 205.881 52.8965 206.635V211H52.1875L52 210.051H51.9531C51.7734 210.285 51.5859 210.482 51.3906 210.643C51.1953 210.799 50.9688 210.918 50.7109 211C50.457 211.078 50.1445 211.117 49.7734 211.117C49.3828 211.117 49.0352 211.049 48.7305 210.912C48.4297 210.775 48.1914 210.568 48.0156 210.291C47.8438 210.014 47.7578 209.662 47.7578 209.236C47.7578 208.596 48.0117 208.104 48.5195 207.76C49.0273 207.416 49.8008 207.229 50.8398 207.197L51.9473 207.15V206.758C51.9473 206.203 51.8281 205.814 51.5898 205.592C51.3516 205.369 51.0156 205.258 50.582 205.258C50.2461 205.258 49.9258 205.307 49.6211 205.404C49.3164 205.502 49.0273 205.617 48.7539 205.75L48.4551 205.012C48.7441 204.863 49.0762 204.736 49.4512 204.631C49.8262 204.525 50.2207 204.473 50.6348 204.473ZM51.9355 207.836L50.957 207.877C50.1562 207.908 49.5918 208.039 49.2637 208.27C48.9355 208.5 48.7715 208.826 48.7715 209.248C48.7715 209.615 48.8828 209.887 49.1055 210.062C49.3281 210.238 49.623 210.326 49.9902 210.326C50.5605 210.326 51.0273 210.168 51.3906 209.852C51.7539 209.535 51.9355 209.061 51.9355 208.428V207.836ZM56.9746 210.32C57.1348 210.32 57.2988 210.307 57.4668 210.279C57.6348 210.252 57.7715 210.219 57.877 210.18V210.936C57.7637 210.986 57.6055 211.029 57.4023 211.064C57.2031 211.1 57.0078 211.117 56.8164 211.117C56.4766 211.117 56.168 211.059 55.8906 210.941C55.6133 210.82 55.3906 210.617 55.2227 210.332C55.0586 210.047 54.9766 209.652 54.9766 209.148V205.34H54.0625V204.865L54.9824 204.484L55.3691 203.09H55.9551V204.578H57.8359V205.34H55.9551V209.119C55.9551 209.521 56.0469 209.822 56.2305 210.021C56.418 210.221 56.666 210.32 56.9746 210.32ZM61.5801 204.473C62.3457 204.473 62.9141 204.645 63.2852 204.988C63.6562 205.332 63.8418 205.881 63.8418 206.635V211H63.1328L62.9453 210.051H62.8984C62.7188 210.285 62.5312 210.482 62.3359 210.643C62.1406 210.799 61.9141 210.918 61.6562 211C61.4023 211.078 61.0898 211.117 60.7188 211.117C60.3281 211.117 59.9805 211.049 59.6758 210.912C59.375 210.775 59.1367 210.568 58.9609 210.291C58.7891 210.014 58.7031 209.662 58.7031 209.236C58.7031 208.596 58.957 208.104 59.4648 207.76C59.9727 207.416 60.7461 207.229 61.7852 207.197L62.8926 207.15V206.758C62.8926 206.203 62.7734 205.814 62.5352 205.592C62.2969 205.369 61.9609 205.258 61.5273 205.258C61.1914 205.258 60.8711 205.307 60.5664 205.404C60.2617 205.502 59.9727 205.617 59.6992 205.75L59.4004 205.012C59.6895 204.863 60.0215 204.736 60.3965 204.631C60.7715 204.525 61.166 204.473 61.5801 204.473ZM62.8809 207.836L61.9023 207.877C61.1016 207.908 60.5371 208.039 60.209 208.27C59.8809 208.5 59.7168 208.826 59.7168 209.248C59.7168 209.615 59.8281 209.887 60.0508 210.062C60.2734 210.238 60.5684 210.326 60.9355 210.326C61.5059 210.326 61.9727 210.168 62.3359 209.852C62.6992 209.535 62.8809 209.061 62.8809 208.428V207.836ZM74.4824 211L73.4277 208.281H69.9941L68.9453 211H67.9375L71.2891 202.398H72.1855L75.5137 211H74.4824ZM73.1289 207.396L72.127 204.695C72.1035 204.625 72.0645 204.51 72.0098 204.35C71.959 204.189 71.9062 204.023 71.8516 203.852C71.7969 203.68 71.752 203.541 71.7168 203.436C71.6777 203.596 71.6348 203.756 71.5879 203.916C71.5449 204.072 71.502 204.219 71.459 204.355C71.416 204.488 71.3789 204.602 71.3477 204.695L70.3281 207.396H73.1289ZM78.3496 213.883C77.5059 213.883 76.8555 213.725 76.3984 213.408C75.9414 213.096 75.7129 212.656 75.7129 212.09C75.7129 211.688 75.8398 211.344 76.0938 211.059C76.3516 210.773 76.707 210.584 77.1602 210.49C76.9922 210.412 76.8477 210.295 76.7266 210.139C76.6094 209.982 76.5508 209.803 76.5508 209.6C76.5508 209.365 76.6152 209.16 76.7441 208.984C76.877 208.805 77.0781 208.633 77.3477 208.469C77.0117 208.332 76.7383 208.102 76.5273 207.777C76.3203 207.449 76.2168 207.068 76.2168 206.635C76.2168 206.174 76.3125 205.781 76.5039 205.457C76.6953 205.129 76.9727 204.879 77.3359 204.707C77.6992 204.535 78.1387 204.449 78.6543 204.449C78.7676 204.449 78.8809 204.455 78.9941 204.467C79.1113 204.475 79.2227 204.488 79.3281 204.508C79.4336 204.523 79.5254 204.543 79.6035 204.566H81.8066V205.193L80.623 205.34C80.7402 205.492 80.8379 205.676 80.916 205.891C80.9941 206.105 81.0332 206.344 81.0332 206.605C81.0332 207.246 80.8164 207.756 80.3828 208.135C79.9492 208.51 79.3535 208.697 78.5957 208.697C78.416 208.697 78.2324 208.682 78.0449 208.65C77.8535 208.756 77.707 208.873 77.6055 209.002C77.5078 209.131 77.459 209.279 77.459 209.447C77.459 209.572 77.4961 209.672 77.5703 209.746C77.6484 209.82 77.7598 209.875 77.9043 209.91C78.0488 209.941 78.2227 209.957 78.4258 209.957H79.5566C80.2559 209.957 80.791 210.104 81.1621 210.396C81.5371 210.689 81.7246 211.117 81.7246 211.68C81.7246 212.391 81.4355 212.936 80.8574 213.314C80.2793 213.693 79.4434 213.883 78.3496 213.883ZM78.3789 213.121C78.9102 213.121 79.3496 213.066 79.6973 212.957C80.0488 212.852 80.3105 212.697 80.4824 212.494C80.6582 212.295 80.7461 212.057 80.7461 211.779C80.7461 211.521 80.6875 211.326 80.5703 211.193C80.4531 211.064 80.2812 210.979 80.0547 210.936C79.8281 210.889 79.5508 210.865 79.2227 210.865H78.1094C77.8203 210.865 77.5684 210.91 77.3535 211C77.1387 211.09 76.9727 211.223 76.8555 211.398C76.7422 211.574 76.6855 211.793 76.6855 212.055C76.6855 212.402 76.832 212.666 77.125 212.846C77.418 213.029 77.8359 213.121 78.3789 213.121ZM78.6309 207.988C79.0957 207.988 79.4453 207.871 79.6797 207.637C79.9141 207.402 80.0312 207.061 80.0312 206.611C80.0312 206.131 79.9121 205.771 79.6738 205.533C79.4355 205.291 79.084 205.17 78.6191 205.17C78.1738 205.17 77.8301 205.295 77.5879 205.545C77.3496 205.791 77.2305 206.152 77.2305 206.629C77.2305 207.066 77.3516 207.402 77.5938 207.637C77.8359 207.871 78.1816 207.988 78.6309 207.988ZM84.8652 213.883C84.0215 213.883 83.3711 213.725 82.9141 213.408C82.457 213.096 82.2285 212.656 82.2285 212.09C82.2285 211.688 82.3555 211.344 82.6094 211.059C82.8672 210.773 83.2227 210.584 83.6758 210.49C83.5078 210.412 83.3633 210.295 83.2422 210.139C83.125 209.982 83.0664 209.803 83.0664 209.6C83.0664 209.365 83.1309 209.16 83.2598 208.984C83.3926 208.805 83.5938 208.633 83.8633 208.469C83.5273 208.332 83.2539 208.102 83.043 207.777C82.8359 207.449 82.7324 207.068 82.7324 206.635C82.7324 206.174 82.8281 205.781 83.0195 205.457C83.2109 205.129 83.4883 204.879 83.8516 204.707C84.2148 204.535 84.6543 204.449 85.1699 204.449C85.2832 204.449 85.3965 204.455 85.5098 204.467C85.627 204.475 85.7383 204.488 85.8438 204.508C85.9492 204.523 86.041 204.543 86.1191 204.566H88.3223V205.193L87.1387 205.34C87.2559 205.492 87.3535 205.676 87.4316 205.891C87.5098 206.105 87.5488 206.344 87.5488 206.605C87.5488 207.246 87.332 207.756 86.8984 208.135C86.4648 208.51 85.8691 208.697 85.1113 208.697C84.9316 208.697 84.748 208.682 84.5605 208.65C84.3691 208.756 84.2227 208.873 84.1211 209.002C84.0234 209.131 83.9746 209.279 83.9746 209.447C83.9746 209.572 84.0117 209.672 84.0859 209.746C84.1641 209.82 84.2754 209.875 84.4199 209.91C84.5645 209.941 84.7383 209.957 84.9414 209.957H86.0723C86.7715 209.957 87.3066 210.104 87.6777 210.396C88.0527 210.689 88.2402 211.117 88.2402 211.68C88.2402 212.391 87.9512 212.936 87.373 213.314C86.7949 213.693 85.959 213.883 84.8652 213.883ZM84.8945 213.121C85.4258 213.121 85.8652 213.066 86.2129 212.957C86.5645 212.852 86.8262 212.697 86.998 212.494C87.1738 212.295 87.2617 212.057 87.2617 211.779C87.2617 211.521 87.2031 211.326 87.0859 211.193C86.9688 211.064 86.7969 210.979 86.5703 210.936C86.3438 210.889 86.0664 210.865 85.7383 210.865H84.625C84.3359 210.865 84.084 210.91 83.8691 211C83.6543 211.09 83.4883 211.223 83.3711 211.398C83.2578 211.574 83.2012 211.793 83.2012 212.055C83.2012 212.402 83.3477 212.666 83.6406 212.846C83.9336 213.029 84.3516 213.121 84.8945 213.121ZM85.1465 207.988C85.6113 207.988 85.9609 207.871 86.1953 207.637C86.4297 207.402 86.5469 207.061 86.5469 206.611C86.5469 206.131 86.4277 205.771 86.1895 205.533C85.9512 205.291 85.5996 205.17 85.1348 205.17C84.6895 205.17 84.3457 205.295 84.1035 205.545C83.8652 205.791 83.7461 206.152 83.7461 206.629C83.7461 207.066 83.8672 207.402 84.1094 207.637C84.3516 207.871 84.6973 207.988 85.1465 207.988ZM92.5059 204.461C92.6348 204.461 92.7695 204.469 92.9102 204.484C93.0508 204.496 93.1758 204.514 93.2852 204.537L93.1621 205.439C93.0566 205.412 92.9395 205.391 92.8105 205.375C92.6816 205.359 92.5605 205.352 92.4473 205.352C92.1895 205.352 91.9453 205.404 91.7148 205.51C91.4883 205.611 91.2891 205.76 91.1172 205.955C90.9453 206.146 90.8105 206.379 90.7129 206.652C90.6152 206.922 90.5664 207.223 90.5664 207.555V211H89.5879V204.578H90.3965L90.502 205.762H90.543C90.6758 205.523 90.8359 205.307 91.0234 205.111C91.2109 204.912 91.4277 204.754 91.6738 204.637C91.9238 204.52 92.2012 204.461 92.5059 204.461ZM96.9707 204.461C97.5176 204.461 97.9863 204.582 98.377 204.824C98.7676 205.066 99.0664 205.406 99.2734 205.844C99.4805 206.277 99.584 206.785 99.584 207.367V207.971H95.1484C95.1602 208.725 95.3477 209.299 95.7109 209.693C96.0742 210.088 96.5859 210.285 97.2461 210.285C97.6523 210.285 98.0117 210.248 98.3242 210.174C98.6367 210.1 98.9609 209.99 99.2969 209.846V210.701C98.9727 210.846 98.6504 210.951 98.3301 211.018C98.0137 211.084 97.6387 211.117 97.2051 211.117C96.5879 211.117 96.0488 210.992 95.5879 210.742C95.1309 210.488 94.7754 210.117 94.5215 209.629C94.2676 209.141 94.1406 208.543 94.1406 207.836C94.1406 207.145 94.2559 206.547 94.4863 206.043C94.7207 205.535 95.0488 205.145 95.4707 204.871C95.8965 204.598 96.3965 204.461 96.9707 204.461ZM96.959 205.258C96.4395 205.258 96.0254 205.428 95.7168 205.768C95.4082 206.107 95.2246 206.582 95.166 207.191H98.5645C98.5605 206.809 98.5 206.473 98.3828 206.184C98.2695 205.891 98.0957 205.664 97.8613 205.504C97.627 205.34 97.3262 205.258 96.959 205.258ZM103.029 213.883C102.186 213.883 101.535 213.725 101.078 213.408C100.621 213.096 100.393 212.656 100.393 212.09C100.393 211.688 100.52 211.344 100.773 211.059C101.031 210.773 101.387 210.584 101.84 210.49C101.672 210.412 101.527 210.295 101.406 210.139C101.289 209.982 101.23 209.803 101.23 209.6C101.23 209.365 101.295 209.16 101.424 208.984C101.557 208.805 101.758 208.633 102.027 208.469C101.691 208.332 101.418 208.102 101.207 207.777C101 207.449 100.896 207.068 100.896 206.635C100.896 206.174 100.992 205.781 101.184 205.457C101.375 205.129 101.652 204.879 102.016 204.707C102.379 204.535 102.818 204.449 103.334 204.449C103.447 204.449 103.561 204.455 103.674 204.467C103.791 204.475 103.902 204.488 104.008 204.508C104.113 204.523 104.205 204.543 104.283 204.566H106.486V205.193L105.303 205.34C105.42 205.492 105.518 205.676 105.596 205.891C105.674 206.105 105.713 206.344 105.713 206.605C105.713 207.246 105.496 207.756 105.062 208.135C104.629 208.51 104.033 208.697 103.275 208.697C103.096 208.697 102.912 208.682 102.725 208.65C102.533 208.756 102.387 208.873 102.285 209.002C102.188 209.131 102.139 209.279 102.139 209.447C102.139 209.572 102.176 209.672 102.25 209.746C102.328 209.82 102.439 209.875 102.584 209.91C102.729 209.941 102.902 209.957 103.105 209.957H104.236C104.936 209.957 105.471 210.104 105.842 210.396C106.217 210.689 106.404 211.117 106.404 211.68C106.404 212.391 106.115 212.936 105.537 213.314C104.959 213.693 104.123 213.883 103.029 213.883ZM103.059 213.121C103.59 213.121 104.029 213.066 104.377 212.957C104.729 212.852 104.99 212.697 105.162 212.494C105.338 212.295 105.426 212.057 105.426 211.779C105.426 211.521 105.367 211.326 105.25 211.193C105.133 211.064 104.961 210.979 104.734 210.936C104.508 210.889 104.23 210.865 103.902 210.865H102.789C102.5 210.865 102.248 210.91 102.033 211C101.818 211.09 101.652 211.223 101.535 211.398C101.422 211.574 101.365 211.793 101.365 212.055C101.365 212.402 101.512 212.666 101.805 212.846C102.098 213.029 102.516 213.121 103.059 213.121ZM103.311 207.988C103.775 207.988 104.125 207.871 104.359 207.637C104.594 207.402 104.711 207.061 104.711 206.611C104.711 206.131 104.592 205.771 104.354 205.533C104.115 205.291 103.764 205.17 103.299 205.17C102.854 205.17 102.51 205.295 102.268 205.545C102.029 205.791 101.91 206.152 101.91 206.629C101.91 207.066 102.031 207.402 102.273 207.637C102.516 207.871 102.861 207.988 103.311 207.988ZM110.154 204.473C110.92 204.473 111.488 204.645 111.859 204.988C112.23 205.332 112.416 205.881 112.416 206.635V211H111.707L111.52 210.051H111.473C111.293 210.285 111.105 210.482 110.91 210.643C110.715 210.799 110.488 210.918 110.23 211C109.977 211.078 109.664 211.117 109.293 211.117C108.902 211.117 108.555 211.049 108.25 210.912C107.949 210.775 107.711 210.568 107.535 210.291C107.363 210.014 107.277 209.662 107.277 209.236C107.277 208.596 107.531 208.104 108.039 207.76C108.547 207.416 109.32 207.229 110.359 207.197L111.467 207.15V206.758C111.467 206.203 111.348 205.814 111.109 205.592C110.871 205.369 110.535 205.258 110.102 205.258C109.766 205.258 109.445 205.307 109.141 205.404C108.836 205.502 108.547 205.617 108.273 205.75L107.975 205.012C108.264 204.863 108.596 204.736 108.971 204.631C109.346 204.525 109.74 204.473 110.154 204.473ZM111.455 207.836L110.477 207.877C109.676 207.908 109.111 208.039 108.783 208.27C108.455 208.5 108.291 208.826 108.291 209.248C108.291 209.615 108.402 209.887 108.625 210.062C108.848 210.238 109.143 210.326 109.51 210.326C110.08 210.326 110.547 210.168 110.91 209.852C111.273 209.535 111.455 209.061 111.455 208.428V207.836ZM116.494 210.32C116.654 210.32 116.818 210.307 116.986 210.279C117.154 210.252 117.291 210.219 117.396 210.18V210.936C117.283 210.986 117.125 211.029 116.922 211.064C116.723 211.1 116.527 211.117 116.336 211.117C115.996 211.117 115.688 211.059 115.41 210.941C115.133 210.82 114.91 210.617 114.742 210.332C114.578 210.047 114.496 209.652 114.496 209.148V205.34H113.582V204.865L114.502 204.484L114.889 203.09H115.475V204.578H117.355V205.34H115.475V209.119C115.475 209.521 115.566 209.822 115.75 210.021C115.938 210.221 116.186 210.32 116.494 210.32ZM119.67 204.578V211H118.697V204.578H119.67ZM119.195 202.176C119.355 202.176 119.492 202.229 119.605 202.334C119.723 202.436 119.781 202.596 119.781 202.814C119.781 203.029 119.723 203.189 119.605 203.295C119.492 203.4 119.355 203.453 119.195 203.453C119.027 203.453 118.887 203.4 118.773 203.295C118.664 203.189 118.609 203.029 118.609 202.814C118.609 202.596 118.664 202.436 118.773 202.334C118.887 202.229 119.027 202.176 119.195 202.176ZM127.27 207.777C127.27 208.305 127.201 208.775 127.064 209.189C126.928 209.604 126.73 209.953 126.473 210.238C126.215 210.523 125.902 210.742 125.535 210.895C125.172 211.043 124.76 211.117 124.299 211.117C123.869 211.117 123.475 211.043 123.115 210.895C122.76 210.742 122.451 210.523 122.189 210.238C121.932 209.953 121.73 209.604 121.586 209.189C121.445 208.775 121.375 208.305 121.375 207.777C121.375 207.074 121.494 206.477 121.732 205.984C121.971 205.488 122.311 205.111 122.752 204.854C123.197 204.592 123.727 204.461 124.34 204.461C124.926 204.461 125.438 204.592 125.875 204.854C126.316 205.115 126.658 205.494 126.9 205.99C127.146 206.482 127.27 207.078 127.27 207.777ZM122.383 207.777C122.383 208.293 122.451 208.74 122.588 209.119C122.725 209.498 122.936 209.791 123.221 209.998C123.506 210.205 123.873 210.309 124.322 210.309C124.768 210.309 125.133 210.205 125.418 209.998C125.707 209.791 125.92 209.498 126.057 209.119C126.193 208.74 126.262 208.293 126.262 207.777C126.262 207.266 126.193 206.824 126.057 206.453C125.92 206.078 125.709 205.789 125.424 205.586C125.139 205.383 124.77 205.281 124.316 205.281C123.648 205.281 123.158 205.502 122.846 205.943C122.537 206.385 122.383 206.996 122.383 207.777ZM131.992 204.461C132.754 204.461 133.33 204.648 133.721 205.023C134.111 205.395 134.307 205.992 134.307 206.816V211H133.346V206.881C133.346 206.346 133.223 205.945 132.977 205.68C132.734 205.414 132.361 205.281 131.857 205.281C131.146 205.281 130.646 205.482 130.357 205.885C130.068 206.287 129.924 206.871 129.924 207.637V211H128.951V204.578H129.736L129.883 205.504H129.936C130.072 205.277 130.246 205.088 130.457 204.936C130.668 204.779 130.904 204.662 131.166 204.584C131.428 204.502 131.703 204.461 131.992 204.461Z" fill="#B2E5FC"/>
<rect x="198" y="176" width="165" height="60" rx="4" stroke="#454C74"/>
<path d="M239.652 202.434V207.977C239.652 208.582 239.529 209.121 239.283 209.594C239.041 210.066 238.674 210.439 238.182 210.713C237.689 210.982 237.072 211.117 236.33 211.117C235.271 211.117 234.465 210.83 233.91 210.256C233.359 209.682 233.084 208.914 233.084 207.953V202.434H234.086V207.982C234.086 208.709 234.277 209.27 234.66 209.664C235.047 210.059 235.623 210.256 236.389 210.256C236.912 210.256 237.34 210.162 237.672 209.975C238.008 209.783 238.256 209.518 238.416 209.178C238.58 208.834 238.662 208.438 238.662 207.988V202.434H239.652ZM247.645 211H246.514L244.199 207.227L241.85 211H240.789L243.643 206.535L240.988 202.434H242.096L244.234 205.85L246.385 202.434H247.439L244.791 206.518L247.645 211ZM256.75 211H251.98V202.434H256.75V203.312H252.977V206.084H256.533V206.951H252.977V210.121H256.75V211ZM261.543 204.461C262.305 204.461 262.881 204.648 263.271 205.023C263.662 205.395 263.857 205.992 263.857 206.816V211H262.896V206.881C262.896 206.346 262.773 205.945 262.527 205.68C262.285 205.414 261.912 205.281 261.408 205.281C260.697 205.281 260.197 205.482 259.908 205.885C259.619 206.287 259.475 206.871 259.475 207.637V211H258.502V204.578H259.287L259.434 205.504H259.486C259.623 205.277 259.797 205.088 260.008 204.936C260.219 204.779 260.455 204.662 260.717 204.584C260.979 204.502 261.254 204.461 261.543 204.461ZM266.834 201.883V204.607C266.834 204.764 266.83 204.922 266.822 205.082C266.814 205.238 266.801 205.383 266.781 205.516H266.846C266.979 205.289 267.146 205.1 267.35 204.947C267.557 204.791 267.791 204.674 268.053 204.596C268.314 204.514 268.592 204.473 268.885 204.473C269.4 204.473 269.83 204.555 270.174 204.719C270.521 204.883 270.781 205.137 270.953 205.48C271.129 205.824 271.217 206.27 271.217 206.816V211H270.256V206.881C270.256 206.346 270.133 205.945 269.887 205.68C269.645 205.414 269.271 205.281 268.768 205.281C268.291 205.281 267.91 205.373 267.625 205.557C267.344 205.736 267.141 206.002 267.016 206.354C266.895 206.705 266.834 207.135 266.834 207.643V211H265.861V201.883H266.834ZM275.623 204.473C276.389 204.473 276.957 204.645 277.328 204.988C277.699 205.332 277.885 205.881 277.885 206.635V211H277.176L276.988 210.051H276.941C276.762 210.285 276.574 210.482 276.379 210.643C276.184 210.799 275.957 210.918 275.699 211C275.445 211.078 275.133 211.117 274.762 211.117C274.371 211.117 274.023 211.049 273.719 210.912C273.418 210.775 273.18 210.568 273.004 210.291C272.832 210.014 272.746 209.662 272.746 209.236C272.746 208.596 273 208.104 273.508 207.76C274.016 207.416 274.789 207.229 275.828 207.197L276.936 207.15V206.758C276.936 206.203 276.816 205.814 276.578 205.592C276.34 205.369 276.004 205.258 275.57 205.258C275.234 205.258 274.914 205.307 274.609 205.404C274.305 205.502 274.016 205.617 273.742 205.75L273.443 205.012C273.732 204.863 274.064 204.736 274.439 204.631C274.814 204.525 275.209 204.473 275.623 204.473ZM276.924 207.836L275.945 207.877C275.145 207.908 274.58 208.039 274.252 208.27C273.924 208.5 273.76 208.826 273.76 209.248C273.76 209.615 273.871 209.887 274.094 210.062C274.316 210.238 274.611 210.326 274.979 210.326C275.549 210.326 276.016 210.168 276.379 209.852C276.742 209.535 276.924 209.061 276.924 208.428V207.836ZM282.93 204.461C283.691 204.461 284.268 204.648 284.658 205.023C285.049 205.395 285.244 205.992 285.244 206.816V211H284.283V206.881C284.283 206.346 284.16 205.945 283.914 205.68C283.672 205.414 283.299 205.281 282.795 205.281C282.084 205.281 281.584 205.482 281.295 205.885C281.006 206.287 280.861 206.871 280.861 207.637V211H279.889V204.578H280.674L280.82 205.504H280.873C281.01 205.277 281.184 205.088 281.395 204.936C281.605 204.779 281.842 204.662 282.104 204.584C282.365 204.502 282.641 204.461 282.93 204.461ZM289.82 211.117C289.242 211.117 288.732 210.998 288.291 210.76C287.85 210.521 287.506 210.158 287.26 209.67C287.014 209.182 286.891 208.566 286.891 207.824C286.891 207.047 287.02 206.412 287.277 205.92C287.539 205.424 287.898 205.057 288.355 204.818C288.812 204.58 289.332 204.461 289.914 204.461C290.234 204.461 290.543 204.494 290.84 204.561C291.141 204.623 291.387 204.703 291.578 204.801L291.285 205.615C291.09 205.537 290.863 205.467 290.605 205.404C290.352 205.342 290.113 205.311 289.891 205.311C289.445 205.311 289.074 205.406 288.777 205.598C288.484 205.789 288.264 206.07 288.115 206.441C287.971 206.812 287.898 207.27 287.898 207.812C287.898 208.332 287.969 208.775 288.109 209.143C288.254 209.51 288.467 209.791 288.748 209.986C289.033 210.178 289.389 210.273 289.814 210.273C290.154 210.273 290.461 210.238 290.734 210.168C291.008 210.094 291.256 210.008 291.479 209.91V210.777C291.264 210.887 291.023 210.971 290.758 211.029C290.496 211.088 290.184 211.117 289.82 211.117ZM295.475 204.461C296.021 204.461 296.49 204.582 296.881 204.824C297.271 205.066 297.57 205.406 297.777 205.844C297.984 206.277 298.088 206.785 298.088 207.367V207.971H293.652C293.664 208.725 293.852 209.299 294.215 209.693C294.578 210.088 295.09 210.285 295.75 210.285C296.156 210.285 296.516 210.248 296.828 210.174C297.141 210.1 297.465 209.99 297.801 209.846V210.701C297.477 210.846 297.154 210.951 296.834 211.018C296.518 211.084 296.143 211.117 295.709 211.117C295.092 211.117 294.553 210.992 294.092 210.742C293.635 210.488 293.279 210.117 293.025 209.629C292.771 209.141 292.645 208.543 292.645 207.836C292.645 207.145 292.76 206.547 292.99 206.043C293.225 205.535 293.553 205.145 293.975 204.871C294.4 204.598 294.9 204.461 295.475 204.461ZM295.463 205.258C294.943 205.258 294.529 205.428 294.221 205.768C293.912 206.107 293.729 206.582 293.67 207.191H297.068C297.064 206.809 297.004 206.473 296.887 206.184C296.773 205.891 296.6 205.664 296.365 205.504C296.131 205.34 295.83 205.258 295.463 205.258ZM306.713 204.461C307.42 204.461 307.953 204.646 308.312 205.018C308.672 205.385 308.852 205.977 308.852 206.793V211H307.891V206.84C307.891 206.32 307.777 205.932 307.551 205.674C307.328 205.412 306.996 205.281 306.555 205.281C305.934 205.281 305.482 205.461 305.201 205.82C304.92 206.18 304.779 206.709 304.779 207.408V211H303.812V206.84C303.812 206.492 303.762 206.203 303.66 205.973C303.562 205.742 303.414 205.57 303.215 205.457C303.02 205.34 302.771 205.281 302.471 205.281C302.045 205.281 301.703 205.369 301.445 205.545C301.188 205.721 301 205.982 300.883 206.33C300.77 206.674 300.713 207.098 300.713 207.602V211H299.74V204.578H300.525L300.672 205.486H300.725C300.854 205.264 301.016 205.076 301.211 204.924C301.406 204.771 301.625 204.656 301.867 204.578C302.109 204.5 302.367 204.461 302.641 204.461C303.129 204.461 303.537 204.553 303.865 204.736C304.197 204.916 304.438 205.191 304.586 205.562H304.639C304.85 205.191 305.139 204.916 305.506 204.736C305.873 204.553 306.275 204.461 306.713 204.461ZM313.322 204.461C313.869 204.461 314.338 204.582 314.729 204.824C315.119 205.066 315.418 205.406 315.625 205.844C315.832 206.277 315.936 206.785 315.936 207.367V207.971H311.5C311.512 208.725 311.699 209.299 312.062 209.693C312.426 210.088 312.938 210.285 313.598 210.285C314.004 210.285 314.363 210.248 314.676 210.174C314.988 210.1 315.312 209.99 315.648 209.846V210.701C315.324 210.846 315.002 210.951 314.682 211.018C314.365 211.084 313.99 211.117 313.557 211.117C312.939 211.117 312.4 210.992 311.939 210.742C311.482 210.488 311.127 210.117 310.873 209.629C310.619 209.141 310.492 208.543 310.492 207.836C310.492 207.145 310.607 206.547 310.838 206.043C311.072 205.535 311.4 205.145 311.822 204.871C312.248 204.598 312.748 204.461 313.322 204.461ZM313.311 205.258C312.791 205.258 312.377 205.428 312.068 205.768C311.76 206.107 311.576 206.582 311.518 207.191H314.916C314.912 206.809 314.852 206.473 314.734 206.184C314.621 205.891 314.447 205.664 314.213 205.504C313.979 205.34 313.678 205.258 313.311 205.258ZM320.629 204.461C321.391 204.461 321.967 204.648 322.357 205.023C322.748 205.395 322.943 205.992 322.943 206.816V211H321.982V206.881C321.982 206.346 321.859 205.945 321.613 205.68C321.371 205.414 320.998 205.281 320.494 205.281C319.783 205.281 319.283 205.482 318.994 205.885C318.705 206.287 318.561 206.871 318.561 207.637V211H317.588V204.578H318.373L318.52 205.504H318.572C318.709 205.277 318.883 205.088 319.094 204.936C319.305 204.779 319.541 204.662 319.803 204.584C320.064 204.502 320.34 204.461 320.629 204.461ZM327.021 210.32C327.182 210.32 327.346 210.307 327.514 210.279C327.682 210.252 327.818 210.219 327.924 210.18V210.936C327.811 210.986 327.652 211.029 327.449 211.064C327.25 211.1 327.055 211.117 326.863 211.117C326.523 211.117 326.215 211.059 325.938 210.941C325.66 210.82 325.438 210.617 325.27 210.332C325.105 210.047 325.023 209.652 325.023 209.148V205.34H324.109V204.865L325.029 204.484L325.416 203.09H326.002V204.578H327.883V205.34H326.002V209.119C326.002 209.521 326.094 209.822 326.277 210.021C326.465 210.221 326.713 210.32 327.021 210.32Z" fill="#B2E5FC"/>
<rect x="390" y="176" width="165" height="60" rx="4" stroke="#454C74"/>
<path d="M421.803 211H420.801V203.312H418.105V202.434H424.486V203.312H421.803V211ZM428.037 204.473C428.803 204.473 429.371 204.645 429.742 204.988C430.113 205.332 430.299 205.881 430.299 206.635V211H429.59L429.402 210.051H429.355C429.176 210.285 428.988 210.482 428.793 210.643C428.598 210.799 428.371 210.918 428.113 211C427.859 211.078 427.547 211.117 427.176 211.117C426.785 211.117 426.438 211.049 426.133 210.912C425.832 210.775 425.594 210.568 425.418 210.291C425.246 210.014 425.16 209.662 425.16 209.236C425.16 208.596 425.414 208.104 425.922 207.76C426.43 207.416 427.203 207.229 428.242 207.197L429.35 207.15V206.758C429.35 206.203 429.23 205.814 428.992 205.592C428.754 205.369 428.418 205.258 427.984 205.258C427.648 205.258 427.328 205.307 427.023 205.404C426.719 205.502 426.43 205.617 426.156 205.75L425.857 205.012C426.146 204.863 426.479 204.736 426.854 204.631C427.229 204.525 427.623 204.473 428.037 204.473ZM429.338 207.836L428.359 207.877C427.559 207.908 426.994 208.039 426.666 208.27C426.338 208.5 426.174 208.826 426.174 209.248C426.174 209.615 426.285 209.887 426.508 210.062C426.73 210.238 427.025 210.326 427.393 210.326C427.963 210.326 428.43 210.168 428.793 209.852C429.156 209.535 429.338 209.061 429.338 208.428V207.836ZM436.457 209.242C436.457 209.652 436.354 209.998 436.146 210.279C435.943 210.557 435.65 210.766 435.268 210.906C434.889 211.047 434.436 211.117 433.908 211.117C433.459 211.117 433.07 211.082 432.742 211.012C432.414 210.941 432.127 210.842 431.881 210.713V209.816C432.143 209.945 432.455 210.062 432.818 210.168C433.182 210.273 433.553 210.326 433.932 210.326C434.486 210.326 434.889 210.236 435.139 210.057C435.389 209.877 435.514 209.633 435.514 209.324C435.514 209.148 435.463 208.994 435.361 208.861C435.264 208.725 435.098 208.594 434.863 208.469C434.629 208.34 434.305 208.199 433.891 208.047C433.48 207.891 433.125 207.736 432.824 207.584C432.527 207.428 432.297 207.238 432.133 207.016C431.973 206.793 431.893 206.504 431.893 206.148C431.893 205.605 432.111 205.189 432.549 204.9C432.99 204.607 433.568 204.461 434.283 204.461C434.67 204.461 435.031 204.5 435.367 204.578C435.707 204.652 436.023 204.754 436.316 204.883L435.988 205.662C435.723 205.549 435.439 205.453 435.139 205.375C434.838 205.297 434.531 205.258 434.219 205.258C433.77 205.258 433.424 205.332 433.182 205.48C432.943 205.629 432.824 205.832 432.824 206.09C432.824 206.289 432.879 206.453 432.988 206.582C433.102 206.711 433.281 206.832 433.527 206.945C433.773 207.059 434.098 207.191 434.5 207.344C434.902 207.492 435.25 207.646 435.543 207.807C435.836 207.963 436.061 208.154 436.217 208.381C436.377 208.604 436.457 208.891 436.457 209.242ZM438.988 201.883V206.617C438.988 206.773 438.982 206.965 438.971 207.191C438.959 207.414 438.949 207.611 438.941 207.783H438.982C439.064 207.682 439.184 207.531 439.34 207.332C439.5 207.133 439.635 206.973 439.744 206.852L441.877 204.578H443.02L440.436 207.32L443.207 211H442.035L439.768 207.959L438.988 208.674V211H438.021V201.883H438.988ZM451.252 203.189C450.779 203.189 450.354 203.271 449.975 203.436C449.6 203.596 449.279 203.83 449.014 204.139C448.752 204.443 448.551 204.812 448.41 205.246C448.27 205.68 448.199 206.168 448.199 206.711C448.199 207.43 448.311 208.055 448.533 208.586C448.76 209.113 449.096 209.521 449.541 209.811C449.99 210.1 450.551 210.244 451.223 210.244C451.605 210.244 451.965 210.213 452.301 210.15C452.641 210.084 452.971 210.002 453.291 209.904V210.771C452.979 210.889 452.65 210.975 452.307 211.029C451.963 211.088 451.555 211.117 451.082 211.117C450.211 211.117 449.482 210.938 448.896 210.578C448.314 210.215 447.877 209.703 447.584 209.043C447.295 208.383 447.15 207.604 447.15 206.705C447.15 206.057 447.24 205.465 447.42 204.93C447.604 204.391 447.869 203.926 448.217 203.535C448.568 203.145 448.998 202.844 449.506 202.633C450.018 202.418 450.604 202.311 451.264 202.311C451.697 202.311 452.115 202.354 452.518 202.439C452.92 202.525 453.283 202.648 453.607 202.809L453.209 203.652C452.936 203.527 452.635 203.42 452.307 203.33C451.982 203.236 451.631 203.189 451.252 203.189ZM460.305 204.578V211H459.508L459.367 210.098H459.314C459.182 210.32 459.01 210.508 458.799 210.66C458.588 210.812 458.35 210.926 458.084 211C457.822 211.078 457.543 211.117 457.246 211.117C456.738 211.117 456.312 211.035 455.969 210.871C455.625 210.707 455.365 210.453 455.189 210.109C455.018 209.766 454.932 209.324 454.932 208.785V204.578H455.916V208.715C455.916 209.25 456.037 209.65 456.279 209.916C456.521 210.178 456.891 210.309 457.387 210.309C457.863 210.309 458.242 210.219 458.523 210.039C458.809 209.859 459.014 209.596 459.139 209.248C459.264 208.896 459.326 208.467 459.326 207.959V204.578H460.305ZM466.516 209.242C466.516 209.652 466.412 209.998 466.205 210.279C466.002 210.557 465.709 210.766 465.326 210.906C464.947 211.047 464.494 211.117 463.967 211.117C463.518 211.117 463.129 211.082 462.801 211.012C462.473 210.941 462.186 210.842 461.939 210.713V209.816C462.201 209.945 462.514 210.062 462.877 210.168C463.24 210.273 463.611 210.326 463.99 210.326C464.545 210.326 464.947 210.236 465.197 210.057C465.447 209.877 465.572 209.633 465.572 209.324C465.572 209.148 465.521 208.994 465.42 208.861C465.322 208.725 465.156 208.594 464.922 208.469C464.688 208.34 464.363 208.199 463.949 208.047C463.539 207.891 463.184 207.736 462.883 207.584C462.586 207.428 462.355 207.238 462.191 207.016C462.031 206.793 461.951 206.504 461.951 206.148C461.951 205.605 462.17 205.189 462.607 204.9C463.049 204.607 463.627 204.461 464.342 204.461C464.729 204.461 465.09 204.5 465.426 204.578C465.766 204.652 466.082 204.754 466.375 204.883L466.047 205.662C465.781 205.549 465.498 205.453 465.197 205.375C464.896 205.297 464.59 205.258 464.277 205.258C463.828 205.258 463.482 205.332 463.24 205.48C463.002 205.629 462.883 205.832 462.883 206.09C462.883 206.289 462.938 206.453 463.047 206.582C463.16 206.711 463.34 206.832 463.586 206.945C463.832 207.059 464.156 207.191 464.559 207.344C464.961 207.492 465.309 207.646 465.602 207.807C465.895 207.963 466.119 208.154 466.275 208.381C466.436 208.604 466.516 208.891 466.516 209.242ZM470.154 210.32C470.314 210.32 470.479 210.307 470.646 210.279C470.814 210.252 470.951 210.219 471.057 210.18V210.936C470.943 210.986 470.785 211.029 470.582 211.064C470.383 211.1 470.188 211.117 469.996 211.117C469.656 211.117 469.348 211.059 469.07 210.941C468.793 210.82 468.57 210.617 468.402 210.332C468.238 210.047 468.156 209.652 468.156 209.148V205.34H467.242V204.865L468.162 204.484L468.549 203.09H469.135V204.578H471.016V205.34H469.135V209.119C469.135 209.521 469.227 209.822 469.41 210.021C469.598 210.221 469.846 210.32 470.154 210.32ZM477.895 207.777C477.895 208.305 477.826 208.775 477.689 209.189C477.553 209.604 477.355 209.953 477.098 210.238C476.84 210.523 476.527 210.742 476.16 210.895C475.797 211.043 475.385 211.117 474.924 211.117C474.494 211.117 474.1 211.043 473.74 210.895C473.385 210.742 473.076 210.523 472.814 210.238C472.557 209.953 472.355 209.604 472.211 209.189C472.07 208.775 472 208.305 472 207.777C472 207.074 472.119 206.477 472.357 205.984C472.596 205.488 472.936 205.111 473.377 204.854C473.822 204.592 474.352 204.461 474.965 204.461C475.551 204.461 476.062 204.592 476.5 204.854C476.941 205.115 477.283 205.494 477.525 205.99C477.771 206.482 477.895 207.078 477.895 207.777ZM473.008 207.777C473.008 208.293 473.076 208.74 473.213 209.119C473.35 209.498 473.561 209.791 473.846 209.998C474.131 210.205 474.498 210.309 474.947 210.309C475.393 210.309 475.758 210.205 476.043 209.998C476.332 209.791 476.545 209.498 476.682 209.119C476.818 208.74 476.887 208.293 476.887 207.777C476.887 207.266 476.818 206.824 476.682 206.453C476.545 206.078 476.334 205.789 476.049 205.586C475.764 205.383 475.395 205.281 474.941 205.281C474.273 205.281 473.783 205.502 473.471 205.943C473.162 206.385 473.008 206.996 473.008 207.777ZM486.549 204.461C487.256 204.461 487.789 204.646 488.148 205.018C488.508 205.385 488.688 205.977 488.688 206.793V211H487.727V206.84C487.727 206.32 487.613 205.932 487.387 205.674C487.164 205.412 486.832 205.281 486.391 205.281C485.77 205.281 485.318 205.461 485.037 205.82C484.756 206.18 484.615 206.709 484.615 207.408V211H483.648V206.84C483.648 206.492 483.598 206.203 483.496 205.973C483.398 205.742 483.25 205.57 483.051 205.457C482.855 205.34 482.607 205.281 482.307 205.281C481.881 205.281 481.539 205.369 481.281 205.545C481.023 205.721 480.836 205.982 480.719 206.33C480.605 206.674 480.549 207.098 480.549 207.602V211H479.576V204.578H480.361L480.508 205.486H480.561C480.689 205.264 480.852 205.076 481.047 204.924C481.242 204.771 481.461 204.656 481.703 204.578C481.945 204.5 482.203 204.461 482.477 204.461C482.965 204.461 483.373 204.553 483.701 204.736C484.033 204.916 484.273 205.191 484.422 205.562H484.475C484.686 205.191 484.975 204.916 485.342 204.736C485.709 204.553 486.111 204.461 486.549 204.461ZM491.658 204.578V211H490.686V204.578H491.658ZM491.184 202.176C491.344 202.176 491.48 202.229 491.594 202.334C491.711 202.436 491.77 202.596 491.77 202.814C491.77 203.029 491.711 203.189 491.594 203.295C491.48 203.4 491.344 203.453 491.184 203.453C491.016 203.453 490.875 203.4 490.762 203.295C490.652 203.189 490.598 203.029 490.598 202.814C490.598 202.596 490.652 202.436 490.762 202.334C490.875 202.229 491.016 202.176 491.184 202.176ZM497.846 211H493.164V210.355L496.686 205.34H493.387V204.578H497.77V205.299L494.295 210.244H497.846V211ZM501.748 204.473C502.514 204.473 503.082 204.645 503.453 204.988C503.824 205.332 504.01 205.881 504.01 206.635V211H503.301L503.113 210.051H503.066C502.887 210.285 502.699 210.482 502.504 210.643C502.309 210.799 502.082 210.918 501.824 211C501.57 211.078 501.258 211.117 500.887 211.117C500.496 211.117 500.148 211.049 499.844 210.912C499.543 210.775 499.305 210.568 499.129 210.291C498.957 210.014 498.871 209.662 498.871 209.236C498.871 208.596 499.125 208.104 499.633 207.76C500.141 207.416 500.914 207.229 501.953 207.197L503.061 207.15V206.758C503.061 206.203 502.941 205.814 502.703 205.592C502.465 205.369 502.129 205.258 501.695 205.258C501.359 205.258 501.039 205.307 500.734 205.404C500.43 205.502 500.141 205.617 499.867 205.75L499.568 205.012C499.857 204.863 500.189 204.736 500.564 204.631C500.939 204.525 501.334 204.473 501.748 204.473ZM503.049 207.836L502.07 207.877C501.27 207.908 500.705 208.039 500.377 208.27C500.049 208.5 499.885 208.826 499.885 209.248C499.885 209.615 499.996 209.887 500.219 210.062C500.441 210.238 500.736 210.326 501.104 210.326C501.674 210.326 502.141 210.168 502.504 209.852C502.867 209.535 503.049 209.061 503.049 208.428V207.836ZM508.088 210.32C508.248 210.32 508.412 210.307 508.58 210.279C508.748 210.252 508.885 210.219 508.99 210.18V210.936C508.877 210.986 508.719 211.029 508.516 211.064C508.316 211.1 508.121 211.117 507.93 211.117C507.59 211.117 507.281 211.059 507.004 210.941C506.727 210.82 506.504 210.617 506.336 210.332C506.172 210.047 506.09 209.652 506.09 209.148V205.34H505.176V204.865L506.096 204.484L506.482 203.09H507.068V204.578H508.949V205.34H507.068V209.119C507.068 209.521 507.16 209.822 507.344 210.021C507.531 210.221 507.779 210.32 508.088 210.32ZM511.264 204.578V211H510.291V204.578H511.264ZM510.789 202.176C510.949 202.176 511.086 202.229 511.199 202.334C511.316 202.436 511.375 202.596 511.375 202.814C511.375 203.029 511.316 203.189 511.199 203.295C511.086 203.4 510.949 203.453 510.789 203.453C510.621 203.453 510.48 203.4 510.367 203.295C510.258 203.189 510.203 203.029 510.203 202.814C510.203 202.596 510.258 202.436 510.367 202.334C510.48 202.229 510.621 202.176 510.789 202.176ZM518.863 207.777C518.863 208.305 518.795 208.775 518.658 209.189C518.521 209.604 518.324 209.953 518.066 210.238C517.809 210.523 517.496 210.742 517.129 210.895C516.766 211.043 516.354 211.117 515.893 211.117C515.463 211.117 515.068 211.043 514.709 210.895C514.354 210.742 514.045 210.523 513.783 210.238C513.525 209.953 513.324 209.604 513.18 209.189C513.039 208.775 512.969 208.305 512.969 207.777C512.969 207.074 513.088 206.477 513.326 205.984C513.564 205.488 513.904 205.111 514.346 204.854C514.791 204.592 515.32 204.461 515.934 204.461C516.52 204.461 517.031 204.592 517.469 204.854C517.91 205.115 518.252 205.494 518.494 205.99C518.74 206.482 518.863 207.078 518.863 207.777ZM513.977 207.777C513.977 208.293 514.045 208.74 514.182 209.119C514.318 209.498 514.529 209.791 514.814 209.998C515.1 210.205 515.467 210.309 515.916 210.309C516.361 210.309 516.727 210.205 517.012 209.998C517.301 209.791 517.514 209.498 517.65 209.119C517.787 208.74 517.855 208.293 517.855 207.777C517.855 207.266 517.787 206.824 517.65 206.453C517.514 206.078 517.303 205.789 517.018 205.586C516.732 205.383 516.363 205.281 515.91 205.281C515.242 205.281 514.752 205.502 514.439 205.943C514.131 206.385 513.977 206.996 513.977 207.777ZM523.586 204.461C524.348 204.461 524.924 204.648 525.314 205.023C525.705 205.395 525.9 205.992 525.9 206.816V211H524.939V206.881C524.939 206.346 524.816 205.945 524.57 205.68C524.328 205.414 523.955 205.281 523.451 205.281C522.74 205.281 522.24 205.482 521.951 205.885C521.662 206.287 521.518 206.871 521.518 207.637V211H520.545V204.578H521.33L521.477 205.504H521.529C521.666 205.277 521.84 205.088 522.051 204.936C522.262 204.779 522.498 204.662 522.76 204.584C523.021 204.502 523.297 204.461 523.586 204.461Z" fill="#B2E5FC"/>
<rect x="582" y="176" width="165" height="60" rx="4" stroke="#454C74"/>
<path d="M613.545 211L612.49 208.281H609.057L608.008 211H607L610.352 202.398H611.248L614.576 211H613.545ZM612.191 207.396L611.189 204.695C611.166 204.625 611.127 204.51 611.072 204.35C611.021 204.189 610.969 204.023 610.914 203.852C610.859 203.68 610.814 203.541 610.779 203.436C610.74 203.596 610.697 203.756 610.65 203.916C610.607 204.072 610.564 204.219 610.521 204.355C610.479 204.488 610.441 204.602 610.41 204.695L609.391 207.396H612.191ZM618.66 204.461C619.422 204.461 619.998 204.648 620.389 205.023C620.779 205.395 620.975 205.992 620.975 206.816V211H620.014V206.881C620.014 206.346 619.891 205.945 619.645 205.68C619.402 205.414 619.029 205.281 618.525 205.281C617.814 205.281 617.314 205.482 617.025 205.885C616.736 206.287 616.592 206.871 616.592 207.637V211H615.619V204.578H616.404L616.551 205.504H616.604C616.74 205.277 616.914 205.088 617.125 204.936C617.336 204.779 617.572 204.662 617.834 204.584C618.096 204.502 618.371 204.461 618.66 204.461ZM625.381 204.473C626.146 204.473 626.715 204.645 627.086 204.988C627.457 205.332 627.643 205.881 627.643 206.635V211H626.934L626.746 210.051H626.699C626.52 210.285 626.332 210.482 626.137 210.643C625.941 210.799 625.715 210.918 625.457 211C625.203 211.078 624.891 211.117 624.52 211.117C624.129 211.117 623.781 211.049 623.477 210.912C623.176 210.775 622.938 210.568 622.762 210.291C622.59 210.014 622.504 209.662 622.504 209.236C622.504 208.596 622.758 208.104 623.266 207.76C623.773 207.416 624.547 207.229 625.586 207.197L626.693 207.15V206.758C626.693 206.203 626.574 205.814 626.336 205.592C626.098 205.369 625.762 205.258 625.328 205.258C624.992 205.258 624.672 205.307 624.367 205.404C624.062 205.502 623.773 205.617 623.5 205.75L623.201 205.012C623.49 204.863 623.822 204.736 624.197 204.631C624.572 204.525 624.967 204.473 625.381 204.473ZM626.682 207.836L625.703 207.877C624.902 207.908 624.338 208.039 624.01 208.27C623.682 208.5 623.518 208.826 623.518 209.248C623.518 209.615 623.629 209.887 623.852 210.062C624.074 210.238 624.369 210.326 624.736 210.326C625.307 210.326 625.773 210.168 626.137 209.852C626.5 209.535 626.682 209.061 626.682 208.428V207.836ZM630.625 211H629.646V201.883H630.625V211ZM631.668 204.578H632.711L634.129 208.305C634.211 208.523 634.287 208.734 634.357 208.938C634.428 209.137 634.49 209.328 634.545 209.512C634.6 209.695 634.643 209.873 634.674 210.045H634.715C634.77 209.85 634.848 209.594 634.949 209.277C635.051 208.957 635.16 208.631 635.277 208.299L636.619 204.578H637.668L634.873 211.943C634.725 212.338 634.551 212.682 634.352 212.975C634.156 213.268 633.918 213.492 633.637 213.648C633.355 213.809 633.016 213.889 632.617 213.889C632.434 213.889 632.271 213.877 632.131 213.854C631.99 213.834 631.869 213.811 631.768 213.783V213.004C631.854 213.023 631.957 213.041 632.078 213.057C632.203 213.072 632.332 213.08 632.465 213.08C632.707 213.08 632.916 213.033 633.092 212.939C633.271 212.85 633.426 212.717 633.555 212.541C633.684 212.365 633.795 212.156 633.889 211.914L634.24 211.012L631.668 204.578ZM640.768 210.32C640.928 210.32 641.092 210.307 641.26 210.279C641.428 210.252 641.564 210.219 641.67 210.18V210.936C641.557 210.986 641.398 211.029 641.195 211.064C640.996 211.1 640.801 211.117 640.609 211.117C640.27 211.117 639.961 211.059 639.684 210.941C639.406 210.82 639.184 210.617 639.016 210.332C638.852 210.047 638.77 209.652 638.77 209.148V205.34H637.855V204.865L638.775 204.484L639.162 203.09H639.748V204.578H641.629V205.34H639.748V209.119C639.748 209.521 639.84 209.822 640.023 210.021C640.211 210.221 640.459 210.32 640.768 210.32ZM643.943 204.578V211H642.971V204.578H643.943ZM643.469 202.176C643.629 202.176 643.766 202.229 643.879 202.334C643.996 202.436 644.055 202.596 644.055 202.814C644.055 203.029 643.996 203.189 643.879 203.295C643.766 203.4 643.629 203.453 643.469 203.453C643.301 203.453 643.16 203.4 643.047 203.295C642.938 203.189 642.883 203.029 642.883 202.814C642.883 202.596 642.938 202.436 643.047 202.334C643.16 202.229 643.301 202.176 643.469 202.176ZM648.578 211.117C648 211.117 647.49 210.998 647.049 210.76C646.607 210.521 646.264 210.158 646.018 209.67C645.771 209.182 645.648 208.566 645.648 207.824C645.648 207.047 645.777 206.412 646.035 205.92C646.297 205.424 646.656 205.057 647.113 204.818C647.57 204.58 648.09 204.461 648.672 204.461C648.992 204.461 649.301 204.494 649.598 204.561C649.898 204.623 650.145 204.703 650.336 204.801L650.043 205.615C649.848 205.537 649.621 205.467 649.363 205.404C649.109 205.342 648.871 205.311 648.648 205.311C648.203 205.311 647.832 205.406 647.535 205.598C647.242 205.789 647.021 206.07 646.873 206.441C646.729 206.812 646.656 207.27 646.656 207.812C646.656 208.332 646.727 208.775 646.867 209.143C647.012 209.51 647.225 209.791 647.506 209.986C647.791 210.178 648.146 210.273 648.572 210.273C648.912 210.273 649.219 210.238 649.492 210.168C649.766 210.094 650.014 210.008 650.236 209.91V210.777C650.021 210.887 649.781 210.971 649.516 211.029C649.254 211.088 648.941 211.117 648.578 211.117ZM655.914 209.242C655.914 209.652 655.811 209.998 655.604 210.279C655.4 210.557 655.107 210.766 654.725 210.906C654.346 211.047 653.893 211.117 653.365 211.117C652.916 211.117 652.527 211.082 652.199 211.012C651.871 210.941 651.584 210.842 651.338 210.713V209.816C651.6 209.945 651.912 210.062 652.275 210.168C652.639 210.273 653.01 210.326 653.389 210.326C653.943 210.326 654.346 210.236 654.596 210.057C654.846 209.877 654.971 209.633 654.971 209.324C654.971 209.148 654.92 208.994 654.818 208.861C654.721 208.725 654.555 208.594 654.32 208.469C654.086 208.34 653.762 208.199 653.348 208.047C652.938 207.891 652.582 207.736 652.281 207.584C651.984 207.428 651.754 207.238 651.59 207.016C651.43 206.793 651.35 206.504 651.35 206.148C651.35 205.605 651.568 205.189 652.006 204.9C652.447 204.607 653.025 204.461 653.74 204.461C654.127 204.461 654.488 204.5 654.824 204.578C655.164 204.652 655.48 204.754 655.773 204.883L655.445 205.662C655.18 205.549 654.896 205.453 654.596 205.375C654.295 205.297 653.988 205.258 653.676 205.258C653.227 205.258 652.881 205.332 652.639 205.48C652.4 205.629 652.281 205.832 652.281 206.09C652.281 206.289 652.336 206.453 652.445 206.582C652.559 206.711 652.738 206.832 652.984 206.945C653.23 207.059 653.555 207.191 653.957 207.344C654.359 207.492 654.707 207.646 655 207.807C655.293 207.963 655.518 208.154 655.674 208.381C655.834 208.604 655.914 208.891 655.914 209.242ZM667.545 206.635C667.545 207.6 667.369 208.406 667.018 209.055C666.666 209.699 666.156 210.186 665.488 210.514C664.824 210.838 664.018 211 663.068 211H660.742V202.434H663.326C664.197 202.434 664.947 202.594 665.576 202.914C666.205 203.23 666.689 203.701 667.029 204.326C667.373 204.947 667.545 205.717 667.545 206.635ZM666.496 206.67C666.496 205.9 666.367 205.266 666.109 204.766C665.855 204.266 665.48 203.895 664.984 203.652C664.492 203.406 663.889 203.283 663.174 203.283H661.738V210.145H662.951C664.131 210.145 665.016 209.854 665.605 209.271C666.199 208.689 666.496 207.822 666.496 206.67ZM671.705 204.473C672.471 204.473 673.039 204.645 673.41 204.988C673.781 205.332 673.967 205.881 673.967 206.635V211H673.258L673.07 210.051H673.023C672.844 210.285 672.656 210.482 672.461 210.643C672.266 210.799 672.039 210.918 671.781 211C671.527 211.078 671.215 211.117 670.844 211.117C670.453 211.117 670.105 211.049 669.801 210.912C669.5 210.775 669.262 210.568 669.086 210.291C668.914 210.014 668.828 209.662 668.828 209.236C668.828 208.596 669.082 208.104 669.59 207.76C670.098 207.416 670.871 207.229 671.91 207.197L673.018 207.15V206.758C673.018 206.203 672.898 205.814 672.66 205.592C672.422 205.369 672.086 205.258 671.652 205.258C671.316 205.258 670.996 205.307 670.691 205.404C670.387 205.502 670.098 205.617 669.824 205.75L669.525 205.012C669.814 204.863 670.146 204.736 670.521 204.631C670.896 204.525 671.291 204.473 671.705 204.473ZM673.006 207.836L672.027 207.877C671.227 207.908 670.662 208.039 670.334 208.27C670.006 208.5 669.842 208.826 669.842 209.248C669.842 209.615 669.953 209.887 670.176 210.062C670.398 210.238 670.693 210.326 671.061 210.326C671.631 210.326 672.098 210.168 672.461 209.852C672.824 209.535 673.006 209.061 673.006 208.428V207.836ZM680.125 209.242C680.125 209.652 680.021 209.998 679.814 210.279C679.611 210.557 679.318 210.766 678.936 210.906C678.557 211.047 678.104 211.117 677.576 211.117C677.127 211.117 676.738 211.082 676.41 211.012C676.082 210.941 675.795 210.842 675.549 210.713V209.816C675.811 209.945 676.123 210.062 676.486 210.168C676.85 210.273 677.221 210.326 677.6 210.326C678.154 210.326 678.557 210.236 678.807 210.057C679.057 209.877 679.182 209.633 679.182 209.324C679.182 209.148 679.131 208.994 679.029 208.861C678.932 208.725 678.766 208.594 678.531 208.469C678.297 208.34 677.973 208.199 677.559 208.047C677.148 207.891 676.793 207.736 676.492 207.584C676.195 207.428 675.965 207.238 675.801 207.016C675.641 206.793 675.561 206.504 675.561 206.148C675.561 205.605 675.779 205.189 676.217 204.9C676.658 204.607 677.236 204.461 677.951 204.461C678.338 204.461 678.699 204.5 679.035 204.578C679.375 204.652 679.691 204.754 679.984 204.883L679.656 205.662C679.391 205.549 679.107 205.453 678.807 205.375C678.506 205.297 678.199 205.258 677.887 205.258C677.438 205.258 677.092 205.332 676.85 205.48C676.611 205.629 676.492 205.832 676.492 206.09C676.492 206.289 676.547 206.453 676.656 206.582C676.77 206.711 676.949 206.832 677.195 206.945C677.441 207.059 677.766 207.191 678.168 207.344C678.57 207.492 678.918 207.646 679.211 207.807C679.504 207.963 679.729 208.154 679.885 208.381C680.045 208.604 680.125 208.891 680.125 209.242ZM682.662 201.883V204.607C682.662 204.764 682.658 204.922 682.65 205.082C682.643 205.238 682.629 205.383 682.609 205.516H682.674C682.807 205.289 682.975 205.1 683.178 204.947C683.385 204.791 683.619 204.674 683.881 204.596C684.143 204.514 684.42 204.473 684.713 204.473C685.229 204.473 685.658 204.555 686.002 204.719C686.35 204.883 686.609 205.137 686.781 205.48C686.957 205.824 687.045 206.27 687.045 206.816V211H686.084V206.881C686.084 206.346 685.961 205.945 685.715 205.68C685.473 205.414 685.1 205.281 684.596 205.281C684.119 205.281 683.738 205.373 683.453 205.557C683.172 205.736 682.969 206.002 682.844 206.354C682.723 206.705 682.662 207.135 682.662 207.643V211H681.689V201.883H682.662ZM690.021 201.883V204.162C690.021 204.424 690.014 204.678 689.998 204.924C689.986 205.17 689.977 205.361 689.969 205.498H690.021C690.197 205.209 690.451 204.965 690.783 204.766C691.115 204.566 691.539 204.467 692.055 204.467C692.859 204.467 693.5 204.746 693.977 205.305C694.457 205.859 694.697 206.686 694.697 207.783C694.697 208.506 694.588 209.115 694.369 209.611C694.15 210.107 693.842 210.482 693.443 210.736C693.045 210.99 692.574 211.117 692.031 211.117C691.523 211.117 691.105 211.023 690.777 210.836C690.453 210.645 690.203 210.412 690.027 210.139H689.951L689.752 211H689.049V201.883H690.021ZM691.896 205.281C691.432 205.281 691.062 205.373 690.789 205.557C690.516 205.736 690.318 206.01 690.197 206.377C690.08 206.74 690.021 207.201 690.021 207.76V207.812C690.021 208.621 690.156 209.24 690.426 209.67C690.695 210.096 691.186 210.309 691.896 210.309C692.494 210.309 692.941 210.09 693.238 209.652C693.539 209.215 693.689 208.59 693.689 207.777C693.689 206.949 693.541 206.326 693.244 205.908C692.951 205.49 692.502 205.281 691.896 205.281ZM701.934 207.777C701.934 208.305 701.865 208.775 701.729 209.189C701.592 209.604 701.395 209.953 701.137 210.238C700.879 210.523 700.566 210.742 700.199 210.895C699.836 211.043 699.424 211.117 698.963 211.117C698.533 211.117 698.139 211.043 697.779 210.895C697.424 210.742 697.115 210.523 696.854 210.238C696.596 209.953 696.395 209.604 696.25 209.189C696.109 208.775 696.039 208.305 696.039 207.777C696.039 207.074 696.158 206.477 696.396 205.984C696.635 205.488 696.975 205.111 697.416 204.854C697.861 204.592 698.391 204.461 699.004 204.461C699.59 204.461 700.102 204.592 700.539 204.854C700.98 205.115 701.322 205.494 701.564 205.99C701.811 206.482 701.934 207.078 701.934 207.777ZM697.047 207.777C697.047 208.293 697.115 208.74 697.252 209.119C697.389 209.498 697.6 209.791 697.885 209.998C698.17 210.205 698.537 210.309 698.986 210.309C699.432 210.309 699.797 210.205 700.082 209.998C700.371 209.791 700.584 209.498 700.721 209.119C700.857 208.74 700.926 208.293 700.926 207.777C700.926 207.266 700.857 206.824 700.721 206.453C700.584 206.078 700.373 205.789 700.088 205.586C699.803 205.383 699.434 205.281 698.98 205.281C698.312 205.281 697.822 205.502 697.51 205.943C697.201 206.385 697.047 206.996 697.047 207.777ZM706.018 204.473C706.783 204.473 707.352 204.645 707.723 204.988C708.094 205.332 708.279 205.881 708.279 206.635V211H707.57L707.383 210.051H707.336C707.156 210.285 706.969 210.482 706.773 210.643C706.578 210.799 706.352 210.918 706.094 211C705.84 211.078 705.527 211.117 705.156 211.117C704.766 211.117 704.418 211.049 704.113 210.912C703.812 210.775 703.574 210.568 703.398 210.291C703.227 210.014 703.141 209.662 703.141 209.236C703.141 208.596 703.395 208.104 703.902 207.76C704.41 207.416 705.184 207.229 706.223 207.197L707.33 207.15V206.758C707.33 206.203 707.211 205.814 706.973 205.592C706.734 205.369 706.398 205.258 705.965 205.258C705.629 205.258 705.309 205.307 705.004 205.404C704.699 205.502 704.41 205.617 704.137 205.75L703.838 205.012C704.127 204.863 704.459 204.736 704.834 204.631C705.209 204.525 705.604 204.473 706.018 204.473ZM707.318 207.836L706.34 207.877C705.539 207.908 704.975 208.039 704.646 208.27C704.318 208.5 704.154 208.826 704.154 209.248C704.154 209.615 704.266 209.887 704.488 210.062C704.711 210.238 705.006 210.326 705.373 210.326C705.943 210.326 706.41 210.168 706.773 209.852C707.137 209.535 707.318 209.061 707.318 208.428V207.836ZM713.201 204.461C713.33 204.461 713.465 204.469 713.605 204.484C713.746 204.496 713.871 204.514 713.98 204.537L713.857 205.439C713.752 205.412 713.635 205.391 713.506 205.375C713.377 205.359 713.256 205.352 713.143 205.352C712.885 205.352 712.641 205.404 712.41 205.51C712.184 205.611 711.984 205.76 711.812 205.955C711.641 206.146 711.506 206.379 711.408 206.652C711.311 206.922 711.262 207.223 711.262 207.555V211H710.283V204.578H711.092L711.197 205.762H711.238C711.371 205.523 711.531 205.307 711.719 205.111C711.906 204.912 712.123 204.754 712.369 204.637C712.619 204.52 712.896 204.461 713.201 204.461ZM717.479 211.117C716.666 211.117 716.021 210.84 715.545 210.285C715.072 209.73 714.836 208.906 714.836 207.812C714.836 206.707 715.078 205.873 715.562 205.311C716.047 204.744 716.691 204.461 717.496 204.461C717.836 204.461 718.133 204.506 718.387 204.596C718.641 204.686 718.859 204.807 719.043 204.959C719.227 205.107 719.381 205.277 719.506 205.469H719.576C719.561 205.348 719.545 205.182 719.529 204.971C719.514 204.76 719.506 204.588 719.506 204.455V201.883H720.479V211H719.693L719.547 210.086H719.506C719.385 210.277 719.23 210.451 719.043 210.607C718.859 210.764 718.639 210.889 718.381 210.982C718.127 211.072 717.826 211.117 717.479 211.117ZM717.631 210.309C718.318 210.309 718.805 210.113 719.09 209.723C719.375 209.332 719.518 208.752 719.518 207.982V207.807C719.518 206.99 719.381 206.363 719.107 205.926C718.838 205.488 718.346 205.27 717.631 205.27C717.033 205.27 716.586 205.5 716.289 205.961C715.992 206.418 715.844 207.043 715.844 207.836C715.844 208.625 715.99 209.234 716.283 209.664C716.58 210.094 717.029 210.309 717.631 210.309Z" fill="#B2E5FC"/>
<rect x="774" y="176" width="165" height="60" rx="4" stroke="#454C74"/>
<path d="M840.006 208.721C840.006 209.229 839.879 209.662 839.625 210.021C839.375 210.377 839.023 210.648 838.57 210.836C838.117 211.023 837.584 211.117 836.971 211.117C836.646 211.117 836.34 211.102 836.051 211.07C835.762 211.039 835.496 210.994 835.254 210.936C835.012 210.877 834.799 210.805 834.615 210.719V209.764C834.908 209.885 835.266 209.998 835.688 210.104C836.109 210.205 836.551 210.256 837.012 210.256C837.441 210.256 837.805 210.199 838.102 210.086C838.398 209.969 838.623 209.803 838.775 209.588C838.932 209.369 839.01 209.107 839.01 208.803C839.01 208.51 838.945 208.266 838.816 208.07C838.688 207.871 838.473 207.691 838.172 207.531C837.875 207.367 837.469 207.193 836.953 207.01C836.59 206.881 836.27 206.74 835.992 206.588C835.715 206.432 835.482 206.256 835.295 206.061C835.107 205.865 834.965 205.639 834.867 205.381C834.773 205.123 834.727 204.828 834.727 204.496C834.727 204.039 834.842 203.648 835.072 203.324C835.307 202.996 835.629 202.746 836.039 202.574C836.453 202.398 836.928 202.311 837.463 202.311C837.92 202.311 838.342 202.354 838.729 202.439C839.119 202.525 839.477 202.641 839.801 202.785L839.49 203.641C839.182 203.512 838.854 203.404 838.506 203.318C838.162 203.232 837.807 203.189 837.439 203.189C837.072 203.189 836.762 203.244 836.508 203.354C836.258 203.459 836.066 203.609 835.934 203.805C835.801 204 835.734 204.232 835.734 204.502C835.734 204.803 835.797 205.053 835.922 205.252C836.051 205.451 836.254 205.629 836.531 205.785C836.812 205.938 837.184 206.098 837.645 206.266C838.148 206.449 838.576 206.645 838.928 206.852C839.279 207.055 839.547 207.305 839.73 207.602C839.914 207.895 840.006 208.268 840.006 208.721ZM844.084 204.461C844.631 204.461 845.1 204.582 845.49 204.824C845.881 205.066 846.18 205.406 846.387 205.844C846.594 206.277 846.697 206.785 846.697 207.367V207.971H842.262C842.273 208.725 842.461 209.299 842.824 209.693C843.188 210.088 843.699 210.285 844.359 210.285C844.766 210.285 845.125 210.248 845.438 210.174C845.75 210.1 846.074 209.99 846.41 209.846V210.701C846.086 210.846 845.764 210.951 845.443 211.018C845.127 211.084 844.752 211.117 844.318 211.117C843.701 211.117 843.162 210.992 842.701 210.742C842.244 210.488 841.889 210.117 841.635 209.629C841.381 209.141 841.254 208.543 841.254 207.836C841.254 207.145 841.369 206.547 841.6 206.043C841.834 205.535 842.162 205.145 842.584 204.871C843.01 204.598 843.51 204.461 844.084 204.461ZM844.072 205.258C843.553 205.258 843.139 205.428 842.83 205.768C842.521 206.107 842.338 206.582 842.279 207.191H845.678C845.674 206.809 845.613 206.473 845.496 206.184C845.383 205.891 845.209 205.664 844.975 205.504C844.74 205.34 844.439 205.258 844.072 205.258ZM850.922 211.117C850.344 211.117 849.834 210.998 849.393 210.76C848.951 210.521 848.607 210.158 848.361 209.67C848.115 209.182 847.992 208.566 847.992 207.824C847.992 207.047 848.121 206.412 848.379 205.92C848.641 205.424 849 205.057 849.457 204.818C849.914 204.58 850.434 204.461 851.016 204.461C851.336 204.461 851.645 204.494 851.941 204.561C852.242 204.623 852.488 204.703 852.68 204.801L852.387 205.615C852.191 205.537 851.965 205.467 851.707 205.404C851.453 205.342 851.215 205.311 850.992 205.311C850.547 205.311 850.176 205.406 849.879 205.598C849.586 205.789 849.365 206.07 849.217 206.441C849.072 206.812 849 207.27 849 207.812C849 208.332 849.07 208.775 849.211 209.143C849.355 209.51 849.568 209.791 849.85 209.986C850.135 210.178 850.49 210.273 850.916 210.273C851.256 210.273 851.562 210.238 851.836 210.168C852.109 210.094 852.357 210.008 852.58 209.91V210.777C852.365 210.887 852.125 210.971 851.859 211.029C851.598 211.088 851.285 211.117 850.922 211.117ZM859.406 204.578V211H858.609L858.469 210.098H858.416C858.283 210.32 858.111 210.508 857.9 210.66C857.689 210.812 857.451 210.926 857.186 211C856.924 211.078 856.645 211.117 856.348 211.117C855.84 211.117 855.414 211.035 855.07 210.871C854.727 210.707 854.467 210.453 854.291 210.109C854.119 209.766 854.033 209.324 854.033 208.785V204.578H855.018V208.715C855.018 209.25 855.139 209.65 855.381 209.916C855.623 210.178 855.992 210.309 856.488 210.309C856.965 210.309 857.344 210.219 857.625 210.039C857.91 209.859 858.115 209.596 858.24 209.248C858.365 208.896 858.428 208.467 858.428 207.959V204.578H859.406ZM864.381 204.461C864.51 204.461 864.645 204.469 864.785 204.484C864.926 204.496 865.051 204.514 865.16 204.537L865.037 205.439C864.932 205.412 864.814 205.391 864.686 205.375C864.557 205.359 864.436 205.352 864.322 205.352C864.064 205.352 863.82 205.404 863.59 205.51C863.363 205.611 863.164 205.76 862.992 205.955C862.82 206.146 862.686 206.379 862.588 206.652C862.49 206.922 862.441 207.223 862.441 207.555V211H861.463V204.578H862.271L862.377 205.762H862.418C862.551 205.523 862.711 205.307 862.898 205.111C863.086 204.912 863.303 204.754 863.549 204.637C863.799 204.52 864.076 204.461 864.381 204.461ZM867.346 204.578V211H866.373V204.578H867.346ZM866.871 202.176C867.031 202.176 867.168 202.229 867.281 202.334C867.398 202.436 867.457 202.596 867.457 202.814C867.457 203.029 867.398 203.189 867.281 203.295C867.168 203.4 867.031 203.453 866.871 203.453C866.703 203.453 866.562 203.4 866.449 203.295C866.34 203.189 866.285 203.029 866.285 202.814C866.285 202.596 866.34 202.436 866.449 202.334C866.562 202.229 866.703 202.176 866.871 202.176ZM871.482 210.32C871.643 210.32 871.807 210.307 871.975 210.279C872.143 210.252 872.279 210.219 872.385 210.18V210.936C872.271 210.986 872.113 211.029 871.91 211.064C871.711 211.1 871.516 211.117 871.324 211.117C870.984 211.117 870.676 211.059 870.398 210.941C870.121 210.82 869.898 210.617 869.73 210.332C869.566 210.047 869.484 209.652 869.484 209.148V205.34H868.57V204.865L869.49 204.484L869.877 203.09H870.463V204.578H872.344V205.34H870.463V209.119C870.463 209.521 870.555 209.822 870.738 210.021C870.926 210.221 871.174 210.32 871.482 210.32ZM872.672 204.578H873.715L875.133 208.305C875.215 208.523 875.291 208.734 875.361 208.938C875.432 209.137 875.494 209.328 875.549 209.512C875.604 209.695 875.646 209.873 875.678 210.045H875.719C875.773 209.85 875.852 209.594 875.953 209.277C876.055 208.957 876.164 208.631 876.281 208.299L877.623 204.578H878.672L875.877 211.943C875.729 212.338 875.555 212.682 875.355 212.975C875.16 213.268 874.922 213.492 874.641 213.648C874.359 213.809 874.02 213.889 873.621 213.889C873.438 213.889 873.275 213.877 873.135 213.854C872.994 213.834 872.873 213.811 872.771 213.783V213.004C872.857 213.023 872.961 213.041 873.082 213.057C873.207 213.072 873.336 213.08 873.469 213.08C873.711 213.08 873.92 213.033 874.096 212.939C874.275 212.85 874.43 212.717 874.559 212.541C874.688 212.365 874.799 212.156 874.893 211.914L875.244 211.012L872.672 204.578Z" fill="#B2E5FC"/>
<defs>
<filter id="filter0_d_5276_9075" x="184.958" y="27.6648" width="67.516" height="37.9984" filterUnits="userSpaceOnUse" color-interpolation-filters="sRGB">
<feFlood flood-opacity="0" result="BackgroundImageFix"/>
<feColorMatrix in="SourceAlpha" type="matrix" values="0 0 0 0 0 0 0 0 0 0 0 0 0 0 0 0 0 0 127 0" result="hardAlpha"/>
<feOffset dx="3" dy="1"/>
<feGaussianBlur stdDeviation="6.15"/>
<feComposite in2="hardAlpha" operator="out"/>
<feColorMatrix type="matrix" values="0 0 0 0 0.3924 0 0 0 0 0.0200002 0 0 0 0 1 0 0 0 1 0"/>
<feBlend mode="normal" in2="BackgroundImageFix" result="effect1_dropShadow_5276_9075"/>
<feBlend mode="normal" in="SourceGraphic" in2="effect1_dropShadow_5276_9075" result="shape"/>
</filter>
<filter id="filter1_d_5276_9075" x="415.027" y="27.0633" width="120.802" height="35.3734" filterUnits="userSpaceOnUse" color-interpolation-filters="sRGB">
<feFlood flood-opacity="0" result="BackgroundImageFix"/>
<feColorMatrix in="SourceAlpha" type="matrix" values="0 0 0 0 0 0 0 0 0 0 0 0 0 0 0 0 0 0 127 0" result="hardAlpha"/>
<feOffset dx="3" dy="1"/>
<feGaussianBlur stdDeviation="6.15"/>
<feComposite in2="hardAlpha" operator="out"/>
<feColorMatrix type="matrix" values="0 0 0 0 0.3924 0 0 0 0 0.0200002 0 0 0 0 1 0 0 0 1 0"/>
<feBlend mode="normal" in2="BackgroundImageFix" result="effect1_dropShadow_5276_9075"/>
<feBlend mode="normal" in="SourceGraphic" in2="effect1_dropShadow_5276_9075" result="shape"/>
</filter>
<filter id="filter2_d_5276_9075" x="688.7" y="27.6648" width="86.7113" height="37.9984" filterUnits="userSpaceOnUse" color-interpolation-filters="sRGB">
<feFlood flood-opacity="0" result="BackgroundImageFix"/>
<feColorMatrix in="SourceAlpha" type="matrix" values="0 0 0 0 0 0 0 0 0 0 0 0 0 0 0 0 0 0 127 0" result="hardAlpha"/>
<feOffset dx="3" dy="1"/>
<feGaussianBlur stdDeviation="6.15"/>
<feComposite in2="hardAlpha" operator="out"/>
<feColorMatrix type="matrix" values="0 0 0 0 0.3924 0 0 0 0 0.0200002 0 0 0 0 1 0 0 0 1 0"/>
<feBlend mode="normal" in2="BackgroundImageFix" result="effect1_dropShadow_5276_9075"/>
<feBlend mode="normal" in="SourceGraphic" in2="effect1_dropShadow_5276_9075" result="shape"/>
</filter>
</defs>
</svg>
