<svg width="122" height="78" viewBox="0 0 122 78" fill="none" xmlns="http://www.w3.org/2000/svg">
<path d="M121.748 31.04C122.114 52.7328 104.384 68.8213 89.8525 67.5987C89.8525 67.5987 89.849 67.5987 89.8419 67.5987C81.7699 67.3174 74.4881 63.8552 69.1581 58.4022C66.5699 55.7569 64.9152 51.0991 62.7408 50.6014C60.8156 50.1632 60.264 51.6996 57.1243 56.1085C52.4307 62.6975 46.0983 69.9411 35.3798 70.8823C25.8759 71.7154 20.5299 67.9286 17.1515 65.6944C10.1296 61.0421 7.35059 51.467 7.35059 42.2597C7.35059 34.1397 11.429 24.1264 16.4515 18.6139C16.4515 18.6085 20.8057 13.2097 27.0692 10.3533C33.5024 7.4213 38.9067 6.75591 40.9008 6.51788C49.8214 5.46299 56.8379 4.61908 64.072 3.74271C73.8835 2.55799 84.5808 1 91.3057 1C108.192 1 121.456 13.821 121.748 31.04Z" fill="url(#paint0_linear_5365_9186)"/>
<g filter="url(#filter0_i_5365_9186)">
<path d="M116.925 30.0082C117.286 50.956 99.8222 66.4918 85.5088 65.3112C85.5088 65.3112 85.5053 65.3112 85.4983 65.3112C77.5476 65.0396 70.3752 61.6963 65.1252 56.4306C62.5759 53.8761 60.9461 49.3784 58.8043 48.8978C56.908 48.4746 56.3647 49.9582 53.2722 54.2157C48.6491 60.5784 42.4118 67.5731 31.8543 68.4821C22.4931 69.2866 17.2274 65.6298 13.8998 63.4724C6.98341 58.9798 4.24609 49.7336 4.24609 40.8425C4.24609 33.0015 8.26326 23.3321 13.2103 18.009C13.2103 18.0037 17.4991 12.7903 23.6685 10.0321C30.005 7.20075 35.3282 6.55821 37.2924 6.32836C46.0789 5.3097 46.8027 7.18013 54.3953 6.74627C61.7088 6.32836 73.4625 1 86.9401 1C103.573 1 116.638 13.3806 116.925 30.0082Z" fill="url(#paint1_linear_5365_9186)"/>
</g>
<g filter="url(#filter1_di_5365_9186)">
<path d="M49.0839 36.0371C48.1645 47.8639 39.007 58.249 28.9667 58.1341C19.1929 58.0192 13.6085 47.9371 16.0481 36.6221C18.2787 26.2841 26.5794 18.255 34.9324 17.905C43.2854 17.555 49.9197 25.2811 49.0839 36.0423V36.0371Z" fill="url(#paint2_linear_5365_9186)"/>
</g>
<g filter="url(#filter2_di_5365_9186)">
<path d="M106.578 31.8262C105.444 44.0344 95.5921 54.4456 84.648 54.3307C73.7145 54.2157 66.8973 43.6426 69.2637 31.471C71.4839 20.0568 81.0697 11.3799 90.8018 11.4635C100.544 11.5471 107.638 20.3859 106.578 31.8314V31.8262Z" fill="url(#paint3_linear_5365_9186)"/>
</g>
<g filter="url(#filter3_bdi_5365_9186)">
<path d="M93.2876 22.9181C93.0577 25.8017 90.7801 28.1472 88.2048 28.1524C85.6451 28.1524 83.7697 25.8435 83.9995 22.986C84.2294 20.1338 86.4809 17.7987 89.0353 17.7621C91.5898 17.7256 93.5122 20.0345 93.2876 22.9181Z" fill="url(#paint4_linear_5365_9186)"/>
</g>
<g filter="url(#filter4_bdi_5365_9186)">
<path d="M83.6084 34.2228C83.3734 37.0907 81.1271 39.3996 78.5987 39.3787C76.0704 39.3578 74.2472 37.028 74.4823 34.1862C74.7174 31.3444 76.9375 29.0459 79.445 29.0459C81.9525 29.0459 83.8383 31.3653 83.6032 34.228L83.6084 34.2228Z" fill="url(#paint5_linear_5365_9186)"/>
</g>
<g filter="url(#filter5_bdi_5365_9186)">
<path d="M101.364 32.4675C101.139 35.3876 98.82 37.7436 96.1976 37.7227C93.5752 37.7018 91.6737 35.3354 91.9036 32.4466C92.1334 29.5578 94.4163 27.2123 97.023 27.207C99.6402 27.2018 101.589 29.5578 101.364 32.4727V32.4675Z" fill="url(#paint6_linear_5365_9186)"/>
</g>
<g filter="url(#filter6_bdi_5365_9186)">
<path d="M91.8669 43.761C91.637 46.6655 89.3542 48.9849 86.7788 48.9327C84.2034 48.8804 82.349 46.5036 82.5788 43.6252C82.8139 40.7521 85.0654 38.4431 87.6199 38.464C90.1743 38.4849 92.0967 40.8565 91.8617 43.7558L91.8669 43.761Z" fill="url(#paint7_linear_5365_9186)"/>
</g>
<g filter="url(#filter7_bdi_5365_9186)">
<path fill-rule="evenodd" clip-rule="evenodd" d="M29.4158 53.1352L32.5658 53.0255L32.571 53.0203C34.2844 52.9576 35.7941 51.38 35.9352 49.5046L36.4289 42.9879L41.4776 42.7344V42.7396C43.1911 42.6508 44.6747 41.0941 44.7791 39.2605L44.9881 35.6978C45.0926 33.8956 43.8023 32.5217 42.115 32.6209L37.1923 32.9099L37.659 26.7494C37.7896 25.0099 36.562 23.6882 34.9165 23.7875L31.8971 23.9703C30.2673 24.0696 28.8255 25.5427 28.6687 27.2718L28.1152 33.4426L23.2463 33.7284C21.6112 33.8224 20.159 35.3269 19.9866 37.0926L19.6523 40.5874C19.4799 42.3844 20.6761 43.7792 22.3321 43.6956L27.2174 43.4503L26.6419 49.8651C26.4747 51.73 27.7128 53.1979 29.4158 53.1352Z" fill="url(#paint8_linear_5365_9186)"/>
</g>
<defs>
<filter id="filter0_i_5365_9186" x="4.24609" y="1" width="112.685" height="71.5957" filterUnits="userSpaceOnUse" color-interpolation-filters="sRGB">
<feFlood flood-opacity="0" result="BackgroundImageFix"/>
<feBlend mode="normal" in="SourceGraphic" in2="BackgroundImageFix" result="shape"/>
<feColorMatrix in="SourceAlpha" type="matrix" values="0 0 0 0 0 0 0 0 0 0 0 0 0 0 0 0 0 0 127 0" result="hardAlpha"/>
<feOffset dy="4"/>
<feGaussianBlur stdDeviation="10"/>
<feComposite in2="hardAlpha" operator="arithmetic" k2="-1" k3="1"/>
<feColorMatrix type="matrix" values="0 0 0 0 1 0 0 0 0 1 0 0 0 0 1 0 0 0 0.25 0"/>
<feBlend mode="plus-lighter" in2="shape" result="effect1_innerShadow_5365_9186"/>
</filter>
<filter id="filter1_di_5365_9186" x="0.477539" y="6.89355" width="63.6777" height="70.2412" filterUnits="userSpaceOnUse" color-interpolation-filters="sRGB">
<feFlood flood-opacity="0" result="BackgroundImageFix"/>
<feColorMatrix in="SourceAlpha" type="matrix" values="0 0 0 0 0 0 0 0 0 0 0 0 0 0 0 0 0 0 127 0" result="hardAlpha"/>
<feOffset dy="4"/>
<feGaussianBlur stdDeviation="7.5"/>
<feComposite in2="hardAlpha" operator="out"/>
<feColorMatrix type="matrix" values="0 0 0 0 1 0 0 0 0 1 0 0 0 0 1 0 0 0 0.25 0"/>
<feBlend mode="overlay" in2="BackgroundImageFix" result="effect1_dropShadow_5365_9186"/>
<feBlend mode="normal" in="SourceGraphic" in2="effect1_dropShadow_5365_9186" result="shape"/>
<feColorMatrix in="SourceAlpha" type="matrix" values="0 0 0 0 0 0 0 0 0 0 0 0 0 0 0 0 0 0 127 0" result="hardAlpha"/>
<feOffset dy="4"/>
<feGaussianBlur stdDeviation="2.5"/>
<feComposite in2="hardAlpha" operator="arithmetic" k2="-1" k3="1"/>
<feColorMatrix type="matrix" values="0 0 0 0 0 0 0 0 0 0 0 0 0 0 0 0 0 0 0.1 0"/>
<feBlend mode="plus-darker" in2="shape" result="effect2_innerShadow_5365_9186"/>
</filter>
<filter id="filter2_di_5365_9186" x="53.7949" y="0.462891" width="67.8877" height="72.8691" filterUnits="userSpaceOnUse" color-interpolation-filters="sRGB">
<feFlood flood-opacity="0" result="BackgroundImageFix"/>
<feColorMatrix in="SourceAlpha" type="matrix" values="0 0 0 0 0 0 0 0 0 0 0 0 0 0 0 0 0 0 127 0" result="hardAlpha"/>
<feOffset dy="4"/>
<feGaussianBlur stdDeviation="7.5"/>
<feComposite in2="hardAlpha" operator="out"/>
<feColorMatrix type="matrix" values="0 0 0 0 1 0 0 0 0 1 0 0 0 0 1 0 0 0 0.25 0"/>
<feBlend mode="overlay" in2="BackgroundImageFix" result="effect1_dropShadow_5365_9186"/>
<feBlend mode="normal" in="SourceGraphic" in2="effect1_dropShadow_5365_9186" result="shape"/>
<feColorMatrix in="SourceAlpha" type="matrix" values="0 0 0 0 0 0 0 0 0 0 0 0 0 0 0 0 0 0 127 0" result="hardAlpha"/>
<feOffset dy="4"/>
<feGaussianBlur stdDeviation="2.5"/>
<feComposite in2="hardAlpha" operator="arithmetic" k2="-1" k3="1"/>
<feColorMatrix type="matrix" values="0 0 0 0 0 0 0 0 0 0 0 0 0 0 0 0 0 0 0.1 0"/>
<feBlend mode="plus-darker" in2="shape" result="effect2_innerShadow_5365_9186"/>
</filter>
<filter id="filter3_bdi_5365_9186" x="78.9805" y="11.9617" width="19.3252" height="21.1906" filterUnits="userSpaceOnUse" color-interpolation-filters="sRGB">
<feFlood flood-opacity="0" result="BackgroundImageFix"/>
<feGaussianBlur in="BackgroundImageFix" stdDeviation="2.5"/>
<feComposite in2="SourceAlpha" operator="in" result="effect1_backgroundBlur_5365_9186"/>
<feColorMatrix in="SourceAlpha" type="matrix" values="0 0 0 0 0 0 0 0 0 0 0 0 0 0 0 0 0 0 127 0" result="hardAlpha"/>
<feOffset dy="-1"/>
<feGaussianBlur stdDeviation="2.4"/>
<feComposite in2="hardAlpha" operator="out"/>
<feColorMatrix type="matrix" values="0 0 0 0 0.48 0 0 0 0 1 0 0 0 0 1 0 0 0 0.25 0"/>
<feBlend mode="color-dodge" in2="effect1_backgroundBlur_5365_9186" result="effect2_dropShadow_5365_9186"/>
<feBlend mode="normal" in="SourceGraphic" in2="effect2_dropShadow_5365_9186" result="shape"/>
<feColorMatrix in="SourceAlpha" type="matrix" values="0 0 0 0 0 0 0 0 0 0 0 0 0 0 0 0 0 0 127 0" result="hardAlpha"/>
<feOffset dy="-1"/>
<feGaussianBlur stdDeviation="2.55"/>
<feComposite in2="hardAlpha" operator="arithmetic" k2="-1" k3="1"/>
<feColorMatrix type="matrix" values="0 0 0 0 1 0 0 0 0 1 0 0 0 0 1 0 0 0 0.5 0"/>
<feBlend mode="normal" in2="shape" result="effect3_innerShadow_5365_9186"/>
</filter>
<filter id="filter4_bdi_5365_9186" x="69.4619" y="23.2459" width="19.1611" height="21.133" filterUnits="userSpaceOnUse" color-interpolation-filters="sRGB">
<feFlood flood-opacity="0" result="BackgroundImageFix"/>
<feGaussianBlur in="BackgroundImageFix" stdDeviation="2.5"/>
<feComposite in2="SourceAlpha" operator="in" result="effect1_backgroundBlur_5365_9186"/>
<feColorMatrix in="SourceAlpha" type="matrix" values="0 0 0 0 0 0 0 0 0 0 0 0 0 0 0 0 0 0 127 0" result="hardAlpha"/>
<feOffset dy="-1"/>
<feGaussianBlur stdDeviation="2.4"/>
<feComposite in2="hardAlpha" operator="out"/>
<feColorMatrix type="matrix" values="0 0 0 0 0.48 0 0 0 0 1 0 0 0 0 1 0 0 0 0.25 0"/>
<feBlend mode="color-dodge" in2="effect1_backgroundBlur_5365_9186" result="effect2_dropShadow_5365_9186"/>
<feBlend mode="normal" in="SourceGraphic" in2="effect2_dropShadow_5365_9186" result="shape"/>
<feColorMatrix in="SourceAlpha" type="matrix" values="0 0 0 0 0 0 0 0 0 0 0 0 0 0 0 0 0 0 127 0" result="hardAlpha"/>
<feOffset dy="-1"/>
<feGaussianBlur stdDeviation="2.55"/>
<feComposite in2="hardAlpha" operator="arithmetic" k2="-1" k3="1"/>
<feColorMatrix type="matrix" values="0 0 0 0 1 0 0 0 0 1 0 0 0 0 1 0 0 0 0.5 0"/>
<feBlend mode="normal" in2="shape" result="effect3_innerShadow_5365_9186"/>
</filter>
<filter id="filter5_bdi_5365_9186" x="86.8848" y="21.407" width="19.4971" height="21.3156" filterUnits="userSpaceOnUse" color-interpolation-filters="sRGB">
<feFlood flood-opacity="0" result="BackgroundImageFix"/>
<feGaussianBlur in="BackgroundImageFix" stdDeviation="2.5"/>
<feComposite in2="SourceAlpha" operator="in" result="effect1_backgroundBlur_5365_9186"/>
<feColorMatrix in="SourceAlpha" type="matrix" values="0 0 0 0 0 0 0 0 0 0 0 0 0 0 0 0 0 0 127 0" result="hardAlpha"/>
<feOffset dy="-1"/>
<feGaussianBlur stdDeviation="2.4"/>
<feComposite in2="hardAlpha" operator="out"/>
<feColorMatrix type="matrix" values="0 0 0 0 0.48 0 0 0 0 1 0 0 0 0 1 0 0 0 0.25 0"/>
<feBlend mode="color-dodge" in2="effect1_backgroundBlur_5365_9186" result="effect2_dropShadow_5365_9186"/>
<feBlend mode="normal" in="SourceGraphic" in2="effect2_dropShadow_5365_9186" result="shape"/>
<feColorMatrix in="SourceAlpha" type="matrix" values="0 0 0 0 0 0 0 0 0 0 0 0 0 0 0 0 0 0 127 0" result="hardAlpha"/>
<feOffset dy="-1"/>
<feGaussianBlur stdDeviation="2.55"/>
<feComposite in2="hardAlpha" operator="arithmetic" k2="-1" k3="1"/>
<feColorMatrix type="matrix" values="0 0 0 0 1 0 0 0 0 1 0 0 0 0 1 0 0 0 0.5 0"/>
<feBlend mode="normal" in2="shape" result="effect3_innerShadow_5365_9186"/>
</filter>
<filter id="filter6_bdi_5365_9186" x="77.5596" y="32.6639" width="19.3213" height="21.2697" filterUnits="userSpaceOnUse" color-interpolation-filters="sRGB">
<feFlood flood-opacity="0" result="BackgroundImageFix"/>
<feGaussianBlur in="BackgroundImageFix" stdDeviation="2.5"/>
<feComposite in2="SourceAlpha" operator="in" result="effect1_backgroundBlur_5365_9186"/>
<feColorMatrix in="SourceAlpha" type="matrix" values="0 0 0 0 0 0 0 0 0 0 0 0 0 0 0 0 0 0 127 0" result="hardAlpha"/>
<feOffset dy="-1"/>
<feGaussianBlur stdDeviation="2.4"/>
<feComposite in2="hardAlpha" operator="out"/>
<feColorMatrix type="matrix" values="0 0 0 0 0.48 0 0 0 0 1 0 0 0 0 1 0 0 0 0.25 0"/>
<feBlend mode="color-dodge" in2="effect1_backgroundBlur_5365_9186" result="effect2_dropShadow_5365_9186"/>
<feBlend mode="normal" in="SourceGraphic" in2="effect2_dropShadow_5365_9186" result="shape"/>
<feColorMatrix in="SourceAlpha" type="matrix" values="0 0 0 0 0 0 0 0 0 0 0 0 0 0 0 0 0 0 127 0" result="hardAlpha"/>
<feOffset dy="-1"/>
<feGaussianBlur stdDeviation="2.55"/>
<feComposite in2="hardAlpha" operator="arithmetic" k2="-1" k3="1"/>
<feColorMatrix type="matrix" values="0 0 0 0 1 0 0 0 0 1 0 0 0 0 1 0 0 0 0.5 0"/>
<feBlend mode="normal" in2="shape" result="effect3_innerShadow_5365_9186"/>
</filter>
<filter id="filter7_bdi_5365_9186" x="14.6357" y="17.9822" width="35.3584" height="40.1545" filterUnits="userSpaceOnUse" color-interpolation-filters="sRGB">
<feFlood flood-opacity="0" result="BackgroundImageFix"/>
<feGaussianBlur in="BackgroundImageFix" stdDeviation="2.5"/>
<feComposite in2="SourceAlpha" operator="in" result="effect1_backgroundBlur_5365_9186"/>
<feColorMatrix in="SourceAlpha" type="matrix" values="0 0 0 0 0 0 0 0 0 0 0 0 0 0 0 0 0 0 127 0" result="hardAlpha"/>
<feOffset dy="-1"/>
<feGaussianBlur stdDeviation="2.4"/>
<feComposite in2="hardAlpha" operator="out"/>
<feColorMatrix type="matrix" values="0 0 0 0 0.48 0 0 0 0 1 0 0 0 0 1 0 0 0 0.25 0"/>
<feBlend mode="color-dodge" in2="effect1_backgroundBlur_5365_9186" result="effect2_dropShadow_5365_9186"/>
<feBlend mode="normal" in="SourceGraphic" in2="effect2_dropShadow_5365_9186" result="shape"/>
<feColorMatrix in="SourceAlpha" type="matrix" values="0 0 0 0 0 0 0 0 0 0 0 0 0 0 0 0 0 0 127 0" result="hardAlpha"/>
<feOffset dy="-1"/>
<feGaussianBlur stdDeviation="2.55"/>
<feComposite in2="hardAlpha" operator="arithmetic" k2="-1" k3="1"/>
<feColorMatrix type="matrix" values="0 0 0 0 1 0 0 0 0 1 0 0 0 0 1 0 0 0 0.5 0"/>
<feBlend mode="normal" in2="shape" result="effect3_innerShadow_5365_9186"/>
</filter>
<linearGradient id="paint0_linear_5365_9186" x1="156" y1="47.5" x2="48.1535" y2="89.2932" gradientUnits="userSpaceOnUse">
<stop stop-color="#D8F0FB"/>
<stop offset="0.333333" stop-color="#D4C4EE"/>
<stop offset="0.666667" stop-color="#F5E3F2"/>
<stop offset="1" stop-color="#E1B9DB"/>
</linearGradient>
<linearGradient id="paint1_linear_5365_9186" x1="131.709" y1="56.3731" x2="16.8564" y2="105.674" gradientUnits="userSpaceOnUse">
<stop stop-color="#D2F1FF"/>
<stop offset="0.333333" stop-color="#FDEAFF"/>
<stop offset="0.654" stop-color="#FFEEFC"/>
<stop offset="1" stop-color="white"/>
</linearGradient>
<linearGradient id="paint2_linear_5365_9186" x1="42" y1="71" x2="-3.39616" y2="48.943" gradientUnits="userSpaceOnUse">
<stop stop-color="#FFEDFC"/>
<stop offset="1" stop-color="#FFE0F5"/>
</linearGradient>
<linearGradient id="paint3_linear_5365_9186" x1="99" y1="58.5" x2="62.1984" y2="40.4367" gradientUnits="userSpaceOnUse">
<stop stop-color="#EBE4FE"/>
<stop offset="1" stop-color="#FFE5FB"/>
</linearGradient>
<linearGradient id="paint4_linear_5365_9186" x1="91.469" y1="24.0333" x2="86.4839" y2="25.2118" gradientUnits="userSpaceOnUse">
<stop stop-color="#D3A7FF"/>
<stop offset="1" stop-color="#FFA7F1"/>
</linearGradient>
<linearGradient id="paint5_linear_5365_9186" x1="81.8188" y1="35.2826" x2="76.9151" y2="36.4279" gradientUnits="userSpaceOnUse">
<stop stop-color="#D3A7FF"/>
<stop offset="1" stop-color="#FFA7F1"/>
</linearGradient>
<linearGradient id="paint6_linear_5365_9186" x1="99.5114" y1="33.5541" x2="94.4378" y2="34.7611" gradientUnits="userSpaceOnUse">
<stop stop-color="#D3A7FF"/>
<stop offset="1" stop-color="#FFA7F1"/>
</linearGradient>
<linearGradient id="paint7_linear_5365_9186" x1="90.0454" y1="44.783" x2="85.058" y2="45.9528" gradientUnits="userSpaceOnUse">
<stop stop-color="#D3A7FF"/>
<stop offset="1" stop-color="#FFA7F1"/>
</linearGradient>
<linearGradient id="paint8_linear_5365_9186" x1="40" y1="41.5" x2="26.3907" y2="44.597" gradientUnits="userSpaceOnUse">
<stop stop-color="#D3A7FF"/>
<stop offset="1" stop-color="#FFA7F1"/>
</linearGradient>
</defs>
</svg>
