<svg width="62" height="62" viewBox="0 0 62 62" fill="none" xmlns="http://www.w3.org/2000/svg">
<path d="M49.8307 22.8958C42.6728 19.0962 34.6125 17.1283 26.6152 19.9373C19.3967 22.4728 15.3553 28.5894 21.136 35.0845C23.8724 38.1591 29.1721 39.9755 32.9254 37.697C37.1069 35.1586 33.0366 30.2028 30.0398 28.9545C23.0405 26.0388 13.9329 28.6204 10.1346 36.0093C5.63644 44.7594 15.2455 47.9393 15.2443 47.872" stroke="#644CFF" stroke-width="2" stroke-miterlimit="1.5" stroke-linecap="round" stroke-linejoin="round"/>
<path d="M47.4103 14.1972C47.2643 15.0816 47.4998 15.929 47.6914 16.7867C48.3201 19.6031 49.8977 22.4353 52.3455 24.0805C49.2694 23.2174 44.9847 23.1337 42.5333 25.4276" stroke="#644CFF" stroke-width="2" stroke-miterlimit="1.5" stroke-linecap="round" stroke-linejoin="round"/>
</svg>
